<?xml version="1.0" encoding="utf-8"?>
<!-- Generator: Adobe Illustrator 24.0.1, SVG Export Plug-In . SVG Version: 6.00 Build 0)  -->
<svg version="1.1" id="Layer_1" xmlns="http://www.w3.org/2000/svg" xmlns:xlink="http://www.w3.org/1999/xlink" x="0px" y="0px"
	 viewBox="0 0 1049.6 260" style="enable-background:new 0 0 1049.6 260;" xml:space="preserve">
<style type="text/css">
	.st0{fill:#002936;}
	.st1{fill:url(#SVGID_1_);}
	.st2{fill:url(#SVGID_2_);}
	.st3{fill:url(#SVGID_3_);}
	.st4{fill:url(#SVGID_4_);}
	.st5{fill:url(#SVGID_5_);}
	.st6{fill:url(#SVGID_6_);}
	.st7{fill:url(#SVGID_7_);}
	.st8{fill:url(#SVGID_8_);}
	.st9{fill:url(#SVGID_9_);}
	.st10{fill:url(#SVGID_10_);}
	.st11{fill:url(#SVGID_11_);}
	.st12{fill:url(#SVGID_12_);}
	.st13{fill:url(#SVGID_13_);}
	.st14{fill:url(#SVGID_14_);}
	.st15{fill:url(#SVGID_15_);}
	.st16{fill:url(#SVGID_16_);}
	.st17{fill:url(#SVGID_17_);}
	.st18{fill:url(#SVGID_18_);}
	.st19{fill:url(#SVGID_19_);}
	.st20{fill:url(#SVGID_20_);}
	.st21{fill:url(#SVGID_21_);}
	.st22{fill:url(#SVGID_22_);}
	.st23{fill:url(#SVGID_23_);}
	.st24{fill:url(#SVGID_24_);}
	.st25{fill:url(#SVGID_25_);}
	.st26{fill:url(#SVGID_26_);}
	.st27{fill:url(#SVGID_27_);}
	.st28{fill:url(#SVGID_28_);}
	.st29{fill:url(#SVGID_29_);}
	.st30{fill:url(#SVGID_30_);}
	.st31{display:none;fill:#002936;}
</style>
<path class="st0" d="M986.7,164.3c-5.3,0-10.2-1.3-14.5-3.8c-4.3-2.5-7.8-6.1-10.3-10.7c-2.5-4.6-3.8-9.9-3.8-15.8
	c0-5.9,1.3-11.2,3.8-15.8c2.5-4.6,5.9-8.1,10.3-10.7c4.3-2.5,9.2-3.8,14.5-3.8c5.3,0,10.2,1.3,14.5,3.8c4.3,2.5,7.8,6.1,10.3,10.7
	c2.5,4.6,3.8,9.9,3.8,15.8c0,6-1.3,11.2-3.8,15.8c-2.5,4.6-6,8.1-10.3,10.7C996.9,163.1,992,164.3,986.7,164.3 M986.7,189.1
	c11.2,0,21.3-2.4,30.2-7.1c8.9-4.7,15.9-11.3,21-19.7c5.1-8.4,7.6-17.8,7.6-28.3c0-10.5-2.5-19.9-7.6-28.3
	c-5.1-8.4-12.1-14.9-21-19.7c-8.9-4.7-19-7.1-30.2-7.1c-11.2,0-21.3,2.4-30.2,7.1c-8.9,4.7-15.9,11.3-21,19.7
	c-5.1,8.4-7.6,17.8-7.6,28.3c0,10.5,2.5,19.9,7.6,28.3c5.1,8.4,12.1,14.9,21,19.7C965.4,186.8,975.5,189.1,986.7,189.1 M879.3,160.8
	c-5,2.3-10.4,3.5-16.2,3.5c-5.8,0-11-1.3-15.6-3.9c-4.5-2.6-8.1-6.1-10.6-10.7c-2.5-4.6-3.8-9.8-3.8-15.7c0-9.2,2.8-16.5,8.3-22
	c5.5-5.5,12.9-8.2,21.9-8.2c10,0,18.6,3.9,25.7,11.8l19.1-17.2c-5.2-6.3-11.8-11-19.7-14.4c-7.9-3.3-16.7-5-26.6-5
	c-11.3,0-21.4,2.3-30.4,7c-9,4.7-16,11.2-21,19.6c-5,8.4-7.6,17.9-7.6,28.4c0,10.6,2.5,20.1,7.6,28.4c5,8.4,12,14.9,20.9,19.6
	c8.9,4.7,18.9,7,30,7c7.9,0,15.7-1.2,23.6-3.5c7.9-2.3,14.8-5.6,20.9-10v-43.9h-26.5V160.8z M752.2,120.3c0,4.9-1.6,8.8-4.7,11.4
	c-3.1,2.7-7.8,4-13.9,4h-16.6v-31h16.6c6.1,0,10.8,1.4,13.9,4.1C750.6,111.5,752.2,115.4,752.2,120.3 M752.5,187h32.1l-22.8-33.3
	c6.7-3.2,11.8-7.7,15.4-13.4c3.6-5.7,5.4-12.4,5.4-20c0-8-1.9-14.9-5.7-20.8c-3.8-5.9-9.3-10.4-16.3-13.6c-7.1-3.2-15.4-4.8-25-4.8
	H687V187h30v-28.1h16.3L752.5,187z M607.9,189.1c15.7,0,28-4.3,36.7-12.9c8.7-8.6,13.1-20.7,13.1-36.5V81.1h-29.5v57.8
	c0,16.9-6.7,25.4-20,25.4c-13.4,0-20.1-8.5-20.1-25.4V81.1h-30v58.7c0,15.7,4.4,27.9,13.1,36.5C579.9,184.8,592.2,189.1,607.9,189.1
	 M528.8,187l0-105.9h-24.7l-36.3,61.1l-37.2-61.1H406V187h27.7v-54.6l27.1,44.2H474l27.2-45.7l0,56.1H528.8z M324.3,163.9v-19.4h47
	v-22.4h-47v-17.8h53.4V81.1h-83V187h85v-23.1H324.3z"/>
<g>
	<g>
		<g>
			
				<linearGradient id="SVGID_1_" gradientUnits="userSpaceOnUse" x1="22.5224" y1="213.777" x2="206.1585" y2="26.9255" gradientTransform="matrix(1 8.676384e-03 -8.675107e-03 1 -3.3102 -1.0364)">
				<stop  offset="0" style="stop-color:#FFD363"/>
				<stop  offset="1" style="stop-color:#FF1055"/>
			</linearGradient>
			<circle class="st1" cx="182.7" cy="47.6" r="23.9"/>
			
				<linearGradient id="SVGID_2_" gradientUnits="userSpaceOnUse" x1="68.5082" y1="259.7616" x2="252.1443" y2="72.9101" gradientTransform="matrix(1 8.676384e-03 -8.675107e-03 1 -3.3102 -1.0364)">
				<stop  offset="0" style="stop-color:#FFD363"/>
				<stop  offset="1" style="stop-color:#FF1055"/>
			</linearGradient>
			<circle class="st2" cx="221.5" cy="100.8" r="21.9"/>
			
				<linearGradient id="SVGID_3_" gradientUnits="userSpaceOnUse" x1="102.7303" y1="293.985" x2="286.3665" y2="107.1336" gradientTransform="matrix(1 8.676384e-03 -8.675107e-03 1 -3.3102 -1.0364)">
				<stop  offset="0" style="stop-color:#FFD363"/>
				<stop  offset="1" style="stop-color:#FF1055"/>
			</linearGradient>
			<circle class="st3" cx="221.5" cy="169.2" r="19.9"/>
			
				<linearGradient id="SVGID_4_" gradientUnits="userSpaceOnUse" x1="109.9049" y1="301.1628" x2="293.541" y2="114.3113" gradientTransform="matrix(1 8.676384e-03 -8.675107e-03 1 -3.3102 -1.0364)">
				<stop  offset="0" style="stop-color:#FFD363"/>
				<stop  offset="1" style="stop-color:#FF1055"/>
			</linearGradient>
			<circle class="st4" cx="182.7" cy="222.4" r="17.9"/>
			
				<linearGradient id="SVGID_5_" gradientUnits="userSpaceOnUse" x1="88.3763" y1="279.6382" x2="272.0125" y2="92.7867" gradientTransform="matrix(1 8.676384e-03 -8.675107e-03 1 -3.3102 -1.0364)">
				<stop  offset="0" style="stop-color:#FFD363"/>
				<stop  offset="1" style="stop-color:#FF1055"/>
			</linearGradient>
			<circle class="st5" cx="118.7" cy="243.3" r="15.9"/>
			
				<linearGradient id="SVGID_6_" gradientUnits="userSpaceOnUse" x1="45.9581" y1="237.2232" x2="229.5943" y2="50.3718" gradientTransform="matrix(1 8.676384e-03 -8.675107e-03 1 -3.3102 -1.0364)">
				<stop  offset="0" style="stop-color:#FFD363"/>
				<stop  offset="1" style="stop-color:#FF1055"/>
			</linearGradient>
			<circle class="st6" cx="54.8" cy="222.4" r="13.9"/>
			
				<linearGradient id="SVGID_7_" gradientUnits="userSpaceOnUse" x1="-2.798758e-02" y1="191.2383" x2="183.6082" y2="4.3869" gradientTransform="matrix(1 8.676384e-03 -8.675107e-03 1 -3.3102 -1.0364)">
				<stop  offset="0" style="stop-color:#FFD363"/>
				<stop  offset="1" style="stop-color:#FF1055"/>
			</linearGradient>
			<circle class="st7" cx="16" cy="169.2" r="11.9"/>
			
				<linearGradient id="SVGID_8_" gradientUnits="userSpaceOnUse" x1="-34.2536" y1="157.0114" x2="149.3825" y2="-29.8401" gradientTransform="matrix(1 8.676384e-03 -8.675107e-03 1 -3.3102 -1.0364)">
				<stop  offset="0" style="stop-color:#FFD363"/>
				<stop  offset="1" style="stop-color:#FF1055"/>
			</linearGradient>
			<circle class="st8" cx="16" cy="100.8" r="9.9"/>
			
				<linearGradient id="SVGID_9_" gradientUnits="userSpaceOnUse" x1="-41.4331" y1="149.8287" x2="142.2031" y2="-37.0227" gradientTransform="matrix(1 8.676384e-03 -8.675107e-03 1 -3.3102 -1.0364)">
				<stop  offset="0" style="stop-color:#FFD363"/>
				<stop  offset="1" style="stop-color:#FF1055"/>
			</linearGradient>
			<circle class="st9" cx="54.8" cy="47.6" r="7.9"/>
		</g>
		
			<linearGradient id="SVGID_10_" gradientUnits="userSpaceOnUse" x1="-19.8978" y1="171.36" x2="163.7384" y2="-15.4914" gradientTransform="matrix(1 8.676384e-03 -8.675107e-03 1 -3.3102 -1.0364)">
			<stop  offset="0" style="stop-color:#FFD363"/>
			<stop  offset="1" style="stop-color:#FF1055"/>
		</linearGradient>
		<circle class="st10" cx="118.7" cy="26.7" r="25.9"/>
		<g>
			
				<linearGradient id="SVGID_11_" gradientUnits="userSpaceOnUse" x1="29.8205" y1="221.0777" x2="213.4567" y2="34.2263" gradientTransform="matrix(1 8.676384e-03 -8.675107e-03 1 -3.3102 -1.0364)">
				<stop  offset="0" style="stop-color:#FFD363"/>
				<stop  offset="1" style="stop-color:#FF1055"/>
			</linearGradient>
			<circle class="st11" cx="152.1" cy="92.8" r="13.2"/>
			
				<linearGradient id="SVGID_12_" gradientUnits="userSpaceOnUse" x1="55.3049" y1="246.5614" x2="238.9411" y2="59.7099" gradientTransform="matrix(1 8.676384e-03 -8.675107e-03 1 -3.3102 -1.0364)">
				<stop  offset="0" style="stop-color:#FFD363"/>
				<stop  offset="1" style="stop-color:#FF1055"/>
			</linearGradient>
			<circle class="st12" cx="173.6" cy="122.2" r="12.1"/>
			
				<linearGradient id="SVGID_13_" gradientUnits="userSpaceOnUse" x1="74.2701" y1="265.5273" x2="257.9062" y2="78.6758" gradientTransform="matrix(1 8.676384e-03 -8.675107e-03 1 -3.3102 -1.0364)">
				<stop  offset="0" style="stop-color:#FFD363"/>
				<stop  offset="1" style="stop-color:#FF1055"/>
			</linearGradient>
			<circle class="st13" cx="173.6" cy="160.2" r="11"/>
			
				<linearGradient id="SVGID_14_" gradientUnits="userSpaceOnUse" x1="78.246" y1="269.505" x2="261.8822" y2="82.6536" gradientTransform="matrix(1 8.676384e-03 -8.675107e-03 1 -3.3102 -1.0364)">
				<stop  offset="0" style="stop-color:#FFD363"/>
				<stop  offset="1" style="stop-color:#FF1055"/>
			</linearGradient>
			<circle class="st14" cx="152.1" cy="189.6" r="9.9"/>
			
				<linearGradient id="SVGID_15_" gradientUnits="userSpaceOnUse" x1="66.3154" y1="257.5766" x2="249.9515" y2="70.7251" gradientTransform="matrix(1 8.676384e-03 -8.675107e-03 1 -3.3102 -1.0364)">
				<stop  offset="0" style="stop-color:#FFD363"/>
				<stop  offset="1" style="stop-color:#FF1055"/>
			</linearGradient>
			<circle class="st15" cx="116.7" cy="201.2" r="8.8"/>
			
				<linearGradient id="SVGID_16_" gradientUnits="userSpaceOnUse" x1="42.8081" y1="234.0711" x2="226.4443" y2="47.2197" gradientTransform="matrix(1 8.676384e-03 -8.675107e-03 1 -3.3102 -1.0364)">
				<stop  offset="0" style="stop-color:#FFD363"/>
				<stop  offset="1" style="stop-color:#FF1055"/>
			</linearGradient>
			<circle class="st16" cx="81.2" cy="189.6" r="7.7"/>
			
				<linearGradient id="SVGID_17_" gradientUnits="userSpaceOnUse" x1="17.3236" y1="208.5873" x2="200.9598" y2="21.7359" gradientTransform="matrix(1 8.676384e-03 -8.675107e-03 1 -3.3102 -1.0364)">
				<stop  offset="0" style="stop-color:#FFD363"/>
				<stop  offset="1" style="stop-color:#FF1055"/>
			</linearGradient>
			<circle class="st17" cx="59.7" cy="160.2" r="6.6"/>
			
				<linearGradient id="SVGID_18_" gradientUnits="userSpaceOnUse" x1="-1.6435" y1="189.6195" x2="181.9927" y2="2.768" gradientTransform="matrix(1 8.676384e-03 -8.675107e-03 1 -3.3102 -1.0364)">
				<stop  offset="0" style="stop-color:#FFD363"/>
				<stop  offset="1" style="stop-color:#FF1055"/>
			</linearGradient>
			<circle class="st18" cx="59.7" cy="122.2" r="5.5"/>
			
				<linearGradient id="SVGID_19_" gradientUnits="userSpaceOnUse" x1="-5.6222" y1="185.639" x2="178.014" y2="-1.2124" gradientTransform="matrix(1 8.676384e-03 -8.675107e-03 1 -3.3102 -1.0364)">
				<stop  offset="0" style="stop-color:#FFD363"/>
				<stop  offset="1" style="stop-color:#FF1055"/>
			</linearGradient>
			<circle class="st19" cx="81.2" cy="92.8" r="4.4"/>
		</g>
		
			<linearGradient id="SVGID_20_" gradientUnits="userSpaceOnUse" x1="6.3122" y1="197.5712" x2="189.9484" y2="10.7197" gradientTransform="matrix(1 8.676384e-03 -8.675107e-03 1 -3.3102 -1.0364)">
			<stop  offset="0" style="stop-color:#FFD363"/>
			<stop  offset="1" style="stop-color:#FF1055"/>
		</linearGradient>
		<circle class="st20" cx="116.7" cy="81.2" r="14.4"/>
		<g>
			
				<linearGradient id="SVGID_21_" gradientUnits="userSpaceOnUse" x1="33.3654" y1="224.6242" x2="217.0015" y2="37.7727" gradientTransform="matrix(1 8.676384e-03 -8.675107e-03 1 -3.3102 -1.0364)">
				<stop  offset="0" style="stop-color:#FFD363"/>
				<stop  offset="1" style="stop-color:#FF1055"/>
			</linearGradient>
			<circle class="st21" cx="132" cy="119.9" r="6"/>
			
				<linearGradient id="SVGID_22_" gradientUnits="userSpaceOnUse" x1="44.8548" y1="236.1133" x2="228.4909" y2="49.2618" gradientTransform="matrix(1 8.676384e-03 -8.675107e-03 1 -3.3102 -1.0364)">
				<stop  offset="0" style="stop-color:#FFD363"/>
				<stop  offset="1" style="stop-color:#FF1055"/>
			</linearGradient>
			<circle class="st22" cx="141.7" cy="133.2" r="5.5"/>
			
				<linearGradient id="SVGID_23_" gradientUnits="userSpaceOnUse" x1="53.405" y1="244.6639" x2="237.0412" y2="57.8124" gradientTransform="matrix(1 8.676384e-03 -8.675107e-03 1 -3.3102 -1.0364)">
				<stop  offset="0" style="stop-color:#FFD363"/>
				<stop  offset="1" style="stop-color:#FF1055"/>
			</linearGradient>
			<circle class="st23" cx="141.7" cy="150.3" r="5"/>
			
				<linearGradient id="SVGID_24_" gradientUnits="userSpaceOnUse" x1="55.1976" y1="246.4572" x2="238.8337" y2="59.6058" gradientTransform="matrix(1 8.676384e-03 -8.675107e-03 1 -3.3102 -1.0364)">
				<stop  offset="0" style="stop-color:#FFD363"/>
				<stop  offset="1" style="stop-color:#FF1055"/>
			</linearGradient>
			<circle class="st24" cx="132" cy="163.6" r="4.5"/>
			
				<linearGradient id="SVGID_25_" gradientUnits="userSpaceOnUse" x1="49.8187" y1="241.0794" x2="233.4549" y2="54.2279" gradientTransform="matrix(1 8.676384e-03 -8.675107e-03 1 -3.3102 -1.0364)">
				<stop  offset="0" style="stop-color:#FFD363"/>
				<stop  offset="1" style="stop-color:#FF1055"/>
			</linearGradient>
			<circle class="st25" cx="116.1" cy="168.8" r="4"/>
			
				<linearGradient id="SVGID_26_" gradientUnits="userSpaceOnUse" x1="39.2207" y1="230.4821" x2="222.8569" y2="43.6307" gradientTransform="matrix(1 8.676384e-03 -8.675107e-03 1 -3.3102 -1.0364)">
				<stop  offset="0" style="stop-color:#FFD363"/>
				<stop  offset="1" style="stop-color:#FF1055"/>
			</linearGradient>
			<circle class="st26" cx="100.1" cy="163.6" r="3.5"/>
			
				<linearGradient id="SVGID_27_" gradientUnits="userSpaceOnUse" x1="27.7312" y1="218.993" x2="211.3674" y2="32.1415" gradientTransform="matrix(1 8.676384e-03 -8.675107e-03 1 -3.3102 -1.0364)">
				<stop  offset="0" style="stop-color:#FFD363"/>
				<stop  offset="1" style="stop-color:#FF1055"/>
			</linearGradient>
			<circle class="st27" cx="90.4" cy="150.3" r="3"/>
			
				<linearGradient id="SVGID_28_" gradientUnits="userSpaceOnUse" x1="19.1801" y1="210.4415" x2="202.8162" y2="23.5901" gradientTransform="matrix(1 8.676384e-03 -8.675107e-03 1 -3.3102 -1.0364)">
				<stop  offset="0" style="stop-color:#FFD363"/>
				<stop  offset="1" style="stop-color:#FF1055"/>
			</linearGradient>
			<circle class="st28" cx="90.4" cy="133.2" r="2.5"/>
			
				<linearGradient id="SVGID_29_" gradientUnits="userSpaceOnUse" x1="17.3863" y1="208.6469" x2="201.0225" y2="21.7955" gradientTransform="matrix(1 8.676384e-03 -8.675107e-03 1 -3.3102 -1.0364)">
				<stop  offset="0" style="stop-color:#FFD363"/>
				<stop  offset="1" style="stop-color:#FF1055"/>
			</linearGradient>
			<circle class="st29" cx="100.1" cy="119.9" r="2"/>
		</g>
		
			<linearGradient id="SVGID_30_" gradientUnits="userSpaceOnUse" x1="22.7668" y1="214.0265" x2="206.403" y2="27.175" gradientTransform="matrix(1 8.676384e-03 -8.675107e-03 1 -3.3102 -1.0364)">
			<stop  offset="0" style="stop-color:#FFD363"/>
			<stop  offset="1" style="stop-color:#FF1055"/>
		</linearGradient>
		<circle class="st30" cx="116.1" cy="114.7" r="6.5"/>
	</g>
</g>
<path class="st31" d="M983.7,164.3c-5.3,0-10.2-1.3-14.5-3.8c-4.3-2.5-7.8-6.1-10.3-10.7c-2.5-4.6-3.8-9.9-3.8-15.8
	c0-5.9,1.3-11.2,3.8-15.8c2.5-4.6,5.9-8.1,10.3-10.7c4.3-2.5,9.2-3.8,14.5-3.8c5.3,0,10.2,1.3,14.5,3.8c4.3,2.5,7.8,6.1,10.3,10.7
	c2.5,4.6,3.8,9.9,3.8,15.8c0,6-1.3,11.2-3.8,15.8c-2.5,4.6-6,8.1-10.3,10.7C993.9,163.1,989,164.3,983.7,164.3 M983.7,189.1
	c11.2,0,21.3-2.4,30.2-7.1c8.9-4.7,15.9-11.3,21-19.7c5.1-8.4,7.6-17.8,7.6-28.3c0-10.5-2.5-19.9-7.6-28.3
	c-5.1-8.4-12.1-14.9-21-19.7c-8.9-4.7-19-7.1-30.2-7.1c-11.2,0-21.3,2.4-30.2,7.1c-8.9,4.7-15.9,11.3-21,19.7
	c-5.1,8.4-7.6,17.8-7.6,28.3c0,10.5,2.5,19.9,7.6,28.3c5.1,8.4,12.1,14.9,21,19.7C962.4,186.8,972.5,189.1,983.7,189.1 M877.3,160.8
	c-5,2.3-10.4,3.5-16.2,3.5c-5.8,0-11-1.3-15.6-3.9c-4.5-2.6-8.1-6.1-10.6-10.7c-2.5-4.6-3.8-9.8-3.8-15.7c0-9.2,2.8-16.5,8.3-22
	c5.5-5.5,12.9-8.2,21.9-8.2c10,0,18.6,3.9,25.7,11.8l19.1-17.2c-5.2-6.3-11.8-11-19.7-14.4c-7.9-3.3-16.7-5-26.6-5
	c-11.3,0-21.4,2.3-30.4,7c-9,4.7-16,11.2-21,19.6c-5,8.4-7.6,17.9-7.6,28.4c0,10.6,2.5,20.1,7.6,28.4c5,8.4,12,14.9,20.9,19.6
	c8.9,4.7,18.9,7,30,7c7.9,0,15.7-1.2,23.6-3.5c7.9-2.3,14.8-5.6,20.9-10v-43.9h-26.5V160.8z M752.2,120.3c0,4.9-1.6,8.8-4.7,11.4
	c-3.1,2.7-7.8,4-13.9,4h-16.6v-31h16.6c6.1,0,10.8,1.4,13.9,4.1C750.6,111.5,752.2,115.4,752.2,120.3 M752.5,187h32.1l-22.8-33.3
	c6.7-3.2,11.8-7.7,15.4-13.4c3.6-5.7,5.4-12.4,5.4-20c0-8-1.9-14.9-5.7-20.8c-3.8-5.9-9.3-10.4-16.3-13.6c-7.1-3.2-15.4-4.8-25-4.8
	H687V187h30v-28.1h16.3L752.5,187z M607.9,189.1c15.7,0,28-4.3,36.7-12.9c8.7-8.6,13.1-20.7,13.1-36.5V81.1h-29.5v57.8
	c0,16.9-6.7,25.4-20,25.4c-13.4,0-20.1-8.5-20.1-25.4V81.1h-30v58.7c0,15.7,4.4,27.9,13.1,36.5C579.9,184.8,592.2,189.1,607.9,189.1
	 M529.1,187l-0.3-105.9h-24.7l-36.3,61.1l-37.2-61.1H406V187h27.7v-54.6l27.1,44.2H474l27.2-45.7l0.3,56.1H529.1z M324.3,163.9
	v-19.4h47v-22.4h-47v-17.8h53.4V81.1h-83V187h85v-23.1H324.3z"/>
</svg>
