<?xml version="1.0" encoding="UTF-8"?>
<svg width="134px" height="46px" viewBox="0 0 134 46" version="1.1" xmlns="http://www.w3.org/2000/svg" xmlns:xlink="http://www.w3.org/1999/xlink">
    <title>logo_gw_landing</title>
    <defs>
        <radialGradient cx="67.9357457%" cy="65.3209798%" fx="67.9357457%" fy="65.3209798%" r="68.0138142%" id="radialGradient-1">
            <stop stop-color="#FFFFFF" offset="0%"></stop>
            <stop stop-color="#3C4149" offset="50.1768%"></stop>
            <stop stop-color="#454A52" offset="76.1481%"></stop>
            <stop stop-color="#CBD0DA" offset="100%"></stop>
        </radialGradient>
        <radialGradient cx="40.1389052%" cy="28.9661607%" fx="40.1389052%" fy="28.9661607%" r="68.8162647%" gradientTransform="translate(0.401389,0.289662),scale(1.000000,0.967742),rotate(65.932881),translate(-0.401389,-0.289662)" id="radialGradient-2">
            <stop stop-color="#FFFFFF" offset="0%"></stop>
            <stop stop-color="#3C4149" offset="50.1768%"></stop>
            <stop stop-color="#454A52" offset="76.1481%"></stop>
            <stop stop-color="#CBD0DA" offset="100%"></stop>
        </radialGradient>
        <radialGradient cx="40.1393819%" cy="28.9664614%" fx="40.1393819%" fy="28.9664614%" r="68.8171168%" gradientTransform="translate(0.401394,0.289665),scale(1.000000,0.967742),rotate(65.932823),translate(-0.401394,-0.289665)" id="radialGradient-3">
            <stop stop-color="#FFFFFF" offset="0%"></stop>
            <stop stop-color="#3C4149" offset="50.1768%"></stop>
            <stop stop-color="#454A52" offset="76.1481%"></stop>
            <stop stop-color="#CBD0DA" offset="100%"></stop>
        </radialGradient>
    </defs>
    <g id="covers" stroke="none" stroke-width="1" fill="none" fill-rule="evenodd">
        <g id="logo_gw_landing" fill-rule="nonzero">
            <polygon id="Shape-path" fill="#2F2F43" points="93.1507505 12.7804842 93.1507505 10.5345912 90.9272659 10.5345912 90.9272659 12.7804842"></polygon>
            <path d="M48.5756859,17.5010626 L48.5756859,26.5471698 L46.3522013,26.5471698 L46.3522013,17.1892304 C46.3522013,16.4404959 46.6127415,15.8027622 47.1342667,15.2759406 C47.6562365,14.7491191 48.2871353,14.4857083 49.0287414,14.4857083 L55.6996399,14.4857083 L55.6996399,16.7316457 L49.3372994,16.7316457 C49.0354106,16.7316457 48.8331139,16.7836622 48.7299649,16.887695 C48.6272604,16.9915947 48.5756859,17.1961985 48.5756859,17.5010626 Z" id="Shape-path" fill="#2F2F43"></path>
            <path d="M67.8472198,14.4857083 C68.5883813,14.4857083 69.2197247,14.7491191 69.7412499,15.2759406 C70.2627751,15.8027622 70.52376,16.4404959 70.52376,17.1892304 L70.52376,26.5471698 L61.0527203,26.5471698 C60.3115587,26.5471698 59.6797708,26.2838034 59.1582456,25.7569819 C58.6367204,25.2301604 58.3761801,24.5924267 58.3761801,23.8438253 L58.3761801,19.3935813 L68.2793788,19.3935813 L68.2793788,17.5010626 C68.2793788,17.1961985 68.2313611,16.9915947 68.1353258,16.887695 C68.0392904,16.7836622 67.8401061,16.7316457 67.5382172,16.7316457 L58.3761801,16.7316457 L58.3761801,14.4857083 L67.8472198,14.4857083 Z M68.2793788,21.493855 L60.5996647,21.493855 L60.5996647,23.5318599 C60.5996647,23.8368572 60.6512393,24.0413279 60.7539437,24.1453607 C60.8570928,24.2492604 61.0593894,24.3012768 61.3612782,24.3012768 L61.3612782,24.3012768 L68.2793788,24.3012768 L68.2793788,21.493855 Z" id="Combined-Shape" fill="#2F2F43"></path>
            <polygon id="Shape-path" fill="#2F2F43" points="88.1066727 14.4857083 81.5180267 26.5471698 79.2945421 26.5471698 72.705896 14.4857083 75.2797318 14.4857083 80.4065067 24.0101269 85.5328369 14.4857083"></polygon>
            <polygon id="Shape-path" fill="#2F2F43" points="93.1507505 14.4857083 93.1507505 26.5471698 90.9272659 26.5471698 90.9272659 14.4857083"></polygon>
            <path d="M103.898704,26.5471698 L103.898704,24.3012768 L99.7602931,24.3012768 C99.4579596,24.3012768 99.255663,24.2492604 99.1525139,24.1453607 C99.0498095,24.0413279 98.9982349,23.8368572 98.9982349,23.5318599 L98.9982349,16.7316457 L103.898704,16.7316457 L103.898704,14.4857083 L98.9982349,14.4857083 L98.9982349,10.6801661 L96.7747503,10.6801661 L96.7747503,23.8438253 C96.7747503,24.5924267 97.0352906,25.2301604 97.5572604,25.7569819 C98.0787856,26.2838034 98.7101289,26.5471698 99.4512905,26.5471698 L103.898704,26.5471698 Z" id="Shape-path" fill="#2F2F43"></path>
            <path d="M116.190337,14.4857083 C116.931499,14.4857083 117.562842,14.7491191 118.084367,15.2759406 C118.605892,15.8027622 118.866877,16.4404959 118.866877,17.1892304 L118.866877,23.8438253 C118.866877,24.5924267 118.605892,25.2301604 118.084367,25.7569819 C117.562842,26.2838034 116.931499,26.5471698 116.190337,26.5471698 L109.395838,26.5471698 C108.654676,26.5471698 108.023333,26.2838034 107.501808,25.7569819 C106.979838,25.2301604 106.719298,24.5924267 106.719298,23.8438253 L106.719298,17.1892304 C106.719298,16.4404959 106.979838,15.8027622 107.501808,15.2759406 C108.023333,14.7491191 108.654676,14.4857083 109.395838,14.4857083 L116.190337,14.4857083 Z M115.881335,16.7316457 L109.70484,16.7316457 C109.402507,16.7316457 109.20021,16.7836622 109.097061,16.887695 C108.994357,16.9915947 108.942782,17.1961985 108.942782,17.5010626 L108.942782,17.5010626 L108.942782,23.5318599 C108.942782,23.8368572 108.994357,24.0413279 109.097061,24.1453607 C109.20021,24.2492604 109.402507,24.3012768 109.70484,24.3012768 L109.70484,24.3012768 L115.881335,24.3012768 C116.183223,24.3012768 116.382408,24.2492604 116.478443,24.1453607 C116.574479,24.0413279 116.622496,23.8368572 116.622496,23.5318599 L116.622496,23.5318599 L116.622496,17.5010626 C116.622496,17.1961985 116.574479,16.9915947 116.478443,16.887695 C116.382408,16.7836622 116.183223,16.7316457 115.881335,16.7316457 L115.881335,16.7316457 Z" id="Combined-Shape" fill="#2F2F43"></path>
            <path d="M124.075905,17.5010626 L124.075905,26.5471698 L121.851976,26.5471698 L121.851976,14.4857083 L131.323904,14.4857083 C132.064621,14.4857083 132.69552,14.7491191 133.217045,15.2759406 C133.73857,15.8027622 134,16.4404959 134,17.1892304 L134,26.5471698 L131.776515,26.5471698 L131.776515,17.5010626 C131.776515,17.1961985 131.724941,16.9915947 131.622236,16.887695 C131.519087,16.7836622 131.315901,16.7316457 131.014902,16.7316457 L124.837518,16.7316457 C124.535629,16.7316457 124.333333,16.7836622 124.230184,16.887695 C124.127479,16.9915947 124.075905,17.1961985 124.075905,17.5010626 Z" id="Shape-path" fill="#2F2F43"></path>
            <path d="M34.8343147,42.1383648 C36.5120223,42.1383648 37.9381251,41.5172109 39.1124001,40.2745452 C40.2868088,39.0317901 40.8742138,37.5228069 40.8742138,35.747551 L40.8742138,21.9003403 L23.1196154,21.9003403 L23.1196154,26.2675262 L36.7971626,26.2675262 L36.7971626,35.747551 C36.7971626,36.3156741 36.6042893,36.8038705 36.218409,37.2121852 C35.8325286,37.6204551 35.371149,37.8246572 34.8343147,37.8246572 L10.6750301,37.8246572 C10.1381512,37.8246572 9.67677154,37.6204551 9.2908912,37.2121852 C8.90501086,36.8038705 8.71209298,36.3156741 8.71209298,35.747551 L8.71209298,10.1834456 C8.71209298,9.61536731 8.90501086,9.12717082 9.2908912,8.71885615 C9.67677154,8.31054148 10.1381512,8.10638415 10.6750301,8.10638415 L34.8343147,8.10638415 C35.371149,8.10638415 35.8325286,8.31054148 36.218409,8.71885615 C36.6042893,9.12717082 36.7971626,9.61536731 36.7971626,10.1834456 L36.7971626,11.7280064 L40.8742138,11.7280064 L40.8742138,10.1834456 C40.8742138,8.40818973 40.2868088,6.89920657 39.1124001,5.65649612 C37.9381251,4.41378568 36.5120223,3.79245283 34.8343147,3.79245283 L10.6750301,3.79245283 C8.99727786,3.79245283 7.57121967,4.41378568 6.39681093,5.65649612 C5.2224022,6.89920657 4.63522013,8.40818973 4.63522013,10.1834456 L4.63522013,35.747551 C4.63522013,37.5228069 5.2224022,39.0317901 6.39681093,40.2745452 C7.57121967,41.5172109 8.99727786,42.1383648 10.6750301,42.1383648 L34.8343147,42.1383648 Z" id="Path" fill="#2F2F43"></path>
            <path d="M15.6867037,3.57144036 C12.5846371,-0.3510478 7.00864079,-1.16801102 3.23228366,1.74675385 C-0.544024411,4.66152311 -1.09062741,10.2042302 2.01141686,14.1266963 C5.11343883,18.0491625 10.6894797,18.8661081 14.4657923,15.9513829 C18.2421048,13.0366136 18.7887702,7.49395053 15.6867037,3.57144036 Z" id="Path" fill="url(#radialGradient-1)"></path>
            <path d="M33.0477384,40.3783559 C33.8709742,43.9010591 37.2877253,46.1295716 40.6792694,45.3561001 C44.0707245,44.5826286 46.1527515,41.1000281 45.3297385,37.5774129 C44.5062801,34.0549735 41.0895289,31.826461 37.6979848,32.5998445 C34.3064407,33.373404 32.2244136,36.8559605 33.0477384,40.3783559 Z" id="Path" fill="url(#radialGradient-2)"></path>
            <path d="M18.7207128,25.2086584 C19.5439119,28.7311658 22.9606958,30.9597376 26.352317,30.1863048 C29.7438045,29.412784 31.8258516,25.9301597 31.0026079,22.4075643 C30.1794089,18.8851008 26.762625,16.656529 23.3710483,17.4300937 C19.9793826,18.2035266 17.8973356,21.6861509 18.7207128,25.2086584 Z" id="Path" fill="url(#radialGradient-3)"></path>
        </g>
    </g>
</svg>