<?xml version="1.0" encoding="UTF-8"?>
<svg width="172px" height="54px" viewBox="0 0 172 54" version="1.1" xmlns="http://www.w3.org/2000/svg" xmlns:xlink="http://www.w3.org/1999/xlink">
    <title>Logo_Gravity_black</title>
    <g id="Page-1" stroke="none" stroke-width="1" fill="none" fill-rule="evenodd">
        <g id="Logo_Gravity_black" transform="translate(2.000000, 1.000000)">
            <polygon id="Path" stroke="#000000" stroke-width="1.3" points="0.29676 15.2381 51.7829 7.4867 37.392 51.7602"></polygon>
            <polygon id="Path" stroke="#000000" stroke-width="1.3" points="12.3883 41.6392 49.0969 22.5903 19.1684 0.85444"></polygon>
            <polygon id="Path" stroke="#000000" stroke-width="1.3" points="35.8914 36.3038 31.7563 11.4294 13.5031 24.686"></polygon>
            <polygon id="Path" stroke="#000000" stroke-width="1.3" points="36.6808 25.0796 20.5349 22.6488 25.0479 36.5329"></polygon>
            <path d="M71.2177,38.21 C72.1213,38.21 72.8952,37.8957 73.5394,37.2672 C74.1836,36.6386 74.5057,35.8777 74.5057,34.9845 L74.5057,28.4095 L67.503,28.4095 L67.503,31.1139 L71.7699,31.1139 L71.7699,34.6124 C71.7699,34.9763 71.7113,35.2202 71.5942,35.3443 C71.4771,35.4683 71.2261,35.5304 70.8412,35.5304 L60.0736,35.5304 C59.7055,35.5304 59.4587,35.4683 59.3332,35.3443 C59.2077,35.2202 59.145,34.9763 59.145,34.6124 L59.145,23.9434 C59.145,23.5795 59.2077,23.3356 59.3332,23.2115 C59.4587,23.0875 59.7055,23.0254 60.0736,23.0254 L70.8412,23.0254 C71.2261,23.0254 71.4771,23.0875 71.5942,23.2115 C71.7113,23.3356 71.7699,23.5795 71.7699,23.9434 L71.7699,24.6382 L74.5057,24.6382 L74.5057,23.5713 C74.5057,22.6781 74.1836,21.9172 73.5394,21.2886 C72.8952,20.6601 72.1213,20.3458 71.2177,20.3458 L59.6972,20.3458 C58.7936,20.3458 58.0239,20.6601 57.388,21.2886 C56.7522,21.9172 56.4343,22.6781 56.4343,23.5713 L56.4343,34.9845 C56.4343,35.8777 56.7522,36.6386 57.388,37.2672 C58.0239,37.8957 58.7936,38.21 59.6972,38.21 L71.2177,38.21 Z M81.7263,38.21 L81.7263,27.417 C81.7263,27.0531 81.7891,26.8092 81.9146,26.6851 C82.0401,26.5611 82.2869,26.499 82.655,26.499 L90.4107,26.499 L90.4107,23.8194 L82.2785,23.8194 C81.3749,23.8194 80.6052,24.1337 79.9694,24.7622 C79.3335,25.3908 79.0156,26.1517 79.0156,27.0449 L79.0156,38.21 L81.7263,38.21 Z M108.828,38.21 L108.828,27.0449 C108.828,26.1517 108.51,25.3908 107.874,24.7622 C107.239,24.1337 106.469,23.8194 105.565,23.8194 L94.02,23.8194 L94.02,26.499 L105.189,26.499 C105.557,26.499 105.8,26.5611 105.917,26.6851 C106.034,26.8092 106.092,27.0531 106.092,27.417 L106.092,29.6749 L94.02,29.6749 L94.02,34.9845 C94.02,35.8777 94.338,36.6386 94.974,37.2672 C95.609,37.8957 96.379,38.21 97.283,38.21 L108.828,38.21 Z M106.092,35.5304 L97.659,35.5304 C97.291,35.5304 97.044,35.4683 96.919,35.3443 C96.793,35.2202 96.73,34.9763 96.73,34.6124 L96.73,32.1808 L106.092,32.1808 L106.092,35.5304 Z M122.575,38.21 L130.606,23.8194 L127.469,23.8194 L121.219,35.183 L114.97,23.8194 L111.832,23.8194 L119.864,38.21 L122.575,38.21 Z M137.099,21.7849 L137.099,19.1052 L134.389,19.1052 L134.389,21.7849 L137.099,21.7849 Z M137.099,38.21 L137.099,23.8194 L134.389,23.8194 L134.389,38.21 L137.099,38.21 Z M150.536,38.21 L150.536,35.5304 L145.491,35.5304 C145.123,35.5304 144.876,35.4683 144.751,35.3443 C144.625,35.2202 144.562,34.9763 144.562,34.6124 L144.562,26.499 L150.536,26.499 L150.536,23.8194 L144.562,23.8194 L144.562,19.2789 L141.852,19.2789 L141.852,34.9845 C141.852,35.8777 142.17,36.6386 142.805,37.2672 C143.441,37.8957 144.211,38.21 145.115,38.21 L150.536,38.21 Z M165.737,43.7181 C166.641,43.7181 167.41,43.4039 168.046,42.7753 C168.682,42.1467 169,41.3859 169,40.4927 L169,23.869 L166.289,23.869 L166.289,34.6124 C166.289,34.9763 166.227,35.2202 166.101,35.3443 C165.976,35.4683 165.729,35.5304 165.361,35.5304 L157.831,35.5304 C157.463,35.5304 157.216,35.4683 157.09,35.3443 C156.965,35.2202 156.902,34.9763 156.902,34.6124 L156.902,23.869 L154.192,23.869 L154.192,34.9845 C154.192,35.8777 154.509,36.6386 155.145,37.2672 C155.781,37.8957 156.551,38.21 157.454,38.21 L166.289,38.21 L166.289,40.0957 C166.289,40.4596 166.227,40.7036 166.101,40.8276 C165.976,40.9517 165.729,41.0137 165.361,41.0137 L156.752,41.0137 L156.752,43.7181 L165.737,43.7181 Z" id="Shape" fill="#000000" fill-rule="nonzero"></path>
        </g>
    </g>
</svg>