<?xml version="1.0" encoding="UTF-8"?>
<svg width="200px" height="37px" viewBox="0 0 200 37" version="1.1" xmlns="http://www.w3.org/2000/svg" xmlns:xlink="http://www.w3.org/1999/xlink">
    <!-- Generator: Sketch 49.1 (51147) - http://www.bohemiancoding.com/sketch -->
    <title>Group</title>
    <desc>Created with Sketch.</desc>
    <defs></defs>
    <g id="Symbols" stroke="none" stroke-width="1" fill="none" fill-rule="evenodd">
        <g id="导航/顶级" transform="translate(-135.000000, -37.000000)">
            <g id="Group" transform="translate(135.000000, 37.000000)">
                <path d="M36.1995958,0.000129032258 L28.4725362,0.000129032258 C28.0663594,0.000129032258 27.7339154,0.331741935 27.7339154,0.736903226 L27.7339154,26.8059355 C27.7339154,27.2110968 27.4014714,27.5420645 26.9965882,27.5420645 L0.861573288,27.5420645 C0.454749778,27.5420645 0.123599321,27.8743226 0.123599321,28.2794839 L0.123599321,35.9865806 C0.123599321,36.3917419 0.454749778,36.7233548 0.861573288,36.7233548 L36.1995958,36.7233548 L36.9382165,36.7233548 L36.9382165,35.9865806 L36.9382165,0.736903226 C36.9382165,0.331741935 36.6057725,0.000129032258 36.1995958,0.000129032258" id="Fill-2" fill="#F29700"></path>
                <path d="M0.964087638,23.8849032 L9.76609265,23.8849032 C10.2291859,23.8849032 10.6075511,23.5074839 10.6075511,23.0455484 L10.6075511,14.2655484 C10.6075511,13.8042581 10.2291859,13.4268387 9.76609265,13.4268387 L0.964087638,13.4268387 C0.5016412,13.4268387 0.123275932,13.8042581 0.123275932,14.2655484 L0.123275932,23.0455484 C0.123275932,23.5074839 0.5016412,23.8849032 0.964087638,23.8849032" id="Fill-4" fill="#F29700"></path>
                <path d="M14.0645161,10.458129 L22.8665211,10.458129 C23.3296144,10.458129 23.7079796,10.0807097 23.7079796,9.61941935 L23.7079796,0.839419355 C23.7079796,0.377483871 23.3296144,6.4516129e-05 22.8665211,6.4516129e-05 L22.394373,6.4516129e-05 L14.6673134,6.4516129e-05 L14.0645161,6.4516129e-05 C13.6020697,6.4516129e-05 13.2237044,0.377483871 13.2237044,0.839419355 L13.2237044,9.61941935 C13.2237044,10.0807097 13.6020697,10.458129 14.0645161,10.458129" id="Fill-6" fill="#F29700"></path>
                <path d="M151.036883,10.3210968 C150.736777,10.3210968 150.40498,10.550129 150.298909,10.830129 L142.589312,31.1681935 C142.48324,31.4481935 142.256221,31.4765806 142.083531,31.2314194 L137.127917,24.1817419 C136.955874,23.9372258 136.814876,23.4920645 136.814876,23.1927097 L136.814876,10.0256129 C136.814876,9.72690323 136.569747,9.48174194 136.269642,9.48174194 L133.643722,9.48174194 C133.344264,9.48174194 133.099135,9.72690323 133.099135,10.0256129 L133.099135,23.2849677 C133.099135,23.5843226 132.957491,24.0294839 132.784154,24.2733548 L126.464484,33.210129 C126.291794,33.454 126.355825,33.7881935 126.607422,33.9514194 L128.552284,35.2185161 C128.803881,35.3817419 129.151847,35.3165806 129.326477,35.0733548 L134.663691,27.6320645 C134.838322,27.3888387 135.123551,27.3894839 135.297534,27.6327097 L140.196879,34.4836774 C140.371509,34.7269032 140.660619,34.9262581 140.83913,34.9262581 L141.71034,34.9262581 L144.135759,34.9262581 L144.906718,34.9262581 C145.031547,34.9262581 145.218466,34.6965806 145.322597,34.4159355 L154.057984,10.8314194 C154.162115,10.5507742 154.001714,10.3210968 153.701609,10.3210968 L151.036883,10.3210968 Z" id="Fill-8" fill="#545555"></path>
                <path d="M63.4281187,2.25625806 C63.1280136,2.25625806 62.7076077,2.42722581 62.4928774,2.63625806 L51.0759479,13.7414194 C50.8612176,13.9498065 50.8618643,14.2910968 51.0765947,14.500129 L52.9638936,16.3285161 C53.1792708,16.5369032 53.5317649,16.5375484 53.7477888,16.3291613 L64.2385318,6.23754839 C64.4545557,6.02980645 64.8762552,5.86012903 65.1763603,5.86012903 L71.3233406,5.86012903 C71.6234457,5.86012903 72.0451451,6.02980645 72.2605223,6.23754839 L82.751912,16.3291613 C82.967936,16.5375484 83.3204301,16.5369032 83.5358073,16.3285161 L85.4231062,14.500129 C85.6378365,14.2910968 85.6384833,13.9498065 85.4237529,13.7414194 L74.0068235,2.63625806 C73.7920931,2.42722581 73.3716873,2.25625806 73.0715822,2.25625806 L63.4281187,2.25625806 Z" id="Fill-10" fill="#545555"></path>
                <path d="M70.1517018,24.8945806 C70.1517018,24.595871 70.3974776,24.3507097 70.6969359,24.3507097 L82.4469561,24.3507097 C82.7470612,24.3507097 82.9928369,24.1061935 82.9928369,23.8068387 L82.9928369,21.3429677 C82.9928369,21.0436129 82.7470612,20.7984516 82.4469561,20.7984516 L70.6969359,20.7984516 C70.3974776,20.7984516 70.1517018,20.5539355 70.1517018,20.2552258 L70.1517018,16.5352258 C70.1517018,16.2365161 70.3974776,15.992 70.6969359,15.992 L77.7668688,15.992 C78.0669739,15.992 78.3121028,15.7468387 78.3121028,15.4474839 L78.3121028,12.9474839 C78.3121028,12.6487742 78.0669739,12.4042581 77.7668688,12.4042581 L58.7334789,12.4042581 C58.4340205,12.4042581 58.1882448,12.6487742 58.1882448,12.9474839 L58.1882448,15.4474839 C58.1882448,15.7468387 58.4340205,15.992 58.7334789,15.992 L65.8422184,15.992 C66.1423236,15.992 66.3874525,16.2365161 66.3874525,16.5352258 L66.3874525,20.2552258 C66.3874525,20.5539355 66.1423236,20.7984516 65.8422184,20.7984516 L54.0533915,20.7984516 C53.7532864,20.7984516 53.5088043,21.0436129 53.5088043,21.3429677 L53.5088043,23.8068387 C53.5088043,24.1061935 53.7532864,24.3507097 54.0533915,24.3507097 L65.8422184,24.3507097 C66.1423236,24.3507097 66.3874525,24.595871 66.3874525,24.8945806 L66.3874525,30.868129 C66.3874525,31.1674839 66.1423236,31.412 65.8422184,31.412 L53.3645727,31.412 C53.0644676,31.412 52.8193387,31.6565161 52.8193387,31.955871 L52.8193387,34.4565161 C52.8193387,34.755871 53.0644676,35.0003871 53.3645727,35.0003871 L83.1390088,35.0003871 C83.4391139,35.0003871 83.6848896,34.755871 83.6848896,34.4565161 L83.6848896,31.955871 C83.6848896,31.6565161 83.4391139,31.412 83.1390088,31.412 L70.6969359,31.412 C70.3974776,31.412 70.1517018,31.1674839 70.1517018,30.868129 L70.1517018,24.8945806 Z" id="Fill-12" fill="#545555"></path>
                <path d="M130.633034,6.27716129 C130.633034,5.97780645 130.878163,5.73329032 131.178268,5.73329032 L138.733285,5.73329032 C139.03339,5.73329032 139.278519,5.97780645 139.278519,6.27716129 L139.278519,25.132 C139.278519,25.4307097 139.524295,25.6752258 139.823753,25.6752258 L142.450319,25.6752258 C142.749778,25.6752258 142.994907,25.4307097 142.994907,25.132 L142.994907,2.8003871 C142.994907,2.50103226 142.749778,2.25651613 142.450319,2.25651613 L127.463821,2.25651613 C127.163716,2.25651613 126.91794,2.50103226 126.91794,2.8003871 L126.91794,25.132 C126.91794,25.4307097 127.163716,25.6752258 127.463821,25.6752258 L130.0878,25.6752258 C130.387905,25.6752258 130.633034,25.4307097 130.633034,25.132 L130.633034,6.27716129 Z" id="Fill-14" fill="#545555"></path>
                <path d="M158.365527,2.80032258 C158.365527,2.50096774 158.119751,2.25645161 157.820293,2.25645161 L155.194373,2.25645161 C154.894915,2.25645161 154.649139,2.50096774 154.649139,2.80032258 L154.649139,4.15387097 C154.649139,4.45322581 154.40401,4.69774194 154.103905,4.69774194 L145.957733,4.69774194 C145.658275,4.69774194 145.413146,4.94225806 145.413146,5.2416129 L145.413146,7.69322581 C145.413146,7.99193548 145.658275,8.23709677 145.957733,8.23709677 L154.103905,8.23709677 C154.40401,8.23709677 154.649139,8.4816129 154.649139,8.78096774 L154.649139,30.9519355 C154.649139,31.2512903 154.40401,31.4958065 154.103905,31.4958065 L151.445,31.4958065 C151.145541,31.4958065 150.899766,31.7403226 150.899766,32.0396774 L150.899766,34.4564516 C150.899766,34.7558065 151.145541,35.0003226 151.445,35.0003226 L157.820293,35.0003226 C158.119751,35.0003226 158.365527,34.7558065 158.365527,34.4564516 L158.365527,8.78096774 C158.365527,8.4816129 158.610656,8.23709677 158.910761,8.23709677 L160.4889,8.23709677 C160.788358,8.23709677 161.034134,7.99193548 161.034134,7.69322581 L161.034134,5.2416129 C161.034134,4.94225806 160.788358,4.69774194 160.4889,4.69774194 L158.910761,4.69774194 C158.610656,4.69774194 158.365527,4.45322581 158.365527,4.15387097 L158.365527,2.80032258 Z" id="Fill-16" fill="#545555"></path>
                <path d="M178.282416,23.268129 C178.282416,23.5674839 178.528191,23.812 178.82765,23.812 L186.255251,23.812 C186.555356,23.812 186.800485,24.0571613 186.800485,24.355871 L186.800485,30.8552258 C186.800485,31.1545806 186.555356,31.3990968 186.255251,31.3990968 L178.82765,31.3990968 C178.528191,31.3990968 178.282416,31.6436129 178.282416,31.9429677 L178.282416,34.3597419 C178.282416,34.6590968 178.528191,34.9036129 178.82765,34.9036129 L198.561501,34.9036129 C198.860959,34.9036129 199.106735,34.6590968 199.106735,34.3597419 L199.106735,31.9429677 C199.106735,31.6436129 198.860959,31.3990968 198.561501,31.3990968 L191.05952,31.3990968 C190.759415,31.3990968 190.514286,31.1545806 190.514286,30.8552258 L190.514286,24.355871 C190.514286,24.0571613 190.759415,23.812 191.05952,23.812 L198.561501,23.812 C198.860959,23.812 199.106735,23.5674839 199.106735,23.268129 L199.106735,20.815871 C199.106735,20.5165161 198.860959,20.272 198.561501,20.272 L178.82765,20.272 C178.528191,20.272 178.282416,20.5165161 178.282416,20.815871 L178.282416,23.268129 Z" id="Fill-18" fill="#545555"></path>
                <path d="M191.857773,10.7845161 C191.618466,10.6045161 191.618466,10.3103226 191.85842,10.1303226 L197.014536,6.2683871 C197.254491,6.08903226 197.450465,5.69741935 197.450465,5.39806452 L197.450465,3.00258065 C197.450465,2.70387097 197.205336,2.45935484 196.905231,2.45935484 L178.761161,2.45935484 C178.461056,2.45935484 178.21528,2.70387097 178.21528,3.00258065 L178.21528,5.4 C178.21528,5.69935484 178.461056,5.94387097 178.761161,5.94387097 L190.836511,5.94387097 C191.136616,5.94387097 191.339704,6.00064516 191.289255,6.07096774 C191.238807,6.14064516 191.000792,6.34451613 190.760838,6.52387097 L177.584671,16.3516129 C177.344717,16.5309677 177.300089,16.8696774 177.487008,17.1032258 L179.037982,19.0522581 C179.224254,19.2864516 179.572868,19.3316129 179.812822,19.1516129 L187.999095,13.0206452 C188.239049,12.8412903 188.631644,12.8412903 188.870952,13.0212903 L197.019064,19.1509677 C197.259019,19.3309677 197.612159,19.2909677 197.804899,19.0619355 L199.414084,17.1490323 C199.606177,16.9193548 199.568664,16.5845161 199.328709,16.4045161 L191.857773,10.7845161 Z" id="Fill-20" fill="#545555"></path>
                <path d="M95.0021505,15.028129 C95.0021505,14.7287742 95.2472795,14.4842581 95.5473846,14.4842581 L103.199418,14.4842581 C103.499523,14.4842581 103.744652,14.7287742 103.744652,15.028129 L103.744652,21.5810323 C103.744652,21.8803871 103.499523,22.1249032 103.199418,22.1249032 L95.5473846,22.1249032 C95.2472795,22.1249032 95.0021505,21.8803871 95.0021505,21.5810323 L95.0021505,15.028129 Z M107.44293,15.028129 C107.44293,14.7287742 107.688706,14.4842581 107.988811,14.4842581 L116.459019,14.4842581 C116.759124,14.4842581 117.004253,14.7287742 117.004253,15.028129 L117.004253,21.5810323 C117.004253,21.8803871 116.759124,22.1249032 116.459019,22.1249032 L107.988811,22.1249032 C107.688706,22.1249032 107.44293,21.8803871 107.44293,21.5810323 L107.44293,15.028129 Z M121.274929,31.9945806 C121.274929,31.6952258 121.029154,31.4507097 120.729048,31.4507097 L95.5473846,31.4507097 C95.2472795,31.4507097 95.0021505,31.2061935 95.0021505,30.9068387 L95.0021505,26.2197419 C95.0021505,25.9203871 95.2472795,25.6752258 95.5473846,25.6752258 L120.159237,25.6752258 C120.458695,25.6752258 120.703824,25.4307097 120.703824,25.132 L120.703824,11.5126452 C120.703824,11.2132903 120.458695,10.9687742 120.159237,10.9687742 L116.789522,10.9687742 C116.490064,10.9687742 116.301205,10.7307097 116.37041,10.4397419 L117.812725,4.40296774 C117.881931,4.112 117.693071,3.87393548 117.393613,3.87393548 L113.80076,3.87393548 L112.710939,3.87393548 L96.6727787,3.87393548 C96.3726736,3.87393548 96.1637642,3.632 96.2083919,3.33587097 L96.3041151,2.7003871 C96.3487428,2.40425806 96.1398335,2.16232258 95.8403751,2.16232258 L93.2306249,2.16232258 C92.9305198,2.16232258 92.6420568,2.40296774 92.5883742,2.69716129 L91.8368179,6.82619355 C91.7831353,7.1203871 91.9849301,7.36167742 92.2850352,7.36167742 L94.8934918,7.36167742 L95.9846067,7.36167742 L112.710939,7.36167742 C113.010397,7.36167742 113.205077,7.60103226 113.14234,7.89329032 L112.599693,10.4365161 C112.536955,10.7294194 112.240731,10.9687742 111.940626,10.9687742 L91.8115935,10.9687742 C91.5121352,10.9687742 91.2670062,11.2132903 91.2670062,11.5126452 L91.2670062,34.4565161 C91.2670062,34.755871 91.5121352,35.0003871 91.8115935,35.0003871 L120.729048,35.0003871 C121.029154,35.0003871 121.274929,34.755871 121.274929,34.4565161 L121.274929,31.9945806 Z" id="Fill-22" fill="#545555"></path>
                <path d="M165.560352,31.1382581 C165.260247,31.1382581 165.014472,31.3827742 165.014472,31.682129 L165.014472,34.0989032 C165.014472,34.3982581 165.260247,34.6434194 165.560352,34.6434194 L174.776296,34.6434194 C175.075754,34.6434194 175.32153,34.3982581 175.32153,34.0989032 L175.32153,31.682129 C175.32153,31.3827742 175.075754,31.1382581 174.776296,31.1382581 L165.560352,31.1382581 Z" id="Fill-24" fill="#545555"></path>
                <path d="M60.8170103,29.2245161 C60.8170103,29.5232258 60.5712345,29.7683871 60.2711294,29.7683871 L57.7170022,29.7683871 C57.4168971,29.7683871 57.1717681,29.5232258 57.1717681,29.2245161 L57.1717681,26.676129 C57.1717681,26.3767742 57.4168971,26.1322581 57.7170022,26.1322581 L60.2711294,26.1322581 C60.5712345,26.1322581 60.8170103,26.3767742 60.8170103,26.676129 L60.8170103,29.2245161 Z" id="Fill-26" fill="#545555"></path>
                <path d="M79.3051015,29.2245161 C79.3051015,29.5232258 79.0593257,29.7683871 78.7592206,29.7683871 L76.2050934,29.7683871 C75.9049883,29.7683871 75.6598593,29.5232258 75.6598593,29.2245161 L75.6598593,26.676129 C75.6598593,26.3767742 75.9049883,26.1322581 76.2050934,26.1322581 L78.7592206,26.1322581 C79.0593257,26.1322581 79.3051015,26.3767742 79.3051015,26.676129 L79.3051015,29.2245161 Z" id="Fill-28" fill="#545555"></path>
                <path d="M171.366804,24.0836774 C171.066699,24.0836774 170.902417,23.8533548 171.002668,23.5707742 L174.041879,14.9681935 C174.141483,14.6862581 173.977201,14.4559355 173.677096,14.4565806 L170.712911,14.4636774 C170.413453,14.4643226 170.08683,14.6959355 169.987873,14.9785161 L165.742421,27.0746452 C165.642817,27.3572258 165.807098,27.5881935 166.107203,27.5881935 L174.775972,27.5881935 C175.075431,27.5881935 175.321206,27.3430323 175.321206,27.0436774 L175.321206,24.6275484 C175.321206,24.3281935 175.075431,24.0836774 174.775972,24.0836774 L171.366804,24.0836774 Z" id="Fill-30" fill="#545555"></path>
                <path d="M169.792158,12.2052258 C169.895642,11.9245806 170.070272,11.4671613 170.180872,11.1884516 L173.509839,2.76264516 C173.619791,2.48393548 173.464565,2.25619355 173.16446,2.25619355 L170.092263,2.25619355 C169.792805,2.25619355 169.461654,2.48587097 169.357523,2.76651613 L165.203913,13.9452258 C165.099782,14.225871 165.260183,14.4549032 165.560288,14.4549032 L168.415167,14.4549032 C168.715272,14.4549032 169.045776,14.2252258 169.14926,13.9445806 L169.792158,12.2052258 Z" id="Fill-32" fill="#F29700"></path>
            </g>
        </g>
    </g>
</svg>