<svg xmlns="http://www.w3.org/2000/svg" xmlns:xlink="http://www.w3.org/1999/xlink" viewBox="0 0 85 23"><defs><mask id="a" x="0" y="0.2" width="24.43" height="13.95" maskUnits="userSpaceOnUse"><polygon points="0 0.2 24.43 0.2 24.43 14.15 0 14.15 0 0.2" style="fill:#fff;fill-rule:evenodd"/></mask></defs><path d="M56.11,20c0-1.66,1.19-3,3.4-3s3.17,1.35,3.17,2.23v.06h-.54v0c0-.69-.7-1.74-2.61-1.74s-2.85,1-2.85,2.48c0,1.25.81,2.46,2.88,2.46,1.79,0,2.62-.89,2.62-1.74v0h.54v.05c0,1-1,2.23-3.16,2.23-2.53,0-3.45-1.5-3.45-3" style="fill:#a18e00;fill-rule:evenodd"/><polygon points="64.01 17.14 69.17 17.14 69.17 17.65 64.57 17.65 64.57 19.77 68.3 19.77 68.3 20.24 64.57 20.24 64.57 22.39 69.25 22.39 69.25 22.9 64.01 22.9 64.01 17.14" style="fill:#a18e00;fill-rule:evenodd"/><g style="mask:url(#a)"><path d="M16.41,14a59.86,59.86,0,0,1-7.47,0A9.1,9.1,0,0,1,0,5,13,13,0,0,1,.08,2.68,3.07,3.07,0,0,1,3,.2,35.29,35.29,0,0,0,3,5a6.74,6.74,0,0,0,6.11,6.23,43.73,43.73,0,0,0,7.25,0c3.31-.39,5.61-2.29,6-5.46.56,0,2.22,1.28,2.07,2.41-.42,3.17-4,5.6-8,5.83" style="fill:#a18e00;fill-rule:evenodd"/></g><path d="M36.79,13.93h-.3a2.67,2.67,0,0,1-2.63-2.66l0-9.88h3Z" style="fill:#a18e00;fill-rule:evenodd"/><path d="M76.59,11.48c-2.54.1-5.76.15-9,.06-4.77-.14-7-2.18-9.12-4.5,2.11-2.31,4.08-4.22,9.12-4.31,2.67,0,6.73-.07,9,0,3.31.14,5.3,1.9,5.3,4.28s-2.54,4.32-5.3,4.44M76.83.07C74.41,0,70.14,0,67.34,0a13.6,13.6,0,0,0-10.8,5,13.21,13.21,0,0,0-10.8-5H20.43a8.71,8.71,0,0,0-6.86,3.49,3.77,3.77,0,0,0,4.08.08,4.37,4.37,0,0,1,2.85-1H45.66c4.74,0,7,2.23,8.88,4.41a11.52,11.52,0,0,1-5,3.78,3,3,0,0,0-2,3v.08a13.2,13.2,0,0,0,9-4.89,13.49,13.49,0,0,0,10.8,5.1c2.68.09,6.89,0,9.49,0C81.52,14,85,10.89,85,7S81.67.25,76.83.07" style="fill:#a18e00;fill-rule:evenodd"/><path d="M23.1,21,21,17.56h0L18.86,21Zm.29.48H18.56L17.65,23H17l3.67-6h.66L25,23h-.7Z" style="fill:#a18e00;fill-rule:evenodd"/><polygon points="26 17 26.6 17 26.6 22.47 31 22.47 31 23 26 23 26 17" style="fill:#a18e00;fill-rule:evenodd"/><polygon points="32 17 32.6 17 32.6 22.47 37 22.47 37 23 32 23 32 17" style="fill:#a18e00;fill-rule:evenodd"/><polygon points="38.23 23 38.77 23 38.77 17 38.23 17 38.23 23" style="fill:#a18e00;fill-rule:evenodd"/><path d="M46.1,21,44,17.56h0L41.86,21Zm.29.48H41.56L40.65,23H40l3.67-6h.66L48,23h-.7Z" style="fill:#a18e00;fill-rule:evenodd"/><polygon points="48 17 48.91 17 54.4 22.19 54.42 22.19 54.42 17 55 17 55 23 54.4 23 48.59 17.5 48.58 17.5 48.58 23 48 23 48 17" style="fill:#a18e00;fill-rule:evenodd"/></svg>