<svg width="500" height="120" viewBox="0 0 500 120" fill="none" xmlns="http://www.w3.org/2000/svg">
  <path fill-rule="evenodd" clip-rule="evenodd" d="M429.069 51.3722L457.328 21.5753H475.689L438.648 58.7938L480 99.9999H460.681L428.59 66.6584L396.977 99.9999H377.977L419.01 58.683L381.49 21.5753H400.649L429.069 51.3722Z" fill="#4A4A48"/>
  <path fill-rule="evenodd" clip-rule="evenodd" d="M428.59 66.6584L396.977 99.9999H377.977L419.01 58.683L381.49 21.5753H400.649L429.069 51.3722" fill="#058C6C"/>
  <path d="M362.756 20H287.361V32.3077H362.756V20Z" fill="#4A4A48"/>
  <path d="M362.756 53.8463H287.361V66.1539H362.756V53.8463Z" fill="#4A4A48"/>
  <path d="M362.756 87.6923H287.361V100H362.756V87.6923Z" fill="#4A4A48"/>
  <path fill-rule="evenodd" clip-rule="evenodd" d="M438.387 58.7085L428.35 66.8501L428.632 50.9652L438.387 58.7085Z" fill="#058C6C"/>
  <path fill-rule="evenodd" clip-rule="evenodd" d="M140.11 100H124.171V20.704H140.11V100ZM167.803 20.704H206.928C214.227 20.704 221.526 21.4506 228.825 22.944C236.124 24.4373 242.725 26.7893 248.628 30C254.532 33.2107 259.309 37.3173 262.958 42.32C266.607 47.3227 268.432 53.3333 268.432 60.352C268.432 67.1467 266.607 73.0266 262.958 77.992C259.309 82.9574 254.532 87.064 248.628 90.312C242.725 93.56 236.124 95.9866 228.825 97.592C221.526 99.1973 214.227 100 206.928 100H167.803V20.704ZM183.743 90.256H203.708C210.577 90.256 216.937 89.584 222.787 88.24C228.637 86.896 233.682 84.9547 237.922 82.416C242.161 79.8773 245.462 76.7413 247.823 73.008C250.185 69.2746 251.366 65.056 251.366 60.352C251.366 55.424 250.185 51.0933 247.823 47.36C245.462 43.6266 242.161 40.5093 237.922 38.008C233.682 35.5066 228.637 33.6027 222.787 32.296C216.937 30.9893 210.577 30.336 203.708 30.336H183.743V90.256Z" fill="#4A4A48"/>
  <path fill-rule="evenodd" clip-rule="evenodd" d="M78.5148 20.704H109.037V30.448H78.5148V20.704Z" fill="#4A4A48"/>
  <path fill-rule="evenodd" clip-rule="evenodd" d="M72.4879 100H56.5484V30.448H20V20.704H72.4879V30.448V100Z" fill="#058C6C"/>
</svg>
