<?xml version="1.0" encoding="UTF-8"?>
<svg width="580px" height="120px" viewBox="0 0 580 120" version="1.1" xmlns="http://www.w3.org/2000/svg" xmlns:xlink="http://www.w3.org/1999/xlink">
    <!-- Generator: Sketch 53.2 (72643) - https://sketchapp.com -->
    <title>Logos/DEX/wavesdex-black-120</title>
    <desc>Created with Sketch.</desc>
    <g id="Logos/DEX/wavesdex-black-120" stroke="none" stroke-width="1" fill="none" fill-rule="evenodd">
        <rect id="bounds" fill-opacity="0" fill="#0055FF" x="0" y="0" width="580" height="120"></rect>
        <path d="M431.746,34.825 C450.919,34.825 464.365,41.797 464.365,64.871 C464.365,88.028 450.919,95 431.746,95 L417.138,95 L417.138,34.825 L431.746,34.825 Z M431.58,39.888 L422.699,39.888 L422.699,89.937 L431.58,89.937 C445.275,89.937 458.472,87.115 458.472,64.871 C458.472,42.627 445.275,39.888 431.58,39.888 Z M474.823,34.825 L513.418,34.825 L513.418,39.971 L480.384,39.971 L480.384,61.219 L511.426,61.219 L511.426,66.448 L480.384,66.448 L480.384,89.854 L513.418,89.854 L513.418,95 L474.823,95 L474.823,34.825 Z M539.48,64.041 L518.73,34.825 L525.619,34.825 L542.966,59.144 L560.562,34.825 L567.202,34.825 L546.286,63.792 L568.613,95 L561.641,95 L542.8,68.689 L523.793,95 L517.153,95 L539.48,64.041 Z" id="DEX" fill="#000000" fill-rule="nonzero"></path>
        <g id="waves" transform="translate(10.000000, 16.000000)">
            <rect id="logo-bounds" fill-opacity="0" fill="#0055FF" x="0" y="0" width="386" height="80"></rect>
            <polygon id="brand-element" fill="#0055FF" transform="translate(365.845577, 20.406615) rotate(135.000000) translate(-365.845577, -20.406615) " points="351.620761 6.18179922 380.067663 6.18452898 380.070392 34.6314304 351.623491 34.6287006"></polygon>
            <path d="M319.061036,44.6296296 C306.836468,41.962963 312.689443,43.2962963 307.429175,42.1111111 C302.613436,41 300.168522,39.5925926 300.168522,36.1851852 C300.168522,32.5555556 303.650672,29.5185185 311.133589,29.5185185 C318.46833,29.5185185 322.543186,32.7777778 322.543186,35.6666667 C322.543186,36.4074074 322.96302,36.7777778 323.802687,36.7777778 L334.471401,36.7777778 C335.014715,36.7777778 335.286372,36.4320988 335.286372,35.7407407 C335.286372,28.1111111 328.692514,19 311.429942,19 C293.426488,19 287.795777,29.5925926 287.795777,36.4074074 C287.795777,42.1111111 289.87025,48.8518519 303.650672,52.037037 C303.650672,52.037037 310.24453,53.5185185 315.504798,54.7037037 C321.50595,56.037037 324.024952,58.1111111 324.024952,61.5925926 C324.024952,64.7777778 320.839155,68.6296296 312.541267,68.6296296 C304.836084,68.6296296 300.168522,64.9259259 299.946257,60.5555556 C299.946257,59.8148148 299.501727,59.4444444 298.612668,59.4444444 L287.721689,59.4444444 C287.508076,59.4444444 286.906718,59.4444444 286.906718,60.5555556 C287.869866,70.3333333 295.130518,79.5185185 312.467179,79.5185185 C332.100576,79.5185185 336.101344,67.5185185 336.101344,61.2222222 C336.101344,52.7777778 331.285605,47.2962963 319.061036,44.6296296 Z" id="Path" fill="#000000" fill-rule="nonzero"></path>
            <path d="M277.942035,52.4814815 C278.615839,52.4814815 278.98628,52.1372522 279.053359,51.4487935 L279.053359,49.7407407 C279.053359,40.6296296 276.460269,32.7777778 271.348177,27.2962963 C266.236084,21.8148148 259.345873,19 250.899808,19 C242.750096,19 235.933973,22.037037 230.673704,27.962963 C225.413436,33.8888889 222.820345,41.0740741 222.820345,49.2222222 C222.820345,57.8888889 225.561612,65.1481481 230.970058,70.8518519 C236.378503,76.5555556 243.490979,79.4444444 252.085221,79.4444444 C258.308637,79.4444444 263.642994,77.962963 267.940115,74.9259259 C272.237236,71.962963 276.756622,67.0740741 278.312476,60.4074074 C278.361042,59.6666667 278.089385,59.2962963 277.497505,59.2962963 L266.828791,59.2962963 C266.224612,59.2962963 265.73069,59.6666667 265.347025,60.4074074 C262.679846,65.7407407 258.60499,68.2592593 251.862956,68.2592593 C247.491747,68.2592593 243.565067,66.7037037 240.305182,63.6666667 C237.193474,60.7777778 235.415355,57.2962963 234.970825,52.3333333 L277.942035,52.4814815 Z M235.711708,42.1111111 C237.563916,35.2222222 243.342802,30.1111111 250.899808,30.1111111 C260.901727,30.1111111 265.050672,37.2222222 266.236084,42.1111111 L235.711708,42.1111111 Z" id="Shape" fill="#000000" fill-rule="nonzero"></path>
            <path d="M220.115931,19 L208.706334,19 C208.176315,19.0445963 207.756481,19.3999262 207.446833,20.0659898 L191.406541,64 L175.588868,20.0659898 C175.332031,19.3553299 174.912198,19 174.329367,19 L162.697505,19 C161.99241,19 161.745449,19.3553299 161.956622,20.0659898 L184.701727,77.857868 C184.903804,78.6192893 185.348334,79 186.035317,79 L196.555854,79 C197.099283,79 197.543812,78.6192893 197.889443,77.857868 L220.856814,20.0659898 C221.067323,19.378239 220.820362,19.0229091 220.115931,19 Z" id="Path" fill="#000000" fill-rule="nonzero"></path>
            <path d="M141.323225,20.1851852 C141.327141,24.6226778 141.327141,26.8942827 141.323225,27 C141.323225,27.2963562 141.127701,27.2639923 141.10096,27.2222222 C139.619194,25.2962963 137.61881,23.5925926 135.247985,22.1851852 C134.729367,21.8888889 134.13666,21.5925926 133.543954,21.2962963 C130.358157,19.7407407 126.727831,19 122.801152,19 C115.466411,19 109.020729,21.962963 103.686372,27.7407407 C98.3520154,33.5185185 95.6848369,40.7777778 95.6848369,49.2962963 C95.6848369,57.8148148 98.3520154,65.0740741 103.686372,70.8518519 C109.020729,76.6296296 115.466411,79.5925926 122.801152,79.5925926 C126.727831,79.5925926 130.284069,78.8518519 133.469866,77.2962963 C134.062572,77 134.729367,76.7037037 135.322073,76.3333333 C137.61881,74.9259259 139.545106,73.3703704 141.026871,71.5185185 C141.10096,71.4444444 141.350021,71.3158264 141.397313,71.5185185 L141.397313,77.5185185 C141.347921,78.2592593 141.718362,78.6296296 142.508637,78.6296296 L152.214203,78.6296296 C152.955086,78.6296296 153.325528,78.2592593 153.325528,77.5185185 L153.325528,20.1111111 C153.325528,19.3703704 152.955086,19 152.214203,19 L142.434549,19 C141.693666,19 141.323225,19.3950617 141.323225,20.1851852 Z M136.433397,63.2222222 C133.173512,66.7037037 131.120308,67.9650061 125.505182,68.4074074 C119.890056,68.8498087 114.503647,66.7037037 111.169674,63.1481481 C107.835701,59.6666667 106.205758,55 106.205758,49.1481481 C106.205758,43.3703704 107.909789,38.7037037 111.169674,35.1481481 C114.503647,31.6666667 119.83762,29.8888889 124.505182,29.8888889 C129.172745,29.8888889 133.099424,31.5925926 136.433397,35.0740741 C138.581958,37.3703704 139.989635,40.1111111 140.804607,43.4444444 C141.619578,46.7777778 141.545489,51.2222222 140.804607,54.7037037 C140.063724,58.1851852 138.581958,61 136.433397,63.2222222 Z" id="Shape" fill="#000000" fill-rule="nonzero"></path>
            <path d="M90.8690979,19 L79.5335893,19 C78.9091299,19 78.5139924,19.3553299 78.3481766,20.0659898 L66.7670833,65 L53.6026871,20.0659898 C53.4151566,19.3553299 53.020019,19 52.4172745,19 L40.5631478,19 C40.0170973,19 39.6219597,19.3553299 39.3777351,20.0659898 L25.5951244,65 L14.4840691,20.0659898 C14.3350862,19.3553299 13.9399486,19 13.2986564,19 L1.74088292,19 C1.13634906,19 0.889388086,19.3553299 1,20.0659898 L19.1516315,77.857868 C19.3300611,78.6192893 19.7498947,79 20.4111324,79 L31.8207294,79 C32.4201584,79 32.839992,78.6192893 33.0802303,77.857868 L46.315294,35.7526656 L59.3815739,77.857868 C59.5604445,78.6192893 59.9802781,79 60.6410749,79 L72.1988484,79 C72.7445631,79 73.1643968,78.6192893 73.4583493,77.857868 L91.6099808,20.0659898 C91.7680567,19.3553299 91.5210957,19 90.8690979,19 Z" id="Path" fill="#000000" fill-rule="nonzero"></path>
        </g>
    </g>
</svg>