<svg xmlns="http://www.w3.org/2000/svg" width="198" height="59" viewBox="0 0 198 59" fill="none">
<g clip-path="url(#clip0_336_37)">
<path d="M182.233 -5.23906e-05H15.7764C15.1696 -5.23906e-05 14.5702 -5.23905e-05 13.965 0.00289761C13.4584 0.00584761 12.9559 0.0144174 12.4445 0.0216301C11.3334 0.0332853 10.225 0.12042 9.12877 0.282277C8.03411 0.447658 6.97373 0.759448 5.98351 1.2071C4.99451 1.65854 4.09082 2.24514 3.30524 2.94563C2.51554 3.64414 1.85726 4.45152 1.35572 5.33673C0.852798 6.22018 0.504068 7.16688 0.321578 8.14413C0.137353 9.12015 0.0382193 10.1074 0.0250677 11.0971C0.00971269 11.5493 0.00809115 12.0031 0 12.4553V46.5489C0.00809115 47.0069 0.00971269 47.4505 0.0250677 47.9087C0.0382234 48.8983 0.137357 49.8855 0.321578 50.8615C0.503564 51.8393 0.852314 52.7865 1.35572 53.6703C1.85704 54.5527 2.51541 55.3568 3.30524 56.0514C4.08784 56.755 4.99211 57.342 5.98351 57.79C6.97372 58.2389 8.03398 58.5525 9.12877 58.7204C10.2252 58.881 11.3335 58.9682 12.4445 58.9812C12.9559 58.9912 13.4584 58.997 13.965 58.997C14.5701 58.9999 15.1697 58.9999 15.7764 58.9999H182.233C182.827 58.9999 183.431 58.9999 184.026 58.997C184.53 58.997 185.047 58.9912 185.552 58.9812C186.66 58.9689 187.767 58.8817 188.861 58.7204C189.959 58.5513 191.023 58.2378 192.018 57.79C193.009 57.3418 193.912 56.7548 194.694 56.0514C195.482 55.3541 196.142 54.5505 196.649 53.6703C197.149 52.7859 197.494 51.8387 197.674 50.8615C197.858 49.8854 197.961 48.8984 197.981 47.9087C197.987 47.4505 197.987 47.0069 197.987 46.5489C198 46.013 198 45.4801 198 44.9355V14.0657C198 13.5256 198 12.9897 197.987 12.4553C197.987 12.0031 197.987 11.5493 197.981 11.097C197.961 10.1073 197.858 9.12022 197.674 8.14407C197.494 7.16739 197.148 6.22076 196.649 5.33667C195.628 3.56236 194.008 2.11809 192.018 1.20697C191.023 0.760409 189.959 0.448702 188.861 0.282145C187.767 0.119574 186.661 0.0324091 185.552 0.0214236C185.047 0.0142256 184.53 0.00558211 184.026 0.00270586C183.431 -0.000244141 182.827 -0.000244141 182.233 -0.000244141V-5.23906e-05Z" fill="#A6A6A6"/>
<path d="M13.9729 57.7093C13.4688 57.7093 12.9768 57.7035 12.4766 57.6935C11.4405 57.6815 10.4067 57.601 9.38391 57.4529C8.43016 57.3065 7.50624 57.0341 6.64261 56.6448C5.7869 56.2586 5.00643 55.7524 4.33109 55.1453C3.64597 54.5454 3.07558 53.8496 2.64252 53.0854C2.20469 52.3164 1.90168 51.492 1.74406 50.6411C1.57383 49.7267 1.48174 48.8022 1.46856 47.8754C1.45807 47.5644 1.44434 46.5286 1.44434 46.5286V12.4553C1.44434 12.4553 1.45896 11.4355 1.46864 11.1359C1.48126 10.2106 1.57282 9.28747 1.74253 8.37455C1.90045 7.5213 2.20369 6.69456 2.64176 5.92296C3.07323 5.15937 3.64045 4.46305 4.32144 3.86098C5.00167 3.25319 5.78464 2.74429 6.6418 2.35284C7.50344 1.96474 8.42562 1.69428 9.37744 1.55053C10.4036 1.40091 11.441 1.32002 12.4807 1.30854L13.9737 1.29053H184.018L185.529 1.30926C186.559 1.32017 187.587 1.40034 188.604 1.54908C189.565 1.69464 190.497 1.96699 191.368 2.35716C193.086 3.14606 194.483 4.39417 195.364 5.92656C195.795 6.69283 196.094 7.51282 196.25 8.35871C196.422 9.27911 196.518 10.2095 196.537 11.1423C196.542 11.5601 196.542 12.0088 196.542 12.4553C196.555 13.0084 196.555 13.5349 196.555 14.0657V44.9355C196.555 45.4713 196.555 45.9942 196.542 46.5214C196.542 47.0011 196.542 47.4405 196.536 47.8927C196.517 48.8089 196.422 49.7227 196.253 50.6266C196.099 51.4837 195.797 52.3145 195.36 53.0899C194.923 53.8457 194.356 54.5355 193.679 55.1338C193.003 55.7441 192.221 56.2534 191.364 56.642C190.495 57.0343 189.564 57.3077 188.604 57.4529C187.581 57.6018 186.547 57.6823 185.511 57.6935C185.026 57.7035 184.519 57.7093 184.026 57.7093L182.232 57.7122L13.9729 57.7093Z" fill="black"/>
<path d="M40.9836 29.9434C41.0014 28.7123 41.3683 27.5052 42.05 26.4344C42.7318 25.3636 43.7063 24.464 44.8829 23.8191C44.1354 22.8675 43.1493 22.0844 42.003 21.5319C40.8566 20.9795 39.5815 20.6729 38.279 20.6366C35.5004 20.3766 32.8068 22.1187 31.3909 22.1187C29.9476 22.1187 27.7676 20.6624 25.4202 20.7054C23.9017 20.7492 22.4219 21.1428 21.1249 21.8479C19.8279 22.553 18.7579 23.5457 18.0191 24.729C14.8191 29.668 17.206 36.9265 20.2714 40.9187C21.8051 42.8736 23.5975 45.0573 25.9429 44.9799C28.2379 44.895 29.0951 43.6753 31.8655 43.6753C34.6101 43.6753 35.4143 44.9799 37.8072 44.9306C40.27 44.895 41.8216 42.9671 43.3015 40.9937C44.4034 39.6007 45.2514 38.0612 45.8139 36.4322C44.3831 35.8927 43.1621 34.9898 42.3032 33.8359C41.4442 32.682 40.9853 31.3283 40.9836 29.9434V29.9434Z" fill="white"/>
<path d="M36.4637 18.011C37.8064 16.574 38.468 14.727 38.3078 12.8623C36.2563 13.0544 34.3613 13.9284 33.0004 15.3102C32.335 15.9853 31.8254 16.7706 31.5007 17.6214C31.176 18.4721 31.0425 19.3715 31.108 20.2683C32.1341 20.2777 33.1492 20.0794 34.0769 19.6884C35.0046 19.2974 35.8207 18.7239 36.4637 18.011Z" fill="white"/>
<path d="M69.9951 40.0308H62.163L60.2822 44.9816H56.9648L64.3832 26.665H67.8298L75.2482 44.9816H71.8743L69.9951 40.0308ZM62.9742 37.7463H69.1824L66.1219 29.7116H66.0363L62.9742 37.7463Z" fill="white"/>
<path d="M91.2695 38.3051C91.2695 42.455 88.7778 45.1212 85.0178 45.1212C84.0653 45.1657 83.118 44.9701 82.2844 44.5569C81.4508 44.1437 80.7646 43.5296 80.3043 42.7848H80.2332V49.3993H77.1582V31.6273H80.1347V33.8484H80.1912C80.6726 33.1073 81.3704 32.4964 82.2104 32.0806C83.0503 31.6649 84.001 31.46 84.9612 31.4876C88.7632 31.4876 91.2695 34.1668 91.2695 38.3051ZM88.1089 38.3051C88.1089 35.6015 86.5415 33.824 84.15 33.824C81.8006 33.824 80.2203 35.6389 80.2203 38.3051C80.2203 40.9959 81.8006 42.7978 84.15 42.7978C86.5415 42.7978 88.1089 41.0333 88.1089 38.3051Z" fill="white"/>
<path d="M107.757 38.3051C107.757 42.455 105.266 45.1212 101.506 45.1212C100.553 45.1656 99.6058 44.9701 98.7722 44.5569C97.9386 44.1436 97.2524 43.5295 96.7921 42.7848H96.721V49.3993H93.646V31.6273H96.6224V33.8484H96.6789C97.1604 33.1073 97.8582 32.4964 98.6981 32.0806C99.5381 31.6649 100.489 31.46 101.449 31.4876C105.251 31.4876 107.757 34.1668 107.757 38.3051ZM104.597 38.3051C104.597 35.6014 103.029 33.8239 100.638 33.8239C98.2884 33.8239 96.7081 35.6389 96.7081 38.3051C96.7081 40.9958 98.2884 42.7978 100.638 42.7978C103.029 42.7978 104.597 41.0333 104.597 38.3051H104.597Z" fill="white"/>
<path d="M118.655 39.8781C118.883 41.6945 120.862 42.8871 123.567 42.8871C126.159 42.8871 128.024 41.6945 128.024 40.0567C128.024 38.635 126.899 37.7837 124.236 37.2003L121.573 36.6285C117.8 35.8161 116.049 34.2431 116.049 31.6907C116.049 28.5303 119.138 26.3596 123.525 26.3596C127.867 26.3596 130.843 28.5303 130.944 31.6907H127.84C127.654 29.8627 125.959 28.7594 123.482 28.7594C121.004 28.7594 119.309 29.8757 119.309 31.5005C119.309 32.7955 120.392 33.5575 123.04 34.1408L125.304 34.6363C129.52 35.525 131.272 37.0346 131.272 39.7138C131.272 43.1406 128.21 45.2868 123.339 45.2868C118.783 45.2868 115.706 43.191 115.507 39.878L118.655 39.8781Z" fill="white"/>
<path d="M137.908 28.467V31.6273H140.757V33.7981H137.908V41.1601C137.908 42.3038 138.478 42.8368 139.73 42.8368C140.069 42.8315 140.406 42.8103 140.742 42.7733V44.9311C140.179 45.0249 139.607 45.0674 139.034 45.0579C136.001 45.0579 134.818 44.0424 134.818 41.4525V33.7981H132.64V31.6273H134.818V28.467H137.908Z" fill="white"/>
<path d="M142.406 38.3052C142.406 34.1034 145.182 31.4631 149.511 31.4631C153.855 31.4631 156.618 34.1034 156.618 38.3052C156.618 42.5184 153.869 45.1472 149.511 45.1472C145.155 45.1472 142.406 42.5184 142.406 38.3052ZM153.485 38.3052C153.485 35.4229 152.003 33.7217 149.511 33.7217C147.019 33.7217 145.539 35.4358 145.539 38.3052C145.539 41.199 147.019 42.8872 149.511 42.8872C152.003 42.8872 153.484 41.199 153.484 38.3052H153.485Z" fill="white"/>
<path d="M159.153 31.6274H162.086V33.9004H162.157C162.355 33.1905 162.822 32.5631 163.478 32.1237C164.134 31.6844 164.94 31.4598 165.76 31.4877C166.114 31.4866 166.468 31.5209 166.814 31.59V34.1539C166.366 34.0321 165.9 33.9761 165.432 33.9883C164.985 33.9721 164.54 34.0423 164.127 34.1941C163.713 34.3458 163.342 34.5755 163.037 34.8674C162.733 35.1593 162.503 35.5065 162.363 35.8851C162.223 36.2637 162.177 36.6647 162.228 37.0607V44.9816H159.153L159.153 31.6274Z" fill="white"/>
<path d="M180.991 41.0593C180.577 43.4835 177.929 45.1472 174.54 45.1472C170.182 45.1472 167.478 42.5443 167.478 38.3686C167.478 34.1798 170.197 31.4631 174.411 31.4631C178.556 31.4631 181.162 34.0012 181.162 38.0502V38.9894H170.582V39.155C170.533 39.6465 170.602 40.1416 170.784 40.6075C170.966 41.0733 171.258 41.4993 171.639 41.857C172.02 42.2148 172.482 42.4962 172.995 42.6825C173.507 42.8688 174.058 42.9557 174.612 42.9376C175.338 42.9983 176.067 42.8483 176.691 42.5098C177.314 42.1714 177.798 41.6627 178.071 41.0593L180.991 41.0593ZM170.596 37.0736H178.086C178.113 36.6317 178.038 36.1895 177.865 35.7747C177.692 35.3599 177.424 34.9815 177.079 34.6633C176.734 34.345 176.319 34.0938 175.86 33.9253C175.401 33.7568 174.908 33.6748 174.411 33.6843C173.91 33.6816 173.414 33.7674 172.951 33.9366C172.487 34.1059 172.066 34.3552 171.711 34.6703C171.357 34.9855 171.076 35.3601 170.884 35.7726C170.693 36.185 170.595 36.6272 170.596 37.0736V37.0736Z" fill="white"/>
<path d="M62.5886 12.8782C63.2333 12.8369 63.8802 12.9237 64.4827 13.1323C65.0852 13.341 65.6282 13.6662 66.0726 14.0845C66.517 14.5029 66.8517 15.0039 67.0526 15.5515C67.2535 16.0992 67.3155 16.6797 67.2342 17.2513C67.2342 20.063 65.5295 21.6792 62.5886 21.6792H59.0225V12.8782H62.5886ZM60.5559 20.4346H62.4174C62.878 20.4591 63.339 20.3918 63.7668 20.2375C64.1946 20.0832 64.5784 19.8458 64.8903 19.5426C65.2022 19.2394 65.4343 18.878 65.5697 18.4847C65.7052 18.0915 65.7406 17.6762 65.6733 17.2692C65.7357 16.8638 65.6967 16.4512 65.5592 16.0608C65.4217 15.6704 65.189 15.312 64.8778 15.0112C64.5666 14.7104 64.1847 14.4747 63.7593 14.3209C63.3339 14.1672 62.8757 14.0992 62.4174 14.1219H60.5559V20.4346Z" fill="white"/>
<path d="M68.9663 18.3553C68.9195 17.9189 68.9755 17.4785 69.1308 17.0624C69.286 16.6464 69.5371 16.2638 69.868 15.9394C70.1988 15.6149 70.6021 15.3556 71.0519 15.1782C71.5017 15.0008 71.9881 14.9092 72.48 14.9092C72.9719 14.9092 73.4583 15.0008 73.9081 15.1782C74.3579 15.3556 74.7612 15.6149 75.092 15.9394C75.4229 16.2638 75.674 16.6464 75.8292 17.0624C75.9845 17.4785 76.0405 17.9189 75.9937 18.3553C76.0414 18.7923 75.9861 19.2333 75.8312 19.65C75.6763 20.0667 75.4254 20.4499 75.0945 20.7751C74.7636 21.1002 74.36 21.36 73.9097 21.5378C73.4595 21.7155 72.9725 21.8074 72.48 21.8074C71.9875 21.8074 71.5005 21.7155 71.0503 21.5378C70.6 21.36 70.1964 21.1002 69.8655 20.7751C69.5346 20.4499 69.2837 20.0667 69.1288 19.65C68.9739 19.2333 68.9186 18.7923 68.9663 18.3553V18.3553ZM74.4812 18.3553C74.4812 16.9156 73.7557 16.0737 72.4824 16.0737C71.2043 16.0737 70.4853 16.9156 70.4853 18.3554C70.4853 19.8066 71.2043 20.642 72.4824 20.642C73.7557 20.642 74.4812 19.8008 74.4812 18.3553H74.4812Z" fill="white"/>
<path d="M85.3348 21.6792H83.8094L82.2695 16.7875H82.1532L80.6197 21.6792H79.1089L77.0552 15.0374H78.5466L79.8813 20.1055H79.9912L81.523 15.0374H82.9337L84.4655 20.1055H84.5818L85.91 15.0374H87.3805L85.3348 21.6792Z" fill="white"/>
<path d="M89.1079 15.0373H90.5234V16.0924H90.6333C90.8197 15.7135 91.1341 15.3958 91.5326 15.1837C91.9312 14.9716 92.394 14.8756 92.8567 14.9091C93.2192 14.8848 93.5832 14.9336 93.9218 15.0517C94.2603 15.1698 94.5647 15.3544 94.8124 15.5916C95.06 15.8289 95.2447 16.1127 95.3525 16.4222C95.4604 16.7317 95.4888 17.0589 95.4356 17.3795V21.6791H93.9652V17.7086C93.9652 16.6413 93.4449 16.1105 92.3574 16.1105C92.1113 16.1002 91.8655 16.1376 91.6371 16.2199C91.4087 16.3023 91.2029 16.4277 91.0339 16.5876C90.865 16.7474 90.7368 16.938 90.6581 17.1461C90.5795 17.3543 90.5523 17.5752 90.5783 17.7936V21.6792H89.1079L89.1079 15.0373Z" fill="white"/>
<path d="M97.7788 12.4446H99.2492V21.6792H97.7788V12.4446Z" fill="white"/>
<path d="M101.293 18.3555C101.246 17.919 101.302 17.4785 101.457 17.0625C101.613 16.6464 101.864 16.2639 102.195 15.9394C102.526 15.6149 102.929 15.3556 103.379 15.1782C103.829 15.0008 104.315 14.9092 104.807 14.9092C105.299 14.9092 105.785 15.0008 106.235 15.1782C106.685 15.3556 107.088 15.6149 107.419 15.9394C107.75 16.2639 108.001 16.6464 108.157 17.0625C108.312 17.4785 108.368 17.919 108.321 18.3555C108.369 18.7924 108.313 19.2334 108.158 19.6501C108.004 20.0669 107.753 20.4501 107.422 20.7752C107.091 21.1003 106.687 21.3601 106.237 21.5379C105.787 21.7156 105.299 21.8075 104.807 21.8075C104.315 21.8075 103.828 21.7156 103.377 21.5379C102.927 21.3601 102.523 21.1003 102.192 20.7752C101.861 20.4501 101.61 20.0669 101.456 19.6501C101.301 19.2334 101.245 18.7924 101.293 18.3555V18.3555ZM106.808 18.3555C106.808 16.9158 106.082 16.0738 104.809 16.0738C103.531 16.0738 102.812 16.9158 102.812 18.3555C102.812 19.8067 103.531 20.6422 104.809 20.6422C106.082 20.6421 106.808 19.8009 106.808 18.3555H106.808Z" fill="white"/>
<path d="M109.869 19.8009C109.869 18.6053 110.868 17.9161 112.64 17.8181L114.659 17.7144V17.1411C114.659 16.4396 114.138 16.0435 113.133 16.0435C112.312 16.0435 111.744 16.3122 111.58 16.7817H110.157C110.307 15.6409 111.511 14.9092 113.201 14.9092C115.069 14.9092 116.122 15.7381 116.122 17.1411V21.6792H114.707V20.7458H114.591C114.355 21.0806 114.023 21.3536 113.63 21.5368C113.237 21.72 112.796 21.8069 112.353 21.7886C112.04 21.8176 111.724 21.7879 111.425 21.7013C111.126 21.6147 110.85 21.4732 110.616 21.2859C110.382 21.0987 110.195 20.8698 110.066 20.614C109.937 20.3582 109.87 20.0812 109.869 19.8009V19.8009ZM114.659 19.2333V18.6781L112.839 18.7818C111.813 18.843 111.348 19.1541 111.348 19.7396C111.348 20.3374 111.929 20.6853 112.729 20.6853C112.964 20.7064 113.2 20.6853 113.425 20.6233C113.65 20.5612 113.859 20.4594 114.039 20.3239C114.219 20.1884 114.367 20.0221 114.473 19.8347C114.58 19.6474 114.643 19.4428 114.659 19.2333V19.2333Z" fill="white"/>
<path d="M118.055 18.3554C118.055 16.2567 119.265 14.9272 121.148 14.9272C121.614 14.9081 122.076 15.0075 122.48 15.2138C122.885 15.4202 123.215 15.7249 123.433 16.0924H123.543V12.4446H125.013V21.6792H123.604V20.6298H123.488C123.253 20.9949 122.912 21.2958 122.499 21.5001C122.087 21.7043 121.619 21.8041 121.148 21.7886C119.253 21.7887 118.055 20.4592 118.055 18.3554ZM119.574 18.3554C119.574 19.7641 120.319 20.6118 121.565 20.6118C122.804 20.6118 123.57 19.7519 123.57 18.3612C123.57 16.9769 122.796 16.1047 121.565 16.1047C120.327 16.1047 119.574 16.9582 119.574 18.3554H119.574Z" fill="white"/>
<path d="M131.097 18.3553C131.05 17.9189 131.106 17.4785 131.261 17.0624C131.416 16.6464 131.668 16.2638 131.998 15.9394C132.329 15.6149 132.732 15.3556 133.182 15.1782C133.632 15.0008 134.119 14.9092 134.61 14.9092C135.102 14.9092 135.589 15.0008 136.039 15.1782C136.488 15.3556 136.892 15.6149 137.222 15.9394C137.553 16.2638 137.804 16.6464 137.96 17.0624C138.115 17.4785 138.171 17.9189 138.124 18.3553C138.172 18.7923 138.116 19.2333 137.962 19.65C137.807 20.0667 137.556 20.4499 137.225 20.7751C136.894 21.1002 136.49 21.36 136.04 21.5378C135.59 21.7155 135.103 21.8074 134.61 21.8074C134.118 21.8074 133.631 21.7155 133.181 21.5378C132.73 21.36 132.327 21.1002 131.996 20.7751C131.665 20.4499 131.414 20.0667 131.259 19.65C131.104 19.2333 131.049 18.7923 131.097 18.3553V18.3553ZM136.612 18.3553C136.612 16.9156 135.886 16.0737 134.613 16.0737C133.335 16.0737 132.616 16.9156 132.616 18.3554C132.616 19.8066 133.335 20.642 134.613 20.642C135.886 20.642 136.612 19.8008 136.612 18.3553Z" fill="white"/>
<path d="M140.097 15.0373H141.513V16.0924H141.623C141.809 15.7135 142.123 15.3958 142.522 15.1837C142.92 14.9716 143.383 14.8756 143.846 14.9091C144.208 14.8848 144.573 14.9336 144.911 15.0517C145.25 15.1698 145.554 15.3544 145.802 15.5916C146.049 15.8289 146.234 16.1127 146.342 16.4222C146.45 16.7317 146.478 17.0589 146.425 17.3795V21.6791H144.954V17.7086C144.954 16.6413 144.434 16.1105 143.347 16.1105C143.101 16.1002 142.855 16.1376 142.626 16.2199C142.398 16.3023 142.192 16.4277 142.023 16.5876C141.854 16.7474 141.726 16.938 141.647 17.1461C141.569 17.3543 141.542 17.5752 141.568 17.7936V21.6792H140.097V15.0373Z" fill="white"/>
<path d="M154.733 13.3838V15.0676H156.348V16.1717H154.733V19.587C154.733 20.2827 155.055 20.5874 155.787 20.5874C155.974 20.5868 156.162 20.5767 156.348 20.5571V21.649C156.084 21.6911 155.816 21.7135 155.548 21.7159C153.913 21.7159 153.261 21.2031 153.261 19.9226V16.1717H152.079V15.0676H153.261V13.3838H154.733Z" fill="white"/>
<path d="M158.356 12.4446H159.813V16.1047H159.93C160.125 15.7222 160.448 15.4027 160.855 15.1898C161.261 14.9769 161.732 14.8809 162.202 14.9149C162.562 14.8974 162.923 14.9511 163.257 15.0721C163.592 15.1931 163.893 15.3785 164.138 15.615C164.383 15.8515 164.566 16.1333 164.675 16.4403C164.784 16.7473 164.816 17.0719 164.768 17.391V21.6792H163.296V17.7144C163.296 16.6535 162.741 16.1162 161.702 16.1162C161.45 16.0977 161.196 16.1287 160.958 16.207C160.72 16.2852 160.504 16.4089 160.325 16.5693C160.146 16.7296 160.009 16.9229 159.923 17.1355C159.837 17.3481 159.804 17.5749 159.826 17.8001V21.6792H158.356L158.356 12.4446Z" fill="white"/>
<path d="M173.342 19.886C173.142 20.493 172.709 21.0181 172.119 21.3693C171.529 21.7206 170.819 21.8757 170.113 21.8075C169.622 21.819 169.135 21.7352 168.684 21.5619C168.233 21.3885 167.83 21.1298 167.502 20.8036C167.175 20.4774 166.931 20.0916 166.787 19.673C166.644 19.2544 166.604 18.8129 166.671 18.3793C166.606 17.9443 166.646 17.5019 166.789 17.082C166.932 16.6621 167.175 16.2746 167.501 15.9455C167.827 15.6165 168.228 15.3537 168.677 15.1749C169.127 14.9961 169.614 14.9055 170.107 14.9093C172.18 14.9093 173.431 16.1719 173.431 18.2575V18.7149H168.169V18.7884C168.146 19.0321 168.181 19.2775 168.27 19.5087C168.36 19.7399 168.503 19.9518 168.689 20.131C168.876 20.3101 169.103 20.4525 169.355 20.549C169.607 20.6454 169.879 20.6938 170.154 20.6911C170.505 20.7288 170.862 20.6723 171.177 20.5289C171.493 20.3856 171.754 20.1617 171.926 19.8859L173.342 19.886ZM168.169 17.7455H171.933C171.951 17.5226 171.917 17.2987 171.833 17.0882C171.748 16.8777 171.616 16.6852 171.443 16.5232C171.27 16.3611 171.061 16.2331 170.83 16.1473C170.598 16.0615 170.349 16.0198 170.099 16.0249C169.844 16.0221 169.592 16.0646 169.356 16.1501C169.121 16.2356 168.907 16.3622 168.727 16.5226C168.547 16.6829 168.405 16.8737 168.309 17.0838C168.214 17.2938 168.166 17.5188 168.169 17.7455H168.169Z" fill="white"/>
</g>
<defs>
<clipPath id="clip0_336_37">
<rect width="198" height="59" fill="white"/>
</clipPath>
</defs>
</svg>
