<?xml version="1.0" encoding="UTF-8"?>
<svg width="24px" height="24px" viewBox="0 0 24 24" version="1.1" xmlns="http://www.w3.org/2000/svg" xmlns:xlink="http://www.w3.org/1999/xlink">
    <!-- Generator: Sketch 52.6 (67491) - http://www.bohemiancoding.com/sketch -->
    <title>Group 6 Copy 4</title>
    <desc>Created with Sketch.</desc>
    <defs>
        <polygon id="path-1" points="0 0.205714286 23.7905455 0.205714286 23.7905455 23.5713 0 23.5713"></polygon>
    </defs>
    <g id="main" stroke="none" stroke-width="1" fill="none" fill-rule="evenodd">
        <g id="Wallet" transform="translate(-1107.000000, -678.000000)">
            <g id="Group-6-Copy-4" transform="translate(1107.000000, 678.000000)">
                <g id="Group-3" transform="translate(0.000000, 0.222857)">
                    <mask id="mask-2" fill="white">
                        <use xlink:href="#path-1"></use>
                    </mask>
                    <g id="Clip-2"></g>
                    <path d="M11.8952727,21.6641571 C6.39796364,21.6641571 1.94181818,17.2875857 1.94181818,11.8884429 C1.94181818,6.48972857 6.39796364,2.11272857 11.8952727,2.11272857 C17.3925818,2.11272857 21.8487273,6.48972857 21.8487273,11.8884429 C21.8439273,17.2854429 17.3904,21.6594429 11.8952727,21.6641571 M11.8952727,0.205585714 C5.32581818,0.205585714 0,5.4363 0,11.8884429 C0,18.3405857 5.32581818,23.5713 11.8952727,23.5713 C18.4651636,23.5713 23.7905455,18.3405857 23.7905455,11.8884429 C23.7831273,5.4393 18.4621091,0.212871429 11.8952727,0.205585714" id="Fill-1" fill="#FF4221" mask="url(#mask-2)"></path>
                </g>
                <path d="M16.6645964,8.71705714 L10.6340509,14.7170571 L7.14314182,11.2156286 C6.76743273,10.8406286 6.15303273,10.8359143 5.77077818,11.2049143 C5.38896,11.5743429 5.38416,12.1777714 5.75986909,12.5527714 L9.96205091,16.7442 C10.0275055,16.8003429 10.1008145,16.8466286 10.1802327,16.8813429 C10.2094691,16.9066286 10.24176,16.9284857 10.2762327,16.9456286 C10.3927418,16.9927714 10.5171055,17.0176286 10.6427782,17.0184857 C10.7688873,17.0180571 10.8932509,16.9932 11.00976,16.9456286 C11.0512145,16.9237714 11.0909236,16.8980571 11.1275782,16.8684857 C11.1982691,16.8363429 11.2645964,16.7947714 11.3235055,16.7442 L18.0478691,10.0584857 C18.4436509,9.70105714 18.4693964,9.09677143 18.1054691,8.70805714 C17.7415418,8.31977143 17.1258327,8.29448571 16.7300509,8.65191429 C16.7077964,8.67248571 16.6855418,8.69434286 16.6645964,8.71705714" id="Fill-4" fill="#FF4221"></path>
            </g>
        </g>
    </g>
</svg>