<svg width="924" height="274" viewBox="0 0 924 274" fill="none" xmlns="http://www.w3.org/2000/svg">
<path d="M889.35 273.973H34.6497C15.8465 273.973 0.46167 258.564 0.46167 239.73V34.2702C0.46167 15.4362 15.8462 0.0267334 34.6497 0.0267334H889.35C908.153 0.0267334 923.538 15.4362 923.538 34.2702V239.73C923.538 258.564 908.154 273.973 889.35 273.973" fill="black"/>
<path d="M889.35 0.0267334H34.6497C15.8465 0.0267334 0.46167 15.4362 0.46167 34.2702V239.73C0.46167 258.564 15.8462 273.973 34.6497 273.973H889.35C908.153 273.973 923.538 258.564 923.538 239.73V34.2702C923.539 15.4362 908.154 0.0267334 889.35 0.0267334H889.35ZM889.35 5.50549C905.186 5.50549 918.068 18.4114 918.068 34.2702V239.73C918.068 255.592 905.186 268.497 889.35 268.497H34.6497C18.8167 268.497 5.93181 255.591 5.93181 239.73V34.2702C5.93181 18.4114 18.8164 5.5058 34.6497 5.5058H889.35" fill="#A6A6A6"/>
<path d="M324.69 70.1803C324.69 75.9183 322.994 80.4875 319.596 83.896C315.737 87.9491 310.707 89.9771 304.524 89.9771C298.602 89.9771 293.568 87.9226 289.428 83.8077C285.28 79.6958 283.21 74.5969 283.21 68.5133C283.21 62.427 285.28 57.3311 289.428 53.2159C293.568 49.1044 298.602 47.0468 304.524 47.0468C307.462 47.0468 310.275 47.6223 312.946 48.7701C315.616 49.9206 317.759 51.4479 319.361 53.3606L315.755 56.9747C313.039 53.7244 309.3 52.1004 304.524 52.1004C300.205 52.1004 296.471 53.6203 293.32 56.662C290.168 59.7067 288.592 63.6551 288.592 68.5133C288.592 73.3719 290.168 77.32 293.32 80.365C296.471 83.4066 300.205 84.9262 304.524 84.9262C309.105 84.9262 312.924 83.3983 315.982 80.3382C317.967 78.3446 319.115 75.5735 319.422 72.0151H304.523V67.0793H324.404C324.596 68.1526 324.69 69.1825 324.69 70.1803" fill="white"/>
<path d="M324.69 70.1804H324.006C324.001 75.7875 322.366 80.1425 319.112 83.4119L319.105 83.4174L319.102 83.423C315.366 87.3363 310.562 89.284 304.523 89.2923C298.76 89.284 293.936 87.315 289.908 83.3236C285.889 79.3241 283.901 74.4415 283.894 68.5134C283.901 62.5825 285.889 57.7027 289.908 53.7059C293.936 49.7117 298.76 47.7399 304.523 47.7316C307.374 47.7316 310.087 48.2887 312.675 49.3987C315.266 50.5172 317.313 51.9829 318.837 53.8026L319.361 53.3606L318.878 52.8764L315.272 56.493L315.755 56.9747L316.282 56.5364C313.439 53.1251 309.449 51.4055 304.524 51.4156C300.045 51.4101 296.105 53.0131 292.846 56.1702C289.556 59.3374 287.903 63.508 287.908 68.5134C287.903 73.519 289.556 77.6894 292.846 80.8569C296.105 84.0139 300.045 85.6166 304.523 85.6111C309.256 85.6194 313.29 84.0112 316.466 80.8224C318.586 78.6925 319.789 75.7422 320.104 72.0739L320.167 71.3303H305.207V67.7642H324.404V67.0794L323.73 67.1997C323.918 68.2382 324.006 69.225 324.006 70.1804H325.374C325.374 69.1394 325.277 68.0695 325.077 66.9568L324.976 66.3945H303.84V72.7H319.422V72.0152L318.741 71.9564C318.44 75.4024 317.344 77.9975 315.499 79.8544C312.561 82.7861 308.955 84.2331 304.524 84.2414C300.365 84.2359 296.837 82.8018 293.795 79.8726C290.782 76.9537 289.284 73.2273 289.276 68.5134C289.284 63.7995 290.782 60.073 293.795 57.1542C296.837 54.2249 300.365 52.7909 304.524 52.7853C309.147 52.7964 312.639 54.3265 315.232 57.4164L315.713 57.9889L319.845 53.8451L320.288 53.4012L319.885 52.9217C318.205 50.9158 315.966 49.3236 313.215 48.1416C310.459 46.956 307.55 46.3619 304.524 46.3619C298.445 46.3567 293.199 48.4968 288.944 52.7321C284.674 56.959 282.521 62.2722 282.527 68.5134C282.521 74.7518 284.674 80.068 288.947 84.2974C293.199 88.5299 298.445 90.6676 304.524 90.662C310.854 90.6676 316.106 88.5616 320.091 84.3694L319.596 83.8961L320.079 84.3805C323.621 80.8357 325.378 76.047 325.374 70.1804H324.69H324.69ZM356.207 53.0156H337.523V66.0445H354.372V70.9822H337.523V84.0112H356.207V89.0593H332.256V47.9674H356.207V53.0156" fill="white"/>
<path d="M356.207 53.0156V52.3307H336.84V66.7294H353.688V70.2955L336.839 70.2974V84.6961H355.523V88.3745H332.94V48.6523H355.523V53.0156H356.207V52.3307V53.0156H356.89V47.2826H331.573V89.7442H356.89V83.3264H338.207V71.6671H355.056V65.3597H338.207V53.7004H356.89V53.0156H356.207V53.0156ZM378.437 89.0597H373.162V53.0153H361.703V47.9671H389.895V53.0153H378.437V89.059" fill="white"/>
<path d="M378.437 89.0597V88.3745H373.846V52.3307H362.387V48.6526H389.212V52.3307H377.753V89.0594H378.437V88.3745V89.0594H379.121V53.7004H390.579V47.2826H361.02V53.7001H372.478V89.7439H379.121V89.059H378.437V89.0597ZM410.293 89.0597V47.9671H415.563V89.059H410.293" fill="white"/>
<path d="M410.293 89.0597H410.977V48.6523H414.879V88.3745H410.293V89.0594H410.977H410.293V89.7442H416.247V47.2826H409.61V89.7442H410.293V89.0594V89.0597ZM438.947 89.0597H433.672V53.0153H422.214V47.9671H450.406V53.0153H438.947V89.059" fill="white"/>
<path d="M438.947 89.0596V88.3744H434.355V52.3307H422.898V48.6525H449.722V52.3307H438.263V89.0593H438.947V88.3744V89.0593H439.631V53.7004H451.089V47.2825H421.53V53.7001H432.988V89.7438H439.631V89.059H438.947V89.0596ZM477.585 80.309C480.621 83.3878 484.337 84.9259 488.731 84.9259C493.125 84.9259 496.842 83.3878 499.874 80.309C502.914 77.2298 504.436 73.2937 504.436 68.5133C504.436 63.7333 502.914 59.7972 499.874 56.718C496.842 53.6388 493.125 52.1004 488.731 52.1004C484.337 52.1004 480.621 53.6388 477.585 56.718C474.553 59.7972 473.031 63.733 473.031 68.5133C473.031 73.2937 474.553 77.2298 477.585 80.309ZM503.773 83.7489C499.74 87.9032 494.724 89.9771 488.731 89.9771C482.732 89.9771 477.718 87.9032 473.694 83.7489C469.657 79.5992 467.649 74.5196 467.649 68.5133C467.649 62.507 469.657 57.4265 473.694 53.2778C477.718 49.1225 482.732 47.0468 488.731 47.0468C494.693 47.0468 499.695 49.1336 503.747 53.3045C507.793 57.4752 509.818 62.5446 509.818 68.5133C509.818 74.5196 507.798 79.5992 503.773 83.7489Z" fill="white"/>
<path d="M477.585 80.309L477.099 80.7904C480.248 83.9927 484.177 85.6194 488.731 85.6111C493.282 85.6194 497.216 83.9927 500.36 80.7904C503.53 77.585 505.125 73.4384 505.12 68.5134C505.125 63.5887 503.53 59.4417 500.36 56.2363C497.216 53.034 493.282 51.4076 488.731 51.4156C484.177 51.4076 480.248 53.034 477.099 56.2363C473.937 59.4417 472.339 63.5887 472.347 68.5134C472.339 73.4381 473.937 77.585 477.099 80.7904L477.585 80.309L478.071 79.8273C475.171 76.8709 473.72 73.1522 473.715 68.5134C473.72 63.8749 475.171 60.1561 478.071 57.1994C480.998 54.2437 484.495 52.7936 488.731 52.7856C492.964 52.7936 496.468 54.2437 499.388 57.1994C502.294 60.1561 503.744 63.8749 503.75 68.5134C503.744 73.1519 502.294 76.8709 499.388 79.8273C496.468 82.7834 492.964 84.2331 488.731 84.2411C484.495 84.2331 480.998 82.7834 478.071 79.8273L477.585 80.309ZM503.774 83.7489L503.285 83.2731C499.364 87.2966 494.57 89.2843 488.731 89.2923C482.89 89.284 478.095 87.2966 474.182 83.2731L474.163 83.2515L474.182 83.2731C470.269 79.2357 468.339 74.367 468.333 68.5134C468.339 62.6597 470.269 57.791 474.182 53.754C478.095 49.7302 482.889 47.74 488.731 47.732C494.532 47.74 499.316 49.7385 503.258 53.7832C507.184 57.839 509.126 62.7 509.134 68.5134C509.126 74.367 507.19 79.2357 503.285 83.2731L503.774 83.7489L504.265 84.2248C508.41 79.9609 510.507 74.6717 510.502 68.5134C510.507 62.3901 508.402 57.1117 504.238 52.8287C500.072 48.5288 494.853 46.3546 488.731 46.362C482.577 46.3546 477.342 48.5187 473.202 52.802V52.7989C469.049 57.0658 466.96 62.355 466.966 68.5134C466.96 74.6717 469.049 79.9609 473.202 84.2276L473.221 84.247L473.202 84.2248C477.342 88.5081 482.577 90.6676 488.731 90.662C494.882 90.6676 500.117 88.5081 504.265 84.2248L503.774 83.7489V83.7489ZM517.216 89.0596V47.9671H523.632L543.571 79.9338H543.798L543.571 72.0149V47.9671H548.846V89.059H543.343L522.484 55.5432H522.256L522.484 63.4649V89.059H517.217" fill="white"/>
<path d="M517.216 89.0597H517.9V48.6523H523.253L543.191 80.619H544.5L544.254 72.005V48.6526H548.162V88.3745H543.723L522.863 54.8587H521.554L521.8 63.4763V88.3745H517.217V89.0594H517.9H517.217V89.7442H523.167V63.4545L522.94 55.525L522.256 55.5435V56.2284H522.484V55.5435L521.904 55.9076L542.964 89.7442H549.53V47.2826H542.887V72.0232L543.114 79.9526L543.798 79.9341V79.2493H543.571V79.9341L544.15 79.5706L524.011 47.2826H516.533V89.7442H517.217V89.0594L517.216 89.0597ZM731.648 205.487H744.407V119.87H731.648L731.648 205.487ZM846.567 150.711L831.942 187.83H831.504L816.325 150.711H802.581L825.343 202.592L812.366 231.45H825.679L860.756 150.711L846.567 150.711ZM774.212 195.762C770.027 195.762 764.202 193.67 764.202 188.491C764.202 181.883 771.463 179.35 777.726 179.35C783.34 179.35 785.973 180.561 789.385 182.215C788.393 190.144 781.576 195.762 774.212 195.762V195.762ZM775.75 148.838C766.513 148.838 756.947 152.915 752.988 161.947L764.311 166.682C766.731 161.947 771.238 160.403 775.969 160.403C782.568 160.403 789.275 164.371 789.385 171.42V172.3C787.073 170.978 782.13 168.996 776.079 168.996C763.874 168.996 751.443 175.714 751.443 188.271C751.443 199.727 761.453 207.108 772.667 207.108C781.248 207.108 785.973 203.253 788.947 198.737H789.385V205.345H801.699V172.519C801.699 157.322 790.376 148.838 775.75 148.838V148.838ZM696.899 161.133H678.752V131.786H696.899C706.438 131.786 711.853 139.697 711.853 146.46C711.853 153.094 706.437 161.133 696.899 161.133ZM696.571 119.87H666V205.487H678.752V173.049H696.571C710.711 173.049 724.612 162.795 724.612 146.46C724.612 130.125 710.711 119.87 696.571 119.87V119.87ZM529.863 195.778C521.049 195.778 513.669 188.386 513.669 178.234C513.669 167.975 521.049 160.47 529.863 160.47C538.566 160.47 545.395 167.974 545.395 178.234C545.395 188.386 538.565 195.778 529.864 195.778H529.863ZM544.513 155.505H544.073C541.209 152.086 535.699 148.996 528.76 148.996C514.22 148.996 500.892 161.794 500.892 178.234C500.892 194.564 514.219 207.252 528.76 207.252C535.699 207.252 541.209 204.162 544.073 200.634H544.513V204.826C544.513 215.971 538.565 221.929 528.982 221.929C521.161 221.929 516.314 216.3 514.329 211.557L503.205 216.191C506.399 223.914 514.882 233.403 528.982 233.403C543.963 233.403 556.631 224.575 556.631 203.06V150.762H544.513V155.505ZM565.443 205.487H578.221V119.867H565.443V205.487ZM597.058 177.242C596.727 165.986 605.761 160.251 612.259 160.251C617.33 160.251 621.624 162.787 623.053 166.431L597.058 177.242ZM636.715 167.533C634.294 161.021 626.909 148.996 611.818 148.996C596.837 148.996 584.39 160.802 584.39 178.124C584.39 194.454 596.727 207.252 613.25 207.252C626.581 207.252 634.294 199.087 637.487 194.344L627.573 187.723C624.27 192.578 619.751 195.778 613.25 195.778C606.751 195.778 602.126 192.798 599.15 186.952L638.034 170.842L636.715 167.533ZM326.915 157.934V170.291H356.436C355.555 177.242 353.242 182.316 349.716 185.847C345.421 190.152 338.702 194.895 326.915 194.895C308.738 194.895 294.529 180.221 294.529 162.016C294.529 143.811 308.738 129.135 326.915 129.135C336.719 129.135 343.878 132.998 349.166 137.963L357.868 129.247C350.488 122.184 340.683 116.778 326.915 116.778C302.019 116.778 281.089 137.08 281.089 162.016C281.089 186.952 302.019 207.252 326.915 207.252C340.355 207.252 350.488 202.841 358.418 194.564C366.57 186.399 369.105 174.925 369.105 165.658C369.105 162.787 368.886 160.141 368.442 157.934H326.915ZM402.668 195.778C393.854 195.778 386.252 188.496 386.252 178.124C386.252 167.642 393.854 160.47 402.668 160.47C411.479 160.47 419.08 167.642 419.08 178.124C419.08 188.496 411.479 195.778 402.668 195.778ZM402.668 148.996C386.583 148.996 373.474 161.243 373.474 178.124C373.474 194.895 386.583 207.252 402.668 207.252C418.749 207.252 431.858 194.895 431.858 178.124C431.858 161.243 418.749 148.996 402.668 148.996ZM466.348 195.778C457.537 195.778 449.935 188.496 449.935 178.124C449.935 167.642 457.537 160.47 466.348 160.47C475.16 160.47 482.761 167.642 482.761 178.124C482.761 188.496 475.16 195.778 466.348 195.778H466.348ZM466.348 148.996C450.264 148.996 437.158 161.243 437.158 178.124C437.158 194.895 450.264 207.252 466.348 207.252C482.43 207.252 495.539 194.895 495.539 178.124C495.539 161.243 482.43 148.996 466.348 148.996H466.348Z" fill="white"/>
<path d="M72.3152 52.154C70.0206 54.2276 68.6509 57.6863 68.6509 62.2774V61.2395V212.739V211.742C68.6509 215.981 69.8257 219.256 71.8153 221.365L72.3232 221.851V221.854C73.9336 223.309 75.9986 224.082 78.3652 224.08C80.6777 224.08 83.2795 223.341 86.0253 221.782L185.275 165.299L219.366 145.895C223.696 143.432 226.126 140.253 226.533 137.016V137.003C226.126 133.758 223.696 130.582 219.366 128.118L185.272 108.717L86.0256 52.234C83.2739 50.672 80.6703 49.9308 78.3517 49.9308C75.9878 49.9308 73.9256 50.7012 72.3158 52.154H72.3152Z" fill="#00C1FF"/>
<path d="M72.3235 221.852L71.8153 221.365C69.8257 219.256 68.6509 215.982 68.6509 211.742V212.74V61.2772V62.2775C68.6509 57.6864 70.0206 54.2277 72.3152 52.1541L157.032 137.006L72.3235 221.852Z" fill="url(#paint0_linear)"/>
<path d="M185.275 165.299L157.032 137.006L185.272 108.717L219.366 128.118C223.696 130.582 226.127 133.758 226.533 137.003V137.016C226.127 140.253 223.696 143.432 219.366 145.895L185.275 165.298" fill="url(#paint1_linear)"/>
<path d="M78.3654 224.08C75.9991 224.082 73.9341 223.309 72.324 221.853V221.851L157.032 137.005L185.275 165.298L86.0255 221.782C83.2796 223.341 80.6778 224.08 78.3654 224.08Z" fill="url(#paint2_linear)"/>
<path d="M157.032 137.006L72.3149 52.1544C73.9253 50.7016 75.9876 49.9312 78.3511 49.9312C80.6697 49.9312 83.2737 50.672 86.0251 52.2344L185.272 108.717L157.032 137.006" fill="url(#paint3_linear)"/>
<path d="M78.368 225.083C76.0016 225.083 73.9339 224.31 72.3235 222.854L72.3207 222.857C72.3141 222.85 72.307 222.844 72.2995 222.838L71.859 222.407C71.8452 222.394 71.8322 222.378 71.8159 222.362L72.3238 221.854C73.9342 223.309 75.9989 224.082 78.3658 224.079C80.678 224.079 83.2798 223.341 86.0256 221.782L185.275 165.299L185.911 165.936L185.267 166.302L86.0253 222.782C83.5229 224.203 81.1427 224.944 78.9928 225.067C78.7847 225.077 78.5763 225.082 78.368 225.082" fill="url(#paint4_linear)"/>
<path d="M71.8153 222.362C69.8257 220.254 68.6509 216.982 68.6509 212.74V211.742C68.6509 215.982 69.8257 219.256 71.8153 221.365L72.3232 221.851L71.8153 222.362" fill="url(#paint5_linear)"/>
<path d="M185.911 165.935L185.275 165.298L219.366 145.895C223.696 143.432 226.126 140.253 226.533 137.016C226.533 138.204 226.268 139.392 225.742 140.548C224.682 142.878 222.556 145.079 219.366 146.896L185.911 165.936" fill="url(#paint6_linear)"/>
<path d="M226.533 137.003C226.127 133.758 223.696 130.582 219.366 128.118L185.272 108.717L185.908 108.08H185.911L219.366 127.12C224.14 129.838 226.53 133.42 226.533 137.003" fill="url(#paint7_linear)"/>
<path d="M68.6509 62.2775V61.231C68.6509 60.8536 68.661 60.4846 68.6804 60.1263V60.11C68.6804 60.105 68.6804 60.0998 68.6823 60.0943V60.054C68.8882 56.402 70.0206 53.5533 71.8153 51.6511L72.3152 52.1538C70.0206 54.2277 68.6509 57.6864 68.6509 62.2775Z" fill="url(#paint8_linear)"/>
<path d="M185.272 108.717L86.0254 52.2338C83.274 50.6717 80.6703 49.9308 78.3517 49.9308C75.9878 49.9308 73.9256 50.7012 72.3155 52.154L71.8157 51.6511C71.9718 51.4856 72.134 51.3259 72.302 51.1725C72.3072 51.1669 72.3155 51.1614 72.3208 51.1562C73.9182 49.7144 75.9586 48.944 78.3012 48.9302H78.3517C80.6703 48.9302 83.274 49.6714 86.0254 51.234L185.911 108.078L185.908 108.08L185.272 108.717" fill="url(#paint9_linear)"/>
<defs>
<linearGradient id="paint0_linear" x1="122.79" y1="59.6763" x2="49.7832" y2="132.801" gradientUnits="userSpaceOnUse">
<stop stop-color="#00A0FF"/>
<stop offset="0.00657" stop-color="#00A1FF"/>
<stop offset="0.2601" stop-color="#00BEFF"/>
<stop offset="0.5122" stop-color="#00D2FF"/>
<stop offset="0.7604" stop-color="#00DFFF"/>
<stop offset="1" stop-color="#00E3FF"/>
</linearGradient>
<linearGradient id="paint1_linear" x1="231.808" y1="136.517" x2="66.3584" y2="136.517" gradientUnits="userSpaceOnUse">
<stop stop-color="#FFE000"/>
<stop offset="0.4087" stop-color="#FFBD00"/>
<stop offset="0.7754" stop-color="#FFA500"/>
<stop offset="1" stop-color="#FF9C00"/>
</linearGradient>
<linearGradient id="paint2_linear" x1="170.281" y1="163.905" x2="46.5652" y2="286.915" gradientUnits="userSpaceOnUse">
<stop stop-color="#FF3A44"/>
<stop offset="1" stop-color="#C31162"/>
</linearGradient>
<linearGradient id="paint3_linear" x1="50.481" y1="39.5747" x2="105.618" y2="94.4817" gradientUnits="userSpaceOnUse">
<stop stop-color="#32A071"/>
<stop offset="0.0685" stop-color="#2DA771"/>
<stop offset="0.4762" stop-color="#15CF74"/>
<stop offset="0.8009" stop-color="#06E775"/>
<stop offset="1" stop-color="#00F076"/>
</linearGradient>
<linearGradient id="paint4_linear" x1="170.219" y1="183.531" x2="71.1414" y2="282.769" gradientUnits="userSpaceOnUse">
<stop stop-color="#CC2E36"/>
<stop offset="1" stop-color="#9C0E4E"/>
</linearGradient>
<linearGradient id="paint5_linear" x1="79.9364" y1="59.6761" x2="15.6185" y2="124.099" gradientUnits="userSpaceOnUse">
<stop stop-color="#008DE0"/>
<stop offset="0.00657" stop-color="#008DE0"/>
<stop offset="0.2601" stop-color="#00A7E0"/>
<stop offset="0.5122" stop-color="#00B8E0"/>
<stop offset="0.7604" stop-color="#00C4E0"/>
<stop offset="1" stop-color="#00C7E0"/>
</linearGradient>
<linearGradient id="paint6_linear" x1="231.808" y1="137.009" x2="66.3582" y2="137.009" gradientUnits="userSpaceOnUse">
<stop stop-color="#E0C500"/>
<stop offset="0.4087" stop-color="#E0A600"/>
<stop offset="0.7754" stop-color="#E09100"/>
<stop offset="1" stop-color="#E08900"/>
</linearGradient>
<linearGradient id="paint7_linear" x1="231.808" y1="137.01" x2="66.3588" y2="137.01" gradientUnits="userSpaceOnUse">
<stop stop-color="#FFE840"/>
<stop offset="0.4087" stop-color="#FFCE40"/>
<stop offset="0.7754" stop-color="#FFBC40"/>
<stop offset="1" stop-color="#FFB540"/>
</linearGradient>
<linearGradient id="paint8_linear" x1="79.8666" y1="59.7927" x2="17.9171" y2="119.154" gradientUnits="userSpaceOnUse">
<stop stop-color="#40B8FF"/>
<stop offset="0.00657" stop-color="#40B9FF"/>
<stop offset="0.2601" stop-color="#40CEFF"/>
<stop offset="0.5122" stop-color="#40DDFF"/>
<stop offset="0.7604" stop-color="#40E7FF"/>
<stop offset="1" stop-color="#40EAFF"/>
</linearGradient>
<linearGradient id="paint9_linear" x1="50.3578" y1="57.5189" x2="94.6004" y2="101.833" gradientUnits="userSpaceOnUse">
<stop stop-color="#65B895"/>
<stop offset="0.0685" stop-color="#62BD95"/>
<stop offset="0.4762" stop-color="#50DB97"/>
<stop offset="0.8009" stop-color="#44ED98"/>
<stop offset="1" stop-color="#40F498"/>
</linearGradient>
</defs>
</svg>
