<svg xmlns="http://www.w3.org/2000/svg" width="198" height="59" viewBox="0 0 198 59" fill="none">
<path d="M190.667 59H7.33334C3.30005 59 0 55.6813 0 51.625V7.37503C0 3.31875 3.29998 0 7.33334 0H190.667C194.7 0 198 3.31875 198 7.37503V51.625C198 55.6813 194.7 59 190.667 59" fill="black"/>
<path d="M190.667 0H7.33334C3.30005 0 0 3.31875 0 7.37503V51.625C0 55.6813 3.29998 59 7.33334 59H190.667C194.7 59 198 55.6813 198 51.625V7.37503C198 3.31875 194.7 0 190.667 0H190.667ZM190.667 1.17996C194.064 1.17996 196.827 3.9595 196.827 7.37503V51.625C196.827 55.0412 194.063 57.8206 190.667 57.8206H7.33334C3.93716 57.8206 1.17335 55.0411 1.17335 51.625V7.37503C1.17335 3.9595 3.9371 1.18003 7.33334 1.18003H190.667" fill="#A6A6A6"/>
<path d="M69.5469 15.109C69.5469 16.3448 69.183 17.3289 68.4542 18.063C67.6264 18.9359 66.5475 19.3726 65.2212 19.3726C63.951 19.3726 62.8711 18.9302 61.9831 18.0439C61.0934 17.1584 60.6494 16.0602 60.6494 14.75C60.6494 13.4392 61.0934 12.3417 61.9831 11.4554C62.8711 10.5699 63.951 10.1267 65.2212 10.1267C65.8514 10.1267 66.4548 10.2507 67.0277 10.4979C67.6006 10.7457 68.0601 11.0746 68.4038 11.4865L67.6303 12.2649C67.0477 11.5649 66.2456 11.2151 65.2212 11.2151C64.2949 11.2151 63.4939 11.5425 62.8179 12.1975C62.1418 12.8533 61.8038 13.7037 61.8038 14.75C61.8038 15.7964 62.1418 16.6467 62.8179 17.3025C63.4939 17.9576 64.2948 18.2848 65.2212 18.2848C66.2039 18.2848 67.0231 17.9558 67.6791 17.2967C68.1048 16.8673 68.351 16.2705 68.4169 15.5042H65.2211V14.4411H69.4855C69.5267 14.6723 69.5468 14.8941 69.5468 15.109" fill="white"/>
<path d="M69.547 15.109H69.4003C69.3991 16.3166 69.0484 17.2546 68.3505 17.9587L68.349 17.9599L68.3483 17.9611C67.5468 18.8039 66.5166 19.2234 65.2212 19.2252C63.985 19.2234 62.9502 18.7993 62.0862 17.9397C61.2241 17.0783 60.7978 16.0268 60.7961 14.75C60.7978 13.4727 61.2241 12.4217 62.0862 11.5609C62.9502 10.7007 63.985 10.276 65.2212 10.2742C65.8326 10.2742 66.4147 10.3942 66.9698 10.6333C67.5255 10.8742 67.9645 11.1898 68.2916 11.5817L68.4039 11.4866L68.3002 11.3823L67.5267 12.1612L67.6303 12.2649L67.7433 12.1705C67.1336 11.4358 66.2778 11.0655 65.2213 11.0677C64.2606 11.0665 63.4155 11.4117 62.7165 12.0916C62.0107 12.7738 61.6561 13.672 61.6573 14.75C61.6561 15.8281 62.0107 16.7262 62.7165 17.4084C63.4155 18.0884 64.2606 18.4336 65.2212 18.4324C66.2364 18.4341 67.1016 18.0878 67.7828 17.401C68.2377 16.9423 68.4956 16.3069 68.5632 15.5169L68.5768 15.3567H65.3679V14.5887H69.4856V14.4412L69.3411 14.4671C69.3813 14.6907 69.4002 14.9033 69.4002 15.109H69.6935C69.6935 14.8848 69.6729 14.6544 69.6299 14.4148L69.6082 14.2937H65.0746V15.6517H68.417V15.5042L68.271 15.4915C68.2063 16.2337 67.9713 16.7926 67.5754 17.1925C66.9452 17.8239 66.1718 18.1356 65.2213 18.1374C64.3293 18.1362 63.5725 17.8273 62.9199 17.1964C62.2737 16.5678 61.9522 15.7652 61.9506 14.75C61.9522 13.7348 62.2737 12.9322 62.9199 12.3036C63.5725 11.6727 64.3292 11.3639 65.2213 11.3627C66.2131 11.365 66.9619 11.6946 67.5182 12.3601L67.6214 12.4834L68.5076 11.5909L68.6027 11.4953L68.5162 11.392C68.1558 10.96 67.6757 10.6171 67.0856 10.3625C66.4944 10.1072 65.8705 9.97925 65.2213 9.97925C63.9174 9.97812 62.7922 10.439 61.8795 11.3512C60.9634 12.2615 60.5017 13.4058 60.5029 14.75C60.5017 16.0936 60.9634 17.2385 61.8801 18.1494C62.7922 19.061 63.9174 19.5214 65.2213 19.5202C66.5791 19.5214 67.7056 19.0678 68.5603 18.1649L68.4542 18.063L68.558 18.1673C69.3177 17.4039 69.6946 16.3725 69.6936 15.109H69.5469H69.547ZM76.3072 11.4122H72.2997V14.2183H75.9138V15.2817H72.2997V18.0878H76.3072V19.175H71.1699V10.325H76.3072V11.4122" fill="white"/>
<path d="M76.3074 11.4122V11.2647H72.1532V14.3658H75.7672V15.1338L72.1531 15.1342V18.2352H76.1607V19.0275H71.3168V10.4725H76.1607V11.4122H76.3074V11.2647V11.4122H76.454V10.1775H71.0234V19.3225H76.454V17.9403H72.4465V15.4292H76.0605V14.0708H72.4465V11.5597H76.454V11.4122H76.3074V11.4122ZM81.0758 19.175H79.9443V11.4121H77.4864V10.3249H83.5336V11.4121H81.0758V19.1749" fill="white"/>
<path d="M81.0758 19.175V19.0275H80.091V11.2647H77.6332V10.4725H83.387V11.2647H80.9292V19.175H81.0758V19.0275V19.175H81.2225V11.5597H83.6803V10.1775H77.3398V11.5596H79.7976V19.3224H81.2225V19.1749H81.0758V19.175ZM87.9091 19.175V10.3249H89.0394V19.1749H87.9091" fill="white"/>
<path d="M87.9088 19.175H88.0555V10.4725H88.8925V19.0275H87.9088V19.175H88.0555H87.9088V19.3225H89.1858V10.1775H87.7622V19.3225H87.9088V19.175V19.175ZM94.055 19.175H92.9236V11.4121H90.4658V10.3249H96.5129V11.4121H94.055V19.1749" fill="white"/>
<path d="M94.0552 19.175V19.0275H93.0703V11.2647H90.6127V10.4725H96.3664V11.2647H93.9086V19.175H94.0552V19.0275V19.175H94.2019V11.5597H96.6597V10.1775H90.3193V11.5596H92.777V19.3224H94.2019V19.1749H94.0552V19.175ZM102.343 17.2904C102.994 17.9535 103.791 18.2848 104.734 18.2848C105.676 18.2848 106.474 17.9535 107.124 17.2904C107.776 16.6272 108.103 15.7795 108.103 14.75C108.103 13.7205 107.776 12.8728 107.124 12.2096C106.474 11.5464 105.676 11.2151 104.734 11.2151C103.791 11.2151 102.994 11.5464 102.343 12.2096C101.693 12.8728 101.366 13.7204 101.366 14.75C101.366 15.7795 101.693 16.6272 102.343 17.2904ZM107.961 18.0313C107.095 18.926 106.019 19.3726 104.734 19.3726C103.447 19.3726 102.372 18.926 101.508 18.0313C100.643 17.1375 100.212 16.0436 100.212 14.75C100.212 13.4564 100.643 12.3622 101.508 11.4687C102.372 10.5738 103.447 10.1267 104.734 10.1267C106.013 10.1267 107.086 10.5762 107.955 11.4745C108.823 12.3727 109.257 13.4645 109.257 14.75C109.257 16.0436 108.824 17.1375 107.961 18.0313Z" fill="white"/>
<path d="M102.343 17.2904L102.239 17.3941C102.914 18.0838 103.757 18.4341 104.734 18.4324C105.71 18.4341 106.554 18.0838 107.228 17.3941C107.908 16.7038 108.25 15.8107 108.249 14.75C108.25 13.6894 107.908 12.7962 107.228 12.1059C106.554 11.4162 105.71 11.0659 104.734 11.0677C103.757 11.0659 102.914 11.4162 102.239 12.1059C101.56 12.7962 101.218 13.6894 101.219 14.75C101.218 15.8107 101.56 16.7038 102.239 17.3941L102.343 17.2904L102.447 17.1867C101.825 16.55 101.514 15.7491 101.513 14.75C101.514 13.751 101.825 12.9501 102.447 12.3133C103.075 11.6767 103.825 11.3644 104.734 11.3627C105.642 11.3644 106.393 11.6767 107.02 12.3133C107.643 12.9501 107.954 13.751 107.955 14.75C107.954 15.749 107.643 16.55 107.02 17.1867C106.393 17.8234 105.642 18.1356 104.734 18.1373C103.825 18.1356 103.075 17.8234 102.447 17.1867L102.343 17.2904ZM107.96 18.0313L107.855 17.9288C107.014 18.7954 105.986 19.2235 104.734 19.2252C103.481 19.2234 102.452 18.7954 101.613 17.9288L101.609 17.9242L101.613 17.9288C100.774 17.0593 100.359 16.0107 100.358 14.75C100.359 13.4893 100.774 12.4407 101.613 11.5713C102.452 10.7047 103.481 10.276 104.734 10.2743C105.978 10.276 107.004 10.7065 107.85 11.5776C108.692 12.4511 109.108 13.498 109.11 14.75C109.108 16.0107 108.693 17.0593 107.855 17.9288L107.96 18.0313L108.066 18.1338C108.955 17.2155 109.405 16.0763 109.404 14.75C109.405 13.4312 108.953 12.2944 108.06 11.372C107.166 10.4459 106.047 9.97766 104.734 9.97925C103.414 9.97766 102.291 10.4437 101.403 11.3662V11.3656C100.512 12.2846 100.064 13.4237 100.065 14.75C100.064 16.0763 100.512 17.2155 101.403 18.1344L101.407 18.1386L101.403 18.1338C102.291 19.0563 103.414 19.5214 104.734 19.5202C106.053 19.5214 107.176 19.0563 108.066 18.1338L107.96 18.0313V18.0313ZM110.844 19.1751V10.325H112.22L116.497 17.2096H116.545L116.497 15.5041V10.325H117.628V19.1749H116.448L111.974 11.9566H111.925L111.974 13.6627V19.1749H110.844" fill="white"/>
<path d="M110.844 19.175H110.991V10.4725H112.139L116.416 17.3572H116.696L116.644 15.502V10.4725H117.482V19.0275H116.53L112.055 11.8092H111.775L111.827 13.6651V19.0275H110.844V19.175H110.991H110.844V19.3225H112.121V13.6604L112.072 11.9527L111.925 11.9566V12.1041H111.974V11.9566L111.85 12.0351L116.367 19.3225H117.775V10.1775H116.35V15.5059L116.399 17.2136L116.546 17.2097V17.0622H116.497V17.2097L116.622 17.1314L112.302 10.1775H110.698V19.3225H110.844V19.175L110.844 19.175ZM156.84 44.25H159.577V25.8107H156.84L156.84 44.25ZM181.49 32.453L178.353 40.4473H178.259L175.003 32.4529H172.055L176.937 43.6265L174.154 49.8417H177.009L184.533 32.4529L181.49 32.453ZM165.97 42.1557C165.072 42.1557 163.823 41.705 163.823 40.5896C163.823 39.1664 165.38 38.6208 166.724 38.6208C167.928 38.6208 168.492 38.8817 169.224 39.238C169.012 40.9457 167.549 42.1557 165.97 42.1557V42.1557ZM166.3 32.0496C164.318 32.0496 162.266 32.9276 161.417 34.8729L163.846 35.8927C164.365 34.8729 165.332 34.5403 166.347 34.5403C167.762 34.5403 169.201 35.3948 169.224 36.9131V37.1027C168.728 36.8179 167.668 36.391 166.37 36.391C163.752 36.391 161.086 37.8377 161.086 40.5423C161.086 43.0096 163.233 44.5991 165.638 44.5991C167.479 44.5991 168.492 43.7688 169.13 42.7964H169.224V44.2195H171.866V37.1498C171.866 33.8766 169.437 32.0496 166.3 32.0496V32.0496ZM149.386 34.6976H145.494V28.3771H149.386C151.432 28.3771 152.594 30.0807 152.594 31.5373C152.594 32.9662 151.432 34.6976 149.386 34.6976ZM149.316 25.8107H142.758V44.25H145.494V37.2639H149.316C152.349 37.2639 155.33 35.0554 155.33 31.5373C155.33 28.0193 152.349 25.8107 149.316 25.8107V25.8107ZM113.557 42.1591C111.666 42.1591 110.083 40.5671 110.083 38.3805C110.083 36.171 111.666 34.5548 113.557 34.5548C115.424 34.5548 116.888 36.1709 116.888 38.3805C116.888 40.5671 115.424 42.1591 113.557 42.1591H113.557ZM116.699 33.4855H116.605C115.991 32.749 114.809 32.0836 113.32 32.0836C110.201 32.0836 107.342 34.84 107.342 38.3805C107.342 41.8975 110.201 44.6303 113.32 44.6303C114.809 44.6303 115.991 43.9647 116.605 43.2048H116.699V44.1077C116.699 46.5081 115.424 47.7912 113.368 47.7912C111.69 47.7912 110.651 46.5789 110.225 45.5573L107.839 46.5553C108.524 48.2186 110.343 50.2624 113.368 50.2624C116.581 50.2624 119.299 48.361 119.299 43.7274V32.4639H116.699V33.4855ZM121.189 44.25H123.93V25.8101H121.189V44.25ZM127.97 38.1668C127.899 35.7428 129.837 34.5075 131.231 34.5075C132.318 34.5075 133.24 35.0537 133.546 35.8386L127.97 38.1668ZM136.477 36.0758C135.957 34.6734 134.373 32.0836 131.136 32.0836C127.923 32.0836 125.253 34.6262 125.253 38.3569C125.253 41.8739 127.899 44.6303 131.443 44.6303C134.303 44.6303 135.957 42.8717 136.642 41.8501L134.516 40.4241C133.807 41.4699 132.838 42.1591 131.443 42.1591C130.049 42.1591 129.057 41.5172 128.419 40.2582L136.76 36.7886L136.477 36.0758ZM70.0245 34.0085V36.6698H76.3568C76.1678 38.1668 75.6715 39.2598 74.9153 40.0203C73.9941 40.9473 72.5527 41.9689 70.0244 41.9689C66.1256 41.9689 63.0777 38.8086 63.0777 34.8877C63.0777 30.9669 66.1256 27.8061 70.0245 27.8061C72.1275 27.8061 73.6629 28.638 74.7973 29.7073L76.6639 27.8303C75.081 26.3091 72.9778 25.1448 70.0245 25.1448C64.6842 25.1448 60.1948 29.5173 60.1948 34.8877C60.1948 40.2582 64.6842 44.6303 70.0245 44.6303C72.9073 44.6303 75.081 43.6802 76.782 41.8975C78.5306 40.139 79.0742 37.6678 79.0742 35.672C79.0742 35.0537 79.0272 34.4839 78.9321 34.0085H70.0245ZM86.2735 42.1591C84.3828 42.1591 82.7523 40.5906 82.7523 38.3569C82.7523 36.0994 84.3828 34.5548 86.2735 34.5548C88.1635 34.5548 89.7939 36.0994 89.7939 38.3569C89.7939 40.5907 88.1635 42.1591 86.2735 42.1591ZM86.2735 32.0836C82.8233 32.0836 80.0114 34.7212 80.0114 38.3569C80.0114 41.9689 82.8233 44.6303 86.2735 44.6303C89.723 44.6303 92.5348 41.9689 92.5348 38.3569C92.5348 34.7212 89.723 32.0836 86.2735 32.0836ZM99.9328 42.1591C98.0429 42.1591 96.4123 40.5906 96.4123 38.3569C96.4123 36.0994 98.0429 34.5548 99.9329 34.5548C101.823 34.5548 103.453 36.0994 103.453 38.3569C103.453 40.5907 101.823 42.1591 99.9329 42.1591H99.9328ZM99.9328 32.0836C96.4828 32.0836 93.6715 34.7212 93.6715 38.3569C93.6715 41.9689 96.4828 44.6303 99.9329 44.6303C103.382 44.6303 106.194 41.9689 106.194 38.3569C106.194 34.7212 103.382 32.0836 99.9329 32.0836H99.9328Z" fill="white"/>
<path d="M15.4125 11.2266C14.9203 11.6732 14.6265 12.4181 14.6265 13.4069V13.1834V45.812V45.5971C14.6265 46.5102 14.8785 47.2154 15.3052 47.6696L15.4142 47.7744V47.7749C15.7596 48.0884 16.2025 48.2548 16.7102 48.2543C17.2062 48.2543 17.7643 48.0953 18.3533 47.7595L39.6422 35.5947L46.9549 31.4157C47.8836 30.8851 48.405 30.2006 48.4921 29.5034V29.5005C48.405 28.8017 47.8836 28.1177 46.9549 27.5871L39.6417 23.4086L18.3533 11.2439C17.7631 10.9074 17.2046 10.7478 16.7073 10.7478C16.2002 10.7478 15.7579 10.9137 15.4126 11.2266H15.4125Z" fill="#00C1FF"/>
<path d="M15.4142 47.7747L15.3052 47.6698C14.8785 47.2157 14.6265 46.5104 14.6265 45.5973V45.8122V13.1917V13.4071C14.6265 12.4183 14.9203 11.6734 15.4125 11.2268L33.5842 29.5013L15.4142 47.7747Z" fill="url(#paint0_linear_236_3)"/>
<path d="M39.6425 35.5947L33.5845 29.5012L39.642 23.4087L46.9552 27.5871C47.8839 28.1178 48.4053 28.8017 48.4924 29.5006V29.5034C48.4053 30.2006 47.8839 30.8852 46.9552 31.4157L39.6426 35.5947" fill="url(#paint1_linear_236_3)"/>
<path d="M16.7104 48.2544C16.2029 48.2549 15.7599 48.0883 15.4146 47.7749V47.7745L33.5845 29.5011L39.6426 35.5947L18.3535 47.7595C17.7645 48.0954 17.2065 48.2544 16.7104 48.2544Z" fill="url(#paint2_linear_236_3)"/>
<path d="M33.5844 29.5012L15.4126 11.2267C15.758 10.9138 16.2004 10.7479 16.7074 10.7479C17.2047 10.7479 17.7633 10.9075 18.3534 11.2439L39.6419 23.4087L33.5843 29.5012" fill="url(#paint3_linear_236_3)"/>
<path d="M16.7111 48.4705C16.2035 48.4705 15.76 48.3039 15.4145 47.9905L15.4139 47.991C15.4125 47.9896 15.411 47.9883 15.4094 47.9871L15.3149 47.8943C15.3119 47.8913 15.3092 47.888 15.3057 47.8846L15.4146 47.775C15.76 48.0884 16.2029 48.255 16.7106 48.2544C17.2066 48.2544 17.7647 48.0954 18.3536 47.7595L39.6426 35.5947L39.779 35.732L39.6409 35.8108L18.3536 47.9749C17.8168 48.2809 17.3063 48.4405 16.8451 48.4671C16.8005 48.4693 16.7558 48.4704 16.7111 48.4704" fill="url(#paint4_linear_236_3)"/>
<path d="M15.3052 47.8845C14.8785 47.4304 14.6265 46.7258 14.6265 45.812V45.5971C14.6265 46.5103 14.8785 47.2155 15.3052 47.6696L15.4142 47.7745L15.3052 47.8845" fill="url(#paint5_linear_236_3)"/>
<path d="M39.779 35.7319L39.6426 35.5946L46.9552 31.4157C47.8839 30.8852 48.4053 30.2006 48.4925 29.5034C48.4925 29.7593 48.4357 30.0151 48.3229 30.2641C48.0954 30.7659 47.6394 31.2401 46.9553 31.6312L39.779 35.7319" fill="url(#paint6_linear_236_3)"/>
<path d="M48.4921 29.5005C48.4049 28.8016 47.8835 28.1177 46.9549 27.587L39.6416 23.4086L39.778 23.2713H39.7786L46.9549 27.372C47.9787 27.9575 48.4915 28.7289 48.4921 29.5005" fill="url(#paint7_linear_236_3)"/>
<path d="M14.6265 13.407V13.1816C14.6265 13.1003 14.6286 13.0208 14.6328 12.9437V12.9402C14.6328 12.9391 14.6328 12.938 14.6332 12.9368V12.9281C14.6774 12.1416 14.9203 11.5281 15.3052 11.1184L15.4125 11.2266C14.9203 11.6733 14.6265 12.4182 14.6265 13.407Z" fill="url(#paint8_linear_236_3)"/>
<path d="M39.642 23.4089L18.3536 11.244C17.7635 10.9076 17.205 10.7481 16.7076 10.7481C16.2006 10.7481 15.7582 10.914 15.4129 11.2269L15.3057 11.1186C15.3391 11.0829 15.3739 11.0485 15.41 11.0155C15.4111 11.0143 15.4129 11.0131 15.414 11.012C15.7567 10.7015 16.1943 10.5355 16.6968 10.5326H16.7076C17.205 10.5326 17.7635 10.6922 18.3536 11.0287L39.779 23.2713L39.7784 23.2717L39.642 23.4089" fill="url(#paint9_linear_236_3)"/>
<defs>
<linearGradient id="paint0_linear_236_3" x1="26.2393" y1="12.8469" x2="10.5158" y2="28.532" gradientUnits="userSpaceOnUse">
<stop stop-color="#00A0FF"/>
<stop offset="0.00657" stop-color="#00A1FF"/>
<stop offset="0.2601" stop-color="#00BEFF"/>
<stop offset="0.5122" stop-color="#00D2FF"/>
<stop offset="0.7604" stop-color="#00DFFF"/>
<stop offset="1" stop-color="#00E3FF"/>
</linearGradient>
<linearGradient id="paint1_linear_236_3" x1="49.6239" y1="29.3959" x2="14.135" y2="29.3959" gradientUnits="userSpaceOnUse">
<stop stop-color="#FFE000"/>
<stop offset="0.4087" stop-color="#FFBD00"/>
<stop offset="0.7754" stop-color="#FFA500"/>
<stop offset="1" stop-color="#FF9C00"/>
</linearGradient>
<linearGradient id="paint2_linear_236_3" x1="36.4263" y1="35.2946" x2="9.78244" y2="61.6794" gradientUnits="userSpaceOnUse">
<stop stop-color="#FF3A44"/>
<stop offset="1" stop-color="#C31162"/>
</linearGradient>
<linearGradient id="paint3_linear_236_3" x1="10.7292" y1="8.51743" x2="22.6038" y2="20.2947" gradientUnits="userSpaceOnUse">
<stop stop-color="#32A071"/>
<stop offset="0.0685" stop-color="#2DA771"/>
<stop offset="0.4762" stop-color="#15CF74"/>
<stop offset="0.8009" stop-color="#06E775"/>
<stop offset="1" stop-color="#00F076"/>
</linearGradient>
<linearGradient id="paint4_linear_236_3" x1="36.4131" y1="39.5215" x2="15.0748" y2="60.808" gradientUnits="userSpaceOnUse">
<stop stop-color="#CC2E36"/>
<stop offset="1" stop-color="#9C0E4E"/>
</linearGradient>
<linearGradient id="paint5_linear_236_3" x1="17.0472" y1="12.8467" x2="3.19505" y2="26.6653" gradientUnits="userSpaceOnUse">
<stop stop-color="#008DE0"/>
<stop offset="0.00657" stop-color="#008DE0"/>
<stop offset="0.2601" stop-color="#00A7E0"/>
<stop offset="0.5122" stop-color="#00B8E0"/>
<stop offset="0.7604" stop-color="#00C4E0"/>
<stop offset="1" stop-color="#00C7E0"/>
</linearGradient>
<linearGradient id="paint6_linear_236_3" x1="49.624" y1="29.502" x2="14.135" y2="29.502" gradientUnits="userSpaceOnUse">
<stop stop-color="#E0C500"/>
<stop offset="0.4087" stop-color="#E0A600"/>
<stop offset="0.7754" stop-color="#E09100"/>
<stop offset="1" stop-color="#E08900"/>
</linearGradient>
<linearGradient id="paint7_linear_236_3" x1="49.6236" y1="29.5019" x2="14.1347" y2="29.5019" gradientUnits="userSpaceOnUse">
<stop stop-color="#FFE840"/>
<stop offset="0.4087" stop-color="#FFCE40"/>
<stop offset="0.7754" stop-color="#FFBC40"/>
<stop offset="1" stop-color="#FFB540"/>
</linearGradient>
<linearGradient id="paint8_linear_236_3" x1="17.0322" y1="12.8718" x2="3.69255" y2="25.6026" gradientUnits="userSpaceOnUse">
<stop stop-color="#40B8FF"/>
<stop offset="0.00657" stop-color="#40B9FF"/>
<stop offset="0.2601" stop-color="#40CEFF"/>
<stop offset="0.5122" stop-color="#40DDFF"/>
<stop offset="0.7604" stop-color="#40E7FF"/>
<stop offset="1" stop-color="#40EAFF"/>
</linearGradient>
<linearGradient id="paint9_linear_236_3" x1="10.703" y1="12.3823" x2="20.2315" y2="21.8878" gradientUnits="userSpaceOnUse">
<stop stop-color="#65B895"/>
<stop offset="0.0685" stop-color="#62BD95"/>
<stop offset="0.4762" stop-color="#50DB97"/>
<stop offset="0.8009" stop-color="#44ED98"/>
<stop offset="1" stop-color="#40F498"/>
</linearGradient>
</defs>
</svg>
