<svg xmlns="http://www.w3.org/2000/svg" xml:space="preserve" width="162.56mm" height="91.44mm" version="1.1" style="shape-rendering:geometricPrecision; text-rendering:geometricPrecision; image-rendering:optimizeQuality; fill-rule:evenodd; clip-rule:evenodd"
viewBox="0 0 16256 9144"
 xmlns:xlink="http://www.w3.org/1999/xlink">
 <defs>
  <style type="text/css">
   <![CDATA[
    .fil1 {fill:black}
    .fil0 {fill:black;fill-rule:nonzero}
   ]]>
  </style>
 </defs>
 <g id="Layer_x0020_1">
  <metadata id="CorelCorpID_0Corel-Layer"/>
  <g id="_2479856862704">
   <g>
    <path class="fil0" d="M7818.08 4768.08c-0.76,0 -1.55,-0.08 -2.32,-0.23 -0.76,-0.14 -1.52,-0.37 -2.24,-0.66l-130.57 -52.41c-1.51,-0.61 -2.87,-1.5 -4.01,-2.62 -1.13,-1.11 -2.05,-2.45 -2.68,-3.95l-55.27 -129.39c-0.32,-0.74 -0.56,-1.51 -0.73,-2.3 -0.16,-0.77 -0.25,-1.57 -0.25,-2.38l-0.01 -0.15c0.01,-0.79 0.08,-1.57 0.23,-2.32 0.15,-0.76 0.37,-1.52 0.67,-2.25l52.41 -130.55c0.6,-1.51 1.5,-2.87 2.62,-4.02 1.11,-1.13 2.45,-2.05 3.95,-2.68l129.38 -55.26c0.75,-0.32 1.52,-0.56 2.3,-0.73 0.78,-0.16 1.59,-0.25 2.4,-0.25 0.02,-0.01 0.2,-0.01 0.22,0 0.77,0 1.54,0.08 2.27,0.23 0.75,0.14 1.48,0.36 2.21,0.65l130.56 52.41c1.51,0.61 2.87,1.5 4.01,2.62 1.14,1.11 2.05,2.45 2.69,3.95l55.26 129.37c0.64,1.5 0.97,3.1 0.99,4.7 0.01,1.59 -0.29,3.19 -0.9,4.7l-52.41 130.56c-0.6,1.51 -1.5,2.87 -2.62,4.01 -1.11,1.14 -2.45,2.06 -3.94,2.69l-129.38 55.26c-0.77,0.33 -1.56,0.58 -2.36,0.74 -0.84,0.17 -1.67,0.26 -2.48,0.26zm-113.96 -81.62l113.71 45.64 112.69 -48.12 45.65 -113.71 -48.12 -112.68 -113.71 -45.66 -112.71 48.14 -45.65 113.71 48.14 112.68z"/>
    <polygon class="fil1" points="7803.63,4622.3 7879.53,4622.3 7879.53,4657.57 7752.64,4657.57 7752.64,4625.51 7802.57,4570.24 7752.88,4518.46 7752.88,4486.31 7879.53,4486.31 7879.53,4521.57 7805.25,4521.57 7851.3,4569.8 "/>
   </g>
   <path class="fil1" d="M8086.13 4525l0 29.88 73.62 0 0 31.14 -73.62 0 0 32.53 75.17 0 0 31.15 -109.41 0 0 -155.85 109.41 0 0 31.15 -75.17 0zm148.87 69.65l-19.09 0 0 55.05 -34.24 0 0 -155.85 68.97 0c30.21,0 52.39,19.67 52.39,50.4 0,12.29 -3.57,24.07 -11.93,33.27 -5.54,6.11 -12.71,10.48 -20.55,12.82l36.93 59.36 -39.76 0 -32.72 -55.05zm-19.09 -69.65l0 38.5 31.19 0c11.76,0 21.02,-6.97 21.02,-19.25 0,-12.28 -9.26,-19.25 -21.02,-19.25l-31.19 0zm212.51 85.24l0 -16.92 -44 0 0 -31.14 78.24 0 0 61.07 -1.08 1.19c-16.71,18.48 -39.02,28.13 -63.91,28.13 -46.56,0 -81.57,-33.69 -81.57,-80.68 0,-47.03 35.04,-80.46 81.57,-80.46 26.28,0 47.84,11.03 62.9,32.51l2.66 3.78 -28.56 16.07 -2.18 -3.11c-7.86,-11.23 -21.16,-17.89 -34.82,-17.89 -28.03,0 -46.66,21.71 -46.66,49.1 0,27.35 18.61,49.32 46.66,49.32 10.38,0 22.61,-4.12 30.75,-10.97zm48.43 -38.35c0,-46.28 33.02,-80.46 79.57,-80.46 46.56,0 79.58,34.17 79.58,80.46 0,46.28 -33.02,80.46 -79.58,80.46 -46.55,0 -79.57,-34.18 -79.57,-80.46zm124.25 0c0,-27.02 -16.36,-49.1 -44.68,-49.1 -28.44,0 -44.67,21.98 -44.67,49.1 0,27.01 16.34,49.1 44.67,49.1 28.21,0 44.68,-22.19 44.68,-49.1z"/>
  </g>
 </g>
</svg>
