<svg width="146" height="146" viewBox="0 0 146 146" fill="none" xmlns="http://www.w3.org/2000/svg">
<g clip-path="url(#clip0)">
<circle cx="73" cy="73.0003" r="73" fill="url(#paint0_linear)"/>
<path d="M52.0178 107.966C47.5589 107.471 43.3474 106.154 39.5373 104.172C41.9875 107.65 45.213 110.665 49.1394 112.931L49.1365 112.936C53.0651 115.203 57.2926 116.487 61.5348 116.867C57.9189 114.561 54.6766 111.576 52.0178 107.966ZM89.0188 42.1798C85.136 42.1798 81.424 42.9116 78.0134 44.2442C79.1669 45.1454 80.2635 46.1158 81.2975 47.1495C82.5567 48.4087 83.7224 49.7624 84.7834 51.1973C86.553 51.3983 88.3038 51.7304 90.0199 52.1904C91.4357 52.5696 92.828 53.0359 94.1887 53.586C93.6397 49.9614 92.4189 46.3779 90.4779 43.0131L90.4731 43.0159C90.3127 42.7387 90.149 42.4655 89.9815 42.1951C89.6619 42.1855 89.3409 42.1798 89.0188 42.1798ZM72.5168 47.0728C70.7504 48.2242 69.1117 49.5554 67.6267 51.0403L67.5497 51.1185C69.2097 51.2712 70.8678 51.541 72.512 51.9322C74.1587 51.5404 75.82 51.2701 77.4826 51.1174L77.4064 51.0403C75.9217 49.5554 74.283 48.2245 72.5168 47.0728ZM63.7359 47.1495C64.7697 46.1158 65.8668 45.1457 67.02 44.2442C63.6094 42.9113 59.8974 42.1798 56.0149 42.1798C55.6902 42.1798 55.3672 42.1855 55.0454 42.1957C54.8805 42.4621 54.7184 42.7316 54.5609 43.0048C52.6171 46.3717 51.3945 49.9585 50.8452 53.586C52.2062 53.0356 53.5985 52.5691 55.0144 52.1898C56.7308 51.7301 58.4813 51.398 60.2505 51.197C61.311 49.7621 62.4767 48.4087 63.7359 47.1495ZM72.5168 40.7053C76.5395 38.6086 81.0109 37.2541 85.7487 36.8245C82.0299 33.0733 77.4476 30.4301 72.5157 29.0335C67.5798 30.4318 62.9958 33.0747 59.2779 36.8239C64.0185 37.2532 68.4921 38.6077 72.5168 40.7053ZM54.7517 62.1918C55.2364 60.5676 55.8341 58.9916 56.5343 57.4734L56.4328 57.4999C54.4037 58.0438 52.4314 58.7969 50.5507 59.7499C50.6656 61.8575 50.9993 63.9441 51.5432 65.9746L51.5719 66.0787C52.5323 64.7188 53.5931 63.4189 54.7517 62.1918ZM67.5516 93.7481L67.627 93.8243C69.1119 95.3092 70.7507 96.6401 72.5171 97.7918C74.2833 96.6401 75.9223 95.3092 77.4067 93.8243L77.4823 93.7481C75.8217 93.5948 74.163 93.325 72.518 92.9335C70.8724 93.325 69.2126 93.5954 67.5516 93.7481ZM63.7359 97.7151C62.4773 96.4561 61.3124 95.1034 60.252 93.669C58.4824 93.4686 56.7313 93.1365 55.015 92.6768C53.5997 92.2975 52.208 91.831 50.8481 91.2814C51.398 94.9047 52.6193 98.4875 54.5615 101.851L54.5672 101.871C54.7227 102.141 54.8819 102.406 55.0445 102.669C55.3669 102.679 55.6902 102.685 56.0149 102.685C59.8977 102.685 63.6094 101.953 67.02 100.62C65.8668 99.7186 64.7697 98.7485 63.7359 97.7151ZM56.5352 87.3932C55.8349 85.8755 55.2379 84.3001 54.7528 82.677C53.594 81.4494 52.5329 80.1492 51.5719 78.7893L51.5435 78.892C50.9996 80.9222 50.6661 83.0085 50.5518 85.1158C52.4326 86.0694 54.4048 86.8234 56.4334 87.3664L56.5352 87.3932ZM78.0134 100.62C81.424 101.953 85.136 102.685 89.0188 102.685C89.3435 102.685 89.6665 102.679 89.9889 102.669C90.1538 102.403 90.315 102.134 90.4722 101.861L90.4725 101.861C92.416 98.4941 93.6386 94.9075 94.1876 91.2803C92.8269 91.8304 91.4346 92.2969 90.0187 92.6762C88.3023 93.1359 86.5516 93.468 84.7814 93.6685C83.7212 95.1034 82.5558 96.4561 81.2972 97.7148C80.2635 98.7485 79.1669 99.7186 78.0134 100.62ZM85.7563 108.041C82.0378 111.792 77.453 114.435 72.5157 115.833C67.5792 114.435 62.9947 111.791 59.2765 108.041C64.0177 107.612 68.4919 106.257 72.5166 104.159C76.5415 106.257 81.0157 107.612 85.7563 108.041ZM96.7265 101.694C101.841 100.35 106.426 97.7017 110.105 94.1251C111.36 89.1519 111.361 83.8603 109.971 78.7652C107.229 82.6583 103.818 85.8573 99.9875 88.2953C99.7905 92.8252 98.7258 97.3747 96.7265 101.694ZM105.497 104.171C101.687 106.154 97.4751 107.471 93.0157 107.966C90.3562 111.576 87.1134 114.562 83.4972 116.867C87.74 116.488 91.9683 115.203 95.8974 112.937L95.8946 112.932C99.8209 110.665 103.047 107.65 105.497 104.171ZM116.489 85.1221C118.274 81.2629 119.271 76.9638 119.271 72.4322C119.271 67.9 118.274 63.6009 116.488 59.7414C116.298 64.0259 115.332 68.3261 113.534 72.4324C115.332 76.5384 116.298 80.8378 116.489 85.1221ZM110.103 50.7375C106.425 47.162 101.84 44.5143 96.7262 43.1712C98.726 47.491 99.7911 52.0403 99.9881 56.5719C103.818 59.0093 107.229 62.2075 109.971 66.1005C111.361 61.004 111.359 55.7116 110.103 50.7375ZM93.0228 36.8987C90.3644 33.2902 87.1213 30.3055 83.5035 28.0001C87.7471 28.3805 91.9757 29.6661 95.9045 31.9346C99.8275 34.1995 103.051 37.214 105.499 40.694C101.691 38.7123 97.4805 37.3957 93.0228 36.8987ZM46.2334 67.3933C45.8542 65.978 45.5622 64.5397 45.3586 63.0869C42.4936 65.3744 40.0008 68.2238 38.0587 71.5872C37.8969 71.8675 37.7405 72.1496 37.5887 72.4327C37.7391 72.7136 37.8943 72.9934 38.0547 73.2714L38.0592 73.2686C40.0028 76.6348 42.4956 79.4862 45.3595 81.7752C45.563 80.3238 45.855 78.8866 46.234 77.4733C46.6946 75.754 47.2834 74.0686 47.9956 72.4336C47.2831 70.7982 46.694 69.1128 46.2334 67.3933ZM45.0456 56.5739C41.2176 59.0121 37.8076 62.212 35.0646 66.1074C33.6732 61.0088 33.674 55.7135 34.9309 50.737C38.6091 47.1618 43.1936 44.5143 48.3072 43.1712C46.3071 47.4913 45.2423 52.0419 45.0456 56.5739ZM88.4985 87.3926L88.6003 87.3659C90.6291 86.8228 92.6014 86.068 94.4821 85.1147C94.3675 83.008 94.0338 80.9217 93.4899 78.8914L93.4609 78.7854C92.501 80.143 91.4411 81.4414 90.2834 82.6673C89.7981 84.2942 89.1999 85.8724 88.4985 87.3926ZM99.6742 81.7749C99.4706 80.3232 99.1789 78.8863 98.8002 77.473C98.3394 75.7532 97.7506 74.0684 97.0389 72.4333C97.7511 70.7977 98.3402 69.1131 98.8008 67.3939C99.1795 65.9803 99.4712 64.5434 99.6748 63.092C102.539 65.381 105.032 68.2323 106.975 71.5983L106.98 71.5957C107.14 71.8729 107.295 72.1524 107.445 72.4327C107.295 72.7133 107.14 72.9928 106.98 73.2709L106.975 73.268C105.031 76.6343 102.538 79.4859 99.6742 81.7749ZM52.0186 36.8978C47.5586 37.394 43.346 38.7106 39.5351 40.6937C41.9836 37.2143 45.2068 34.2003 49.1291 31.9358C53.0595 29.667 57.2892 28.3808 61.5336 28.0009C57.9186 30.3055 54.6772 33.2899 52.0186 36.8978ZM45.045 88.2944C45.2409 92.8252 46.3045 97.3736 48.3015 101.692C43.1896 100.348 38.6062 97.7006 34.9295 94.1262C33.6743 89.1525 33.6732 83.8612 35.0626 78.7657C37.8045 82.6588 41.2151 85.8573 45.045 88.2944ZM93.4623 66.0784L93.4907 65.9752C94.0349 63.9449 94.3684 61.8589 94.4833 59.7519C92.6023 58.798 90.63 58.0437 88.6009 57.5001L88.4994 57.4734C89.1993 58.9914 89.797 60.5664 90.2814 62.1901C91.4403 63.4178 92.5016 64.7179 93.4623 66.0784ZM31.4993 72.4327C29.701 68.3261 28.735 64.0254 28.5453 59.7408C26.759 63.6003 25.7622 67.8997 25.7622 72.4322C25.7622 76.9641 26.759 81.2634 28.545 85.1226C28.7352 80.8384 29.701 76.539 31.4993 72.4327Z" fill="white"/>
</g>
<defs>
<linearGradient id="paint0_linear" x1="0" y1="0.000305176" x2="0" y2="146" gradientUnits="userSpaceOnUse">
<stop stop-color="#FF8C00"/>
<stop offset="0.0001" stop-color="#FF8C00"/>
<stop offset="1" stop-color="#FF0080"/>
</linearGradient>
<clipPath id="clip0">
<rect width="146" height="146" fill="white" transform="translate(0 0.000305176)"/>
</clipPath>
</defs>
</svg>
