<svg width="121" viewBox="0 0 121 26" fill="none" xmlns="http://www.w3.org/2000/svg" class="is-light"><path d="M45.83 11.4V9.352H34.27v8.533h2.389v-2.304h7.296v-2.005h-7.296V11.4h9.173ZM60.679 9.352l-3.584 6.144-3.627-6.144H49.97v8.533h2.389v-6.357l3.755 6.357h1.92l3.754-6.357v6.357h2.432V9.352h-3.541ZM80.731 11.4V9.352H69.126v8.533h2.432v-2.304h7.253v-2.005h-7.253V11.4h9.173ZM96.56 9.352v6.357l-3.754-6.357h-1.92l-3.754 6.357V9.352h-2.39v8.533h3.499l3.626-6.144 3.584 6.144h3.542V9.352H96.56ZM104.71 15.666h-2.518v2.22h2.518v-2.22ZM109.915 12.168h-2.219v5.76h2.219v-5.76ZM109.915 9.352h-2.219v1.707h2.219V9.352ZM119.557 13.277a3.197 3.197 0 0 0-1.323-1.067 5.765 5.765 0 0 0-3.967 0c-.555.214-1.024.555-1.323 1.067-.299.47-.469 1.067-.469 1.75 0 .597.128 1.194.469 1.749.341.469.811.853 1.323 1.066 1.28.47 2.687.47 3.967 0a2.741 2.741 0 0 0 1.323-1.066c.341-.512.512-1.11.469-1.75 0-.682-.17-1.28-.469-1.749Zm-4.949 1.835v-.214c0-.256.043-.469.171-.682.127-.171.298-.342.512-.427a2.708 2.708 0 0 1 1.834 0 .997.997 0 0 1 .512.427c.128.213.171.426.171.682v.214c0 .256-.043.469-.171.682a.998.998 0 0 1-.512.427 2.708 2.708 0 0 1-1.834 0c-.214-.085-.385-.256-.512-.427-.128-.17-.171-.426-.171-.682Z" fill="#B5B5B5"/><path d="M4.232 16.05c-1.194 1.963-.597 4.48 1.366 5.675 1.962 1.194 4.48.597 5.674-1.365 0-.043.043-.043.043-.086l.341-.597-1.237-.725-.341.597c-.811 1.237-2.475 1.621-3.712.81-1.195-.767-1.622-2.346-.896-3.583l3.2-5.376-.384-.683a6.333 6.333 0 0 1 2.602-8.533c2.987-1.579 6.699-.512 8.405 2.39l2.048 3.711.854-1.408-1.665-2.986A7.7 7.7 0 0 0 9.992 1.032 7.759 7.759 0 0 0 7.006 11.4l-2.774 4.65Z" fill="#3BAF4A"/><path d="M19.848 22.237a4.097 4.097 0 0 0 0-8.192h-.683v1.451h.683a2.677 2.677 0 0 1 2.688 2.688 2.677 2.677 0 0 1-2.688 2.688h-6.357l-.384.64c-1.792 2.986-5.675 3.968-8.619 2.176a6.142 6.142 0 0 1-2.858-3.883 6.09 6.09 0 0 1 .725-4.778L4.531 11.4l-1.664-.043-1.75 2.902C-1.1 17.928.095 22.664 3.72 24.882c3.67 2.219 8.405 1.024 10.624-2.602h5.504v-.043Z" fill="#3BAF4A"/><path d="m19.976 10.376-2.603-4.693a4.128 4.128 0 0 0-5.547-1.792 4.128 4.128 0 0 0-1.791 5.546c.042.085.085.17.128.213l.34.598 1.238-.726-.341-.597c-.683-1.323-.128-2.944 1.194-3.627 1.238-.64 2.774-.213 3.542 1.024l3.029 5.419h.683a6.3 6.3 0 0 1 6.314 6.314 6.3 6.3 0 0 1-6.314 6.315H15.58l.81 1.45h3.457c4.266.043 7.765-3.413 7.807-7.722 0-4.181-3.413-7.637-7.68-7.722Z" fill="#3BAF4A"/></svg>