<svg id="svg" version="1.1" xmlns="http://www.w3.org/2000/svg" xmlns:xlink="http://www.w3.org/1999/xlink" width="400" height="400" viewBox="0, 0, 400,400"><g id="svgg"><path id="path0" d="M192.037 1.217 C 190.407 1.898,159.824 14.942,124.074 30.204 L 59.074 57.952 57.025 59.994 L 54.976 62.037 27.581 130.185 L 0.185 198.333 0.185 202.037 L 0.185 205.741 29.069 273.333 L 57.954 340.926 59.995 342.985 L 62.037 345.045 85.741 354.535 C 98.778 359.755,129.611 372.128,154.259 382.032 L 199.074 400.038 202.407 399.918 L 205.741 399.798 273.333 370.921 L 340.926 342.045 342.975 340.004 L 345.024 337.963 372.401 269.815 L 399.778 201.667 399.922 198.518 C 400.104 194.569,403.642 203.324,370.336 125.318 L 342.052 59.074 340.008 57.024 L 337.963 54.974 269.815 27.597 L 201.667 0.220 198.333 0.099 C 195.249 -0.013,194.778 0.071,192.037 1.217 M256.180 60.254 L 314.026 83.479 338.495 140.769 C 351.952 172.278,362.963 198.143,362.963 198.247 C 362.963 198.479,316.650 313.844,316.494 314.000 C 315.993 314.501,202.561 362.725,201.852 362.738 C 200.111 362.772,86.059 316.699,85.654 315.799 C 85.456 315.359,74.417 289.533,61.123 258.406 L 36.953 201.812 60.191 143.908 L 83.429 86.004 140.696 61.534 C 172.193 48.076,198.046 37.056,198.148 37.047 C 198.250 37.037,224.364 47.480,256.180 60.254 M135.186 128.981 L 135.186 145.370 160.536 171.797 L 185.886 198.224 175.959 209.205 C 170.498 215.244,159.095 227.852,150.618 237.222 L 135.205 254.259 135.195 270.833 L 135.185 287.407 200.000 287.407 L 264.815 287.407 264.815 269.259 L 264.815 251.111 226.481 251.111 C 205.398 251.111,188.148 251.025,188.148 250.921 C 188.148 250.816,198.898 238.895,212.037 224.430 C 225.176 209.965,235.915 197.926,235.901 197.676 C 235.887 197.426,225.499 186.389,212.816 173.148 L 189.755 149.074 227.285 148.980 L 264.815 148.885 264.815 130.739 L 264.815 112.593 200.000 112.593 L 135.185 112.593 135.186 128.981 " stroke="none" fill="#000000" fill-rule="evenodd"></path></g></svg>