<svg width="59" height="59" viewBox="0 0 59 59" fill="none" xmlns="http://www.w3.org/2000/svg">
<g clip-path="url(#clip0)">
<path fill-rule="evenodd" clip-rule="evenodd" d="M11.2723 48.3345L29.7841 55.766L48.1287 47.931L55.5623 29.4185L47.7277 11.0732L29.2159 3.64053L10.8664 11.4779L3.43531 29.9892L11.2723 48.3345ZM29.8023 59.2C29.5939 59.2 29.3831 59.16 29.188 59.0812L9.40638 51.1396C9.00048 50.9773 8.67454 50.6598 8.50612 50.2563L0.133526 30.652C-0.0397418 30.2485 -0.0445885 29.7965 0.120198 29.3882L8.06144 9.60578C8.2238 9.19986 8.54126 8.87512 8.94474 8.70427L28.5482 0.332552C28.9517 0.159277 29.4061 0.156853 29.8132 0.319223L49.5936 8.26078C49.9995 8.42315 50.3242 8.74062 50.4951 9.14412L58.8665 28.7448C59.0397 29.1495 59.0446 29.6015 58.8798 30.0098L50.9386 49.7922C50.7774 50.1981 50.46 50.5229 50.0553 50.6925L30.4542 59.0654C30.2434 59.1575 30.024 59.2 29.8023 59.2Z" fill="black"/>
<path fill-rule="evenodd" clip-rule="evenodd" d="M33.7564 29.3898L25.8285 38.1214H38.3232V41.8838H20.6777V38.1214L28.5317 29.4262L20.7129 21.2786V17.5162H38.3232V21.2786H26.0103L33.7564 29.3898Z" fill="black"/>
</g>
<defs>
<clipPath id="clip0">
<rect width="59" height="59" fill="white"/>
</clipPath>
</defs>
</svg>
