<svg width="614" height="59" viewBox="0 0 614 59" fill="none" xmlns="http://www.w3.org/2000/svg">
<path d="M394.592 46.2999C394.837 46.2999 395.082 46.0549 395.082 45.81V39.8697C395.082 39.6247 394.837 39.3798 394.592 39.3798H374.016L373.893 27.1318H392.327C392.571 27.1318 392.816 26.8868 392.816 26.6418V20.7016C392.816 20.4566 392.571 20.2116 392.327 20.2116H373.893L374.016 10.352H394.102C394.347 10.352 394.592 10.107 394.592 9.86208V3.9218C394.592 3.67684 394.347 3.43188 394.102 3.43188H365.136C364.891 3.43188 364.646 3.67684 364.646 3.9218L364.83 24.8659L364.646 45.81C364.646 46.0549 364.891 46.2999 365.136 46.2999H394.592ZM425.522 46.2999C425.767 46.2999 425.89 46.0549 425.767 45.8712L416.459 30.1938L425.216 15.19C425.339 15.0062 425.216 14.7613 424.971 14.7613H416.704C416.398 14.7613 416.153 14.945 415.969 15.19L411.07 25.1721L405.681 15.19C405.558 14.945 405.252 14.7613 404.946 14.7613H395.637C395.392 14.7613 395.27 15.0062 395.392 15.19L404.456 29.5814L394.964 45.8712C394.841 46.0549 394.964 46.2999 395.209 46.2999H403.721C404.027 46.2999 404.333 46.1162 404.456 45.8712L409.967 35.3992L415.418 45.8712C415.54 46.1162 415.846 46.2999 416.153 46.2999H425.522ZM452.901 34.6643C452.962 34.4193 452.717 34.1744 452.472 34.1744H444.756C444.511 34.1744 444.266 34.3581 444.204 34.6643C443.837 38.8286 441.51 41.0332 438.387 40.972C433.794 40.9108 431.528 37.7875 431.528 30.5612C431.528 23.5798 433.732 20.2116 438.387 20.1504C441.02 20.1504 443.286 21.8651 443.959 25.4783C444.021 25.7845 444.266 25.9682 444.511 25.9682H452.043C452.288 25.9682 452.533 25.7232 452.472 25.4783C451.798 18.5582 446.532 13.9652 438.387 13.9652C428.098 13.9652 422.097 20.5791 422.097 30.6224C422.097 40.6658 428.098 47.096 438.203 47.096C446.47 47.096 452.288 41.8906 452.901 34.6643ZM474.216 26.3969V34.3581L474.093 45.81C474.093 46.0549 474.338 46.2999 474.583 46.2999H482.912C483.157 46.2999 483.402 46.0549 483.402 45.81L483.279 34.2356V27.4992C483.463 18.252 479.115 14.0264 472.011 14.0264C467.847 14.0264 464.662 15.4349 462.458 18.252L462.58 3.9218C462.58 3.67684 462.335 3.43188 462.09 3.43188H454.007C453.762 3.43188 453.517 3.67684 453.517 3.9218L453.7 24.8046L453.517 45.81C453.517 46.0549 453.762 46.2999 454.007 46.2999H462.09C462.335 46.2999 462.58 46.0549 462.58 45.81L462.397 27.4992C463.438 23.0899 466.622 20.7628 469.562 20.7628C472.072 20.7628 474.155 22.6 474.216 26.3969ZM493.265 30.1325C493.265 23.757 495.569 20.276 500.061 20.2698L500.308 20.2729C504.717 20.3341 507.106 24.0085 507.044 30.7449C506.983 37.4201 504.595 40.7883 500.124 40.7883C495.715 40.8495 493.265 37.2364 493.265 30.1325ZM515.434 46.2999C515.679 46.2999 515.924 46.0549 515.924 45.81L515.802 30.5612L515.924 15.2512C515.924 15.0062 515.679 14.7613 515.434 14.7613H507.167C506.922 14.7613 506.677 15.0062 506.677 15.2512L506.861 18.1295C504.717 15.5574 501.655 14.1489 497.736 14.1489C489.162 14.1489 483.896 21.4977 483.896 30.6224C483.896 39.8084 488.611 46.9123 497.552 46.9123C501.533 46.9123 504.656 45.32 506.861 42.6255L506.738 45.81C506.738 46.0549 506.983 46.2999 507.228 46.2999H515.434ZM526.278 46.2999C526.522 46.2999 526.767 46.0549 526.767 45.81L526.645 32.8883V30.5612C526.645 23.8248 530.197 20.7628 533.504 20.7628C536.26 20.7628 538.281 22.9674 538.281 26.3969V32.8883L538.158 45.81C538.158 46.0549 538.403 46.2999 538.648 46.2999H546.977C547.222 46.2999 547.467 46.0549 547.467 45.81L547.344 32.8883V26.2744C547.344 18.5582 542.996 14.0264 536.321 14.0264C531.912 14.0264 528.298 15.9861 526.155 18.7419L526.339 15.2512C526.339 15.0062 526.094 14.7613 525.849 14.7613H517.949C517.704 14.7613 517.459 15.0062 517.459 15.2512V31.1736L517.336 45.81C517.336 46.0549 517.581 46.2999 517.826 46.2999H526.278ZM557.33 29.9488C557.33 23.6411 559.718 20.2116 564.373 20.3341C568.782 20.3954 571.17 24.0085 571.109 30.5612C571.048 36.9302 568.659 40.1146 564.189 40.1146C559.78 40.1759 557.33 36.7464 557.33 29.9488ZM579.805 45.4425V30.9899L579.928 15.2512C579.928 15.0062 579.683 14.7613 579.438 14.7613H571.232C570.987 14.7613 570.742 15.0062 570.742 15.2512L570.925 18.1907C568.782 15.6799 565.72 14.3326 561.801 14.3326C553.227 14.3326 547.96 21.4977 547.96 30.3162C547.96 39.196 552.86 46.1162 562.229 46.1162C566.149 46.1162 569.211 44.4627 571.293 41.7069V45.32C571.293 50.2805 568.537 52.4851 564.556 52.4851C560.821 52.4851 558.677 50.9541 558.31 48.3208C558.249 48.0146 558.004 47.8309 557.759 47.8309H549.675C549.43 47.8309 549.185 48.0758 549.185 48.3208C549.668 55.1964 555.734 58.5675 563.873 58.5511L564.25 58.5479C574.661 58.5479 579.805 53.4037 579.805 45.4425ZM603.815 35.6441C603.57 35.6441 603.264 35.8278 603.203 36.134C602.406 39.5635 600.202 40.972 597.079 40.972C592.669 40.972 590.342 38.3387 589.975 32.3984H612.572C612.817 32.3984 613.062 32.1534 613.062 31.9085C612.879 20.8853 607.183 13.9652 596.772 13.9652C586.729 13.9652 580.728 20.5791 580.728 30.6224C580.728 40.1759 586.423 47.096 596.956 47.096C605.699 47.096 611.177 42.1089 612.045 36.4021L612.082 36.134C612.144 35.8891 611.899 35.6441 611.654 35.6441H603.815ZM603.141 26.5806H590.22C590.955 22.2326 593.159 20.0279 596.834 20.0279C600.875 20.0279 602.774 23.2124 603.141 26.5806Z" fill="#0AC18E"/>
<path fill-rule="evenodd" clip-rule="evenodd" d="M34.2747 0H50.0411C50.7983 0 51.4121 0.611746 51.4121 1.36637V17.0797H34.2747V0Z" fill="#0AC18E"/>
<path opacity="0.5" d="M51.4121 17.0796H34.2747V34.1592H51.4121V17.0796Z" fill="#0AC18E"/>
<path opacity="0.25" fill-rule="evenodd" clip-rule="evenodd" d="M34.2747 34.1594H51.4121V49.3658C51.4121 50.0961 50.7983 50.6881 50.0411 50.6881H34.2747V34.1594Z" fill="#0AC18E"/>
<path opacity="0.25" fill-rule="evenodd" clip-rule="evenodd" d="M1.37099 0H17.1374V17.0797H0V1.36637C0 0.611746 0.613813 0 1.37099 0Z" fill="#0AC18E"/>
<path d="M34.2747 17.0796H17.1374V34.1592H34.2747V17.0796Z" fill="#0AC18E"/>
<path fill-rule="evenodd" clip-rule="evenodd" d="M0 34.1594H17.1374V50.6881H1.37099C0.613813 50.6881 0 50.0961 0 49.3658V34.1594Z" fill="#0AC18E"/>
<path opacity="0.5" d="M34.2747 34.1594H17.1374V50.6881H34.2747V34.1594Z" fill="#0AC18E"/>
<path opacity="0.5" d="M34.2747 0H17.1374V17.0797H34.2747V0Z" fill="#0AC18E"/>
<path opacity="0.5" d="M17.1374 17.0796H0V34.1592H17.1374V17.0796Z" fill="#0AC18E"/>
<path d="M82.5119 45.7294H64.055C63.7966 45.713 63.5906 45.5088 63.5741 45.2525L63.757 24.793L63.5741 4.3403C63.5873 4.08139 63.7941 3.87341 64.055 3.85669H82.2342C90.8632 3.85669 97.257 6.96658 97.257 14.2073C97.257 19.2315 94.6019 22.0996 89.9556 23.4765C95.6247 24.7326 98.4017 28.4403 98.4017 33.048C98.3746 42.1426 90.5922 45.7294 82.5119 45.7294ZM72.6772 20.7294H82.329C85.8917 20.7294 88.0591 18.9292 88.0591 15.5238C88.0591 11.8161 85.465 10.1974 82.329 10.1974H72.7992L72.6772 20.7294ZM72.7992 39.3887H82.329C86.1287 39.3887 89.1021 37.9513 89.1021 33.048C89.1021 28.6216 86.0204 27.07 82.329 27.07H72.6772L72.7992 39.3887Z" fill="black"/>
<path d="M100.553 11.937C100.286 11.9203 100.074 11.7123 100.06 11.4534V4.3403C100.074 4.08139 100.286 3.87341 100.553 3.85669H108.965C109.232 3.87341 109.444 4.08139 109.458 4.3403V11.4534C109.444 11.7123 109.232 11.9203 108.965 11.937H100.553ZM100.553 45.7294C100.288 45.713 100.077 45.5088 100.06 45.2525L100.178 30.3546L100.06 15.4029C100.077 15.1466 100.288 14.9424 100.553 14.926H108.965C109.23 14.9424 109.441 15.1466 109.458 15.4029L109.333 30.3546L109.458 45.2525C109.441 45.5088 109.23 45.713 108.965 45.7294H100.553Z" fill="black"/>
<path fill-rule="evenodd" clip-rule="evenodd" d="M131.476 44.5932C131.489 44.9 131.291 45.1766 130.995 45.2654C129.168 45.8812 127.259 46.2232 125.33 46.2803C120.085 46.2803 115.083 43.6455 115.083 36.6419L115.144 21.183H111.59C111.346 21.1658 111.148 20.9803 111.117 20.7394V15.3623C111.133 15.1059 111.339 14.9015 111.597 14.8851H115.178L115.117 7.63957C115.136 7.38202 115.344 7.17838 115.604 7.16235H123.679C123.936 7.18157 124.14 7.38439 124.159 7.63957L124.098 14.8851H131.09C131.348 14.9015 131.554 15.1059 131.571 15.3623V20.7394C131.554 20.9958 131.348 21.2002 131.09 21.2166H124.065L124.125 36.4201C124.125 39.0482 125.479 39.8883 127.442 39.8883C128.648 39.9019 129.848 39.7202 130.995 39.3506C131.108 39.3221 131.228 39.3458 131.321 39.4149C131.415 39.4841 131.471 39.5913 131.476 39.7068V44.5932Z" fill="black"/>
<path fill-rule="evenodd" clip-rule="evenodd" d="M147.46 46.8314C137.493 46.8314 131.571 40.5283 131.571 30.6523C131.571 20.7764 137.494 14.325 147.643 14.325C155.675 14.325 160.872 18.8281 161.537 25.6098C161.553 25.7303 161.516 25.8516 161.435 25.9431C161.355 26.0346 161.239 26.0875 161.117 26.0885H153.654C153.378 26.082 153.147 25.8805 153.104 25.6098C152.426 22.0707 150.207 20.3854 147.609 20.3854C143.016 20.446 140.825 23.756 140.825 30.5917C140.825 37.6767 143.057 40.7036 147.609 40.7979C150.689 40.8586 152.989 38.6947 153.348 34.6162C153.391 34.348 153.618 34.1472 153.891 34.1376H161.551C161.674 34.1363 161.791 34.1885 161.872 34.2806C161.953 34.3726 161.989 34.4953 161.971 34.6162C161.354 41.7282 155.614 46.8314 147.46 46.8314Z" fill="black"/>
<path d="M178.622 46.8314C168.393 46.8314 162.529 40.5283 162.529 30.6523C162.529 20.7764 168.42 14.325 178.622 14.325C188.823 14.325 194.592 20.628 194.592 30.504C194.592 40.38 188.823 46.8314 178.622 46.8314ZM178.622 40.8249C183.116 40.8249 185.236 37.7644 185.236 30.6793C185.236 23.7156 183.054 20.3584 178.56 20.3584C173.944 20.4123 171.816 23.7762 171.816 30.74C171.816 37.7037 174.067 40.8249 178.622 40.8249Z" fill="black"/>
<path d="M196.744 12.4881C196.476 12.4713 196.264 12.2634 196.251 12.0044V4.89133C196.264 4.63241 196.476 4.42444 196.744 4.40771H205.155C205.423 4.42444 205.635 4.63241 205.648 4.89133V12.0044C205.635 12.2634 205.423 12.4713 205.155 12.4881H196.744ZM196.744 46.2804C196.479 46.264 196.267 46.0598 196.251 45.8035L196.369 30.9056L196.251 15.9539C196.267 15.6976 196.479 15.4934 196.744 15.477H205.155C205.42 15.4934 205.632 15.6976 205.648 15.9539L205.523 30.9056L205.648 45.8035C205.632 46.0598 205.42 46.264 205.155 46.2804H196.744Z" fill="black"/>
<path fill-rule="evenodd" clip-rule="evenodd" d="M208.351 46.2804C208.089 46.2642 207.88 46.058 207.86 45.7972L207.982 31.308V15.5529C207.999 15.2933 208.206 15.0863 208.466 15.0697H216.299C216.559 15.0863 216.767 15.2933 216.783 15.5529L216.606 18.9966C219.06 15.9672 222.78 14.2432 226.682 14.3279C233.301 14.3279 237.589 18.8129 237.589 26.4488V32.9958L237.712 45.7836C237.692 46.0444 237.483 46.2506 237.221 46.2668H228.986C228.727 46.2474 228.521 46.042 228.502 45.7836L228.625 32.9958V26.5849C228.625 23.1821 226.62 21.0111 223.887 21.0111C220.608 21.0111 217.07 24.0396 217.07 30.7023V33.0094L217.192 45.7972C217.173 46.0556 216.967 46.261 216.708 46.2804H208.351Z" fill="black"/>
<path fill-rule="evenodd" clip-rule="evenodd" d="M239.298 46.2804C239.041 46.2606 238.837 46.0518 238.818 45.7891V37.9633C238.834 37.6979 239.039 37.4853 239.298 37.4651H247.735C247.996 37.4823 248.202 37.6966 248.215 37.9633V45.7891C248.199 46.0531 247.993 46.2635 247.735 46.2804H239.298Z" fill="black"/>
<path fill-rule="evenodd" clip-rule="evenodd" d="M264.661 46.8314C254.693 46.8314 248.768 40.5283 248.768 30.6523C248.768 20.7764 254.693 14.325 264.844 14.325C272.879 14.325 278.077 18.8281 278.742 25.6098C278.76 25.7308 278.724 25.8534 278.643 25.9455C278.562 26.0375 278.445 26.0898 278.322 26.0885H270.891C270.615 26.082 270.384 25.8805 270.341 25.6098C269.663 22.0707 267.444 20.3854 264.844 20.3854C260.25 20.446 258.058 23.756 258.058 30.5917C258.058 37.6767 260.291 40.7036 264.844 40.7979C267.925 40.8586 270.226 38.6947 270.585 34.6162C270.628 34.348 270.855 34.1472 271.128 34.1376H278.742C278.866 34.1366 278.984 34.1886 279.066 34.2804C279.148 34.3721 279.186 34.4945 279.17 34.6162C278.559 41.7282 272.825 46.8314 264.661 46.8314Z" fill="black"/>
<path d="M296.372 46.8314C286.143 46.8314 280.279 40.5283 280.279 30.6523C280.279 20.7764 286.171 14.325 296.372 14.325C306.573 14.325 312.342 20.628 312.342 30.504C312.342 40.38 306.573 46.8314 296.372 46.8314ZM296.372 40.8249C300.866 40.8249 302.993 37.7644 302.993 30.6793C302.993 23.7425 300.825 20.3719 296.311 20.3719C291.694 20.4258 289.573 23.7897 289.573 30.7534C289.573 37.7172 291.817 40.8249 296.372 40.8249Z" fill="black"/>
<path fill-rule="evenodd" clip-rule="evenodd" d="M322.716 35.0607L322.833 45.7971C322.816 46.0568 322.608 46.2638 322.347 46.2804H313.934C313.674 46.261 313.468 46.0555 313.448 45.7971L313.571 35.0607V15.542C313.588 15.2822 313.796 15.0752 314.057 15.0587H321.922C322.183 15.0752 322.392 15.2822 322.408 15.542L322.223 18.9869C324.206 15.98 327.618 14.2159 331.231 14.3302C335.619 14.3302 338.795 16.2092 340.253 20.2124C342.936 15.4808 346.044 14.3302 349.761 14.3302C356.099 14.3302 359.762 18.1495 359.762 26.4553V35.0607L359.885 45.7971C359.865 46.0579 359.655 46.2642 359.392 46.2804H351.116C350.856 46.261 350.65 46.0555 350.63 45.7971L350.754 35.0607V26.5779C350.754 22.8198 349.227 21.0021 346.729 21.0021C344.23 21.0021 341.253 24.3312 341.253 30.6968V35.0607L341.376 45.7971C341.356 46.0579 341.146 46.2642 340.883 46.2804H332.6C332.341 46.261 332.134 46.0555 332.114 45.7971L332.238 35.0607V26.5779C332.238 22.8198 330.773 21.0021 328.213 21.0021C325.653 21.0021 322.737 24.3312 322.737 30.6968L322.716 35.0607Z" fill="black"/>
</svg>
