<?xml version="1.0" encoding="UTF-8"?>
<svg width="614px" height="59px" viewBox="0 0 614 59" version="1.1" xmlns="http://www.w3.org/2000/svg" xmlns:xlink="http://www.w3.org/1999/xlink">
    <!-- Generator: Sketch 59.1 (86144) - https://sketch.com -->
    <title>BCE Copy</title>
    <desc>Created with Sketch.</desc>
    <g id="Page-1" stroke="none" stroke-width="1" fill="none" fill-rule="evenodd">
        <g id="Artboard" transform="translate(-126.000000, -477.000000)">
            <g id="BCE-Copy" transform="translate(126.000000, 453.000000)">
                <path d="M394.592382,70.3 C394.837342,70.3 395.082302,70.05504 395.082302,69.81008 L395.082302,63.8698003 C395.082302,63.6248403 394.837342,63.3798803 394.592382,63.3798803 L374.015743,63.3798803 L373.893263,51.1318809 L392.326502,51.1318809 C392.571462,51.1318809 392.816422,50.886921 392.816422,50.641961 L392.816422,44.7016813 C392.816422,44.4567213 392.571462,44.2117613 392.326502,44.2117613 L373.893263,44.2117613 L374.015743,34.3521218 L394.102462,34.3521218 C394.347422,34.3521218 394.592382,34.1071618 394.592382,33.8622018 L394.592382,27.9219221 C394.592382,27.6769621 394.347422,27.4320021 394.102462,27.4320021 L365.135944,27.4320021 C364.890984,27.4320021 364.646024,27.6769621 364.646024,27.9219221 L364.829744,48.866001 L364.646024,69.81008 C364.646024,70.05504 364.890984,70.3 365.135944,70.3 L394.592382,70.3 Z M425.522408,70.3 C425.767368,70.3 425.889848,70.05504 425.767368,69.87132 L416.458889,54.1938808 L425.216208,39.1900815 C425.338688,39.0063615 425.216208,38.7614015 424.971248,38.7614015 L416.703849,38.7614015 C416.397649,38.7614015 416.152689,38.9451215 415.968969,39.1900815 L411.069769,49.172201 L405.680649,39.1900815 C405.558169,38.9451215 405.251969,38.7614015 404.945769,38.7614015 L395.63729,38.7614015 C395.39233,38.7614015 395.26985,39.0063615 395.39233,39.1900815 L404.455849,53.5814808 L394.96365,69.87132 C394.84117,70.05504 394.96365,70.3 395.20861,70.3 L403.720969,70.3 C404.027169,70.3 404.333369,70.11628 404.455849,69.87132 L409.967449,59.3992805 L415.417809,69.87132 C415.540289,70.11628 415.846489,70.3 416.152689,70.3 L425.522408,70.3 Z M452.900514,58.6644006 C452.961754,58.4194406 452.716794,58.1744806 452.471834,58.1744806 L444.755595,58.1744806 C444.510635,58.1744806 444.265675,58.3582006 444.204435,58.6644006 C443.836995,62.8287204 441.509875,65.0333603 438.386635,64.9721203 C433.793635,64.9108803 431.527755,61.7876404 431.527755,54.5613208 C431.527755,47.5799611 433.732395,44.2117613 438.386635,44.1505213 C441.019955,44.1505213 443.285835,45.8652412 443.959475,49.478401 C444.020715,49.784601 444.265675,49.968321 444.510635,49.968321 L452.043154,49.968321 C452.288114,49.968321 452.533074,49.723361 452.471834,49.478401 C451.798194,42.5582814 446.531555,37.9652816 438.386635,37.9652816 C428.098316,37.9652816 422.096796,44.5792013 422.096796,54.6225608 C422.096796,64.6659203 428.098316,71.09612 438.202915,71.09612 C446.470315,71.09612 452.288114,65.8907202 452.900514,58.6644006 Z M474.215861,50.397001 L474.215861,58.3582006 L474.093381,69.81008 C474.093381,70.05504 474.338341,70.3 474.583301,70.3 L482.91194,70.3 C483.1569,70.3 483.40186,70.05504 483.40186,69.81008 L483.27938,58.2357206 L483.27938,51.4993209 C483.4631,42.2520814 479.115061,38.0265216 472.011221,38.0265216 C467.846901,38.0265216 464.662421,39.4350415 462.457781,42.2520814 L462.580261,27.9219221 C462.580261,27.6769621 462.335301,27.4320021 462.090341,27.4320021 L454.006662,27.4320021 C453.761702,27.4320021 453.516742,27.6769621 453.516742,27.9219221 L453.700462,48.8047611 L453.516742,69.81008 C453.516742,70.05504 453.761702,70.3 454.006662,70.3 L462.090341,70.3 C462.335301,70.3 462.580261,70.05504 462.580261,69.81008 L462.396541,51.4993209 C463.437621,47.0900411 466.622101,44.7629213 469.561621,44.7629213 C472.072461,44.7629213 474.154621,46.6001212 474.215861,50.397001 Z M493.265327,54.1326408 C493.265327,47.7571197 495.56915,44.2761453 500.060761,44.2698928 L500.307927,44.2730013 C504.717207,44.3342413 507.105567,48.0086411 507.044327,54.7450408 C506.983087,61.4202004 504.594727,64.7884003 500.124207,64.7884003 C495.714927,64.8496403 493.265327,61.2364804 493.265327,54.1326408 Z M515.434206,70.3 C515.679166,70.3 515.924126,70.05504 515.924126,69.81008 L515.801646,54.5613208 L515.924126,39.2513215 C515.924126,39.0063615 515.679166,38.7614015 515.434206,38.7614015 L507.166807,38.7614015 C506.921847,38.7614015 506.676887,39.0063615 506.676887,39.2513215 L506.860607,42.1296014 C504.717207,39.5575215 501.655207,38.1490016 497.735847,38.1490016 C489.162247,38.1490016 483.895608,45.4978012 483.895608,54.6225608 C483.895608,63.8085603 488.611088,70.9124 497.552127,70.9124 C501.532727,70.9124 504.655967,69.32016 506.860607,66.6256002 L506.738127,69.81008 C506.738127,70.05504 506.983087,70.3 507.228047,70.3 L515.434206,70.3 Z M526.277513,70.3 C526.522473,70.3 526.767433,70.05504 526.767433,69.81008 L526.644953,56.8884407 L526.644953,54.5613208 C526.644953,47.8249211 530.196873,44.7629213 533.503833,44.7629213 C536.259633,44.7629213 538.280553,46.9675611 538.280553,50.397001 L538.280553,56.8884407 L538.158073,69.81008 C538.158073,70.05504 538.403033,70.3 538.647993,70.3 L546.976632,70.3 C547.221592,70.3 547.466552,70.05504 547.466552,69.81008 L547.344072,56.8884407 L547.344072,50.274521 C547.344072,42.5582814 542.996032,38.0265216 536.320873,38.0265216 C531.911593,38.0265216 528.298433,39.9862015 526.155033,42.7420013 L526.338753,39.2513215 C526.338753,39.0063615 526.093793,38.7614015 525.848833,38.7614015 L517.948874,38.7614015 C517.703914,38.7614015 517.458954,39.0063615 517.458954,39.2513215 L517.458954,55.1737207 L517.336474,69.81008 C517.336474,70.05504 517.581434,70.3 517.826394,70.3 L526.277513,70.3 Z M557.330019,53.9489208 C557.330019,47.6412011 559.718379,44.2117613 564.372619,44.3342413 C568.781899,44.3954813 571.170258,48.0086411 571.109018,54.5613208 C571.047778,60.9302805 568.659419,64.1147603 564.188899,64.1147603 C559.779619,64.1760003 557.330019,60.7465605 557.330019,53.9489208 Z M579.805098,69.44264 L579.805098,54.9900007 L579.927578,39.2513215 C579.927578,39.0063615 579.682618,38.7614015 579.437658,38.7614015 L571.231498,38.7614015 C570.986538,38.7614015 570.741578,39.0063615 570.741578,39.2513215 L570.925298,42.1908414 C568.781899,39.6800015 565.719899,38.3327216 561.800539,38.3327216 C553.226939,38.3327216 547.9603,45.4978012 547.9603,54.3163608 C547.9603,63.1961603 552.859499,70.11628 562.229219,70.11628 C566.148579,70.11628 569.210579,68.4628001 571.292738,65.7070002 L571.292738,69.32016 C571.292738,74.2805998 568.536939,76.4852397 564.556339,76.4852397 C560.820699,76.4852397 558.677299,74.9542398 558.309859,72.3209199 C558.248619,72.0147199 558.003659,71.8309999 557.758699,71.8309999 L549.675019,71.8309999 C549.43006,71.8309999 549.1851,72.0759599 549.1851,72.3209199 C549.667596,79.1965014 555.733533,82.5675833 563.873011,82.5512219 L564.250139,82.5479994 C574.660938,82.5479994 579.805098,77.4038397 579.805098,69.44264 Z M603.815004,59.6442405 C603.570044,59.6442405 603.263844,59.8279605 603.202604,60.1341605 C602.406484,63.5636003 600.201845,64.9721203 597.078605,64.9721203 C592.669325,64.9721203 590.342205,62.3388004 589.974765,56.3985207 L612.572324,56.3985207 C612.817284,56.3985207 613.062244,56.1535607 613.062244,55.9086007 C612.878524,44.8854012 607.183204,37.9652816 596.772405,37.9652816 C586.729045,37.9652816 580.727525,44.5792013 580.727525,54.6225608 C580.727525,64.1760003 586.422845,71.09612 596.956125,71.09612 C605.699312,71.09612 611.177139,66.1090245 612.0451,60.4021797 L612.082404,60.1341605 C612.143644,59.8892005 611.898684,59.6442405 611.653724,59.6442405 L603.815004,59.6442405 Z M603.141364,50.580721 L590.219725,50.580721 C590.954605,46.2326812 593.159245,44.0280413 596.833645,44.0280413 C600.875484,44.0280413 602.773924,47.2125211 603.141364,50.580721 Z" id="Exchange" fill="#0AC18E" fill-rule="nonzero"></path>
                <g id="Group-5-Copy" transform="translate(0.000000, 23.999999)">
                    <g id="Group-Copy" fill="#0AC18E">
                        <path d="M34.2747434,-1.24344979e-14 L50.0411254,-1.24344979e-14 C50.7983021,-1.24344979e-14 51.4121151,0.61174567 51.4121151,1.3663722 L51.4121151,17.0796525 L34.2747434,17.0796525 L34.2747434,-1.24344979e-14 Z" id="Path"></path>
                        <rect id="Rectangle" opacity="0.5" x="34.2747434" y="17.0796525" width="17.1373717" height="17.0796525"></rect>
                        <path d="M34.2747434,34.1593049 L51.4121151,34.1593049 L51.4121151,49.3657052 C51.4121151,50.0959889 50.7983021,50.6880008 50.0411254,50.6880008 L34.2747434,50.6880008 L34.2747434,34.1593049 Z" id="Path" opacity="0.25"></path>
                        <path d="M1.37098974,-1.24344979e-14 L17.1373717,-1.24344979e-14 L17.1373717,17.0796525 L4.08562073e-14,17.0796525 L4.08562073e-14,1.3663722 C4.08562073e-14,0.61174567 0.613813013,-1.24344979e-14 1.37098974,-1.24344979e-14 Z" id="Path" opacity="0.25"></path>
                        <rect id="Rectangle" x="17.1373717" y="17.0796525" width="17.1373717" height="17.0796525"></rect>
                        <path d="M4.08562073e-14,34.1593049 L17.1373717,34.1593049 L17.1373717,50.6880008 L1.37098974,50.6880008 C0.613813013,50.6880008 4.08562073e-14,50.0959889 4.08562073e-14,49.3657052 L4.08562073e-14,34.1593049 Z" id="Path"></path>
                        <rect id="Rectangle" opacity="0.5" x="17.1373717" y="34.1593049" width="17.1373717" height="16.5286959"></rect>
                        <rect id="Rectangle" opacity="0.5" x="17.1373717" y="-1.24344979e-14" width="17.1373717" height="17.0796525"></rect>
                        <rect id="Rectangle" opacity="0.5" x="4.08562073e-14" y="17.0796525" width="17.1373717" height="17.0796525"></rect>
                    </g>
                    <g id="Group-4-Copy" transform="translate(63.574121, 3.856696)" fill="#FFFFFF">
                        <path d="M18.9377408,41.8726964 L0.480893989,41.8726964 C0.222451123,41.856323 0.0165106277,41.6520952 0,41.3958017 L0.182875179,20.9363482 L0,0.483611507 C0.0132142572,0.224699938 0.220021489,0.0167240443 0.480893989,0 L18.6600414,0 C27.2890406,0 33.6828987,3.10989067 33.6828987,10.3506296 C33.6828987,15.3748158 31.027822,18.2429008 26.3814379,19.6198502 C32.0505684,20.8758967 34.8275619,24.583585 34.8275619,29.1913279 C34.8004693,38.285911 27.0181144,41.8726964 18.9377408,41.8726964 Z M9.10312002,16.8726681 L18.7548656,16.8726681 C22.317545,16.8726681 24.4849545,15.0725586 24.4849545,11.6671276 C24.4849545,7.95943939 21.8908362,6.34068421 18.7548656,6.34068421 L9.22503681,6.34068421 L9.10312002,16.8726681 Z M9.22503681,35.5320121 L18.7548656,35.5320121 C22.5546054,35.5320121 25.5280204,34.0946113 25.5280204,29.1913279 C25.5280204,24.7649393 22.4462349,23.2133524 18.7548656,23.2133524 L9.10312002,23.2133524 L9.22503681,35.5320121 Z" id="Shape" fill-rule="nonzero"></path>
                        <path d="M36.9791819,8.08034227 C36.7116529,8.06361823 36.4995686,7.85564233 36.4860172,7.59673076 L36.4860172,0.483611507 C36.4995686,0.224699938 36.7116529,0.0167240443 36.9791819,0 L45.390766,0 C45.6582951,0.0167240443 45.8703793,0.224699938 45.8839307,0.483611507 L45.8839307,7.59673076 C45.8703793,7.85564233 45.6582951,8.06361823 45.390766,8.08034227 L36.9791819,8.08034227 Z M36.9791819,41.8726964 C36.7141445,41.856323 36.5029491,41.6520952 36.4860172,41.3958017 L36.6040989,26.4978805 L36.4860172,11.5462247 C36.5029491,11.2899312 36.7141445,11.0857034 36.9791819,11.0693301 L45.390766,11.0693301 C45.6558034,11.0857034 45.8669988,11.2899312 45.8839307,11.5462247 L45.758903,26.4978805 L45.8839307,41.3958017 C45.8669988,41.6520952 45.6558034,41.856323 45.390766,41.8726964 L36.9791819,41.8726964 Z" id="Shape" fill-rule="nonzero"></path>
                        <path d="M67.90191,40.7366088 C67.9151109,41.0433484 67.7173225,41.3199823 67.4213494,41.4087379 C65.5941893,42.024567 63.6848285,42.366627 61.7561494,42.4236529 C56.5105939,42.4236529 51.5087029,39.7889068 51.5087029,32.7853216 L51.569619,17.3263522 L48.0161782,17.3263522 C47.7721024,17.3092024 47.5739713,17.1236949 47.542386,16.882747 L47.542386,11.5057142 C47.5588852,11.2492503 47.7646829,11.0448868 48.0229466,11.0285026 L51.6034613,11.0285026 L51.5425452,3.78295085 C51.5623118,3.52540777 51.7702727,3.32176433 52.0298742,3.30573919 L60.1046455,3.30573919 C60.3616096,3.32495652 60.5658539,3.5277775 60.5852061,3.78295085 L60.5242899,11.0285026 L67.5161078,11.0285026 C67.7743715,11.0448868 67.9801692,11.2492503 67.9966684,11.5057142 L67.9966684,16.882747 C67.9801692,17.1392109 67.7743715,17.3435745 67.5161078,17.3599587 L60.4904477,17.3599587 L60.5513638,32.563519 C60.5513638,35.1915438 61.9050555,36.0317051 63.8679086,36.0317051 C65.0739317,36.045247 66.2741246,35.8636349 67.4213494,35.4940018 C67.5341687,35.4655201 67.6539068,35.4891464 67.7471906,35.5582955 C67.8404744,35.6274447 67.8973297,35.734723 67.90191,35.8502303 L67.90191,40.7366088 Z" id="Path"></path>
                        <path d="M83.8855536,42.9746094 C73.9193826,42.9746094 67.9966684,36.6715159 67.9966684,26.7955458 C67.9966684,16.9195757 73.9193826,10.4681741 84.0687303,10.4681741 C92.1013691,10.4681741 97.2981607,14.9713468 97.9630244,21.753071 C97.9785506,21.8735512 97.9414185,21.9948713 97.861015,22.0863621 C97.7806115,22.1778528 97.6646322,22.2307573 97.5423963,22.2317016 L90.0796407,22.2317016 C89.8040782,22.2252076 89.5726916,22.0236742 89.5301105,21.753071 C88.8516782,18.2139008 86.6332045,16.5285817 84.0348087,16.5285817 C79.4418218,16.5892532 77.2504854,19.8992199 77.2504854,26.7348743 C77.2504854,33.8199559 79.4825277,36.8467891 84.0348087,36.9411669 C87.1148914,37.0018384 89.414777,34.8378887 89.7743462,30.7594164 C89.8164452,30.4912448 90.044118,30.2904672 90.317092,30.2807857 L97.976593,30.2807857 C98.0995828,30.2794902 98.2169814,30.33175 98.2978829,30.4238074 C98.3787844,30.5158649 98.4150823,30.6384956 98.3972211,30.7594164 C97.7798476,37.8714631 92.0403101,42.9746094 83.8855536,42.9746094 Z" id="Path"></path>
                        <path d="M115.047608,42.9746094 C104.818938,42.9746094 98.9545012,36.6715159 98.9545012,26.7955458 C98.9545012,16.9195757 104.846215,10.4681741 115.047608,10.4681741 C125.249001,10.4681741 131.017971,16.7712676 131.017971,26.6472377 C131.017971,36.5232078 125.249001,42.9746094 115.047608,42.9746094 Z M115.047608,36.968132 C119.541404,36.968132 121.662148,33.9075925 121.662148,26.8225109 C121.662148,19.8587723 119.480032,16.5016166 114.986236,16.5016166 C110.369696,16.5555468 108.242133,19.9194438 108.242133,26.8831824 C108.242133,33.846921 110.492441,36.968132 115.047608,36.968132 Z" id="Shape" fill-rule="nonzero"></path>
                        <path d="M133.169591,8.6312988 C132.902062,8.61457476 132.689978,8.40659886 132.676426,8.14768729 L132.676426,1.03456804 C132.689978,0.775656469 132.902062,0.567680575 133.169591,0.550956531 L141.581175,0.550956531 C141.848704,0.567680575 142.060788,0.775656469 142.07434,1.03456804 L142.07434,8.14768729 C142.060788,8.40659886 141.848704,8.61457476 141.581175,8.6312988 L133.169591,8.6312988 Z M133.169591,42.4236529 C132.904553,42.4072796 132.693358,42.2030518 132.676426,41.9467582 L132.794508,27.048837 L132.676426,12.0971813 C132.693358,11.8408877 132.904553,11.6366599 133.169591,11.6202866 L141.581175,11.6202866 C141.846212,11.6366599 142.057408,11.8408877 142.07434,12.0971813 L141.949312,27.048837 L142.07434,41.9467582 C142.057408,42.2030518 141.846212,42.4072796 141.581175,42.4236529 L133.169591,42.4236529 Z" id="Shape" fill-rule="nonzero"></path>
                        <path d="M144.776447,42.4236529 C144.514978,42.4074266 144.305522,42.2012275 144.285613,41.9404522 L144.408322,27.451237 L144.408322,11.6961722 C144.42494,11.4364896 144.632217,11.2295613 144.892338,11.2129715 L152.725216,11.2129715 C152.985336,11.2295613 153.192614,11.4364896 153.209232,11.6961722 L153.031986,15.1398278 C155.485583,12.1104673 159.206295,10.3864422 163.107699,10.4711563 C169.727129,10.4711563 174.015101,14.9560755 174.015101,22.5920075 L174.015101,29.1390366 L174.137809,41.9268409 C174.117901,42.1876162 173.908444,42.3938153 173.646976,42.4100416 L165.411888,42.4100416 C165.153076,42.3905831 164.947363,42.1852167 164.927872,41.9268409 L165.05058,29.1390366 L165.05058,22.7281204 C165.05058,19.3252986 163.046345,17.1542983 160.312677,17.1542983 C157.03364,17.1542983 153.495551,20.1828097 153.495551,26.8455348 L153.495551,29.1526479 L153.618259,41.9404522 C153.598768,42.198828 153.393055,42.4041944 153.134243,42.4236529 L144.776447,42.4236529 Z" id="Path"></path>
                        <path d="M175.723829,42.4236529 C175.46696,42.4038691 175.262791,42.1950703 175.243446,41.9323761 L175.243446,34.1065446 C175.259578,33.8411541 175.464575,33.6285558 175.723829,33.6083484 L184.160977,33.6083484 C184.421572,33.6255768 184.62816,33.8398248 184.64136,34.1065446 L184.64136,41.9323761 C184.624867,42.1963989 184.419145,42.4067858 184.160977,42.4236529 L175.723829,42.4236529 Z" id="Path"></path>
                        <path d="M201.087131,42.9746094 C191.118409,42.9746094 185.194178,36.6715159 185.194178,26.7955458 C185.194178,16.9195757 191.118409,10.4681741 201.270355,10.4681741 C209.30505,10.4681741 214.503172,14.9713468 215.168206,21.753071 C215.186071,21.8739918 215.149764,21.9966225 215.068842,22.0886799 C214.98792,22.1807373 214.870491,22.2329971 214.74747,22.2317016 L207.316734,22.2317016 C207.041101,22.2252076 206.809655,22.0236742 206.767063,21.753071 C206.088457,18.2139008 203.869416,16.5285817 201.270355,16.5285817 C196.676192,16.5892532 194.484294,19.8992199 194.484294,26.7348743 C194.484294,33.8199559 196.716908,36.8467891 201.270355,36.9411669 C204.351226,37.0018384 206.6517,34.8378887 207.011361,30.7594164 C207.053471,30.4912448 207.281202,30.2904672 207.554246,30.2807857 L215.168206,30.2807857 C215.291656,30.2797924 215.409512,30.331861 215.49145,30.4235945 C215.573388,30.5153279 215.611408,30.6377698 215.595727,30.7594164 C214.984982,37.8714631 209.250761,42.9746094 201.087131,42.9746094 Z" id="Path"></path>
                        <path d="M232.797936,42.9746094 C222.569267,42.9746094 216.704829,36.6715159 216.704829,26.7955458 C216.704829,16.9195757 222.596543,10.4681741 232.797936,10.4681741 C242.999329,10.4681741 248.768299,16.7712676 248.768299,26.6472377 C248.768299,36.5232078 242.999329,42.9746094 232.797936,42.9746094 Z M232.797936,36.968132 C237.291732,36.968132 239.419295,33.9075925 239.419295,26.8225109 C239.419295,19.8857374 237.250817,16.5150991 232.736564,16.5150991 C228.120025,16.5690293 225.999281,19.9329263 225.999281,26.8966649 C225.999281,33.8604036 228.242769,36.968132 232.797936,36.968132 Z" id="Shape" fill-rule="nonzero"></path>
                        <path d="M259.14212,31.2039642 L259.258485,41.9402804 C259.2418,42.2000552 259.033673,42.4070572 258.772488,42.4236529 L250.359934,42.4236529 C250.100062,42.4041875 249.893507,42.198748 249.873936,41.9402804 L249.997147,31.2039642 L249.997147,11.685246 C250.013833,11.4254711 250.221959,11.2184692 250.483145,11.2018735 L258.348095,11.2018735 C258.609281,11.2184692 258.817407,11.4254711 258.834093,11.685246 L258.649277,15.1301261 C260.631447,12.1232537 264.044103,10.3590839 267.657349,10.4734107 C272.045019,10.4734107 275.221118,12.3524362 276.679111,16.3555776 C279.362367,11.6239734 282.470015,10.4734107 286.186871,10.4734107 C292.525378,10.4734107 296.187474,14.2927343 296.187474,22.5985718 L296.187474,31.2039642 L296.310685,41.9402804 C296.290695,42.2011484 296.080381,42.4074209 295.817842,42.4236529 L287.542189,42.4236529 C287.282318,42.4041875 287.075763,42.198748 287.056191,41.9402804 L287.179402,31.2039642 L287.179402,22.721117 C287.179402,18.9630659 285.652958,17.1453129 283.154519,17.1453129 C280.656079,17.1453129 277.678487,20.474456 277.678487,26.8399954 L277.678487,31.2039642 L277.801698,41.9402804 C277.781708,42.2011484 277.571394,42.4074209 277.308855,42.4236529 L269.026357,42.4236529 C268.766486,42.4041875 268.55993,42.198748 268.540359,41.9402804 L268.66357,31.2039642 L268.66357,22.721117 C268.66357,18.9630659 267.198731,17.1453129 264.638687,17.1453129 C262.078642,17.1453129 259.162655,20.474456 259.162655,26.8399954 L259.14212,31.2039642 Z" id="Path"></path>
                    </g>
                </g>
            </g>
        </g>
    </g>
</svg>