<svg width="231" height="46" viewBox="0 0 231 46" fill="none" xmlns="http://www.w3.org/2000/svg">
<path d="M53.8276 31.2027C53.8276 29.7428 55.6327 28.402 55.8103 28.5509C57.2011 30.2493 59.8348 31.739 62.6756 31.739C65.4276 31.739 66.8776 30.6962 66.8776 28.9085C66.8776 26.8228 64.5694 26.4951 61.847 25.8992C58.148 25.0649 54.3603 23.6347 54.3603 18.8972C54.3603 14.5769 57.8225 11.7166 63.3562 11.7166C68.949 11.7166 71.6715 13.981 71.6715 15.9475C71.6715 17.5862 69.6888 18.8079 69.5704 18.7185C68.2092 17.1095 65.9011 15.8581 63.445 15.8581C60.9001 15.8581 59.4501 16.9307 59.4501 18.6291C59.4501 20.6254 61.5215 20.8041 64.3623 21.4596C68.5347 22.3833 72.1745 24.1412 72.1745 28.5211C72.1745 33.1394 68.8306 35.8806 62.7347 35.8806C56.6093 35.8806 53.8276 33.3182 53.8276 31.2027Z" fill="black"/>
<path d="M74.9126 12.3778C74.9126 10.7987 75.9779 9.81543 77.7238 9.81543C79.4697 9.81543 80.5054 10.7391 80.5054 12.3778C80.5054 13.9868 79.4697 14.97 77.7238 14.97C75.9779 14.97 74.9126 13.9868 74.9126 12.3778ZM75.2085 33.1154V20.1246C75.2085 18.3071 76.185 17.6814 77.4575 17.6814H77.9901C79.3514 17.6814 80.2391 18.2475 80.2391 20.1246V33.1154C80.2391 34.933 79.3218 35.5289 78.0197 35.5289H77.4871C76.185 35.5289 75.2085 34.9925 75.2085 33.1154Z" fill="black"/>
<path d="M83.009 31.9584C83.009 30.6771 84.4294 29.7833 84.5478 29.8727C85.7611 31.1539 87.7141 32.1967 90.2886 32.1967C92.2417 32.1967 93.3661 31.6306 93.3661 30.4984C93.3661 29.1576 91.9753 28.949 89.6376 28.4425C87.2406 27.9062 83.5121 27.1017 83.5121 23.1389C83.5121 19.7422 86.3529 17.4778 90.7917 17.4778C95.4967 17.4778 97.8049 19.2059 97.8049 21.2022C97.8049 22.543 96.2661 23.4667 96.2069 23.3475C95.0233 21.9769 93.1294 21.0234 91.1172 21.0234C89.2233 21.0234 88.158 21.6193 88.158 22.7516C88.158 24.003 89.5192 24.2115 91.857 24.7181C94.3131 25.2544 98.2784 26.0886 98.2784 30.0514C98.2784 33.5673 95.3784 35.7126 90.6141 35.7126C85.4651 35.7424 83.009 33.9546 83.009 31.9584Z" fill="black"/>
<path d="M101.846 21.7976C100.426 21.7976 99.7454 21.2017 99.7454 20.0397V19.712C99.7454 18.4904 100.426 17.8349 101.846 17.8349H102.705V15.6002C102.705 13.9615 103.563 13.157 104.983 13.157H105.397C106.759 13.157 107.646 13.7231 107.646 15.6002V17.8349H110.665C112.085 17.8349 112.707 18.4308 112.707 19.6226V19.9205C112.707 21.1421 112.056 21.7976 110.606 21.7976H107.528V29.2763C107.528 31.0044 108.09 31.8685 109.451 31.8685C110.487 31.8685 111.168 31.362 111.7 30.6767C111.76 30.5575 112.914 31.2428 112.914 32.6432C112.914 34.4011 111.168 35.8313 108.327 35.8313C104.48 35.8313 102.705 33.7754 102.705 29.8424V21.7976H101.846Z" fill="black"/>
<path d="M123.809 32.1669C126.443 32.1669 127.923 30.9751 128.722 29.5747C128.751 29.5151 131.148 29.8131 131.148 31.869C131.148 33.7461 128.485 35.8616 123.632 35.8616C117.95 35.8616 114.222 32.3159 114.222 26.774C114.222 21.4406 118.039 17.4778 123.306 17.4778C128.426 17.4778 131.977 21.1128 131.977 26.2376V26.5952C131.977 27.489 131.681 27.9956 130.763 27.9956H118.779C119.134 30.6176 121.087 32.1669 123.809 32.1669ZM127.301 25.0458C127.183 22.6026 125.674 20.9936 123.247 20.9936C120.909 20.9936 119.104 22.692 118.779 25.0458H127.301Z" fill="black"/>
<path d="M145.061 17.4778C147.961 17.4778 149.796 18.8484 150.624 21.0532C151.808 19.0569 153.613 17.4778 156.513 17.4778C160.922 17.4778 162.786 20.3083 162.786 24.4499V33.1204C162.786 34.9379 161.869 35.5338 160.537 35.5338H160.034C158.673 35.5338 157.756 34.9975 157.756 33.1204V25.2544C157.756 22.9303 156.72 21.7087 154.737 21.7087C153.287 21.7087 151.985 22.6026 151.275 23.854V33.1204C151.275 34.9379 150.358 35.5338 149.056 35.5338H148.523C147.191 35.5338 146.245 34.9975 146.245 33.1204V25.3736C146.245 22.9303 145.238 21.7087 143.256 21.7087C141.806 21.7087 140.504 22.6026 139.794 23.854V33.1204C139.794 34.9379 138.876 35.5338 137.574 35.5338H137.042C135.68 35.5338 134.763 34.9975 134.763 33.1204V18.2525C134.763 18.1035 135.651 17.6864 136.657 17.6864C137.929 17.6864 139.32 18.2525 139.675 20.4871C140.859 18.7292 142.546 17.4778 145.061 17.4778Z" fill="black"/>
<path d="M171.407 33.1235C171.407 34.9411 170.489 35.537 169.187 35.537H168.655C167.294 35.537 166.376 35.0006 166.376 33.1235V11.0153C166.376 10.8366 167.264 10.4492 168.27 10.4492C169.779 10.4492 171.407 11.2537 171.407 14.5014C171.407 14.5014 171.407 25.4363 171.407 25.4959L176.289 19.2985C177.177 18.1364 178.183 17.6895 179.041 17.6895C180.669 17.6895 181.882 19.1495 181.764 19.4176L176.319 26.2706L182.474 33.928C182.622 34.1664 181.32 35.6561 179.722 35.6561C178.805 35.6561 177.828 35.239 176.881 34.0472L171.436 27.373V33.1235H171.407Z" fill="black"/>
<path d="M183.341 26.6548C183.341 21.232 187.159 17.4778 192.692 17.4778C198.167 17.4778 201.925 21.232 201.925 26.7144C201.925 32.1669 198.196 35.8616 192.633 35.8616C187.07 35.8616 183.341 32.1669 183.341 26.6548ZM197.486 26.6846C197.486 23.6454 195.444 21.4108 192.633 21.4108C189.822 21.4108 187.751 23.5858 187.751 26.6548C187.751 29.6641 189.822 31.869 192.633 31.869C195.415 31.869 197.486 29.6641 197.486 26.6846Z" fill="black"/>
<path d="M204.655 12.3778C204.655 10.7987 205.721 9.81543 207.466 9.81543C209.212 9.81543 210.248 10.7391 210.248 12.3778C210.248 13.9868 209.212 14.97 207.466 14.97C205.721 14.97 204.655 13.9868 204.655 12.3778ZM204.922 33.1154V20.1246C204.922 18.3071 205.898 17.6814 207.171 17.6814H207.703C209.064 17.6814 209.952 18.2475 209.952 20.1246V33.1154C209.952 34.933 209.035 35.5289 207.733 35.5289H207.2C205.898 35.5289 204.922 34.9925 204.922 33.1154Z" fill="black"/>
<path d="M224.519 17.4778C229.077 17.4778 231 20.6957 231 24.7181V33.1204C231 34.9379 230.083 35.5338 228.781 35.5338H228.248C226.887 35.5338 225.969 34.9975 225.969 33.1204V25.4629C225.969 23.1389 224.786 21.7087 222.774 21.7087C220.998 21.7087 219.637 22.6324 218.927 24.003V33.1204C218.927 34.9379 218.009 35.5338 216.707 35.5338H216.175C214.813 35.5338 213.896 34.9975 213.896 33.1204V18.2525C213.896 18.1035 214.784 17.6864 215.79 17.6864C217.062 17.6864 218.512 18.2823 218.867 20.5467C220.051 18.759 221.827 17.4778 224.519 17.4778Z" fill="black"/>
<path d="M30.9766 0.136719H15.6185L0.585938 15.243V30.7068L15.5889 45.8131H30.947L45.9501 30.7068V15.243L30.9766 0.136719ZM30.2664 6.7513C25.946 6.7513 21.892 8.44964 18.844 11.5186L11.8604 18.5503C10.6767 19.7421 10.0257 21.3213 10.0257 23.0196C10.0257 24.7179 10.6767 26.2971 11.8604 27.4889C13.0441 28.6807 14.6124 29.3362 16.2991 29.3362C17.9859 29.3362 19.5542 28.6807 20.7379 27.4889L27.7216 20.4572C28.4022 19.7719 29.3195 19.3846 30.2664 19.3846C31.243 19.3846 32.1307 19.7719 32.8113 20.4572C33.4919 21.1425 33.8766 22.0661 33.8766 23.0196C33.8766 23.973 33.4919 24.8967 32.8113 25.582L25.8277 32.6137C23.2828 35.1761 19.9093 36.5765 16.2991 36.5765C12.9257 36.5765 9.75937 35.3847 7.33285 33.2692L7.1553 33.1202L3.5747 29.515V16.5242L16.8318 3.17585H29.7338L33.6991 7.16844C32.5746 6.87048 31.4501 6.7513 30.2664 6.7513ZM16.2991 39.2283C20.6195 39.2283 24.6736 37.53 27.7216 34.461L34.7052 27.4293C35.8889 26.2375 36.5399 24.6583 36.5399 22.96C36.5399 21.2617 35.8889 19.6825 34.7052 18.4907C33.5215 17.2989 31.9532 16.6434 30.2664 16.6434C28.5797 16.6434 27.0113 17.2989 25.8277 18.4907L18.844 25.5224C18.1634 26.2077 17.2461 26.595 16.2991 26.595C15.3226 26.595 14.4349 26.2077 13.7543 25.5224C13.0736 24.8371 12.689 23.9135 12.689 22.96C12.689 21.9768 13.0736 21.0829 13.7543 20.3976L20.7379 13.3659C23.2828 10.8035 26.6562 9.40309 30.2664 9.40309C33.4919 9.40309 36.4807 10.5055 38.9368 12.5912L39.0256 12.6806H39.0552C39.144 12.7402 39.2623 12.8296 39.3807 12.9487C39.6174 13.1275 39.7358 13.2467 39.8542 13.3063L42.9909 16.4646V29.4554L29.7338 42.8037H16.8318L12.8665 38.8112C13.991 39.1091 15.1451 39.2283 16.2991 39.2283Z" fill="black"/>
</svg>
