<svg width="266" height="65" viewBox="0 0 266 65" fill="none" xmlns="http://www.w3.org/2000/svg">
<path fill-rule="evenodd" clip-rule="evenodd" d="M198.849 28.7647L209.252 17.5908H216.011L202.375 31.5478L217.598 47.0001H210.486L198.672 34.497L187.035 47.0001H180.041L195.146 31.5062L181.334 17.5908H188.387L198.849 28.7647Z" fill="#4A4A48"/>
<path fill-rule="evenodd" clip-rule="evenodd" d="M198.672 34.497L187.035 47.0001H180.041L195.146 31.5062L181.334 17.5908H188.387L198.849 28.7647" fill="#058C6C"/>
<path d="M174.438 17H146.683V21.6154H174.438V17Z" fill="#4A4A48"/>
<path d="M174.438 29.6923H146.683V34.3077H174.438V29.6923Z" fill="#4A4A48"/>
<path d="M174.438 42.3845H146.683V46.9999H174.438V42.3845Z" fill="#4A4A48"/>
<path fill-rule="evenodd" clip-rule="evenodd" d="M202.279 31.5157L198.584 34.5688L198.688 28.6119L202.279 31.5157Z" fill="#058C6C"/>
<path fill-rule="evenodd" clip-rule="evenodd" d="M92.4764 46.9999H86.6086V17.2639H92.4764V46.9999ZM102.671 17.2639H117.073C119.76 17.2639 122.447 17.5439 125.134 18.1039C127.821 18.6639 130.251 19.5459 132.424 20.7499C134.598 21.9539 136.356 23.4939 137.699 25.3699C139.043 27.2459 139.715 29.4999 139.715 32.1319C139.715 34.6799 139.043 36.8849 137.699 38.7469C136.356 40.6089 134.598 42.1489 132.424 43.3669C130.251 44.5849 127.821 45.4949 125.134 46.0969C122.447 46.6989 119.76 46.9999 117.073 46.9999H102.671V17.2639ZM108.539 43.3459H115.888C118.417 43.3459 120.758 43.0939 122.912 42.5899C125.065 42.0859 126.922 41.3579 128.483 40.4059C130.044 39.4539 131.259 38.2779 132.128 36.8779C132.997 35.4779 133.432 33.8959 133.432 32.1319C133.432 30.2839 132.997 28.6599 132.128 27.2599C131.259 25.8599 130.044 24.6909 128.483 23.7529C126.922 22.8149 125.065 22.1009 122.912 21.6109C120.758 21.1209 118.417 20.8759 115.888 20.8759H108.539V43.3459Z" fill="#4A4A48"/>
<path fill-rule="evenodd" clip-rule="evenodd" d="M69.8019 17.2639H81.0378V20.9179H69.8019V17.2639Z" fill="#4A4A48"/>
<path fill-rule="evenodd" clip-rule="evenodd" d="M67.5831 46.9999H61.7153V20.9179H48.261V17.2639H67.5831V20.9179V46.9999Z" fill="#058C6C"/>
</svg>
