<svg xmlns="http://www.w3.org/2000/svg" viewBox="0 0 416.86 65.13"><defs><style>.cls-1{fill:#9c7c4d;}.cls-2{fill:#b39262;}.cls-3{fill:#ffdfae;}.cls-4{fill:#323234;}</style></defs><title>Соinsbit</title><g id="Слой_2" data-name="Слой 2"><g id="Слой_2-2" data-name="Слой 2"><circle class="cls-1" cx="100.14" cy="32.27" r="32.2"/><path class="cls-2" d="M84.05,60.16A32.2,32.2,0,0,1,115.6,4c.34.19.68.38,1,.58"/><path class="cls-3" d="M100.14,57.32a25.05,25.05,0,1,1,25-25A25.08,25.08,0,0,1,100.14,57.32Zm0-45.6a20.55,20.55,0,1,0,20.55,20.55A20.57,20.57,0,0,0,100.14,11.72Z"/><rect class="cls-3" x="98.07" y="20.7" width="4.5" height="22.56"/><path class="cls-4" d="M16.23,60.93A31.06,31.06,0,0,1,4.34,49.32,32.32,32.32,0,0,1,0,32.68,32.29,32.29,0,0,1,4.34,16.05,31.06,31.06,0,0,1,16.23,4.44a34.12,34.12,0,0,1,17-4.21A35.6,35.6,0,0,1,46,2.47,26.49,26.49,0,0,1,56,9.1l-2.93,3Q45.34,4.54,33.37,4.53A29.68,29.68,0,0,0,18.74,8.18,26.76,26.76,0,0,0,8.41,18.29,28.06,28.06,0,0,0,4.66,32.68a28.1,28.1,0,0,0,3.75,14.4,26.67,26.67,0,0,0,10.33,10.1,29.58,29.58,0,0,0,14.63,3.66q11.88,0,19.65-7.68l2.93,3a26.85,26.85,0,0,1-10,6.67,35.14,35.14,0,0,1-12.76,2.28A34.22,34.22,0,0,1,16.23,60.93Z"/><path class="cls-4" d="M203.23.69v64h-3.84L155.79,9.1V64.68h-4.66V.69h3.93l43.51,55.58V.69Z"/><path class="cls-4" d="M229,62.71A25.83,25.83,0,0,1,219,56.45L221.15,53a24.73,24.73,0,0,0,9.09,5.8,32.52,32.52,0,0,0,12,2.24q9.15,0,13.81-3.47a10.78,10.78,0,0,0,4.66-9,9.45,9.45,0,0,0-2.47-6.86,16.47,16.47,0,0,0-6.12-3.93,84,84,0,0,0-9.88-2.83A96.43,96.43,0,0,1,231,31.49a17.92,17.92,0,0,1-7.22-5.07q-3-3.42-3-9.19a15.58,15.58,0,0,1,2.47-8.54,16.77,16.77,0,0,1,7.54-6.17A30.72,30.72,0,0,1,243.45.23a35.51,35.51,0,0,1,10.42,1.56A30.37,30.37,0,0,1,262.74,6L261,9.74a29.37,29.37,0,0,0-8.45-4,31.67,31.67,0,0,0-9.1-1.38q-8.87,0-13.44,3.57a11.2,11.2,0,0,0-4.57,9.23A9.49,9.49,0,0,0,227.91,24,16.27,16.27,0,0,0,234,27.93a92.41,92.41,0,0,0,10,2.92,93.71,93.71,0,0,1,11.25,3.39,18.46,18.46,0,0,1,7.17,5c2,2.22,3,5.23,3,9a15.2,15.2,0,0,1-2.51,8.5,17.09,17.09,0,0,1-7.73,6.13,31.88,31.88,0,0,1-12.79,2.28A37.19,37.19,0,0,1,229,62.71Z"/><path class="cls-4" d="M329.7,37.07q3.62,4.11,3.61,10.7,0,8.13-5.94,12.52t-17.64,4.39H281.21V.69H307.9q10.43,0,16.23,4.25t5.8,12.11a14.67,14.67,0,0,1-2.88,9.23,15.9,15.9,0,0,1-7.82,5.4Q326.09,33,329.7,37.07ZM285.87,4.71V30.22h21.85q8.4,0,12.93-3.25t4.53-9.55q0-6.23-4.53-9.46T307.72,4.71Zm38,52.7q4.8-3.24,4.8-10t-4.8-10q-4.8-3.21-14.12-3.2H285.87V60.66h23.86Q319,60.66,323.85,57.41Z"/><path class="cls-4" d="M350,.69h4.66v64H350Z"/><path class="cls-4" d="M389.17,4.89h-23V.69h50.73v4.2h-23V64.68h-4.66Z"/></g></g></svg>
