<svg width="260" height="120" viewBox="0 0 260 120" fill="none" xmlns="http://www.w3.org/2000/svg">
  <path fill-rule="evenodd" clip-rule="evenodd" d="M223.427 53.5293L238.171 31.1816H247.751L228.425 59.0954L250 90.0001H239.921L223.177 64.9939L206.684 90.0001H196.771L218.179 59.0124L198.603 31.1816H208.599L223.427 53.5293Z" fill="#4A4A48"/>
  <path fill-rule="evenodd" clip-rule="evenodd" d="M223.177 64.9939L206.684 90.0001H196.771L218.179 59.0124L198.603 31.1816H208.599L223.427 53.5293" fill="#058C6C"/>
  <path d="M188.83 30H149.493V39.2308H188.83V30Z" fill="#4A4A48"/>
  <path d="M188.83 55.3847H149.493V64.6155H188.83V55.3847Z" fill="#4A4A48"/>
  <path d="M188.83 80.7691H149.493V89.9999H188.83V80.7691Z" fill="#4A4A48"/>
  <path fill-rule="evenodd" clip-rule="evenodd" d="M228.289 59.0313L223.052 65.1375L223.199 53.2238L228.289 59.0313Z" fill="#058C6C"/>
  <path fill-rule="evenodd" clip-rule="evenodd" d="M72.6662 89.9999H64.3499V30.5279H72.6662V89.9999ZM87.1147 30.5279H107.527C111.336 30.5279 115.144 31.0879 118.952 32.2079C122.76 33.3279 126.204 35.0919 129.284 37.4999C132.364 39.9079 134.856 42.9879 136.761 46.7399C138.665 50.4919 139.617 54.9999 139.617 60.2639C139.617 65.3599 138.665 69.7699 136.761 73.4939C134.856 77.2179 132.364 80.2979 129.284 82.7339C126.204 85.1699 122.76 86.9899 118.952 88.1939C115.144 89.3979 111.336 89.9999 107.527 89.9999H87.1147V30.5279ZM95.431 82.6919H105.847C109.432 82.6919 112.75 82.1879 115.802 81.1799C118.854 80.1719 121.486 78.7159 123.698 76.8119C125.91 74.9079 127.632 72.5559 128.864 69.7559C130.096 66.9559 130.712 63.7919 130.712 60.2639C130.712 56.5679 130.096 53.3199 128.864 50.5199C127.632 47.7199 125.91 45.3819 123.698 43.5059C121.486 41.6299 118.854 40.2019 115.802 39.2219C112.75 38.2419 109.432 37.7519 105.847 37.7519H95.431V82.6919Z" fill="#4A4A48"/>
  <path fill-rule="evenodd" clip-rule="evenodd" d="M40.5294 30.5279H56.454V37.8359H40.5294V30.5279Z" fill="#4A4A48"/>
  <path fill-rule="evenodd" clip-rule="evenodd" d="M37.385 89.9999H29.0687V37.8359H10V30.5279H37.385V37.8359V89.9999Z" fill="#058C6C"/>
</svg>
