<svg width="260" height="60" viewBox="0 0 260 60" fill="none" xmlns="http://www.w3.org/2000/svg">
  <path fill-rule="evenodd" clip-rule="evenodd" d="M231.213 23.5292L247.186 1.18152H257.564L236.627 29.0954L260 60H249.081L230.942 34.9938L213.074 60H202.335L225.527 29.0123L204.32 1.18152H215.15L231.213 23.5292Z" fill="#4A4A48"/>
  <path fill-rule="evenodd" clip-rule="evenodd" d="M230.942 34.9938L213.074 60H202.335L225.527 29.0123L204.32 1.18152H215.15L231.213 23.5292" fill="#058C6C"/>
  <path d="M193.732 0H151.117V9.23077H193.732V0Z" fill="#4A4A48"/>
  <path d="M193.732 25.3846H151.117V34.6154H193.732V25.3846Z" fill="#4A4A48"/>
  <path d="M193.732 50.7692H151.117V59.9999H193.732V50.7692Z" fill="#4A4A48"/>
  <path fill-rule="evenodd" clip-rule="evenodd" d="M236.48 29.0314L230.807 35.1375L230.966 23.2239L236.48 29.0314Z" fill="#058C6C"/>
  <path fill-rule="evenodd" clip-rule="evenodd" d="M67.8884 59.9999H58.879V0.527832H67.8884V59.9999ZM83.5409 0.527832H105.655C109.78 0.527832 113.906 1.08783 118.031 2.20783C122.157 3.32784 125.888 5.09182 129.225 7.49984C132.561 9.90785 135.261 12.9878 137.324 16.7398C139.387 20.4919 140.418 24.9998 140.418 30.2639C140.418 35.3599 139.387 39.7698 137.324 43.4939C135.261 47.2179 132.561 50.2979 129.225 52.7339C125.888 55.1699 122.157 56.9899 118.031 58.1939C113.906 59.3979 109.78 59.9999 105.655 59.9999H83.5409V0.527832ZM92.5503 52.6919H103.835C107.718 52.6919 111.312 52.1879 114.619 51.1799C117.925 50.1719 120.776 48.7159 123.173 46.8119C125.569 44.9079 127.435 42.5559 128.77 39.7559C130.104 36.9558 130.772 33.7919 130.772 30.2639C130.772 26.5678 130.104 23.3199 128.77 20.5198C127.435 17.7198 125.569 15.3819 123.173 13.5058C120.776 11.6298 117.925 10.2018 114.619 9.22184C111.312 8.24183 107.718 7.75184 103.835 7.75184H92.5503V52.6919Z" fill="#4A4A48"/>
  <path fill-rule="evenodd" clip-rule="evenodd" d="M33.0736 0.527832H50.3252V7.83583H33.0736V0.527832Z" fill="#4A4A48"/>
  <path fill-rule="evenodd" clip-rule="evenodd" d="M29.6671 60H20.6578V7.83596H0V0.527954H29.6671V7.83596V60Z" fill="#058C6C"/>
</svg>
