<?xml version="1.0" encoding="UTF-8"?>
<!DOCTYPE svg PUBLIC "-//W3C//DTD SVG 1.1//EN" "http://www.w3.org/Graphics/SVG/1.1/DTD/svg11.dtd">
<!-- Creator: CorelDRAW 2019 (64-Bit) -->
<svg xmlns="http://www.w3.org/2000/svg" xml:space="preserve" width="5.4188mm" height="5.4185mm" version="1.1" style="shape-rendering:geometricPrecision; text-rendering:geometricPrecision; image-rendering:optimizeQuality; fill-rule:evenodd; clip-rule:evenodd"
viewBox="0 0 541.88 541.85"
 xmlns:xlink="http://www.w3.org/1999/xlink">
 <defs>
  <style type="text/css">
   <![CDATA[
    .fil1 {fill:black}
    .fil0 {fill:black;fill-rule:nonzero}
   ]]>
  </style>
 </defs>
 <g id="Layer_x0020_1">
  <metadata id="CorelCorpID_0Corel-Layer"/>
  <g id="_2479702638112">
   <path class="fil0" d="M273.7 541.85c-1.06,0 -2.14,-0.11 -3.21,-0.32 -1.05,-0.2 -2.09,-0.51 -3.1,-0.91l-180.4 -72.42c-2.09,-0.84 -3.97,-2.08 -5.55,-3.62 -1.56,-1.53 -2.83,-3.38 -3.7,-5.46l-76.37 -178.77c-0.44,-1.03 -0.77,-2.1 -1,-3.18 -0.22,-1.07 -0.34,-2.18 -0.36,-3.3l0 -0.2c0.01,-1.09 0.11,-2.17 0.31,-3.21 0.21,-1.05 0.52,-2.09 0.93,-3.1l72.42 -180.39c0.83,-2.09 2.07,-3.97 3.61,-5.54 1.54,-1.57 3.39,-2.84 5.46,-3.71l178.78 -76.36c1.02,-0.44 2.09,-0.77 3.17,-1 1.08,-0.23 2.19,-0.34 3.31,-0.35 0.03,-0.02 0.28,-0.02 0.31,0 1.07,0.01 2.12,0.11 3.14,0.31 1.03,0.21 2.05,0.51 3.04,0.91l180.41 72.42c2.09,0.83 3.97,2.07 5.54,3.61 1.57,1.54 2.84,3.39 3.71,5.46l76.37 178.76c0.88,2.06 1.33,4.27 1.35,6.48 0.03,2.2 -0.38,4.41 -1.23,6.5l-72.42 180.39c-0.83,2.09 -2.07,3.97 -3.62,5.55 -1.53,1.57 -3.38,2.83 -5.45,3.71l-178.76 76.35c-1.07,0.46 -2.16,0.81 -3.26,1.03 -1.16,0.24 -2.31,0.36 -3.43,0.36zm-157.46 -112.77l157.12 63.06 155.7 -66.49 63.08 -157.12 -66.49 -155.69 -157.12 -63.09 -155.74 66.52 -63.07 157.11 66.52 155.7z"/>
   <polygon class="fil1" points="253.74,340.42 358.61,340.42 358.61,389.15 183.28,389.15 183.28,344.86 252.27,268.49 183.61,196.94 183.61,152.52 358.61,152.52 358.61,201.25 255.98,201.25 319.61,267.89 "/>
  </g>
 </g>
</svg>
