<?xml version="1.0" encoding="UTF-8"?>
<svg width="25px" height="25px" viewBox="0 0 25 25" version="1.1" xmlns="http://www.w3.org/2000/svg" xmlns:xlink="http://www.w3.org/1999/xlink">
    <!-- Generator: Sketch 52.6 (67491) - http://www.bohemiancoding.com/sketch -->
    <title>Group 3</title>
    <desc>Created with Sketch.</desc>
    <g id="main" stroke="none" stroke-width="1" fill="none" fill-rule="evenodd">
        <g transform="translate(-70.000000, -395.000000)" fill="#FFFFFF" id="Group-3">
            <g transform="translate(70.000000, 395.000000)">
                <path d="M12.3398485,-0.000378787879 C5.52545455,-0.000378787879 -0.000303030303,5.52537879 -0.000303030303,12.3412879 C-0.000303030303,17.792803 3.53530303,22.4185606 8.43984848,24.0503788 C9.05727273,24.1632576 9.28227273,23.7829545 9.28227273,23.4556818 C9.28227273,23.1625 9.27166667,22.3867424 9.26560606,21.3564394 C5.8330303,22.1026515 5.10878788,19.7026515 5.10878788,19.7026515 C4.54742424,18.2768939 3.73833333,17.8973485 3.73833333,17.8973485 C2.61787879,17.1314394 3.82318182,17.1473485 3.82318182,17.1473485 C5.06181818,17.2344697 5.71333333,18.4185606 5.71333333,18.4185606 C6.81409091,20.3049242 8.60121212,19.7602273 9.305,19.4443182 C9.41712121,18.6465909 9.73530303,18.1026515 10.0883333,17.7943182 C7.34818182,17.4829545 4.46712121,16.4246212 4.46712121,11.6950758 C4.46712121,10.3481061 4.94818182,9.24659091 5.73757576,8.38371212 C5.61030303,8.07159091 5.18681818,6.81704545 5.8580303,5.11856061 C5.8580303,5.11856061 6.89439394,4.78598485 9.2519697,6.38295455 C10.2360606,6.1094697 11.2921212,5.97234848 12.3413636,5.96780303 C13.3890909,5.97234848 14.4451515,6.1094697 15.4307576,6.38295455 C17.7868182,4.78598485 18.8209091,5.11856061 18.8209091,5.11856061 C19.4943939,6.81704545 19.0709091,8.07159091 18.9436364,8.38371212 C19.7345455,9.24659091 20.2125758,10.3481061 20.2125758,11.6950758 C20.2125758,16.4359848 17.3269697,17.4791667 14.5777273,17.7852273 C15.0209091,18.1655303 15.4156061,18.9193182 15.4156061,20.0700758 C15.4156061,21.7200758 15.4004545,23.0511364 15.4004545,23.4556818 C15.4004545,23.7852273 15.6224242,24.1693182 16.2489394,24.0488636 C21.1481818,22.4140152 24.6815152,17.7912879 24.6815152,12.3412879 C24.6815152,5.52537879 19.1557576,-0.000378787879 12.3398485,-0.000378787879" id="Fill-1"></path>
            </g>
        </g>
    </g>
</svg>