<svg width="25" height="25" viewBox="0 0 25 25" fill="none" xmlns="http://www.w3.org/2000/svg">
<path d="M12.5 25C19.4036 25 25 19.4036 25 12.5C25 5.59644 19.4036 0 12.5 0C5.59644 0 0 5.59644 0 12.5C0 19.4036 5.59644 25 12.5 25Z" fill="black"/>
<path d="M20.8332 12.4999C20.8332 11.4911 20.0145 10.6724 19.0057 10.6724C18.5087 10.6724 18.0701 10.8625 17.7484 11.1841C16.5057 10.2923 14.7806 9.70749 12.88 9.63439L13.7133 5.73088L16.418 6.30106C16.4473 6.98819 17.0174 7.54375 17.7192 7.54375C18.4356 7.54375 19.0204 6.95895 19.0204 6.24258C19.0204 5.5262 18.4356 4.94141 17.7192 4.94141C17.2075 4.94141 16.7689 5.2338 16.5642 5.6724L13.5379 5.02913C13.4502 5.01451 13.3625 5.02913 13.2894 5.07299C13.2163 5.11685 13.1724 5.18994 13.1432 5.27766L12.2221 9.63439C10.2777 9.69287 8.53791 10.263 7.2806 11.1841C6.95896 10.8771 6.50574 10.6724 6.02329 10.6724C5.01451 10.6724 4.1958 11.4911 4.1958 12.4999C4.1958 13.2455 4.6344 13.8742 5.27767 14.1666C5.24843 14.342 5.23381 14.5321 5.23381 14.7221C5.23381 17.5291 8.49405 19.7952 12.5291 19.7952C16.5642 19.7952 19.8245 17.5291 19.8245 14.7221C19.8245 14.5321 19.8098 14.3566 19.7806 14.1812C20.38 13.8888 20.8332 13.2455 20.8332 12.4999ZM8.33323 13.8011C8.33323 13.0847 8.91802 12.4999 9.6344 12.4999C10.3508 12.4999 10.9356 13.0847 10.9356 13.8011C10.9356 14.5174 10.3508 15.1022 9.6344 15.1022C8.91802 15.1022 8.33323 14.5174 8.33323 13.8011ZM15.5993 17.2367C14.7075 18.1285 13.0116 18.187 12.5145 18.187C12.0174 18.187 10.3069 18.1139 9.42972 17.2367C9.29814 17.1051 9.29814 16.8859 9.42972 16.7543C9.5613 16.6227 9.7806 16.6227 9.91218 16.7543C10.4677 17.3098 11.6666 17.5145 12.5291 17.5145C13.3917 17.5145 14.5759 17.3098 15.1461 16.7543C15.2777 16.6227 15.497 16.6227 15.6286 16.7543C15.7309 16.9005 15.7309 17.1051 15.5993 17.2367ZM15.3654 15.1022C14.649 15.1022 14.0642 14.5174 14.0642 13.8011C14.0642 13.0847 14.649 12.4999 15.3654 12.4999C16.0818 12.4999 16.6666 13.0847 16.6666 13.8011C16.6666 14.5174 16.0818 15.1022 15.3654 15.1022Z" fill="white"/>
</svg>
