<?xml version="1.0" encoding="UTF-8"?>
<svg width="27px" height="23px" viewBox="0 0 27 23" version="1.1" xmlns="http://www.w3.org/2000/svg" xmlns:xlink="http://www.w3.org/1999/xlink">
    <!-- Generator: Sketch 52.6 (67491) - http://www.bohemiancoding.com/sketch -->
    <title>Group 3</title>
    <desc>Created with Sketch.</desc>
    <g id="main" stroke="none" stroke-width="1" fill="none" fill-rule="evenodd">
        <g transform="translate(-123.000000, -396.000000)" fill="#FFFFFF" id="Group-3">
            <g transform="translate(123.000000, 396.000000)">
                <path d="M8.4780108,22.2552162 C18.6624108,22.2552162 24.2352108,13.6904543 24.2352108,6.27569238 C24.2352108,6.03474 24.2352108,5.79378762 24.2244108,5.55283524 C25.3044108,4.76426381 26.2440108,3.76759714 26.9892108,2.6395019 C25.9956108,3.08854952 24.9264108,3.38426381 23.8032108,3.52664476 C24.9480108,2.83664476 25.8228108,1.73045429 26.2440108,0.416168571 C25.1748108,1.06235905 23.9868108,1.52235905 22.7232108,1.77426381 C21.7080108,0.679025714 20.2716108,-2.19047619e-05 18.6840108,-2.19047619e-05 C15.6276108,-2.19047619e-05 13.1436108,2.51902571 13.1436108,5.61854952 C13.1436108,6.05664476 13.1976108,6.48378762 13.2840108,6.8999781 C8.6832108,6.6699781 4.6008108,4.42474 1.8684108,1.0295019 C1.3932108,1.86188286 1.1232108,2.82569238 1.1232108,3.85521619 C1.1232108,5.80474 2.1060108,7.52426381 3.5856108,8.53188286 C2.6784108,8.49902571 1.8252108,8.24712095 1.0800108,7.83093048 L1.0800108,7.90759714 C1.0800108,10.6237876 2.9916108,12.9019924 5.5188108,13.4166448 C5.0544108,13.5480733 4.5684108,13.6138971 4.0608108,13.6138971 C3.7044108,13.6138971 3.3588108,13.5809305 3.0240108,13.5152162 C3.7260108,15.7496114 5.7780108,17.3704543 8.1972108,17.4142638 C6.2964108,18.9258019 3.9096108,19.8237876 1.3176108,19.8237876 C0.8748108,19.8237876 0.4320108,19.8019924 1.08e-05,19.7472305 C2.4408108,21.3242638 5.3568108,22.2552162 8.4780108,22.2552162" id="Fill-1"></path>
            </g>
        </g>
    </g>
</svg>