<?xml version="1.0" encoding="UTF-8"?>
<svg width="25px" height="20px" viewBox="0 0 25 20" version="1.1" xmlns="http://www.w3.org/2000/svg" xmlns:xlink="http://www.w3.org/1999/xlink">
    <!-- Generator: Sketch 52.6 (67491) - http://www.bohemiancoding.com/sketch -->
    <title>Group 3</title>
    <desc>Created with Sketch.</desc>
    <defs>
        <polygon id="path-1" points="0.000532202112 0 24.4374877 0 24.4374877 19.9028911 0.000532202112 19.9028911"></polygon>
    </defs>
    <g id="main" stroke="none" stroke-width="1" fill="none" fill-rule="evenodd">
        <g transform="translate(-232.000000, -398.000000)" id="Group-3">
            <g transform="translate(232.000000, 398.000000)">
                <mask id="mask-2" fill="white">
                    <use xlink:href="#path-1"></use>
                </mask>
                <g id="Clip-2"></g>
                <path d="M24.0731667,0.273166667 C23.7081667,-0.0335 23.2781667,-0.0818333333 22.7848333,0.1265 L1.14316667,8.2315 C0.4015,8.51816667 0.0198333333,8.83483333 0.0015,9.17983333 C-0.0185,9.52483333 0.2715,9.78816667 0.869833333,9.96983333 L6.4365,11.6498333 L19.2881667,3.77983333 C19.5881667,3.5965 19.8348333,3.53816667 20.0298333,3.60316667 C20.2248333,3.66816667 20.2131667,3.80483333 19.9915,4.01316667 L9.5815,13.1348333 L9.18983333,18.7015 C9.4765,18.7015 9.69816667,18.6448333 9.85483333,18.5348333 C10.0098333,18.4248333 10.1665,18.2965 10.3231667,18.1548333 L13.0148333,15.6031667 L18.6231667,19.6381667 C19.1448333,19.9115 19.5815,19.9731667 19.9331667,19.8231667 C20.2848333,19.6748333 20.5248333,19.2998333 20.6548333,18.7015 L24.3465,1.8265 C24.5281667,1.0965 24.4381667,0.579833333 24.0731667,0.273166667" id="Fill-1" fill="#FFFFFF" mask="url(#mask-2)"></path>
            </g>
        </g>
    </g>
</svg>