<?xml version="1.0" encoding="UTF-8"?>
<svg width="31px" height="22px" viewBox="0 0 31 22" version="1.1" xmlns="http://www.w3.org/2000/svg" xmlns:xlink="http://www.w3.org/1999/xlink">
    <!-- Generator: Sketch 52.6 (67491) - http://www.bohemiancoding.com/sketch -->
    <title>Group 3</title>
    <desc>Created with Sketch.</desc>
    <defs>
        <polygon id="path-1" points="0 0 31 0 31 21.9999823 0 21.9999823"></polygon>
    </defs>
    <g id="main" stroke="none" stroke-width="1" fill="none" fill-rule="evenodd">
        <g transform="translate(-176.000000, -397.000000)" id="Group-3">
            <g transform="translate(176.000000, 397.000000)">
                <mask id="mask-2" fill="white">
                    <use xlink:href="#path-1"></use>
                </mask>
                <g id="Clip-2"></g>
                <path d="M12.3295455,15.6428694 L12.3295455,6.35709516 L20.4318182,11.0001597 L12.3295455,15.6428694 Z M30.3521705,3.43535323 C29.9956705,2.0830629 28.9451932,1.01819194 27.6114886,0.65678871 C25.194017,-1.77419355e-05 15.5,-1.77419355e-05 15.5,-1.77419355e-05 C15.5,-1.77419355e-05 5.80598295,-1.77419355e-05 3.38851136,0.65678871 C2.05480682,1.01819194 1.00432955,2.0830629 0.647829545,3.43535323 C0,5.88622419 0,10.9999823 0,10.9999823 C0,10.9999823 0,16.1135629 0.647829545,18.5646113 C1.00432955,19.9169016 2.05480682,20.9817726 3.38851136,21.3433532 C5.80598295,21.9999823 15.5,21.9999823 15.5,21.9999823 C15.5,21.9999823 25.194017,21.9999823 27.6114886,21.3433532 C28.9451932,20.9817726 29.9956705,19.9169016 30.3521705,18.5646113 C31,16.1135629 31,10.9999823 31,10.9999823 C31,10.9999823 31,5.88622419 30.3521705,3.43535323 Z" id="Fill-1" fill="#FEFEFE" mask="url(#mask-2)"></path>
            </g>
        </g>
    </g>
</svg>