<?xml version="1.0" encoding="UTF-8"?>
<svg width="1280px" height="575px" viewBox="0 0 1280 575" version="1.1" xmlns="http://www.w3.org/2000/svg" xmlns:xlink="http://www.w3.org/1999/xlink">
    <!-- Generator: Sketch 52.6 (67491) - http://www.bohemiancoding.com/sketch -->
    <title>Group 114</title>
    <desc>Created with Sketch.</desc>
    <defs>
        <polygon id="path-1" points="0 0.798620193 1815.39081 0.798620193 1815.39081 1817.1503 0 1817.1503"></polygon>
    </defs>
    <g id="main" stroke="none" stroke-width="1" fill="none" fill-rule="evenodd" opacity="0.2">
        <g transform="translate(0.000000, -1362.000000)" id="Group-40">
            <g transform="translate(0.000000, 1362.000000)">
                <g id="Group-114" transform="translate(-268.000000, -622.000000)">
                    <path d="M1140.9835,912.766458 L1077.74023,1070.31563 C1076.49117,1073.45019 1074.09329,1075.89461 1070.99763,1077.19778 L914.884485,1143.88331 C911.881345,1145.17491 908.315358,1145.24431 905.219696,1143.99897 L747.676305,1080.74874 C744.542091,1079.49954 742.097944,1077.10525 740.791058,1074.00539 L674.112879,917.8712 C672.790572,914.775197 672.752021,911.347617 674.016501,908.220769 L737.259767,750.667738 C738.516537,747.540891 740.910567,745.096474 744.002374,743.789444 L900.130935,677.103921 C901.71539,676.429201 903.380803,676.089913 905.061636,676.089913 C906.653801,676.089913 908.253676,676.394501 909.784159,677.011388 L1067.33141,740.257764 C1070.45791,741.510817 1072.90206,743.905111 1074.20894,747.001114 L1140.89098,903.116026 C1142.20943,906.215885 1142.24798,909.63961 1140.9835,912.766458 Z M1075.21127,746.577004 C1073.79259,743.207257 1071.14027,740.604763 1067.73619,739.2399 L910.192802,675.993524 C906.777165,674.632516 903.053117,674.671072 899.703017,676.101479 L743.578311,742.783147 C740.21279,744.201988 737.606728,746.858459 736.24587,750.262906 L672.998749,907.815937 C671.630181,911.208817 671.668732,914.933274 673.110547,918.303022 L739.788727,1074.43336 C741.207411,1077.79925 743.86359,1080.40174 747.267662,1081.7666 L904.811053,1145.01298 C906.418638,1145.65686 908.180429,1146 909.907523,1146 C911.792678,1146 913.612295,1145.62601 915.316259,1144.88575 L1071.42169,1078.20408 C1074.78721,1076.78524 1077.39327,1074.12877 1078.75413,1070.72432 L1142.00125,913.17129 C1143.36982,909.782265 1143.33127,906.057808 1141.88945,902.68806 L1075.21127,746.577004 Z" id="Fill-1" fill="#FF4221"></path>
                    <path d="M1157.90957,912.942936 L1090.08894,1081.89571 C1088.76344,1085.21177 1086.12404,1087.90945 1082.83928,1089.29307 L915.432471,1160.80089 C912.194085,1162.19997 908.37217,1162.26567 905.033309,1160.92457 L736.096185,1093.09997 C732.772781,1091.77432 730.079278,1089.13075 728.695815,1085.84947 L657.192393,918.415592 C655.766421,915.084074 655.727776,911.400853 657.088053,908.038417 L724.90868,739.089507 C726.238042,735.769584 728.877443,733.07577 732.158338,731.692147 L899.584472,660.180464 C901.284818,659.453869 903.081775,659.090571 904.882596,659.090571 C906.5984,659.090571 908.318068,659.419085 909.964313,660.079978 L1078.9053,727.900709 C1082.27121,729.249549 1084.89516,731.823552 1086.30567,735.151205 L1157.81296,902.561897 C1159.23507,905.901144 1159.26985,909.584365 1157.90957,912.942936 Z M1087.31042,734.726069 C1085.79557,731.124011 1082.95522,728.33744 1079.31107,726.880384 L910.370077,659.063517 C906.725926,657.610326 902.74557,657.64511 899.155521,659.175598 L731.733251,730.683416 C728.185711,732.17912 725.329902,735.093232 723.888472,738.679831 L656.07171,907.632606 C654.603229,911.257853 654.645738,915.246399 656.187643,918.844592 L727.6872,1086.27847 C729.182732,1089.82642 732.096507,1092.68256 735.686556,1094.12029 L904.627544,1161.94489 C906.351077,1162.63284 908.236916,1163 910.080245,1163 C912.09361,1163 914.041279,1162.59805 915.865287,1161.80576 L1083.26823,1090.3018 C1086.81964,1088.80223 1089.67545,1085.88812 1091.10915,1082.30152 L1158.92978,913.348748 C1160.39439,909.7235 1160.35575,905.73882 1158.81384,902.132896 L1087.31042,734.726069 Z" id="Fill-3" fill="#FF4221"></path>
                    <path d="M1173.84916,913.116033 L1101.72356,1092.79396 C1100.30373,1096.33234 1097.49109,1099.20703 1093.99168,1100.68103 L915.950173,1176.73112 C912.508639,1178.22827 908.434357,1178.29773 904.865502,1176.86617 L725.195824,1104.73261 C721.657834,1103.31649 718.787317,1100.50353 717.309618,1096.99988 L641.260206,918.938732 C639.743925,915.388776 639.705343,911.456814 641.156034,907.872131 L713.281635,728.194208 C714.689886,724.655828 717.510246,721.781136 721.009653,720.303274 L899.066594,644.25319 C900.879958,643.48146 902.793636,643.091737 904.715031,643.091737 C906.543828,643.091737 908.376484,643.442874 910.131974,644.149006 L1089.80551,716.274846 C1093.3435,717.69097 1096.21788,720.511641 1097.69557,724.007576 L1173.74113,902.049432 C1175.25355,905.599387 1175.29599,909.527491 1173.84916,913.116033 Z M1098.69871,723.583124 C1097.11298,719.817084 1094.02255,716.784187 1090.21062,715.260022 L910.540946,643.130323 C906.667291,641.586864 902.43868,641.621592 898.638331,643.249941 L720.585249,719.300026 C716.815766,720.88593 713.783204,723.980565 712.263064,727.78905 L640.137464,907.463114 C638.5826,911.317903 638.621183,915.546981 640.257069,919.367042 L716.302622,1097.42819 C717.888352,1101.19037 720.982646,1104.22327 724.786852,1105.75129 L904.460388,1177.88099 C906.289185,1178.61414 908.291603,1179 910.243863,1179 C912.37746,1179 914.449325,1178.57555 916.386152,1177.73436 L1094.41609,1101.68814 C1098.18171,1100.10223 1101.21427,1097.0076 1102.73827,1093.20297 L1174.86773,913.521191 C1176.41873,909.662543 1176.37629,905.437324 1174.74041,901.621122 L1098.69871,723.583124 Z" id="Fill-5" fill="#FF4221"></path>
                    <path d="M1188.78771,913.282103 L1112.48797,1103.69233 C1110.98805,1107.44913 1107.99975,1110.50081 1104.29226,1112.06904 L915.956248,1192.66115 C912.306445,1194.24479 907.968217,1194.32185 904.203035,1192.79986 L714.140194,1116.36143 C710.332706,1114.83944 707.35979,1111.92262 705.775259,1108.1504 L625.329592,919.454821 C623.721986,915.682604 623.675835,911.513515 625.214213,907.702768 L701.51395,717.296394 C703.010024,713.539591 706.00217,710.48791 709.713509,708.919685 L898.06875,628.327575 C899.987878,627.506858 902.018537,627.094573 904.056889,627.094573 C905.9914,627.094573 907.937449,627.464474 909.798888,628.215834 L1099.86558,704.650415 C1103.61537,706.149283 1106.66136,709.14702 1108.22666,712.857586 L1188.67233,901.53005 C1190.27994,905.302267 1190.32224,909.475209 1188.78771,913.282103 Z M1109.22661,712.433742 C1107.55362,708.453456 1104.28841,705.24765 1100.2694,703.633188 L910.202712,627.198608 C906.106779,625.561026 901.645481,625.599558 897.64185,627.325761 L709.286609,707.914018 C705.3099,709.593983 702.110072,712.861439 700.498621,716.887962 L624.198883,907.294336 C622.556664,911.374803 622.602815,915.844436 624.329646,919.882518 L704.771467,1108.5781 C706.471376,1112.61618 709.65582,1115.74107 713.732523,1117.37865 L903.795365,1193.81709 C905.722184,1194.59157 907.837455,1195 909.902728,1195 C912.164145,1195 914.348643,1194.54918 916.386994,1193.66296 L1104.71916,1113.07471 C1108.69202,1111.39474 1111.89185,1108.12343 1113.5033,1104.09691 L1189.80304,913.686682 C1191.44141,909.613921 1191.39911,905.144288 1189.66843,901.102353 L1109.22661,712.433742 Z" id="Fill-7" fill="#FF4221"></path>
                    <path d="M1206.70975,913.461121 L1125.7022,1115.26956 C1124.08074,1119.31592 1120.98452,1122.47424 1116.98491,1124.16152 L917.019861,1209.57527 C913.124489,1211.2664 908.51876,1211.33976 904.519151,1209.72585 L702.720306,1128.71367 C698.670508,1127.09204 695.516375,1123.99935 693.82156,1119.99546 L608.412904,920.00171 C606.702646,916.00168 606.656319,911.573076 608.289364,907.522853 L689.300765,705.718278 C690.899065,701.72597 694.076361,698.482703 698.018062,696.822459 L898.002412,611.408703 C900.044684,610.536109 902.206635,610.099813 904.372447,610.099813 C906.437882,610.099813 908.503318,610.493638 910.48382,611.28515 L1112.2788,692.297329 C1116.27069,693.895797 1119.51362,697.073426 1121.17755,701.019401 L1206.59007,900.986126 C1208.30032,904.990016 1208.34279,909.41862 1206.70975,913.461121 Z M1122.18131,700.590827 C1120.40928,696.378441 1116.95016,692.984593 1112.68803,691.278017 L910.889185,610.269698 C906.553701,608.532233 901.828293,608.578566 897.573882,610.404834 L697.593393,695.81473 C693.381448,697.590805 689.987957,701.05029 688.28156,705.312869 L607.270158,907.113584 C605.529015,911.434079 605.579204,916.163844 607.413002,920.434145 L692.817797,1120.42404 C694.62071,1124.69434 697.991037,1127.99938 702.31494,1129.73298 L904.109924,1210.74516 C906.152196,1211.56756 908.39136,1212 910.584196,1212 C912.977785,1212 915.2903,1211.52123 917.452252,1210.57914 L1117.40958,1125.16924 C1121.68329,1123.37 1124.98799,1119.99546 1126.71755,1115.67497 L1207.72895,913.866529 C1209.47009,909.557617 1209.41991,904.831714 1207.59383,900.55369 L1122.18131,700.590827 Z" id="Fill-9" fill="#FF4221"></path>
                    <path d="M1222.64575,913.631982 L1137.32908,1126.16693 C1135.65189,1130.37768 1132.29752,1133.79795 1128.12962,1135.55243 L917.536862,1225.50902 C913.446073,1227.28664 908.588019,1227.36762 904.346862,1225.66712 L691.818594,1140.34543 C687.608281,1138.66422 684.192221,1135.31336 682.437924,1131.14502 L592.482969,920.518796 C590.678549,916.292622 590.628426,911.619151 592.351879,907.354416 L677.668549,694.819472 C679.380435,690.547025 682.642271,687.215442 686.868006,685.433971 L897.487753,595.477374 C899.643032,594.55579 901.917835,594.096926 904.20806,594.096926 C906.382617,594.096926 908.56103,594.513374 910.650764,595.350126 L1123.17903,680.667956 C1127.45103,682.376164 1130.78227,685.642195 1132.56741,689.86837 L1222.51851,900.467602 C1224.32679,904.689921 1224.3692,909.367248 1222.64575,913.631982 Z M1133.56987,689.440354 C1131.67291,684.944259 1128.12962,681.470004 1123.58773,679.649973 L911.059458,594.332142 C906.502141,592.512111 901.536131,592.554527 897.059782,594.474814 L686.44389,684.431411 C681.952118,686.320851 678.474369,689.86837 676.654527,694.410736 L591.337856,906.949536 C589.506447,911.480335 589.55657,916.450718 591.480513,920.946812 L681.431613,1131.57304 C683.297722,1136.00358 686.937407,1139.57423 691.413756,1141.36342 L903.942024,1226.6851 C906.089592,1227.54499 908.445362,1228 910.743299,1228 C913.26486,1228 915.697742,1227.49872 917.972545,1226.51158 L1128.55759,1136.55884 C1132.98767,1134.68868 1136.55796,1131.05248 1138.34695,1126.57566 L1223.66363,914.036862 C1225.49118,909.502208 1225.44491,904.531825 1223.52097,900.039586 L1133.56987,689.440354 Z" id="Fill-11" fill="#FF4221"></path>
                    <path d="M1238.57934,913.303208 L1148.81974,1136.90367 C1147.04946,1141.3395 1143.51662,1144.94217 1139.12757,1146.78979 L917.572969,1241.43108 C913.234054,1243.30955 908.131491,1243.39441 903.673016,1241.59694 L680.08202,1151.83506 C675.646685,1150.06458 672.040565,1146.53135 670.193152,1142.14181 L575.558542,920.550966 C573.657133,916.099709 573.606994,911.170154 575.423553,906.676467 L665.179296,683.076001 C666.949573,678.64403 670.482413,675.037509 674.871466,673.186032 L896.453063,578.548598 C898.728582,577.576573 901.131377,577.090561 903.538028,577.090561 C905.828974,577.090561 908.123778,577.530286 910.326018,578.413595 L1133.91701,668.171618 C1138.35621,669.945949 1141.95461,673.479183 1143.80588,677.864867 L1238.44435,899.428709 C1240.34576,903.879966 1240.3959,908.805664 1238.57934,913.303208 Z M1144.81251,677.44057 C1142.85325,672.788736 1139.02729,669.039497 1134.32584,667.157163 L910.730983,577.395283 C905.952392,575.489805 900.726411,575.532235 896.024957,577.545715 L674.44336,672.179292 C669.788187,674.146486 666.043222,677.969013 664.161097,682.670991 L574.405355,906.271456 C572.480805,911.031293 572.534801,916.257856 574.55577,920.97912 L669.186524,1142.56996 C671.149642,1147.22565 674.971743,1150.97104 679.677054,1152.85337 L903.268051,1242.61525 C905.524286,1243.5217 907.996503,1244 910.414724,1244 C913.052784,1244 915.605994,1243.47542 918.004932,1242.43396 L1139.55182,1147.79653 C1144.20699,1145.83705 1147.95581,1142.01452 1149.83408,1137.30868 L1239.59754,913.708219 C1241.51823,908.944525 1241.46423,903.721819 1239.44712,899.000555 L1144.81251,677.44057 Z" id="Fill-13" fill="#FF4221"></path>
                    <path d="M1255.51302,914.480423 L1161.31394,1149.48049 C1159.45056,1154.15189 1155.73537,1157.94621 1151.12514,1159.88973 L918.607686,1259.35712 C914.05147,1261.33155 908.681231,1261.41656 904.001562,1259.53099 L669.346809,1165.19095 C664.68643,1163.3247 660.897942,1159.60767 658.949687,1154.99035 L559.63113,922.099958 C557.632722,917.416958 557.582569,912.231656 559.488386,907.498425 L653.691328,672.498362 C655.554709,667.826954 659.266037,664.036505 663.876264,662.092983 L896.424587,562.625594 C898.812645,561.605534 901.335732,561.091641 903.870392,561.091641 C906.277741,561.091641 908.692805,561.555304 910.999847,562.482631 L1145.6546,656.818812 C1150.38442,658.715968 1154.07646,662.336406 1156.05172,667.02327 L1255.37028,899.882754 C1257.36483,904.569618 1257.41884,909.751057 1255.51302,914.480423 Z M1157.05478,666.598246 C1154.96764,661.640911 1151.06728,657.80796 1146.06354,655.802616 L911.408788,561.466435 C906.385763,559.457227 900.915217,559.515185 895.996356,561.624853 L663.448034,661.084515 C658.575468,663.140089 654.648095,667.150778 652.672835,672.092657 L558.469893,907.09272 C556.459911,912.096421 556.510064,917.57924 558.628068,922.528847 L657.942767,1155.41538 C660.002902,1160.30316 664.011292,1164.23657 668.937869,1166.20714 L903.592621,1260.54719 C905.96139,1261.50156 908.546204,1262 911.084722,1262 C913.847,1262 916.528261,1261.45133 919.039774,1260.36172 L1151.55338,1160.89433 C1156.42594,1158.83876 1160.35717,1154.82807 1162.33243,1149.89006 L1256.53152,914.886129 C1258.5415,909.890156 1258.48749,904.407336 1256.37334,899.450002 L1157.05478,666.598246 Z" id="Fill-15" fill="#FF4221"></path>
                    <path d="M1272.44237,914.65074 L1173.80034,1160.37886 C1171.84772,1165.26864 1167.95406,1169.2399 1163.12267,1171.27378 L919.639468,1275.27916 C914.885263,1277.35549 909.228068,1277.4404 904.323365,1275.46055 L658.605839,1176.81965 C653.716572,1174.86682 649.74573,1170.97275 647.708214,1166.13699 L543.706125,922.616421 C541.610724,917.711198 541.556699,912.284964 543.555626,907.333429 L642.197658,661.605313 C644.154137,656.715527 648.043941,652.744265 652.875325,650.702674 L896.3894,546.701146 C898.893847,545.632108 901.544934,545.09566 904.199879,545.09566 C906.723621,545.09566 909.255081,545.578078 911.674632,546.550632 L1157.39602,645.195394 C1162.28143,647.148221 1166.25227,651.042296 1168.29364,655.874191 L1272.29187,899.36389 C1274.38727,904.272972 1274.44516,909.699206 1272.44237,914.65074 Z M1169.29696,655.449664 C1167.14754,650.351474 1162.95674,646.241275 1157.8012,644.176528 L912.07982,545.531766 C906.850966,543.436143 901.120451,543.490174 895.9572,545.697717 L652.450842,649.699245 C647.353192,651.848898 643.243429,656.040143 641.1789,661.196223 L542.540727,906.924339 C540.43375,912.146028 540.487775,917.87329 542.702802,923.048667 L646.704892,1166.56152 C648.850458,1171.66743 653.0374,1175.77377 658.196793,1177.83466 L903.918177,1276.47942 C906.387894,1277.47513 909.096865,1278 911.75181,1278 C914.649869,1278 917.451454,1277.42496 920.071669,1276.28259 L1163.54715,1172.28107 C1168.64866,1170.13141 1172.75457,1165.94403 1174.8191,1160.78409 L1273.46113,915.055971 C1275.56811,909.838142 1275.51022,904.110879 1273.29519,898.935503 L1169.29696,655.449664 Z" id="Fill-17" fill="#FF4221"></path>
                    <path d="M1288.38102,913.832483 L1185.56818,1170.95597 C1183.53163,1176.07749 1179.47009,1180.24042 1174.423,1182.37792 L920.640132,1291.20539 C918.049214,1292.33406 915.281206,1292.90612 912.409253,1292.90612 C909.783687,1292.90612 907.108074,1292.38431 904.659599,1291.39479 L648.547599,1188.17587 C643.45046,1186.12726 639.300372,1182.05324 637.175281,1176.98583 L528.772526,922.16993 C526.585838,917.029084 526.528091,911.343231 528.614684,906.156001 L631.427525,649.024783 C633.502569,643.829823 637.460166,639.778991 642.572705,637.610558 L896.390222,528.783094 C899.000388,527.662157 901.764547,527.097824 904.536405,527.097824 C907.169671,527.097824 909.810636,527.604178 912.339956,528.624617 L1168.45581,631.843534 C1173.56064,633.892142 1177.69918,637.973896 1179.82427,643.029706 L1288.22703,897.814688 C1290.41372,902.959399 1290.47146,908.645253 1288.38102,913.832483 Z M1180.82907,642.604523 C1178.59234,637.278143 1174.23436,632.987662 1168.86004,630.823095 L912.748035,527.604178 C907.281315,525.412554 901.32182,525.462803 895.959044,527.778116 L642.149227,636.601716 C636.844198,638.847454 632.563217,643.226836 630.415027,648.618927 L527.602186,905.746279 C525.407798,911.20408 525.469395,917.191426 527.775427,922.602844 L636.170482,1177.41102 C638.411068,1182.74513 642.772895,1187.03947 648.13952,1189.19245 L904.25537,1292.41136 C906.830888,1293.45113 909.648944,1294 912.409253,1294 C915.431348,1294 918.345649,1293.39701 921.07131,1292.21037 L1174.85033,1183.3829 C1180.16306,1181.1333 1184.43634,1176.75392 1186.58453,1171.36569 L1289.39737,914.238339 C1291.59176,908.784403 1291.53016,902.800922 1289.22798,897.38564 L1180.82907,642.604523 Z" id="Fill-19" fill="#FF4221"></path>
                    <path d="M1304.30839,913.99087 L1196.78013,1181.84908 C1194.64903,1187.18902 1190.3984,1191.52893 1185.11696,1193.7568 L919.705308,1307.12732 C916.991235,1308.30496 914.091848,1308.90344 911.088223,1308.90344 C908.343264,1308.90344 905.536534,1308.35902 902.976889,1307.32424 L635.129139,1199.79561 C629.789789,1197.66427 625.45036,1193.41316 623.222735,1188.13114 L509.857096,922.678413 C507.5677,917.319164 507.505929,911.388468 509.694947,905.979024 L617.215484,638.120815 C619.350452,632.777011 623.604945,628.440961 628.886385,626.21695 L894.325057,512.842574 C897.062294,511.676513 899.953959,511.089621 902.857207,511.089621 C905.609887,511.089621 908.37801,511.618596 911.026451,512.676546 L1178.87034,620.20517 C1184.29077,622.375125 1188.51823,626.518118 1190.77674,631.877367 L1304.14238,897.29148 C1306.43178,902.646868 1306.48969,908.581426 1304.30839,913.99087 Z M1191.78439,631.448782 C1189.41006,625.819254 1184.97025,621.46776 1179.27571,619.185831 L911.431825,511.661068 C905.717987,509.383001 899.490675,509.452502 893.892658,511.842542 L628.457847,625.209195 C622.910019,627.541318 618.443187,632.101313 616.200119,637.711536 L508.675722,905.569744 C506.382465,911.249467 506.444236,917.47747 508.853314,923.106999 L622.215092,1188.55586 C624.558538,1194.10817 629.114166,1198.57163 634.719905,1200.81495 L902.567654,1308.34358 C905.258563,1309.42469 908.204279,1310 911.088223,1310 C914.242416,1310 917.288509,1309.37064 920.137707,1308.13121 L1185.54163,1194.76456 C1191.09332,1192.42085 1195.55629,1187.86472 1197.79936,1182.25836 L1305.32762,914.396288 C1307.61701,908.720426 1307.55524,902.488562 1305.14617,896.859033 L1191.78439,631.448782 Z" id="Fill-21" fill="#FF4221"></path>
                    <path d="M1319.24731,913.658759 L1207.55239,1191.91097 C1205.29885,1197.54736 1200.98822,1201.94321 1195.41407,1204.29331 L919.707313,1322.06044 C916.887493,1323.28558 913.87121,1323.90585 910.750917,1323.90585 C907.884871,1323.90585 904.964893,1323.33952 902.31457,1322.26849 L624.069208,1210.56539 C618.522021,1208.34628 614.011079,1203.92731 611.692047,1198.43346 L493.926036,922.685466 C491.545368,917.110714 491.47988,910.942656 493.752686,905.317819 L605.451461,627.065613 C607.666484,621.513976 612.092677,617.002549 617.582081,614.683267 L893.327357,496.912281 C896.17029,495.698703 899.171164,495.089988 902.187447,495.089988 C905.057346,495.089988 907.938802,495.640913 910.689282,496.742765 L1188.93079,608.442009 C1194.56658,610.695797 1198.96196,615.006887 1201.31181,620.577787 L1319.07396,896.291112 C1321.45463,901.865865 1321.52012,908.033922 1319.24731,913.658759 Z M1202.31723,620.150146 C1199.89034,614.39432 1195.15982,609.759608 1189.33527,607.428768 L911.097617,495.729524 C905.176765,493.36401 898.712751,493.425652 892.895909,495.910597 L617.158337,613.681583 C611.399278,616.108739 606.765066,620.839766 604.434477,626.661087 L492.735702,904.909441 C490.358886,910.807814 490.424374,917.268671 492.92446,923.113108 L610.686619,1198.85725 C613.113513,1204.61693 617.844031,1209.2555 623.664725,1211.58248 L901.906236,1323.28173 C904.687534,1324.40284 907.746191,1325 910.750917,1325 C914.021446,1325 917.180261,1324.34891 920.142613,1323.06213 L1195.84166,1205.29499 C1201.68162,1202.83702 1206.20026,1198.22542 1208.56938,1192.31549 L1320.2643,914.063285 C1322.64111,908.168764 1322.57563,901.704054 1320.07554,895.86347 L1202.31723,620.150146 Z" id="Fill-23" fill="#FF4221"></path>
                    <path d="M1335.18094,915.34248 L1219.17696,1205.32441 C1216.83302,1211.20717 1212.35682,1215.78823 1206.56432,1218.24099 L920.226178,1340.97557 C917.285666,1342.2541 914.148863,1342.90302 910.91199,1342.90302 C907.940687,1342.90302 904.907803,1342.31204 902.140488,1341.19188 L613.169739,1224.7804 C607.396482,1222.46669 602.704749,1217.85473 600.299225,1212.12647 L477.994703,924.747946 C475.519901,918.934711 475.45447,912.499595 477.813808,906.632284 L593.817782,616.646491 C596.127085,610.852569 600.726446,606.147905 606.430424,603.73377 L892.803208,480.999191 C895.762964,479.728391 898.892069,479.094922 902.025023,479.094922 C905.004024,479.094922 907.994571,479.666589 910.858106,480.813785 L1199.82886,597.229127 C1205.59826,599.546696 1210.29,604.158658 1212.69552,609.883053 L1335.00389,897.23068 C1337.47869,903.03619 1337.54028,909.467443 1335.18094,915.34248 Z M1213.70007,609.458165 C1211.17908,603.46725 1206.27566,598.638982 1200.23298,596.209397 L911.262234,479.797918 C905.111791,477.33357 898.410964,477.406959 892.375987,479.991048 L606.007052,602.725628 C600.033655,605.251778 595.222608,610.176612 592.801689,616.237054 L476.801564,906.226709 C474.334459,912.364404 474.403738,919.093079 476.994006,925.176697 L599.298527,1212.55136 C601.815667,1218.55 606.722936,1223.37441 612.765611,1225.80013 L901.73636,1342.21161 C904.630687,1343.37812 907.802129,1344 910.91199,1344 C914.298967,1344 917.582026,1343.32018 920.657248,1341.97985 L1206.98769,1219.24914 C1212.96109,1216.71912 1217.77214,1211.79815 1220.19306,1205.73385 L1336.19703,915.748054 C1338.66414,909.606497 1338.59871,902.87396 1336.00459,896.798067 L1213.70007,609.458165 Z" id="Fill-25" fill="#FF4221"></path>
                    <path d="M1354.10844,915.016598 L1233.53121,1216.06217 C1231.13385,1222.08115 1226.35069,1226.97205 1220.41125,1229.47931 L922.776208,1356.90165 C919.72362,1358.23062 916.459047,1358.90283 913.086554,1358.90283 C909.995423,1358.90283 906.842624,1358.28857 903.959624,1357.12186 L603.591899,1236.27095 C597.590788,1233.86799 592.711272,1229.07367 590.205992,1223.12037 L463.072638,924.779089 C460.49798,918.73693 460.432458,912.049604 462.887633,905.957222 L583.468714,604.907791 C585.869929,598.888811 590.653088,593.997907 596.588676,591.490643 L894.258406,464.072165 C897.33412,462.754789 900.587131,462.094169 903.851704,462.094169 C906.950543,462.094169 910.060945,462.692976 913.036448,463.882864 L1213.40417,584.737641 C1219.40914,587.140597 1224.2848,591.934919 1226.79393,597.888223 L1353.92343,896.19473 C1356.50195,902.229163 1356.56747,908.916489 1354.10844,915.016598 Z M1227.7999,597.463263 C1225.18285,591.23953 1220.08749,586.232728 1213.81273,583.717737 L913.445001,462.866823 C907.062317,460.309337 900.097637,460.382739 893.830582,463.067714 L596.164705,590.482329 C589.959318,593.101628 584.964174,598.212738 582.451185,604.502147 L461.873958,905.551578 C459.310863,911.910526 459.376386,918.895324 462.07438,925.211776 L589.200025,1223.54533 C591.81708,1229.76906 596.91629,1234.77586 603.1872,1237.29085 L903.554925,1358.14177 C906.561261,1359.3587 909.856669,1360 913.086554,1360 C916.609364,1360 920.016545,1359.29302 923.207887,1357.90611 L1220.83522,1230.48763 C1227.04061,1227.86833 1232.03575,1222.75722 1234.54489,1216.46781 L1355.12597,915.422241 C1357.69292,909.051704 1357.61969,902.070769 1354.92555,895.765907 L1227.7999,597.463263 Z" id="Fill-27" fill="#FF4221"></path>
                    <path d="M1369.04365,915.183298 L1244.01903,1226.95924 C1241.53242,1233.20047 1236.57076,1238.26834 1230.40627,1240.86982 L921.80788,1372.83114 C918.642749,1374.20907 915.25787,1374.90383 911.75348,1374.90383 C908.549796,1374.90383 905.276719,1374.26697 902.285072,1373.06272 L590.853102,1247.9023 C584.619219,1245.41275 579.561177,1240.44524 576.962763,1234.27349 L445.14911,925.295869 C442.473591,919.039198 442.408052,912.10707 444.956349,905.784784 L569.973258,594.00884 C572.463727,587.771469 577.425388,582.703604 583.589877,580.105986 L892.222961,448.144664 C895.415079,446.778309 898.788392,446.095132 902.173271,446.095132 C905.392375,446.095132 908.61919,446.708834 911.711073,447.947816 L1223.14304,573.108242 C1229.37307,575.601646 1234.43497,580.569157 1237.03338,586.737053 L1368.85089,895.676073 C1371.52255,901.940463 1371.59195,908.868732 1369.04365,915.183298 Z M1238.03959,586.312479 C1235.32938,579.87826 1230.04773,574.694603 1223.5517,572.089265 L912.119725,446.9327 C905.504177,444.284905 898.283359,444.3621 891.795032,447.137267 L583.161948,579.098589 C576.735305,581.80814 571.561607,587.096011 568.959336,593.603565 L443.938572,905.379509 C441.286185,911.971978 441.355578,919.197448 444.146754,925.724302 L575.956552,1234.69806 C578.662912,1241.13228 583.944557,1246.31594 590.444449,1248.92127 L901.876419,1374.0817 C904.999143,1375.33612 908.414864,1376 911.75348,1376 C915.408224,1376 918.935745,1375.27051 922.239665,1373.83467 L1230.83034,1241.87721 C1237.26084,1239.1638 1242.43839,1233.87593 1245.03681,1227.36838 L1370.06143,915.588573 C1372.71382,909.003823 1372.64442,901.778353 1369.85325,895.24764 L1238.03959,586.312479 Z" id="Fill-29" fill="#FF4221"></path>
                    <path d="M1384.97445,915.362673 L1255.5148,1238.54086 C1252.93124,1245.01385 1247.78725,1250.26567 1241.40546,1252.96307 L921.845691,1389.74998 C918.556468,1391.17983 915.051306,1391.90249 911.422749,1391.90249 C908.102678,1391.90249 904.709341,1391.24553 901.609065,1389.98958 L579.118685,1260.25534 C572.659777,1257.67 567.411674,1252.51866 564.720141,1246.11909 L428.223172,925.846989 C425.454518,919.35081 425.381252,912.162889 428.022657,905.608742 L557.486164,582.434419 C560.065871,575.965291 565.206005,570.705742 571.591647,568.004475 L891.193835,431.221437 C894.502339,429.80704 897.995933,429.095977 901.504952,429.095977 C904.836591,429.095977 908.187511,429.737479 911.388045,431.020484 L1233.88228,560.754723 C1240.34119,563.340056 1245.58544,568.495263 1248.27697,574.894831 L1384.77394,895.12829 C1387.54259,901.620605 1387.61586,908.808526 1384.97445,915.362673 Z M1249.2834,574.469739 C1246.48004,567.799658 1241.016,562.435769 1234.29102,559.738367 L911.792931,430.004128 C904.956129,427.260352 897.486932,427.337641 890.765812,430.212809 L571.16748,566.995848 C564.515769,569.813049 559.159696,575.289008 556.472019,582.024785 L427.004656,905.199108 C424.259138,912.027632 424.336259,919.513117 427.220595,926.275946 L563.713708,1246.54418 C566.517067,1253.2104 571.984966,1258.57815 578.709942,1261.27556 L901.204178,1391.0098 C904.431704,1392.31212 907.967716,1393 911.422749,1393 C915.201692,1393 918.853385,1392.24256 922.277571,1390.75474 L1241.82963,1253.9717 C1248.48134,1251.16609 1253.83356,1245.69014 1256.52895,1238.94663 L1385.99245,915.768443 C1388.74183,908.943782 1388.66471,901.458297 1385.77651,894.695469 L1249.2834,574.469739 Z" id="Fill-31" fill="#FF4221"></path>
                    <path d="M1401.90822,915.532564 L1268.00522,1249.44155 C1265.3324,1256.13294 1260.00991,1261.56558 1253.40309,1264.35334 L922.880425,1405.67941 C919.478661,1407.15437 915.849341,1407.90729 912.096601,1407.90729 C908.648554,1407.90729 905.134941,1407.22387 901.937591,1405.93038 L568.379568,1271.88646 C561.695603,1269.21454 556.268979,1263.88614 553.476601,1257.26812 L412.299529,926.363109 C409.433871,919.644696 409.356733,912.219691 412.091258,905.4395 L545.994263,571.530512 C548.667077,564.842988 553.993422,559.406479 560.60025,556.618724 L891.161481,415.292659 C894.586386,413.825419 898.204135,413.09566 901.837312,413.09566 C905.285359,413.09566 908.748833,413.755918 912.061889,415.084156 L1245.62377,549.124218 C1252.30388,551.8 1257.7305,557.128396 1260.52288,563.746419 L1401.69995,894.608955 C1404.56561,901.323507 1404.64275,908.752372 1401.90822,915.532564 Z M1261.52952,563.317831 C1258.62915,556.433388 1252.97883,550.892628 1246.02874,548.108734 L912.470718,414.064811 C905.397208,411.234583 897.683457,411.319528 890.733367,414.284897 L560.175994,555.610962 C553.303042,558.510691 547.760712,564.163424 544.976047,571.12509 L411.0769,905.030217 C408.234383,912.076828 408.31152,919.806865 411.296742,926.791697 L552.473813,1257.69284 C555.374184,1264.57729 561.024506,1270.12191 567.970739,1272.9058 L901.532619,1406.94586 C904.857246,1408.28955 908.509707,1409 912.096601,1409 C915.999759,1409 919.771783,1408.22391 923.312395,1406.68331 L1253.82734,1265.3611 C1260.7003,1262.46523 1266.23491,1256.80864 1269.02343,1249.84697 L1402.92644,915.937985 C1405.7651,908.891374 1405.68796,901.161338 1402.70274,894.180366 L1261.52952,563.317831 Z" id="Fill-33" fill="#FF4221"></path>
                    <path d="M1417.84175,915.194112 L1279.63402,1259.49595 C1276.87464,1266.39895 1271.37516,1272.00691 1264.54994,1274.88219 L923.393206,1420.6121 C919.87847,1422.13453 916.128648,1422.90924 912.259355,1422.90924 C908.709935,1422.90924 905.079583,1422.20391 901.769103,1420.86648 L557.483018,1282.6524 C550.57687,1279.89274 544.96948,1274.39655 542.094488,1267.57064 L396.371698,926.363784 C393.41192,919.441517 393.330989,911.771522 396.159734,904.776024 L534.367465,560.47804 C537.130694,553.575044 542.626323,547.967083 549.451538,545.087944 L890.646814,399.365747 C894.180819,397.851019 897.91908,397.095583 901.665048,397.095583 C905.229884,397.095583 908.806282,397.777788 912.232378,399.146054 L1256.52232,537.36399 C1263.42461,540.123646 1269.032,545.615979 1271.90699,552.445744 L1417.62978,893.606353 C1420.58956,900.532474 1420.66278,908.202469 1417.84175,915.194112 Z M1272.91286,552.01792 C1269.92225,544.929919 1264.09519,539.214039 1256.92697,536.346463 L912.637035,398.132381 C905.3455,395.214699 897.387245,395.291785 890.219034,398.359783 L549.027612,544.08198 C541.936479,547.069039 536.221179,552.896693 533.350041,560.069487 L395.142311,904.367471 C392.209511,911.632768 392.290442,919.599542 395.36969,926.795462 L541.088626,1267.99461 C544.071526,1275.08647 549.902442,1280.79849 557.074507,1283.66992 L901.360592,1421.88401 C904.802104,1423.26769 908.567341,1424 912.259355,1424 C916.278949,1424 920.175218,1423.19831 923.82484,1421.61421 L1264.97387,1275.88816 C1272.06886,1272.9011 1277.7803,1267.07344 1280.64759,1259.9045 L1418.85917,915.598811 C1421.78812,908.341222 1421.71104,900.374449 1418.63179,893.178529 L1272.91286,552.01792 Z" id="Fill-35" fill="#FF4221"></path>
                    <path d="M1125.04558,912.598839 L1066.10744,1059.41782 C1064.94498,1062.32623 1062.72046,1064.59734 1059.84326,1065.81015 L914.365207,1127.95291 C911.572973,1129.16571 908.259369,1129.21979 905.386033,1128.05719 L758.56786,1069.1164 C755.698387,1067.97312 753.373457,1065.69041 752.180095,1062.85539 L690.036492,917.349637 C688.812235,914.475984 688.777477,911.293335 689.951528,908.388782 L748.889663,761.565943 C750.032818,758.700014 752.315266,756.374827 755.153843,755.173609 L900.647347,693.030851 C902.114911,692.405136 903.671301,692.092279 905.227691,692.092279 C906.706841,692.092279 908.193715,692.374237 909.614934,692.945877 L1056.42538,751.886675 C1059.33734,753.049268 1061.60434,755.274032 1062.82087,758.151548 L1124.96061,903.634122 C1126.18873,906.507775 1126.21963,909.690424 1125.04558,912.598839 Z M1063.82499,757.722818 C1062.51964,754.625143 1059.97071,752.122283 1056.83476,750.866991 L910.020445,691.926194 C906.834287,690.659314 903.354616,690.690214 900.218664,692.03048 L754.72516,754.165513 C751.627828,755.474879 749.125245,758.024088 747.870092,761.160387 L688.931957,907.983226 C687.653632,911.154288 687.692252,914.634344 689.036231,917.78223 L751.172111,1063.28412 C752.47747,1066.37793 755.022535,1068.87693 758.162349,1070.13608 L904.980522,1129.07688 C906.478982,1129.67942 908.124198,1130 909.742381,1130 C911.503457,1130 913.202742,1129.64852 914.801614,1128.95714 L1060.27195,1066.81825 C1063.41948,1065.48957 1065.85255,1063.00602 1067.12701,1059.82337 L1126.06515,913.004395 C1127.34734,909.829471 1127.30872,906.349415 1125.96087,903.201529 L1063.82499,757.722818 Z" id="Fill-37" fill="#FF4221"></path>
                    <path d="M1108.11681,911.924765 L1053.62159,1047.68018 C1052.54837,1050.35583 1050.50229,1052.44847 1047.8501,1053.57202 L913.333862,1111.02705 C910.774332,1112.139 907.712933,1112.19306 905.06075,1111.12743 L769.30914,1056.6299 C766.629934,1055.55655 764.541388,1053.51024 763.421835,1050.85776 L705.965595,916.322405 C704.83446,913.666061 704.803576,910.735588 705.888385,908.0638 L760.383599,772.304523 C761.433663,769.667483 763.53379,767.524647 766.151228,766.41655 L900.682912,708.957658 C902.030236,708.378513 903.458631,708.092801 904.894748,708.092801 C906.261375,708.092801 907.628002,708.351486 908.940581,708.876577 L1044.68833,763.374109 C1047.36754,764.447457 1049.45994,766.493769 1050.5795,769.146253 L1108.03574,903.66616 C1109.16687,906.314782 1109.19776,909.245255 1108.11681,911.924765 Z M1051.58323,768.717685 C1050.36717,765.837405 1048.00452,763.520825 1045.09755,762.358675 L909.349797,707.857282 C906.384912,706.683549 903.153649,706.714437 900.250532,707.953807 L765.72657,765.412699 C762.842756,766.628903 760.526439,768.987953 759.36442,771.89526 L704.869205,907.658398 C703.680163,910.596593 703.711047,913.828222 704.961858,916.750973 L762.414237,1051.28632 C763.645746,1054.20907 765.950481,1056.46388 768.903785,1057.64533 L904.655395,1112.14287 C906.049046,1112.70271 907.581675,1113 909.071839,1113 C910.712564,1113 912.29152,1112.67568 913.766241,1112.0309 L1048.27476,1054.57587 C1051.19718,1053.34422 1053.45945,1051.03922 1054.63691,1048.08944 L1109.13599,912.330167 C1110.32117,909.38425 1110.28642,906.152622 1109.03561,903.237593 L1051.58323,768.717685 Z" id="Fill-39" fill="#FF4221"></path>
                    <path d="M1092.18633,912.744253 L1042.26482,1037.10428 C1041.29117,1039.54444 1039.42854,1041.44962 1037.0079,1042.47342 L913.789665,1095.11022 C911.4152,1096.12631 908.655893,1096.16865 906.242943,1095.19489 L781.885586,1045.27537 C779.445697,1044.29777 777.540736,1042.42723 776.520909,1040.01015 L723.886274,916.770144 C722.851053,914.35307 722.824115,911.681971 723.813155,909.241804 L773.734664,784.881779 C774.712159,782.441612 776.578635,780.532585 778.995433,779.512641 L902.232905,726.879688 C903.464395,726.352396 904.769004,726.090675 906.077462,726.090675 C907.320497,726.090675 908.563531,726.325454 909.760385,726.802711 L1034.11389,776.726077 C1036.523,777.688288 1038.47799,779.608862 1039.48242,781.987448 L1092.11321,905.215912 C1093.14843,907.632987 1093.17537,910.304085 1092.18633,912.744253 Z M1040.483,781.564075 C1039.37082,778.91607 1037.19647,776.787659 1034.52183,775.709982 L910.164468,725.790465 C907.443646,724.712788 904.480374,724.732033 901.801884,725.878988 L778.572109,778.508092 C775.885922,779.643501 773.807784,781.760366 772.718685,784.477651 L722.801024,908.833826 C721.704229,911.543413 721.735016,914.514721 722.885689,917.197366 L775.516475,1040.43738 C776.636361,1043.08538 778.806862,1045.21764 781.481503,1046.28762 L905.835012,1096.21099 C907.116531,1096.72673 908.521199,1097 909.898928,1097 C911.392109,1097 912.842958,1096.69979 914.216838,1096.11092 L1037.43122,1043.47796 C1040.08277,1042.35795 1042.21479,1040.1795 1043.2808,1037.50841 L1093.2023,913.148381 C1094.29525,910.438795 1094.26446,907.471335 1093.11379,904.78869 L1040.483,781.564075 Z" id="Fill-41" fill="#FF4221"></path>
                    <path d="M1076.25099,912.576847 L1030.63812,1026.20635 C1029.75108,1028.42417 1028.05415,1030.156 1025.8597,1031.08942 L913.264136,1079.17946 C911.135252,1080.10516 908.605275,1080.14759 906.410828,1079.26046 L792.785533,1033.64666 C790.598799,1032.7711 788.820873,1031.0277 787.906842,1028.86388 L739.817988,916.256499 C738.87696,914.065679 738.85382,911.631863 739.748568,909.414043 L785.361438,795.784535 C786.236902,793.593715 787.980118,791.815603 790.139855,790.905332 L902.746989,742.811431 C903.865424,742.333153 905.049422,742.094014 906.241134,742.094014 C907.371139,742.094014 908.505001,742.310011 909.588726,742.745861 L1023.21402,788.359661 C1025.43161,789.242932 1027.16325,790.943903 1028.09657,793.142437 L1076.18542,905.734391 C1077.12645,907.932925 1077.14573,910.362884 1076.25099,912.576847 Z M1029.0993,792.718159 C1028.058,790.245772 1026.11424,788.340376 1023.62283,787.341392 L909.997534,741.727592 C907.48684,740.732466 904.767885,740.755608 902.315041,741.812448 L789.715621,789.898635 C787.285917,790.924618 785.330584,792.922584 784.347133,795.375685 L738.730406,909.005193 C737.731528,911.496865 737.754668,914.223819 738.815253,916.684635 L786.904107,1029.29202 C787.926125,1031.72198 789.923881,1033.67366 792.380582,1034.66107 L906.002021,1080.27873 C907.182162,1080.75315 908.470291,1081 909.73528,1081 C911.115969,1081 912.446521,1080.72615 913.69994,1080.1823 L1026.28779,1032.09226 C1028.7522,1031.05084 1030.6574,1029.10302 1031.65628,1026.61135 L1077.26915,912.98184 C1078.26803,910.501739 1078.24489,907.770928 1077.18816,905.302398 L1029.0993,792.718159 Z" id="Fill-43" fill="#FF4221"></path>
                    <path d="M1058.32502,911.402799 L1017.28558,1013.63044 C1016.49421,1015.61675 1014.97679,1017.16123 1013.01375,1017.9911 L911.715521,1061.26342 C909.82163,1062.08945 907.558948,1062.12787 905.588225,1061.33258 L803.364174,1020.29629 C801.378085,1019.50484 799.833776,1017.98342 799.000156,1016.02016 L755.732607,914.70691 C754.898987,912.747495 754.875938,910.57293 755.674984,908.594305 L796.710583,806.362821 C797.501946,804.380354 799.023206,802.832033 800.986245,801.998321 L902.296003,758.733683 C903.302493,758.303381 904.358924,758.092071 905.419196,758.092071 C906.429528,758.092071 907.443701,758.284171 908.411775,758.672212 L1010.63967,799.712338 C1012.59502,800.496104 1014.18543,802.052109 1014.99984,803.98463 L1058.26355,905.282511 C1059.10101,907.245767 1059.12406,909.416491 1058.32502,911.402799 Z M1015.99865,803.562011 C1015.07283,801.360551 1013.2673,799.589394 1011.04303,798.698053 L908.81514,757.657926 C906.563982,756.758901 904.097697,756.778111 901.865748,757.734766 L800.55599,800.999404 C798.327882,801.944533 796.603019,803.704164 795.700252,805.959412 L754.66081,908.187054 C753.754201,910.43846 753.781092,912.908859 754.737642,915.137212 L797.997508,1016.45046 C798.942533,1018.67882 800.70197,1020.40387 802.956968,1021.30674 L905.18486,1062.34686 C906.248974,1062.77332 907.41681,1063 908.561596,1063 C909.813947,1063 911.020198,1062.75411 912.145777,1062.26234 L1013.43633,1018.99386 C1015.66828,1018.05257 1017.39698,1016.29294 1018.29975,1014.03769 L1059.33919,911.806208 C1060.2458,909.558644 1060.21891,907.084404 1059.26236,904.85605 L1015.99865,803.562011 Z" id="Fill-45" fill="#FF4221"></path>
                    <path d="M1042.3879,911.231164 L1005.65751,1002.73224 C1004.95279,1004.49232 1003.60881,1005.86341 1001.86433,1006.60288 L911.1975,1045.3285 C909.514634,1046.06026 907.512139,1046.10263 905.759955,1045.39397 L814.261323,1008.66337 C812.524544,1007.96627 811.111244,1006.58747 810.391116,1004.86591 L771.662087,914.192875 C770.922704,912.4482 770.903449,910.518658 771.615875,908.758578 L808.34626,817.261351 C809.035581,815.524379 810.418073,814.114774 812.135598,813.390714 L902.810126,774.66124 C903.699696,774.279954 904.639328,774.091236 905.586662,774.091236 C906.480083,774.091236 907.377355,774.264548 908.239969,774.607321 L999.7386,811.337929 C1001.47538,812.035029 1002.88483,813.417674 1003.60881,815.135389 L1042.33399,905.800718 C1043.08107,907.545393 1043.10033,909.474935 1042.3879,911.231164 Z M1004.61006,814.707886 C1003.77825,812.728277 1002.1493,811.129954 1000.14295,810.325016 L908.64817,773.594408 C906.607165,772.785618 904.381314,772.797173 902.38267,773.659882 L811.711993,812.385504 C809.724901,813.225105 808.130607,814.854239 807.329609,816.853105 L770.599224,908.354183 C769.778971,910.38386 769.802077,912.609958 770.660839,914.620378 L809.386018,1005.29341 C810.221674,1007.27302 811.850627,1008.87519 813.853123,1009.68013 L905.351754,1046.41074 C906.314492,1046.79588 907.365802,1047 908.397858,1047 C909.526187,1047 910.612155,1046.77277 911.628807,1046.32986 L1002.28793,1007.60424 C1004.29813,1006.76079 1005.85776,1005.17402 1006.67417,1003.13664 L1043.40455,911.635559 C1044.22095,909.609733 1044.19785,907.387487 1043.33523,905.373215 L1004.61006,814.707886 Z" id="Fill-47" fill="#FF4221"></path>
                    <path d="M1026.44276,910.565778 L993.883242,991.671215 C993.282012,993.191917 992.071794,994.429428 990.559022,995.06564 L910.192006,1029.39783 C908.725781,1030.03404 906.960879,1030.07284 905.424833,1029.45214 L824.324705,996.892811 C822.777022,996.275995 821.574562,995.096675 820.930664,993.568214 L786.602362,913.188214 C785.950706,911.659753 785.931312,909.972238 786.555815,908.42438 L819.115337,827.322823 C819.732083,825.778844 820.915148,824.568489 822.439558,823.924518 L902.814331,789.596206 C903.59399,789.262582 904.420197,789.095771 905.246404,789.095771 C906.033821,789.095771 906.821239,789.250944 907.573746,789.553533 L988.677753,822.108985 C990.198283,822.718042 991.439533,823.928397 992.075673,825.437462 L1026.39622,905.801944 C1027.05175,907.334285 1027.06727,909.029558 1026.44276,910.565778 Z M993.084188,825.006854 C992.33556,823.233994 990.877092,821.806396 989.085038,821.088717 L907.98491,788.529387 C906.165704,787.807829 904.175826,787.819467 902.383772,788.591456 L822.012878,822.912009 C820.213067,823.67236 818.824419,825.0922 818.091306,826.915492 L785.535664,908.017049 C784.802551,909.832582 784.821945,911.822685 785.593847,913.618821 L819.91827,993.994941 C820.674656,995.794957 822.094335,997.187641 823.913541,997.916958 L905.013669,1030.47241 C905.874786,1030.81767 906.81736,1031 907.73666,1031 C908.749054,1031 909.722659,1030.79827 910.630323,1030.40646 L990.985701,996.078149 C992.766118,995.329436 994.197434,993.874682 994.907273,992.082425 L1027.46679,910.973109 C1028.19603,909.165335 1028.17663,907.175231 1027.41249,905.371337 L993.084188,825.006854 Z" id="Fill-49" fill="#FF4221"></path>
                    <path d="M1010.52393,911.886472 L982.675639,981.258924 C982.153172,982.561386 981.158178,983.575693 979.871217,984.121268 L911.128304,1013.48238 C909.860552,1014.0318 908.385349,1014.05101 907.106071,1013.52849 L837.736965,985.681149 C836.453846,985.166311 835.408911,984.148162 834.871077,982.876436 L805.513004,914.1264 C804.963645,912.835464 804.948278,911.410056 805.474588,910.107593 L833.322882,840.735142 C833.841508,839.436521 834.840343,838.422214 836.127304,837.872798 L904.874059,808.515526 C905.534827,808.231213 906.234011,808.089056 906.929354,808.089056 C907.590122,808.089056 908.258574,808.219687 908.89245,808.473263 L978.265398,836.320601 C979.548517,836.835439 980.58961,837.853588 981.127445,839.129156 L1010.48552,907.867665 C1011.03872,909.154759 1011.05408,910.580168 1010.52393,911.886472 Z M982.12628,838.702686 C981.477037,837.169699 980.216968,835.92871 978.668773,835.306294 L909.295826,807.458956 C907.720739,806.832699 905.991986,806.844225 904.447633,807.512745 L835.70472,836.873859 C834.145,837.530854 832.938715,838.760317 832.30868,840.331724 L804.460386,909.704176 C803.830351,911.275583 803.845718,912.996831 804.514169,914.55287 L833.872241,983.299064 C834.521484,984.835893 835.781553,986.07304 837.33359,986.695456 L906.702696,1014.54279 C907.444139,1014.84248 908.262415,1015 909.061483,1015 C909.922018,1015 910.763345,1014.82711 911.558571,1014.48132 L980.293801,985.124048 C981.853521,984.467054 983.059807,983.237591 983.689841,981.662342 L1011.53814,912.28989 C1012.17201,910.71464 1012.1528,908.993392 1011.48435,907.441195 L982.12628,838.702686 Z" id="Fill-51" fill="#FF4221"></path>
                    <path d="M995.580207,912.222039 L971.906863,971.197069 C971.47249,972.279215 970.642527,973.128641 969.568229,973.582445 L911.12951,998.545502 C910.090116,998.995427 908.856807,999.022578 907.770873,998.584289 L848.796944,974.908946 C847.730403,974.482294 846.857778,973.628989 846.41177,972.570114 L821.454698,914.122582 C820.993176,913.052072 820.981541,911.861323 821.419793,910.775298 L845.093137,851.800268 C845.523632,850.729758 846.372986,849.860938 847.43565,849.414892 L905.878247,824.451834 C906.42897,824.222993 907.006842,824.102755 907.588592,824.102755 C908.139315,824.102755 908.697795,824.211357 909.225248,824.420805 L968.199177,848.096148 C969.28511,848.526679 970.130587,849.360591 970.58823,850.43498 L995.54918,908.874755 C996.006824,909.949144 996.018459,911.136014 995.580207,912.222039 Z M971.596597,850.008327 C971.03036,848.658553 969.967697,847.619072 968.610281,847.072181 L909.636352,823.400717 C908.275057,822.853826 906.781899,822.865462 905.447752,823.443383 L847.005155,848.402562 C845.678765,848.961089 844.608345,850.050992 844.073135,851.38913 L820.395913,910.36416 C819.852947,911.72557 819.86846,913.211097 820.442453,914.556992 L845.399525,972.996767 C845.961883,974.327147 847.047816,975.393779 848.389719,975.932913 L907.363648,999.604377 C908.007452,999.864247 908.713308,1000 909.399773,1000 C910.156048,1000 910.881296,999.848732 911.563883,999.553954 L969.998724,974.594775 C971.344505,974.028491 972.383898,972.961859 972.926865,971.608207 L996.604087,912.629298 C997.147053,911.275645 997.13154,909.78624 996.557547,908.440345 L971.596597,850.008327 Z" id="Fill-53" fill="#FF4221"></path>
                    <path d="M977.646791,910.543547 L958.412875,958.455244 C958.071628,959.312334 957.416279,959.97939 956.567039,960.340066 L909.094942,980.619349 C908.257336,980.980025 907.287885,980.999416 906.446401,980.646497 L858.536112,961.414337 C857.69075,961.07693 857.008256,960.405996 856.655376,959.572176 L836.374452,912.087084 C836.013816,911.245508 836.006061,910.303097 836.351185,909.446007 L855.581224,861.534311 C855.918593,860.692734 856.589453,860.006287 857.427059,859.649489 L904.906912,839.374084 C905.341226,839.191807 905.798807,839.094851 906.256389,839.094851 C906.694581,839.094851 907.128895,839.180173 907.551576,839.350815 L955.457987,858.582975 C956.303349,858.916503 956.98972,859.587437 957.346478,860.425136 L977.619647,907.90247 C977.98416,908.747925 977.991916,909.686458 977.646791,910.543547 Z M958.354708,859.99853 C957.889371,858.893234 956.981965,858.005118 955.869034,857.559121 L907.958745,838.326961 C906.826426,837.880964 905.593284,837.888721 904.476476,838.365744 L857.000501,858.63727 C855.895326,859.102658 855.007309,860.014043 854.561361,861.127096 L835.331323,909.034915 C834.877619,910.163481 834.889253,911.404515 835.370101,912.521447 L855.643269,959.998781 C856.104728,961.1002 857.012134,961.992193 858.128942,962.43819 L906.031476,981.666472 C906.566613,981.887531 907.152162,982 907.729955,982 C908.350404,982 908.955341,981.875897 909.529257,981.62769 L956.997476,961.352285 C958.118162,960.87914 958.98679,959.994903 959.436616,958.866337 L978.670532,910.950762 C979.124235,909.822196 979.108724,908.58504 978.627876,907.471987 L958.354708,859.99853 Z" id="Fill-55" fill="#FF4221"></path>
                    <path d="M960.737206,910.865609 L946.216487,947.051658 C945.972825,947.657044 945.489309,948.148205 944.887769,948.403305 L909.031415,963.720695 C908.441297,963.979602 907.740769,963.991024 907.131615,963.739732 L870.94784,949.214293 C870.331071,948.970616 869.851362,948.498491 869.592472,947.889298 L854.276044,912.03069 C854.020961,911.421497 854.013347,910.751385 854.260816,910.13077 L868.789149,873.948528 C869.032811,873.335527 869.501098,872.855788 870.110253,872.593074 L905.970414,857.279491 C906.274991,857.150037 906.606219,857.085311 906.937447,857.085311 C907.253445,857.085311 907.573252,857.14623 907.870214,857.264261 L944.053989,871.785893 C944.659336,872.02957 945.150467,872.513117 945.409357,873.114695 L960.721977,908.969496 C960.980868,909.574881 960.984675,910.248801 960.737206,910.865609 Z M946.399233,872.695875 C946.037548,871.831583 945.325599,871.131011 944.457553,870.784533 L908.273779,856.259093 C907.394312,855.905 906.404436,855.912614 905.547813,856.289552 L869.687652,871.599328 C868.811992,871.972459 868.138115,872.665415 867.784044,873.544937 L853.259518,909.72718 C852.905447,910.618124 852.913061,911.58141 853.286168,912.453317 L868.598788,948.308118 C868.968088,949.183833 869.661001,949.86156 870.548083,950.219461 L906.724243,964.737286 C907.150651,964.912429 907.596095,965 908.052961,965 C908.544091,965 909.016186,964.901006 909.457823,964.710633 L945.306562,949.397051 C946.1708,949.031535 946.867521,948.323348 947.217785,947.451441 L961.742311,911.265391 C962.096382,910.382062 962.08496,909.414968 961.711853,908.546869 L946.399233,872.695875 Z" id="Fill-57" fill="#FF4221"></path>
                    <path d="M944.781514,910.198963 L934.430061,935.983628 C934.275041,936.375127 933.961126,936.692978 933.573576,936.859656 L908.026298,947.771236 C907.658125,947.926285 907.196941,947.94179 906.797765,947.782865 L881.014081,937.433337 C880.618781,937.274412 880.308741,936.972066 880.138219,936.580567 L869.228694,911.020723 C869.058172,910.629224 869.054297,910.195087 869.217068,909.795835 L879.568521,884.01117 C879.727416,883.615795 880.029705,883.305697 880.425006,883.135143 L905.972284,872.223562 C906.169935,872.138285 906.386962,872.095647 906.600115,872.095647 C906.805516,872.095647 907.010917,872.134409 907.204692,872.211934 L932.9845,882.561461 C933.379801,882.71651 933.693716,883.030485 933.860363,883.421984 L944.773763,908.970199 C944.94041,909.365574 944.944285,909.799712 944.781514,910.198963 Z M934.867992,882.991722 C934.592832,882.33664 934.054138,881.805597 933.395303,881.538137 L907.61162,871.192486 C906.952785,870.928902 906.200939,870.936655 905.542104,871.211867 L879.99095,882.123447 C879.32824,882.406412 878.816674,882.933579 878.54539,883.604166 L868.197812,909.384955 C867.926527,910.055543 867.934278,910.78815 868.221065,911.454861 L879.13059,937.010828 C879.413501,937.673663 879.936693,938.189202 880.603279,938.456661 L906.390838,948.806189 C906.712504,948.934104 907.049672,949 907.394592,949 C907.770515,949 908.130936,948.926352 908.460353,948.779055 L934.007632,937.871351 C934.658715,937.588386 935.181907,937.053467 935.453192,936.394508 L945.804646,910.605967 C946.072055,909.943132 946.064304,909.202773 945.785268,908.536061 L934.867992,882.991722 Z" id="Fill-59" fill="#FF4221"></path>
                    <path d="M922.785367,925.07454 C922.714127,925.244767 922.583521,925.379365 922.413336,925.454582 L907.50439,931.820286 C907.342122,931.895503 907.152148,931.899462 906.974048,931.824245 L891.92658,925.787119 C891.756396,925.719819 891.621831,925.585221 891.546633,925.414994 L885.17857,910.498343 C885.10733,910.328116 885.103372,910.142054 885.174612,909.971827 L891.21418,894.920578 C891.281462,894.750351 891.416027,894.615752 891.586211,894.540536 L906.499115,888.170873 C906.582228,888.135244 906.673257,888.11545 906.764286,888.11545 C906.855315,888.11545 906.946344,888.135244 907.033415,888.170873 L922.072968,894.207999 C922.243152,894.275298 922.381674,894.409896 922.456872,894.580124 L928.81702,909.488857 C928.892217,909.659084 928.896175,909.853064 928.824935,910.023291 L922.785367,925.07454 Z M923.485894,894.1407 C923.295921,893.697318 922.931805,893.341028 922.492492,893.162883 L907.448982,887.125757 C907.001753,886.95553 906.499115,886.95553 906.055844,887.141592 L891.150856,893.507296 C890.711543,893.693359 890.351385,894.057566 890.173285,894.500948 L884.129759,909.552197 C883.951659,910.003497 883.955617,910.494385 884.149548,910.941726 L890.517611,925.850459 C890.703627,926.293841 891.063785,926.650131 891.511013,926.828275 L906.546608,932.865402 C906.760328,932.952495 906.997795,933 907.231304,933 C907.476686,933 907.726026,932.948536 907.947661,932.849567 L922.856607,926.483862 C923.299878,926.2978 923.644205,925.945469 923.830221,925.490211 L929.869788,910.442921 C930.047888,909.991621 930.043931,909.496774 929.853957,909.049433 L923.485894,894.1407 Z" id="Fill-61" fill="#FF4221"></path>
                    <path d="M910.703868,913.635643 L907.55006,914.98368 L904.364503,913.706221 L903.016902,910.551393 L904.297475,907.364805 L907.447756,906.016769 L910.633313,907.294228 L911.980913,910.452584 L910.703868,913.635643 Z M911.522306,906.828414 C911.444695,906.634325 911.289475,906.479054 911.091921,906.397889 L907.740559,905.053382 C907.546533,904.982804 907.334868,904.979275 907.140841,905.06044 L903.810646,906.486112 C903.623675,906.567276 903.47551,906.719018 903.401427,906.909578 L902.057355,910.262024 C901.979744,910.452584 901.979744,910.65726 902.06441,910.858407 L903.486093,914.189679 C903.570759,914.37671 903.722452,914.524924 903.909423,914.599031 L907.246674,915.93648 C907.338395,915.978827 907.444228,916 907.55006,916 L907.765253,915.978827 L911.190698,914.514337 C911.37414,914.433173 911.522306,914.28143 911.599916,914.09087 L912.947517,910.738425 C913.018072,910.551393 913.018072,910.343189 912.943989,910.152629 L911.522306,906.828414 Z" id="Fill-63" fill="#FF4221"></path>
                    <path d="M1434.77285,915.878381 L1291.984,1271.9163 C1289.1327,1279.05784 1283.44939,1284.85913 1276.39252,1287.83702 L923.946203,1438.52772 C920.323236,1440.10743 916.449479,1440.90695 912.432964,1440.90695 C908.755981,1440.90695 905.005691,1440.17696 901.591074,1438.79809 L545.903768,1295.87077 C538.765869,1293.01647 532.970667,1287.32719 529.995899,1280.26676 L379.447958,927.426893 C376.388308,920.258318 376.307283,912.324993 379.231892,905.090758 L522.016885,549.056703 C524.864328,541.919027 530.547639,536.113872 537.608372,533.132116 L890.097127,382.441417 C893.75096,380.877153 897.613142,380.09309 901.490757,380.09309 C905.175457,380.09309 908.871731,380.799906 912.409814,382.217399 L1268.09712,525.144717 C1275.23116,527.999015 1281.03022,533.688298 1284.00499,540.752589 L1434.54907,893.542246 C1437.60872,900.71082 1437.69361,908.644146 1434.77285,915.878381 Z M1285.01201,540.327727 C1281.92535,532.99307 1275.91023,527.091356 1268.50224,524.125049 L912.818796,381.201593 C905.291207,378.188938 897.061402,378.270048 889.668853,381.433336 L537.180098,532.127897 C529.856999,535.2178 523.957622,541.243111 520.998288,548.651153 L378.213295,904.685208 C375.184511,912.189809 375.265535,920.420538 378.448653,927.859479 L528.988876,1280.69162 C532.075535,1288.02242 538.094521,1293.92413 545.498644,1296.88658 L901.182092,1439.81389 C904.724033,1441.24297 908.617082,1442 912.432964,1442 C916.599954,1442 920.620327,1441.16959 924.378335,1439.53194 L1276.82079,1288.84124 C1284.14003,1285.75906 1290.03941,1279.73761 1293.0026,1272.32185 L1435.79145,916.283931 C1438.81638,908.779329 1438.73149,900.5486 1435.55224,893.109659 L1285.01201,540.327727 Z" id="Fill-65" fill="#FF4221"></path>
                    <path d="M1450.70678,915.542409 L1303.61283,1281.9702 C1300.67111,1289.32721 1294.81079,1295.29997 1287.54323,1298.36539 L924.461913,1453.46031 C920.722106,1455.08363 916.731693,1455.90879 912.594772,1455.90879 C908.812554,1455.90879 904.949372,1455.15304 901.41776,1453.73407 L535.001464,1306.63624 C527.64908,1303.69421 521.673099,1297.83713 518.604144,1290.56495 L363.52166,927.430076 C360.364029,920.049929 360.286919,911.879327 363.290331,904.425918 L510.384279,537.998125 C513.326003,530.641113 519.182464,524.66836 526.453884,521.602939 L889.581463,366.511877 C893.348258,364.900121 897.33096,364.090387 901.325229,364.090387 C905.122868,364.090387 908.932074,364.819148 912.57935,366.280525 L1278.99565,513.378354 C1286.34803,516.320388 1292.32401,522.173608 1295.39297,529.449647 L1450.47545,892.542106 C1453.63694,899.918398 1453.7179,908.089 1450.70678,915.542409 Z M1296.39924,529.025501 C1293.21848,521.487262 1287.02659,515.414257 1279.40047,512.360403 L912.984175,365.266429 C905.226966,362.162449 896.768062,362.251134 889.153506,365.505494 L526.029782,520.596555 C518.492335,523.769941 512.419967,529.966335 509.37029,537.589402 L362.272487,904.021051 C359.161122,911.744371 359.245942,920.20802 362.519237,927.858079 L517.601721,1290.9891 C520.77863,1298.52733 526.970517,1304.60034 534.596639,1307.65034 L901.012936,1454.75202 C904.667923,1456.22497 908.673758,1457 912.594772,1457 C916.882056,1457 921.018977,1456.144 924.893726,1454.46283 L1287.96733,1299.37177 C1295.50478,1296.19839 1301.57714,1290.00199 1304.62682,1282.37892 L1451.72462,915.947276 C1454.83984,908.227812 1454.75502,899.760307 1451.47787,892.114104 L1296.39924,529.025501 Z" id="Fill-67" fill="#FF4221"></path>
                    <path d="M1466.64461,917.212924 L1315.38014,1294.70803 C1312.3507,1302.29395 1306.32645,1308.44908 1298.84329,1311.60763 L925.46304,1471.38251 C921.60983,1473.05628 917.502563,1473.90858 913.252869,1473.90858 C909.361166,1473.90858 905.380927,1473.12955 901.75483,1471.6679 L524.944798,1320.12685 C517.376955,1317.09557 511.233376,1311.05999 508.073051,1303.56277 L348.590204,929.46147 C345.341344,921.852408 345.256658,913.433461 348.351544,905.751123 L499.616007,528.259872 C502.645453,520.681663 508.673552,514.518824 516.152859,511.360272 L889.579303,351.58539 C893.455609,349.927054 897.551328,349.094029 901.666294,349.094029 C905.573395,349.094029 909.492044,349.846066 913.24517,351.346281 L1290.0552,502.887333 C1297.62304,505.922473 1303.77047,511.958045 1306.9231,519.451409 L1466.4098,893.51029 C1469.65866,901.111639 1469.74334,909.534443 1466.64461,917.212924 Z M1307.92778,519.027183 C1304.66352,511.263857 1298.30053,505.012317 1290.45939,501.873048 L913.653202,350.331997 C905.677328,347.138736 896.977774,347.227437 889.152024,350.582675 L515.729429,510.353701 C507.980667,513.62795 501.740854,520.002902 498.603625,527.85493 L347.339162,905.346181 C344.136494,913.294623 344.22503,922.014385 347.589371,929.889552 L507.072218,1303.987 C510.336475,1311.75418 516.707167,1318.00572 524.540615,1321.14113 L901.350647,1472.68219 C905.103773,1474.19783 909.218739,1475 913.252869,1475 C917.652688,1475 921.906231,1474.1207 925.894168,1472.38523 L1299.27057,1312.61035 C1307.01548,1309.34381 1313.2553,1302.965 1316.39637,1295.11297 L1467.66084,917.617867 C1470.86351,909.669424 1470.77497,900.953519 1467.41063,893.078351 L1307.92778,519.027183 Z" id="Fill-69" fill="#FF4221"></path>
                    <path d="M1483.56957,915.899362 L1327.59741,1305.12532 C1324.47333,1312.94979 1318.2599,1319.3021 1310.53843,1322.5594 L925.529408,1487.30608 C921.556823,1489.02939 917.318114,1489.90651 912.932843,1489.90651 C908.917833,1489.90651 904.814114,1489.10667 901.072942,1487.59587 L512.527159,1331.34599 C504.720837,1328.2162 498.380129,1321.9914 495.124924,1314.25966 L330.671488,928.530572 C327.323717,920.675188 327.235009,911.989058 330.432361,904.067988 L486.404522,514.842034 C489.528594,507.025289 495.745881,500.669113 503.463495,497.40795 L888.518803,332.669002 C892.514529,330.953414 896.745525,330.099483 900.984234,330.099483 C905.014672,330.099483 909.060537,330.872271 912.932843,332.42171 L1301.47091,488.675453 C1309.28109,491.797514 1315.6218,498.030044 1318.877,505.761782 L1483.33044,891.444506 C1486.67821,899.296026 1486.76306,907.978292 1483.56957,915.899362 Z M1319.88365,505.336749 C1316.51659,497.334536 1309.95219,490.889489 1301.87974,487.655374 L913.337815,331.405494 C905.118808,328.11342 896.147708,328.20229 888.086833,331.660514 L503.039238,496.403327 C495.051643,499.776544 488.61837,506.3491 485.386306,514.43632 L329.414145,903.662274 C326.108801,911.849957 326.201366,920.83361 329.668699,928.959469 L494.118279,1314.6847 C497.485334,1322.68305 504.045884,1329.12423 512.122187,1332.36221 L900.664113,1488.61595 C904.536419,1490.17312 908.782842,1491 912.932843,1491 C917.468532,1491 921.849946,1490.09584 925.965235,1488.3107 L1310.96269,1323.56789 C1318.94643,1320.19853 1325.3797,1313.62984 1328.61177,1305.53489 L1484.58778,916.305076 C1487.88927,908.117393 1487.80056,899.13374 1484.32937,891.015609 L1319.88365,505.336749 Z" id="Fill-71" fill="#FF4221"></path>
                    <path d="M1499.50619,915.561896 L1339.08657,1315.18253 C1335.8771,1323.21476 1329.47744,1329.74239 1321.53477,1333.09494 L925.566107,1502.23079 C921.473259,1504.00545 917.110382,1504.9082 912.600919,1504.9082 C908.469495,1504.9082 904.249347,1504.08646 900.395665,1502.53171 L500.789343,1342.10708 C492.638363,1338.85098 486.281139,1332.62041 482.87879,1324.55732 L313.744992,928.524567 C310.30021,920.465335 310.207629,911.541925 313.49811,903.405534 L473.913869,503.784895 C477.127199,495.748811 483.522999,489.22118 491.469529,485.876348 L887.484482,316.732777 C891.600477,314.973557 895.947923,314.093947 900.314657,314.093947 C904.461512,314.093947 908.623796,314.888682 912.604776,316.482011 L1312.2111,476.906642 C1320.24249,480.116446 1326.77331,486.516765 1330.12165,494.460259 L1499.25931,890.439004 C1502.70023,898.498237 1502.79281,907.421647 1499.50619,915.561896 Z M1331.12847,494.032028 C1327.6644,485.822336 1320.92142,479.209831 1312.62,475.892004 L913.013675,315.467373 C904.569523,312.091677 895.350004,312.18041 887.052438,315.729713 L491.041342,484.869426 C482.828642,488.326138 476.21682,495.073672 472.895479,503.375954 L312.479719,902.996592 C309.085085,911.406897 309.177666,920.62351 312.74589,928.956656 L481.871972,1324.9817 C485.38619,1333.31484 491.959436,1339.7576 500.380444,1343.12558 L899.990624,1503.55021 C903.971604,1505.15125 908.330623,1506 912.600919,1506 C917.260826,1506 921.770289,1505.07024 925.998152,1503.23386 L1321.96296,1334.098 C1330.1718,1330.63743 1336.77976,1323.89376 1340.10496,1315.58762 L1500.52458,915.966979 C1503.91536,907.560533 1503.81892,898.340061 1500.25841,890.010773 L1331.12847,494.032028 Z" id="Fill-73" fill="#FF4221"></path>
                    <path d="M1515.43863,917.249134 L1350.71457,1328.604 C1347.41083,1336.87863 1340.84192,1343.5996 1332.68089,1347.04704 L926.082686,1521.15448 C921.888448,1522.98255 917.408941,1523.90625 912.767523,1523.90625 C908.519315,1523.90625 904.182443,1523.05985 900.227215,1521.46367 L489.89352,1356.32654 C481.636115,1353.01823 474.932273,1346.43253 471.493615,1338.25452 L297.818246,930.594447 C294.279358,922.292758 294.182983,913.106019 297.559962,904.723169 L462.28788,493.364442 C465.583903,485.093672 472.156675,478.372705 480.317705,474.925263 L886.969877,300.817824 C891.194954,299.005212 895.666752,298.096973 900.150115,298.096973 C904.409887,298.096973 908.681225,298.91632 912.775233,300.55888 L1323.10893,465.692146 C1331.36248,469.000454 1338.06246,475.586151 1341.50498,483.76803 L1515.1842,891.377856 C1518.72309,899.679545 1518.81561,908.866284 1515.43863,917.249134 Z M1342.51113,483.339032 C1338.96068,474.894344 1332.0371,468.092215 1323.51756,464.675692 L913.180008,299.542425 C904.506262,296.060199 895.046097,296.160685 886.538117,299.8091 L479.893656,473.920403 C471.462775,477.476061 464.677979,484.417324 461.27016,492.958633 L296.542242,904.313495 C293.061179,912.966885 293.157554,922.455081 296.815947,931.023444 L470.491316,1338.67965 C474.037914,1347.1282 480.96149,1353.92647 489.484891,1357.34685 L899.82244,1522.48399 C903.897173,1524.12654 908.37668,1525 912.767523,1525 C917.559285,1525 922.185283,1524.04538 926.514446,1522.15934 L1333.10494,1348.05577 C1341.53196,1344.49624 1348.31676,1337.55498 1351.72843,1329.0098 L1516.45635,917.654943 C1519.93741,909.005418 1519.84489,899.517222 1516.18265,890.944994 L1342.51113,483.339032 Z" id="Fill-75" fill="#FF4221"></path>
                    <path d="M1534.36807,917.908009 L1365.06984,1339.65738 C1361.67029,1348.14747 1354.91364,1355.03989 1346.52475,1358.57485 L928.631254,1537.08298 C924.309468,1538.95852 919.705995,1539.90786 914.940455,1539.90786 C910.576224,1539.90786 906.119382,1539.03956 902.048415,1537.39943 L480.311616,1368.09148 C471.826253,1364.6993 464.93069,1357.9381 461.396087,1349.5522 L282.894774,931.5925 C279.252126,923.079249 279.159516,913.655243 282.628521,905.057091 L451.930606,483.307723 C455.322435,474.821486 462.079084,467.925213 470.471837,464.390246 L888.419356,285.885981 C892.768152,284.025878 897.360049,283.095827 901.97124,283.095827 C906.350907,283.095827 910.749867,283.937118 914.95589,285.615842 L1336.68883,454.923789 C1345.17419,458.319827 1352.06976,465.077172 1355.60436,473.46693 L1534.10567,891.372601 C1537.74446,899.88971 1537.84093,909.313717 1534.36807,917.908009 Z M1356.61149,473.038566 C1352.96112,464.382527 1345.84947,457.409071 1337.094,453.908836 L915.361057,284.600889 C906.451234,281.042767 896.731075,281.135387 887.987177,284.878747 L470.047376,463.386871 C461.392229,467.029894 454.415632,474.142278 450.915758,482.898654 L281.613673,904.648023 C278.036624,913.516314 278.133092,923.241333 281.891502,932.020864 L460.388957,1349.9767 C464.035464,1358.63274 471.147116,1365.6062 479.90259,1369.11029 L901.639389,1538.41824 C905.833836,1540.10854 910.437309,1541 914.940455,1541 C919.856486,1541 924.606591,1540.01978 929.067291,1538.08635 L1346.95307,1359.58209 C1355.60822,1355.93907 1362.5771,1348.82282 1366.08855,1340.06645 L1535.38677,918.313218 C1538.96382,909.452646 1538.86735,899.731486 1535.10509,890.944237 L1356.61149,473.038566 Z" id="Fill-77" fill="#FF4221"></path>
                    <path d="M1550.30285,918.077813 L1376.69606,1350.55792 C1373.21768,1359.26638 1366.28405,1366.33959 1357.67679,1369.9649 L929.153121,1553.01216 C924.722232,1554.9328 919.998264,1555.90855 915.104619,1555.90855 C910.619741,1555.90855 906.046169,1555.01765 901.877508,1553.33998 L469.412704,1379.72238 C460.709034,1376.24362 453.636579,1369.31311 450.0078,1360.70493 L266.968503,932.112388 C263.231748,923.373078 263.135341,913.708158 266.698562,904.887858 L440.301492,472.407749 C443.787588,463.70315 450.717359,456.62994 459.324622,453.004631 L887.902276,269.953511 C892.364015,268.048295 897.076414,267.091831 901.804239,267.091831 C906.300685,267.091831 910.8087,267.955734 915.1239,269.679685 L1347.5887,443.297287 C1356.28852,446.776041 1363.36097,453.706552 1366.99361,462.31859 L1550.03676,890.853283 C1553.7658,899.588736 1553.86607,909.257513 1550.30285,918.077813 Z M1368.0001,461.890495 C1364.25563,453.016201 1356.96337,445.869714 1347.99362,442.279115 L915.532668,268.665369 C906.404805,265.01692 896.436268,265.117194 887.474226,268.946909 L458.896572,451.998029 C450.027082,455.735183 442.877501,463.028225 439.287285,471.998937 L265.680499,904.482903 C262.013157,913.569317 262.109565,923.53506 265.965865,932.540483 L449.001306,1361.12917 C452.745773,1370.00346 460.034181,1377.14995 469.007792,1380.74055 L901.46874,1554.3543 C905.764659,1556.08596 910.480914,1557 915.104619,1557 C920.148659,1557 925.019167,1555.9934 929.585026,1554.0149 L1358.10098,1370.9715 C1366.97433,1367.23434 1374.12391,1359.9413 1377.71412,1350.96288 L1551.32091,918.482768 C1554.98825,909.392498 1554.88799,899.426754 1551.03554,890.425188 L1368.0001,461.890495 Z" id="Fill-79" fill="#FF4221"></path>
                    <path d="M1565.24281,916.257033 L1387.46202,1360.13193 C1383.89593,1369.07606 1376.7907,1376.33713 1367.9756,1380.05838 L929.150039,1567.93133 C924.609628,1569.9039 919.772684,1570.90756 914.762442,1570.90756 C910.175818,1570.90756 905.492917,1569.99655 901.210527,1568.26717 L458.356743,1390.07564 C449.437665,1386.50108 442.193802,1379.3867 438.47752,1370.55066 L251.034394,930.655647 C247.210282,921.68064 247.114005,911.756019 250.760968,902.707668 L428.537908,458.828911 C432.103999,449.892506 439.205372,442.631436 448.024322,438.906325 L886.899951,251.033371 C891.471171,249.076241 896.300413,248.095745 901.145059,248.095745 C905.747087,248.095745 910.368371,248.979735 914.789399,250.751575 L1357.64703,428.943102 C1366.56226,432.517664 1373.80612,439.632046 1377.52241,448.471946 L1564.96553,888.305194 C1568.78964,897.272481 1568.88977,907.200962 1565.24281,916.257033 Z M1378.52754,448.043461 C1374.69957,438.941067 1367.2362,431.606653 1358.0514,427.927865 L915.193762,249.736338 C905.843364,245.991926 895.649582,246.092292 886.472482,250.025854 L447.596853,437.898808 C438.512179,441.735865 431.195146,449.216968 427.521226,458.419728 L249.744286,902.302345 C245.989492,911.617051 246.08962,921.838909 250.033116,931.087991 L437.47239,1370.97528 C441.296503,1380.07768 448.763727,1387.41209 457.95238,1391.09474 L900.806165,1569.28627 C905.211789,1571.06197 910.037179,1572 914.762442,1572 C919.922876,1572 924.910011,1570.96932 929.581359,1568.93499 L1368.40307,1381.06589 C1377.4839,1377.2327 1384.80478,1369.75159 1388.4787,1360.54111 L1566.25949,916.662356 C1570.01043,907.336069 1569.91031,897.114212 1565.96296,887.87285 L1378.52754,448.043461 Z" id="Fill-81" fill="#FF4221"></path>
                    <path d="M1581.16858,916.423153 L1398.67542,1371.02991 C1395.01468,1380.18848 1387.72406,1387.63029 1378.67057,1391.44572 L928.21423,1583.86051 C923.550546,1585.88203 918.578264,1586.90822 913.440111,1586.90822 C908.733995,1586.90822 903.923727,1585.97462 899.526208,1584.20386 L444.934659,1401.70378 C435.645866,1397.98866 428.393817,1390.88247 424.520915,1381.6969 L232.11405,931.175623 C228.191,921.986192 228.082991,911.816864 231.828597,902.534845 L414.321758,447.931947 C417.982499,438.77338 425.27698,431.335419 434.32661,427.519993 L884.836953,235.105202 C889.52764,233.099113 894.480634,232.096068 899.456774,232.096068 C904.186035,232.096068 908.926868,233.002666 913.470971,234.81972 L1368.06252,417.315944 C1377.22016,420.977056 1384.66122,428.268418 1388.47626,437.322823 L1580.88699,887.790092 C1584.81004,896.975664 1584.91419,907.144992 1581.16858,916.423153 Z M1389.48306,436.898458 C1385.55616,427.577861 1377.89907,420.070459 1368.46755,416.301326 L913.879863,233.805102 C904.282472,229.966528 893.817149,230.07069 884.408774,234.098299 L433.902288,426.51309 C424.582635,430.440395 417.075993,438.098254 413.303385,447.526872 L230.814081,902.12977 C226.960466,911.677981 227.068476,922.144365 231.114964,931.607703 L423.517972,1382.12127 C427.502741,1391.58075 434.963093,1398.89526 444.529624,1402.72226 L899.121174,1585.21848 C903.642131,1587.03939 908.595126,1588 913.440111,1588 C918.728706,1588 923.851429,1586.9468 928.650125,1584.86356 L1379.09489,1392.45262 C1388.41454,1388.52532 1395.92504,1380.86746 1399.69379,1371.43498 L1582.18696,916.828229 C1586.03671,907.280017 1585.93256,896.813634 1581.88993,887.361869 L1389.48306,436.898458 Z" id="Fill-83" fill="#FF4221"></path>
                    <path d="M1597.10515,917.097355 L1410.44557,1382.76646 C1406.64319,1392.28905 1399.36974,1399.72037 1389.96972,1403.68683 L929.2189,1600.7866 C924.453402,1602.85472 919.36815,1603.90807 914.101831,1603.90807 C909.282399,1603.90807 904.35895,1602.95118 899.863125,1601.13772 L434.87459,1414.19717 C425.505397,1410.44292 417.892929,1402.97302 413.990383,1393.69351 L217.187267,932.206936 C213.165294,922.792386 213.057425,912.366929 216.890627,902.863636 L403.557911,437.190671 C407.302506,427.810846 414.764728,420.186604 424.026051,416.274164 L884.834663,219.178246 C889.630981,217.121707 894.708528,216.091508 899.797633,216.091508 C904.636328,216.091508 909.490432,217.025246 914.136504,218.885006 L1379.12119,405.821699 C1388.49038,409.572085 1396.10285,417.045849 1400.00925,426.325354 L1596.81621,887.757913 C1600.83433,897.176321 1600.93835,907.594061 1597.10515,917.097355 Z M1401.01474,425.897069 C1396.99662,416.355191 1389.16456,408.665356 1379.5257,404.806934 L914.541012,217.866382 C904.728787,213.942367 894.030495,214.050403 884.40704,218.171198 L423.60228,415.267116 C414.071285,419.29145 406.397177,427.135623 402.54086,436.785536 L215.877429,902.454643 C211.936358,912.231885 212.04808,922.950581 216.185626,932.635221 L412.98489,1394.1218 C417.00301,1403.66368 424.831216,1411.35351 434.470081,1415.21579 L899.454764,1602.15634 C904.07772,1604.0161 909.14371,1605 914.101831,1605 C919.518396,1605 924.753894,1603.91964 929.650376,1601.78979 L1390.39735,1404.69387 C1400.06703,1400.61166 1407.54466,1392.97199 1411.46262,1383.17545 L1598.1222,917.502489 C1602.05942,907.732964 1601.9554,897.014268 1597.81785,887.32577 L1401.01474,425.897069 Z" id="Fill-85" fill="#FF4221"></path>
                    <path d="M1614.03601,917.781002 L1422.93379,1395.18814 C1419.09611,1404.80653 1411.45926,1412.628 1401.96907,1416.63921 L930.253261,1618.70283 C925.371383,1620.82823 920.161991,1621.90639 914.771504,1621.90639 C909.831829,1621.90639 904.795827,1620.92484 900.187519,1619.06608 L424.144674,1427.41305 C414.546601,1423.56415 406.751779,1415.90112 402.752261,1406.38706 L201.262083,933.273229 C197.143119,923.612324 197.035232,912.923499 200.965394,903.177578 L392.06376,425.770443 C395.963098,416.005201 403.411141,408.388544 413.036186,404.31937 L884.805942,202.255751 C889.722498,200.149673 894.916478,199.090838 900.129723,199.090838 C905.08481,199.090838 910.055309,200.0492 914.810035,201.95433 L1390.86059,393.603495 C1400.45866,397.456264 1408.25348,405.119293 1412.24915,414.633352 L1613.73932,887.689216 C1617.85444,897.346256 1617.96618,908.035081 1614.03601,917.781002 Z M1413.25481,414.204408 C1409.1474,404.423708 1401.13295,396.548139 1391.26901,392.587168 L915.218464,200.938003 C905.177284,196.915202 894.226773,197.027269 884.378248,201.251016 L412.608492,403.310772 C402.71373,407.495876 395.057619,415.325073 391.050395,425.364685 L199.948176,902.767956 C195.91398,912.784382 196.021867,923.770763 200.260277,933.702173 L401.746602,1406.816 C405.85786,1416.5967 413.876162,1424.47227 423.736245,1428.43324 L899.782944,1620.08241 C904.510698,1621.9914 909.696971,1623 914.771504,1623 C920.312262,1623 925.668072,1621.89093 930.684809,1619.70756 L1402.39292,1417.64781 C1412.14897,1413.52067 1420.00544,1405.4828 1423.95101,1395.59389 L1615.05323,918.18676 C1619.08743,908.174198 1618.97569,897.187817 1614.74113,887.260271 L1413.25481,414.204408 Z" id="Fill-87" fill="#FF4221"></path>
                    <path d="M1632.96718,917.448512 L1437.15243,1405.24943 C1433.21623,1415.0794 1425.38626,1423.07227 1415.65765,1427.17099 L932.318392,1633.63499 C927.317093,1635.80784 921.976199,1636.90778 916.450073,1636.90778 C911.38703,1636.90778 906.215933,1635.90433 901.504062,1634.00549 L413.72306,1438.1858 C403.886401,1434.24918 395.898215,1426.41454 391.796069,1416.68878 L185.341989,933.276029 C181.120213,923.40361 181.012161,912.481427 185.037126,902.516382 L380.84801,414.715463 C384.780359,404.881638 392.614183,396.892621 402.338931,392.793908 L885.739937,186.329907 C890.779826,184.172486 896.105283,183.095706 901.446176,183.095706 C906.524656,183.095706 911.618571,184.072141 916.496381,186.021153 L1404.27738,381.844708 C1414.11404,385.777466 1422.10223,393.608247 1426.20437,403.334008 L1632.66231,886.688864 C1636.88023,896.557424 1636.98828,907.483467 1632.96718,917.448512 Z M1427.21158,402.905611 C1422.99752,392.91355 1414.78937,384.866641 1404.68644,380.825819 L916.901579,185.006123 C906.617272,180.891972 895.399081,181.003895 885.311585,185.322596 L401.914438,391.782737 C391.919558,395.997234 383.869628,404.206238 379.829227,414.310223 L184.018343,902.107282 C179.889184,912.342487 179.997237,923.565706 184.338642,933.704425 L390.788863,1417.11717 C394.999062,1427.10923 403.211071,1435.15614 413.314004,1439.20083 L901.098864,1635.02438 C905.938084,1636.97339 911.248105,1638 916.450073,1638 C922.126701,1638 927.614238,1636.86919 932.754462,1634.63844 L1416.086,1428.1783 C1426.08088,1423.96766 1434.12696,1415.75865 1438.16736,1405.65467 L1633.98596,917.853752 C1638.11126,907.618547 1637.99935,896.399187 1633.66566,886.260468 L1427.21158,402.905611 Z" id="Fill-89" fill="#FF4221"></path>
                    <path d="M1646.90366,917.611793 L1446.9148,1416.1426 C1442.89475,1426.19862 1434.89705,1434.36455 1424.96062,1438.55745 L931.32304,1649.56409 C926.20451,1651.78204 920.750653,1652.90838 915.107936,1652.90838 C909.943153,1652.90838 904.662741,1651.88233 899.840993,1649.93825 L401.663029,1449.81309 C391.618684,1445.79377 383.455244,1437.78599 379.261749,1427.83798 L168.407575,933.789367 C164.098451,923.698634 163.986675,912.531711 168.095376,902.344545 L368.084234,403.817594 C372.104285,393.761577 380.10199,385.591786 390.038414,381.402743 L883.737663,170.399964 C888.887029,168.19358 894.325468,167.094246 899.787032,167.094246 C904.974941,167.094246 910.178266,168.089433 915.161896,170.083664 L1413.33601,370.212676 C1423.38806,374.231997 1431.54765,382.23978 1435.73729,392.183935 L1646.59146,886.170828 C1650.90058,896.261561 1651.01236,907.424627 1646.90366,917.611793 Z M1436.74326,391.755774 C1432.44185,381.549321 1424.06256,373.325528 1413.74456,369.198202 L915.570454,169.065333 C905.075153,164.868576 893.620128,164.984295 883.309834,169.393205 L389.61444,380.395984 C379.412067,384.696889 371.198521,393.086547 367.066695,403.408719 L167.081691,901.939527 C162.86507,912.392847 162.976845,923.860641 167.409307,934.221386 L378.259627,1428.26614 C382.564897,1438.47645 390.948033,1446.70024 401.254472,1450.82757 L899.432435,1650.95658 C904.385231,1652.95081 909.804398,1654 915.107936,1654 C920.900972,1654 926.501292,1652.84281 931.754724,1650.56699 L1425.38459,1439.56035 C1435.58697,1435.25945 1443.80437,1426.86979 1447.93234,1416.55148 L1647.9212,918.016811 C1652.13396,907.567348 1652.02219,896.103411 1647.59358,885.738809 L1436.74326,391.755774 Z" id="Fill-91" fill="#FF4221"></path>
                    <path d="M1663.82764,917.79229 L1459.13057,1427.72356 C1455.01587,1438.01143 1446.82119,1446.36913 1436.65408,1450.65413 L931.386467,1666.48337 C926.152373,1668.75327 920.563164,1669.90752 914.784817,1669.90752 C909.485104,1669.90752 904.081172,1668.8575 899.155874,1666.86941 L389.244742,1462.16961 C378.957973,1458.05446 370.601178,1449.86276 366.312772,1439.68683 L150.487462,934.337821 C146.075537,924.015201 145.963599,912.592376 150.167086,902.165526 L354.868017,392.23812 C358.978865,381.950243 367.173542,373.592549 377.344513,369.303682 L882.673883,153.474445 C887.942716,151.219991 893.516486,150.092764 899.105695,150.092764 C904.416988,150.092764 909.747581,151.1119 914.846576,153.150174 L1424.75385,357.857695 C1435.04448,361.972845 1443.39741,370.164543 1447.68582,380.336609 L1663.50727,885.619995 C1667.92305,895.946475 1668.03885,907.3693 1663.82764,917.79229 Z M1448.69327,379.911969 C1444.29292,369.473538 1435.71611,361.065659 1425.163,356.842418 L915.251871,152.134898 C904.513487,147.84217 892.783095,147.961841 882.245428,152.47075 L376.919918,368.299986 C366.48261,372.696944 358.071777,381.274678 353.84899,391.828921 L149.151918,901.760187 C144.836493,912.453403 144.956152,924.177336 149.487734,934.766322 L365.305325,1440.11533 C369.70181,1450.55376 378.278621,1458.9655 388.839448,1463.18488 L898.74672,1667.88854 C903.803256,1669.92296 909.346146,1671 914.784817,1671 C920.713702,1671 926.449589,1669.82259 931.818781,1667.48707 L1437.07867,1451.66169 C1447.51598,1447.26087 1455.92681,1438.687 1460.14574,1428.1289 L1664.84667,918.197628 C1669.1621,907.508273 1669.0463,895.78434 1664.51086,885.191494 L1448.69327,379.911969 Z" id="Fill-93" fill="#FF4221"></path>
                    <path d="M1679.76504,917.963683 L1470.89759,1438.61809 C1466.69903,1449.12424 1458.33662,1457.66266 1447.95397,1462.04183 L932.387746,1682.41248 C927.051843,1684.73132 921.349675,1685.9081 915.447024,1685.9081 C910.045579,1685.9081 904.524616,1684.83549 899.489435,1682.80217 L379.184894,1473.79807 C368.682726,1469.59252 360.154533,1461.22387 355.77863,1450.83347 L135.560814,934.859178 C131.053827,924.310586 130.934309,912.639229 135.233104,901.998038 L344.100559,381.34363 C348.299113,370.837479 356.661522,362.299062 367.044172,357.92375 L882.672087,137.553098 C888.0504,135.249693 893.737146,134.096062 899.44317,134.096062 C904.867748,134.096062 910.303892,135.137802 915.508711,137.221284 L1435.81325,346.233101 C1446.31157,350.43479 1454.84361,358.803442 1459.21952,369.193843 L1679.44119,885.102544 C1683.94432,895.651135 1684.05998,907.318634 1679.76504,917.963683 Z M1460.22578,368.765572 C1455.73807,358.108948 1446.98626,349.528089 1436.21807,345.218369 L915.917386,136.206552 C904.956423,131.815806 892.996906,131.939272 882.244135,136.546082 L366.61622,356.912875 C355.971401,361.403936 347.393089,370.162277 343.082727,380.938508 L134.215272,901.592917 C129.812381,912.504189 129.935755,924.472635 134.558405,935.287449 L354.772365,1451.26174 C359.260076,1461.91451 368.008027,1470.49922 378.780074,1474.8128 L899.084616,1683.82076 C904.247025,1685.90038 909.902928,1687 915.447024,1687 C921.500036,1687 927.34871,1685.79621 932.823409,1683.41564 L1448.37807,1463.04499 C1459.02675,1458.55393 1467.60891,1449.8033 1471.91542,1439.02707 L1680.78287,918.368804 C1685.18577,907.453674 1685.06625,895.489087 1680.4436,884.674272 L1460.22578,368.765572 Z" id="Fill-95" fill="#FF4221"></path>
                    <path d="M1695.70198,917.631311 L1482.52626,1449.35502 C1478.23731,1460.08628 1469.70181,1468.80711 1459.10468,1473.27943 L932.905137,1698.33474 C927.448579,1700.70789 921.629791,1701.90797 915.610621,1701.90797 C910.092406,1701.90797 904.46244,1700.81207 899.321868,1698.73605 L368.290039,1485.28407 C357.569597,1480.99312 348.860683,1472.44593 344.394474,1461.83044 L119.631269,934.887751 C115.034041,924.110194 114.910729,912.190439 119.299868,901.320271 L332.471739,369.600416 C336.760687,358.865305 345.29234,350.148333 355.893324,345.676014 L882.158371,120.620699 C887.649611,118.270705 893.452985,117.093779 899.275626,117.093779 C904.813109,117.093779 910.362151,118.154942 915.679984,120.284986 L1446.71181,333.740824 C1457.4284,338.031781 1466.13732,346.578967 1470.60738,357.190597 L1695.36673,884.067689 C1699.96396,894.841388 1700.08727,906.761143 1695.70198,917.631311 Z M1471.61314,356.762273 C1467.03133,345.888246 1458.10276,337.124969 1447.11643,332.722107 L916.088455,119.270128 C904.905593,114.793949 892.701552,114.91743 881.730632,119.613559 L355.469439,344.668873 C344.606417,349.253098 335.85126,358.19002 331.458268,369.195245 L118.282543,900.915099 C113.78936,912.055382 113.912672,924.272262 118.629358,935.316075 L343.38871,1462.25877 C347.970524,1473.13665 356.895234,1481.89993 367.885422,1486.30279 L898.913397,1699.75477 C904.181134,1701.8771 909.95368,1703 915.610621,1703 C921.780077,1703 927.745298,1701.76905 933.33673,1699.33802 L1459.52856,1474.28657 C1470.39158,1469.69848 1479.14674,1460.76156 1483.53973,1449.7602 L1696.71931,918.036482 C1701.21249,906.8962 1701.08533,894.679319 1696.36864,883.635506 L1471.61314,356.762273 Z" id="Fill-97" fill="#FF4221"></path>
                    <path d="M1712.63416,919.812518 L1494.88031,1462.93238 C1490.4994,1473.89935 1481.77999,1482.80808 1470.95111,1487.38408 L933.456023,1717.26181 C927.883468,1719.68303 921.936839,1720.90716 915.785818,1720.90716 C910.15156,1720.90716 904.397753,1719.7873 899.145282,1717.66727 L356.7101,1499.64083 C345.761669,1495.2579 336.861007,1486.52295 332.294983,1475.67569 L102.709582,937.436901 C98.0085828,926.435177 97.8890332,914.255662 102.366359,903.145813 L320.120204,360.022093 C324.501119,349.058985 333.224385,340.150253 344.053266,335.578108 L881.610053,105.700387 C887.221172,103.298466 893.152376,102.097506 899.102861,102.097506 C904.760258,102.097506 910.429224,103.182618 915.862947,105.356704 L1458.29427,323.387009 C1469.24656,327.769935 1478.13951,336.504895 1482.70553,347.348293 L1712.29479,885.52143 C1716.99193,896.527015 1717.11148,908.702669 1712.63416,919.812518 Z M1483.71206,346.919654 C1479.03806,335.809805 1469.91758,326.862457 1458.6992,322.371406 L916.267873,104.3411 C904.848956,99.7689553 892.384944,99.8925268 881.178132,104.692507 L343.629058,334.570228 C332.530226,339.25436 323.594856,348.379342 319.102104,359.616624 L101.352116,902.736483 C96.7629529,914.116644 96.8902154,926.593503 101.706908,937.869401 L331.292309,1476.10432 C335.966313,1487.21803 345.082936,1496.16538 356.305174,1500.6603 L898.7365,1718.68674 C904.120089,1720.8531 910.012728,1722 915.785818,1722 C922.08724,1722 928.180414,1720.74498 933.887944,1718.26582 L1471.37531,1488.3881 C1482.47029,1483.70397 1491.40952,1474.57513 1495.89841,1463.34171 L1713.65226,920.217987 C1718.23371,908.841687 1718.1103,896.368689 1713.29746,885.092791 L1483.71206,346.919654 Z" id="Fill-99" fill="#FF4221"></path>
                    <path d="M1728.56634,919.980383 L1506.50794,1473.82962 C1502.03663,1485.01877 1493.14412,1494.1044 1482.0969,1498.76686 L933.97202,1733.18315 C928.286517,1735.65333 922.223265,1736.90772 915.948012,1736.90772 C910.200836,1736.90772 904.330313,1735.76526 898.968595,1733.60385 L345.813494,1511.26829 C334.639071,1506.79495 325.565394,1497.88686 320.909064,1486.82509 L86.7781283,937.950947 C81.9868876,926.727064 81.8635411,914.302827 86.4350708,902.974733 L308.493467,349.121637 C312.960923,337.93635 321.861145,328.850717 332.904511,324.188251 L881.094916,89.768108 C886.81511,87.3210853 892.862943,86.0937143 898.933904,86.0937143 C904.704207,86.0937143 910.489929,87.2014359 916.028958,89.4207389 L1469.18791,311.756295 C1480.35848,316.229638 1489.43601,325.133867 1494.09234,336.199504 L1728.21942,885.000309 C1733.01067,896.228052 1733.13787,908.648429 1728.56634,919.980383 Z M1495.09839,335.771082 C1490.33028,324.442988 1481.03689,315.318758 1469.59264,310.741205 L916.437543,88.4017894 C904.792863,83.7431831 892.088173,83.8744114 880.663203,88.7645971 L332.480508,323.18088 C321.16732,327.951417 312.055098,337.26091 307.475859,348.716373 L85.4174622,902.565609 C80.7418588,914.163879 80.8652053,926.885309 85.7797925,938.383228 L319.903019,1487.25351 C324.671132,1498.57774 333.96452,1507.70197 345.404908,1512.28724 L898.563864,1734.61894 C904.052784,1736.83438 910.062071,1738 915.948012,1738 C922.373594,1738 928.583319,1736.71859 934.407587,1734.18666 L1482.5209,1499.77424 C1493.83409,1494.99598 1502.94631,1485.69035 1507.52169,1474.23874 L1729.58395,920.385647 C1734.25955,908.791236 1734.13235,896.069806 1729.22162,884.571887 L1495.09839,335.771082 Z" id="Fill-101" fill="#FF4221"></path>
                    <path d="M1745.4973,918.162994 L1518.99947,1483.4113 C1514.43891,1494.82843 1505.36404,1504.10195 1494.09177,1508.86424 L935.008024,1748.11026 C929.20612,1750.62851 923.014853,1751.90695 916.615412,1751.90695 C910.744117,1751.90695 904.753314,1750.74052 899.294514,1748.53511 L335.075796,1521.62547 C323.676309,1517.06016 314.412539,1507.96431 309.666929,1496.67464 L70.8559608,936.50533 C65.9638576,925.045715 65.8366398,912.365595 70.501293,900.797834 L297.002974,335.545663 C301.559685,324.128534 310.638411,314.851151 321.906825,310.092727 L881.05996,70.8505729 C886.896559,68.3477652 893.072406,67.0963613 899.263673,67.0963613 C905.150388,67.0963613 911.052524,68.2280321 916.704079,70.4913737 L1480.92665,297.404882 C1492.32228,301.970189 1501.5822,311.062179 1506.33552,322.355712 L1745.14263,882.455498 C1750.03473,893.918975 1750.16195,906.599095 1745.4973,918.162994 Z M1507.3417,321.92699 C1502.47658,310.370817 1492.99692,301.062535 1481.33529,296.389082 L917.108863,69.479436 C905.239055,64.7171491 892.282113,64.8484692 880.628191,69.8424976 L321.47891,309.088514 C309.944495,313.955084 300.65374,323.448759 295.985231,335.140116 L69.4835504,900.388424 C64.7148099,912.230413 64.8458828,925.207934 69.8536386,936.934052 L308.660752,1497.10336 C313.522014,1508.65953 322.997814,1517.96782 334.667157,1522.64513 L898.88973,1749.55478 C904.475748,1751.81039 910.605334,1753 916.615412,1753 C923.165202,1753 929.502962,1751.69452 935.439793,1749.11447 L1494.51583,1509.87231 C1506.05795,1504.99802 1515.34871,1495.50434 1520.01722,1483.81685 L1746.51504,918.568542 C1751.28378,906.734278 1751.15656,893.756756 1746.14495,882.026776 L1507.3417,321.92699 Z" id="Fill-103" fill="#FF4221"></path>
                    <path d="M1761.42991,918.328389 L1530.35462,1494.30512 C1525.70209,1505.94441 1516.43948,1515.39868 1504.93934,1520.25128 L934.557805,1764.03545 C928.63992,1766.60265 922.320822,1767.90749 915.789544,1767.90749 C909.806076,1767.90749 903.6953,1766.72233 898.116902,1764.47168 L322.496454,1533.2533 C310.865147,1528.59759 301.417363,1519.33249 296.568092,1507.82059 L52.9356154,937.020735 C47.9436052,925.338983 47.8162973,912.418025 52.572981,900.62818 L283.648275,324.647584 C288.29694,313.016018 297.55955,303.557892 309.059691,298.709154 L879.514527,54.9249807 C885.47099,52.3732168 891.766941,51.0954046 898.086039,51.0954046 C904.092655,51.0954046 910.114701,52.2496821 915.882132,54.558237 L1491.50258,285.776614 C1503.13774,290.432329 1512.58553,299.697432 1517.43094,311.205463 L1761.06728,881.935834 C1766.05543,893.617586 1766.18274,906.538544 1761.42991,918.328389 Z M1518.43783,310.780812 C1513.48054,299.00641 1503.81286,289.525121 1491.91151,284.761313 L916.29106,53.5429361 C904.185242,48.6941986 890.972232,48.8254543 879.082452,53.9174007 L308.635331,297.701574 C296.865143,302.666126 287.386496,312.336577 282.629813,324.242235 L51.5545183,900.222832 C46.6898159,912.279048 46.8209815,925.497262 51.932584,937.449246 L295.561202,1508.24911 C300.52235,1520.01965 310.19003,1529.5048 322.087526,1534.27246 L897.707974,1765.48698 C903.417537,1767.78782 909.667195,1769 915.789544,1769 C922.471277,1769 928.936972,1767.672 934.98988,1765.03917 L1505.3637,1521.25886 C1517.13003,1516.29816 1526.60868,1506.61999 1531.36922,1494.71433 L1762.44837,918.733737 C1767.30922,906.677521 1767.17805,893.459307 1762.07031,881.507323 L1518.43783,310.780812 Z" id="Fill-105" fill="#FF4221"></path>
                    <path d="M1777.36207,918.495512 L1541.97864,1505.20211 C1537.23959,1517.05972 1527.80003,1526.69089 1516.08543,1531.63381 L935.074765,1779.96061 C929.047796,1782.58063 922.615944,1783.90415 915.95273,1783.90415 C909.852496,1783.90415 903.625013,1782.69639 897.948942,1780.40436 L311.597685,1544.88053 C299.748115,1540.13826 290.123473,1530.6923 285.180047,1518.96975 L37.0061767,937.537913 C31.9239337,925.63786 31.7889728,912.468313 36.6359982,900.456358 L272.019428,313.749759 C276.758485,301.892151 286.194182,292.260979 297.912647,287.318058 L878.992715,38.9912578 C885.065957,36.3943914 891.486241,35.0940289 897.921949,35.0940289 C904.041464,35.0940289 910.176402,36.2670562 916.052986,38.6208282 L1502.40039,274.144652 C1514.25381,278.886924 1523.87845,288.332881 1528.81803,300.055437 L1776.9919,881.417816 C1782.07799,893.31787 1782.2091,906.483558 1777.36207,918.495512 Z M1529.82445,299.627127 C1524.77305,287.638325 1514.92476,277.980143 1502.80913,273.133688 L916.457869,37.6021465 C904.137864,32.6708013 890.680332,32.8058538 878.564696,37.9880108 L297.488484,286.310952 C285.503953,291.365774 275.848463,301.216888 271.005293,313.340743 L35.6218632,900.051201 C30.663013,912.329401 30.80183,925.796064 36.0036098,937.966223 L284.17748,1519.39806 C289.225019,1531.38686 299.073311,1541.04504 311.188946,1545.89921 L897.540203,1781.42304 C903.347379,1783.76138 909.713679,1785 915.95273,1785 C922.766329,1785 929.34471,1783.64176 935.510496,1780.96386 L1516.51344,1532.64092 C1528.49412,1527.58996 1538.14575,1517.73498 1542.99663,1505.60727 L1778.38006,918.90067 C1783.33506,906.622469 1783.2001,893.155807 1777.99446,880.985648 L1529.82445,299.627127 Z" id="Fill-107" fill="#FF4221"></path>
                    <path d="M1793.29997,920.676473 L1553.60718,1518.7768 C1548.78156,1530.87009 1539.16887,1540.69299 1527.23974,1545.73186 L935.596909,1798.88004 C929.453114,1801.552 922.90076,1802.90342 916.121002,1802.90342 C909.915537,1802.90342 903.571318,1801.67169 897.778266,1799.33567 L300.70084,1559.23449 C288.632946,1554.40026 278.827542,1544.77428 273.797647,1532.81614 L21.0772291,940.082879 C15.9008699,927.95098 15.7659685,914.521716 20.7033595,902.27398 L260.392303,304.173651 C265.217919,292.084225 274.830607,282.261324 286.763598,277.222455 L878.479658,24.0742699 C884.665851,21.4216235 891.198932,20.0972309 897.75514,20.0972309 C903.987585,20.0972309 910.239301,21.298065 916.221214,23.6920108 L1513.30249,263.793191 C1525.37039,268.631278 1535.17579,278.261118 1540.20954,290.215402 L1792.92225,882.867575 C1798.10246,894.999474 1798.23737,908.424877 1793.29997,920.676473 Z M1541.21552,289.786809 C1536.07385,277.566102 1526.04875,267.723895 1513.71105,262.777695 L916.629773,22.6765145 C904.068526,17.6415059 890.370252,17.7843704 878.051828,23.0664959 L286.339623,276.214681 C274.136828,281.365525 264.316006,291.408514 259.374761,303.768225 L19.6858176,901.868554 C14.6405054,914.386574 14.7792612,928.11315 20.0751045,940.515334 L272.791668,1533.24087 C277.933339,1545.46544 287.958439,1555.30764 300.296136,1560.25384 L897.373562,1800.35116 C903.293806,1802.73739 909.776782,1804 916.121002,1804 C923.051079,1804 929.749897,1802.61383 936.028593,1799.88396 L1527.66371,1546.73963 C1539.86265,1541.58879 1549.68733,1531.5458 1554.62472,1519.18609 L1794.31752,921.0819 C1799.35897,908.560019 1799.22022,894.837304 1793.92438,882.438981 L1541.21552,289.786809 Z" id="Fill-109" fill="#FF4221"></path>
                    <g id="Group-113">
                        <mask id="mask-2" fill="white">
                            <use xlink:href="#path-1"></use>
                        </mask>
                        <g id="Clip-112"></g>
                        <path d="M1810.61793,918.310598 L1566.43726,1526.92863 C1561.52134,1539.23201 1551.72419,1549.23212 1539.56354,1554.3595 L936.828904,1811.96274 C930.563511,1814.67882 923.889422,1816.05615 916.983995,1816.05615 C910.653056,1816.05615 904.191027,1814.79842 898.295774,1812.42185 L290.020598,1568.10194 C277.72115,1563.17518 267.731222,1553.37569 262.607095,1541.2112 L5.15150234,938.063909 C-0.126850106,925.710373 -0.261797028,912.045095 4.76979533,899.583533 L248.954322,290.9655 C253.86639,278.66212 263.659681,268.665864 275.828037,263.538491 L878.63208,5.93525268 C884.932173,3.23846276 891.594696,1.89199683 898.27264,1.89199683 C904.626713,1.89199683 910.996207,3.11114649 917.091952,5.54944583 L1525.36713,249.869354 C1537.66272,254.792249 1547.6565,264.591744 1552.78063,276.760092 L1810.23622,879.830222 C1815.51458,892.183758 1815.65338,905.849036 1810.61793,918.310598 M1811.23869,879.401976 L1553.78695,276.331846 C1548.54715,263.897291 1538.33746,253.885603 1525.77197,248.854682 L917.496793,4.53477379 C904.707681,-0.581025126 890.76188,-0.442134658 878.204105,4.92829679 L275.400063,262.527677 C262.973379,267.770792 252.960318,277.986958 247.936437,290.560403 L3.75190998,899.174578 C-1.38378429,911.910062 -1.24498174,925.872412 4.15289512,938.492155 L261.600776,1541.63559 C266.836717,1554.07014 277.046415,1564.08569 289.615757,1569.11661 L897.887078,1813.44038 C903.913422,1815.8671 910.51811,1817.15184 916.983995,1817.15184 C924.039791,1817.15184 930.860394,1815.73979 937.260734,1812.96583 L1539.99152,1555.36645 C1552.41435,1550.1272 1562.42741,1539.90717 1567.45515,1527.33373 L1811.63582,918.715695 C1816.77537,905.987927 1816.63656,892.021719 1811.23869,879.401976" id="Fill-111" fill="#FF4221" mask="url(#mask-2)"></path>
                    </g>
                </g>
            </g>
        </g>
    </g>
</svg>