<svg width="1280" height="575" viewBox="0 0 1280 575" fill="none" xmlns="http://www.w3.org/2000/svg">
<g clip-path="url(#clip0)">
<path opacity="0.2" fill-rule="evenodd" clip-rule="evenodd" d="M872.984 290.766L809.74 448.316C808.491 451.45 806.093 453.895 802.998 455.198L646.884 521.883C643.881 523.175 640.315 523.244 637.22 521.999L479.676 458.749C476.542 457.5 474.098 455.105 472.791 452.005L406.113 295.871C404.791 292.775 404.752 289.348 406.016 286.221L469.26 128.668C470.517 125.541 472.911 123.096 476.002 121.789L632.131 55.1039C633.715 54.4291 635.381 54.0898 637.062 54.0898C638.654 54.0898 640.254 54.3945 641.784 55.0113L799.331 118.258C802.458 119.511 804.902 121.905 806.209 125.001L872.891 281.116C874.209 284.216 874.248 287.64 872.984 290.766ZM807.211 124.577C805.793 121.207 803.14 118.605 799.736 117.24L642.193 53.9935C638.777 52.6324 635.053 52.671 631.703 54.1014L475.578 120.783C472.213 122.202 469.607 124.858 468.246 128.263L404.999 285.816C403.63 289.209 403.669 292.933 405.111 296.303L471.789 452.433C473.207 455.799 475.864 458.402 479.268 459.767L636.811 523.013C638.419 523.657 640.18 524 641.908 524C643.793 524 645.612 523.626 647.316 522.886L803.422 456.204C806.787 454.785 809.393 452.129 810.754 448.724L874.001 291.171C875.37 287.782 875.331 284.058 873.889 280.688L807.211 124.577Z" fill="#FF4221"/>
<path opacity="0.2" fill-rule="evenodd" clip-rule="evenodd" d="M889.91 290.943L822.089 459.896C820.763 463.212 818.124 465.909 814.839 467.293L647.432 538.801C644.194 540.2 640.372 540.266 637.033 538.924L468.096 471.1C464.773 469.774 462.079 467.131 460.696 463.849L389.192 296.416C387.766 293.084 387.728 289.401 389.088 286.038L456.909 117.089C458.238 113.769 460.877 111.076 464.158 109.692L631.584 38.1804C633.285 37.4538 635.082 37.0905 636.883 37.0905C638.598 37.0905 640.318 37.419 641.964 38.0799L810.905 105.901C814.271 107.249 816.895 109.823 818.306 113.151L889.813 280.562C891.235 283.901 891.27 287.584 889.91 290.943ZM819.31 112.726C817.796 109.124 814.955 106.337 811.311 104.88L642.37 37.0635C638.726 35.6103 634.746 35.645 631.156 37.1755L463.733 108.683C460.186 110.179 457.33 113.093 455.888 116.68L388.072 285.633C386.603 289.258 386.646 293.246 388.188 296.845L459.687 464.278C461.183 467.826 464.097 470.682 467.687 472.12L636.628 539.945C638.351 540.633 640.237 541 642.08 541C644.094 541 646.041 540.598 647.865 539.806L815.268 468.302C818.82 466.802 821.675 463.888 823.109 460.301L890.93 291.349C892.394 287.723 892.356 283.739 890.814 280.133L819.31 112.726Z" fill="#FF4221"/>
<path opacity="0.2" fill-rule="evenodd" clip-rule="evenodd" d="M905.849 291.116L833.724 470.794C832.304 474.332 829.491 477.207 825.992 478.681L647.95 554.731C644.509 556.228 640.434 556.298 636.865 554.866L457.196 482.733C453.658 481.316 450.787 478.503 449.31 475L373.26 296.939C371.744 293.389 371.705 289.457 373.156 285.872L445.282 106.194C446.69 102.656 449.51 99.7811 453.01 98.3032L631.067 22.2531C632.88 21.4814 634.794 21.0917 636.715 21.0917C638.544 21.0917 640.376 21.4428 642.132 22.1489L821.806 94.2748C825.344 95.6909 828.218 98.5116 829.696 102.008L905.741 280.049C907.254 283.599 907.296 287.527 905.849 291.116ZM830.699 101.583C829.113 97.817 826.023 94.7841 822.211 93.26L642.541 21.1303C638.667 19.5868 634.439 19.6215 630.638 21.2499L452.585 97.3C448.816 98.8859 445.783 101.981 444.263 105.789L372.137 285.463C370.583 289.318 370.621 293.547 372.257 297.367L448.303 475.428C449.888 479.19 452.983 482.223 456.787 483.751L636.46 555.881C638.289 556.614 640.292 557 642.244 557C644.377 557 646.449 556.576 648.386 555.734L826.416 479.688C830.182 478.102 833.214 475.008 834.738 471.203L906.868 291.521C908.419 287.662 908.376 283.437 906.74 279.621L830.699 101.583Z" fill="#FF4221"/>
<path opacity="0.2" fill-rule="evenodd" clip-rule="evenodd" d="M920.788 291.282L844.488 481.692C842.988 485.449 840 488.501 836.292 490.069L647.956 570.661C644.306 572.245 639.968 572.322 636.203 570.8L446.14 494.361C442.333 492.839 439.36 489.923 437.775 486.15L357.33 297.455C355.722 293.683 355.676 289.513 357.214 285.703L433.514 95.2963C435.01 91.5395 438.002 88.4878 441.714 86.9196L630.069 6.32752C631.988 5.50681 634.019 5.09449 636.057 5.09449C637.991 5.09449 639.937 5.46441 641.799 6.21577L831.866 82.6503C835.615 84.1492 838.661 87.147 840.227 90.8576L920.672 279.53C922.28 283.302 922.322 287.475 920.788 291.282ZM841.227 90.4337C839.554 86.4534 836.288 83.2476 832.269 81.6331L642.203 5.19855C638.107 3.56097 633.645 3.59949 629.642 5.32569L441.287 85.9139C437.31 87.5939 434.11 90.8614 432.499 94.8879L356.199 285.294C354.557 289.375 354.603 293.844 356.33 297.882L436.771 486.578C438.471 490.616 441.656 493.741 445.733 495.379L635.795 571.817C637.722 572.592 639.837 573 641.903 573C644.164 573 646.349 572.549 648.387 571.663L836.719 491.075C840.692 489.395 843.892 486.123 845.503 482.097L921.803 291.687C923.441 287.614 923.399 283.144 921.668 279.102L841.227 90.4337Z" fill="#FF4221"/>
<path opacity="0.2" fill-rule="evenodd" clip-rule="evenodd" d="M938.71 291.461L857.702 493.269C856.081 497.316 852.984 500.474 848.985 502.161L649.02 587.575C645.124 589.266 640.519 589.34 636.519 587.726L434.72 506.714C430.67 505.092 427.516 501.999 425.822 497.995L340.413 298.002C338.703 294.002 338.656 289.573 340.289 285.523L421.301 83.7182C422.899 79.7259 426.076 76.4826 430.018 74.8224L630.002 -10.5914C632.045 -11.464 634.207 -11.9003 636.372 -11.9003C638.438 -11.9003 640.503 -11.5064 642.484 -10.7149L844.279 70.2972C848.271 71.8957 851.514 75.0734 853.177 79.0193L938.59 278.986C940.3 282.99 940.343 287.419 938.71 291.461ZM854.181 78.5907C852.409 74.3784 848.95 70.9845 844.688 69.2779L642.889 -11.7304C638.554 -13.4678 633.828 -13.4215 629.574 -11.5952L429.593 73.8147C425.381 75.5908 421.988 79.0502 420.282 83.3128L339.27 285.114C337.529 289.434 337.579 294.164 339.413 298.434L424.818 498.424C426.621 502.694 429.991 505.999 434.315 507.733L636.11 588.745C638.152 589.567 640.391 590 642.584 590C644.978 590 647.29 589.521 649.452 588.579L849.41 503.169C853.683 501.37 856.988 497.995 858.718 493.675L939.729 291.866C941.47 287.558 941.42 282.832 939.594 278.554L854.181 78.5907Z" fill="#FF4221"/>
<path opacity="0.2" fill-rule="evenodd" clip-rule="evenodd" d="M954.646 291.632L869.329 504.167C867.652 508.378 864.298 511.798 860.13 513.552L649.537 603.509C645.446 605.287 640.588 605.368 636.347 603.667L423.819 518.345C419.608 516.664 416.192 513.313 414.438 509.145L324.483 298.519C322.679 294.293 322.628 289.619 324.352 285.354L409.669 72.8194C411.38 68.547 414.642 65.2154 418.868 63.4339L629.488 -26.5227C631.643 -27.4443 633.918 -27.9031 636.208 -27.9031C638.383 -27.9031 640.561 -27.4867 642.651 -26.65L855.179 58.6679C859.451 60.3761 862.782 63.6421 864.567 67.8683L954.519 278.468C956.327 282.69 956.369 287.367 954.646 291.632ZM865.57 67.4403C863.673 62.9442 860.13 59.4699 855.588 57.6499L643.059 -27.6679C638.502 -29.4879 633.536 -29.4456 629.06 -27.5253L418.444 62.4313C413.952 64.3208 410.474 67.8683 408.655 72.4107L323.338 284.949C321.506 289.48 321.557 294.451 323.481 298.947L413.432 509.573C415.298 514.003 418.937 517.574 423.414 519.363L635.942 604.685C638.09 605.545 640.445 606 642.743 606C645.265 606 647.698 605.499 649.973 604.512L860.558 514.559C864.988 512.689 868.558 509.052 870.347 504.576L955.664 292.037C957.491 287.502 957.445 282.532 955.521 278.04L865.57 67.4403Z" fill="#FF4221"/>
<path opacity="0.2" fill-rule="evenodd" clip-rule="evenodd" d="M970.579 291.303L880.82 514.904C879.049 519.339 875.517 522.942 871.128 524.79L649.573 619.431C645.234 621.309 640.132 621.394 635.673 619.597L412.082 529.835C407.647 528.065 404.041 524.531 402.193 520.142L307.559 298.551C305.657 294.1 305.607 289.17 307.424 284.676L397.179 61.0759C398.95 56.644 402.482 53.0375 406.871 51.186L628.453 -43.4515C630.729 -44.4235 633.131 -44.9095 635.538 -44.9095C637.829 -44.9095 640.124 -44.4698 642.326 -43.5865L865.917 46.1716C870.356 47.9459 873.955 51.4791 875.806 55.8648L970.444 277.429C972.346 281.88 972.396 286.806 970.579 291.303ZM876.812 55.4405C874.853 50.7887 871.027 47.0394 866.326 45.1571L642.731 -44.6048C637.952 -46.5103 632.726 -46.4678 628.025 -44.4543L406.443 50.1793C401.788 52.1465 398.043 55.969 396.161 60.671L306.405 284.271C304.481 289.031 304.535 294.258 306.556 298.979L401.187 520.57C403.15 525.226 406.972 528.971 411.677 530.853L635.268 620.615C637.524 621.522 639.997 622 642.415 622C645.053 622 647.606 621.475 650.005 620.434L871.552 525.796C876.207 523.837 879.956 520.014 881.834 515.309L971.598 291.708C973.518 286.944 973.464 281.722 971.447 277L876.812 55.4405Z" fill="#FF4221"/>
<path opacity="0.2" fill-rule="evenodd" clip-rule="evenodd" d="M987.513 292.48L893.314 527.48C891.451 532.152 887.735 535.946 883.125 537.89L650.608 637.357C646.051 639.332 640.681 639.417 636.002 637.531L401.347 543.191C396.686 541.325 392.898 537.608 390.95 532.99L291.631 300.1C289.633 295.417 289.583 290.232 291.488 285.498L385.691 50.4983C387.555 45.8269 391.266 42.0364 395.876 40.0929L628.425 -59.3745C630.813 -60.3945 633.336 -60.9085 635.87 -60.9085C638.278 -60.9085 640.693 -60.4448 643 -59.5175L877.655 34.8187C882.384 36.7159 886.076 40.3363 888.052 45.0232L987.37 277.883C989.365 282.57 989.419 287.751 987.513 292.48ZM889.055 44.5982C886.968 39.6409 883.067 35.8079 878.064 33.8025L643.409 -60.5336C638.386 -62.5428 632.915 -62.4849 627.996 -60.3752L395.448 39.0845C390.575 41.14 386.648 45.1507 384.673 50.0926L290.47 285.093C288.46 290.096 288.51 295.579 290.628 300.529L389.943 533.415C392.003 538.303 396.011 542.237 400.938 544.207L635.593 638.547C637.961 639.502 640.546 640 643.085 640C645.847 640 648.528 639.451 651.04 638.362L883.553 538.894C888.426 536.839 892.357 532.828 894.332 527.89L988.531 292.886C990.541 287.89 990.487 282.407 988.373 277.45L889.055 44.5982Z" fill="#FF4221"/>
<path opacity="0.2" fill-rule="evenodd" clip-rule="evenodd" d="M1004.44 292.651L905.8 538.379C903.848 543.269 899.954 547.24 895.123 549.274L651.639 653.279C646.885 655.355 641.228 655.44 636.323 653.461L390.606 554.82C385.717 552.867 381.746 548.973 379.708 544.137L275.706 300.616C273.611 295.711 273.557 290.285 275.556 285.333L374.198 39.6052C376.154 34.7155 380.044 30.7443 384.875 28.7027L628.389 -75.2989C630.894 -76.3679 633.545 -76.9044 636.2 -76.9044C638.724 -76.9044 641.255 -76.4219 643.675 -75.4494L889.396 23.1953C894.281 25.1482 898.252 29.0423 900.294 33.8742L1004.29 277.364C1006.39 282.273 1006.45 287.699 1004.44 292.651ZM901.297 33.4496C899.148 28.3514 894.957 24.2412 889.801 22.1765L644.08 -76.4683C638.851 -78.5639 633.12 -78.5099 627.957 -76.3023L384.451 27.6992C379.353 29.8488 375.243 34.0401 373.179 39.1962L274.541 284.924C272.434 290.146 272.488 295.873 274.703 301.049L378.705 544.561C380.85 549.667 385.037 553.774 390.197 555.835L635.918 654.479C638.388 655.475 641.097 656 643.752 656C646.65 656 649.451 655.425 652.072 654.283L895.547 550.281C900.649 548.131 904.755 543.944 906.819 538.784L1005.46 293.056C1007.57 287.838 1007.51 282.111 1005.3 276.935L901.297 33.4496Z" fill="#FF4221"/>
<path opacity="0.2" fill-rule="evenodd" clip-rule="evenodd" d="M1020.38 291.832L917.568 548.956C915.532 554.077 911.47 558.24 906.423 560.378L652.64 669.205C650.049 670.334 647.281 670.906 644.409 670.906C641.784 670.906 639.108 670.384 636.66 669.395L380.548 566.176C375.45 564.127 371.3 560.053 369.175 554.986L260.773 300.17C258.586 295.029 258.528 289.343 260.615 284.156L363.428 27.0247C365.503 21.8297 369.46 17.7789 374.573 15.6105L628.39 -93.217C631 -94.3379 633.765 -94.9022 636.536 -94.9022C639.17 -94.9022 641.811 -94.3959 644.34 -93.3754L900.456 9.84343C905.561 11.892 909.699 15.9738 911.824 21.0296L1020.23 275.815C1022.41 280.959 1022.47 286.645 1020.38 291.832ZM912.829 20.6045C910.592 15.2781 906.234 10.9876 900.86 8.82304L644.748 -94.3959C639.281 -96.5875 633.322 -96.5373 627.959 -94.2219L374.149 14.6017C368.844 16.8474 364.563 21.2267 362.415 26.6188L259.602 283.746C257.408 289.204 257.469 295.191 259.775 300.603L368.17 555.411C370.411 560.745 374.773 565.039 380.14 567.192L636.255 670.411C638.831 671.451 641.649 672 644.409 672C647.431 672 650.346 671.397 653.071 670.21L906.85 561.383C912.163 559.133 916.436 554.754 918.584 549.366L1021.4 292.238C1023.59 286.784 1023.53 280.801 1021.23 275.386L912.829 20.6045Z" fill="#FF4221"/>
<path opacity="0.2" fill-rule="evenodd" clip-rule="evenodd" d="M1036.31 291.991L928.78 559.849C926.649 565.189 922.398 569.529 917.117 571.757L651.705 685.127C648.991 686.305 646.092 686.903 643.088 686.903C640.343 686.903 637.537 686.359 634.977 685.324L367.129 577.796C361.79 575.664 357.45 571.413 355.223 566.131L241.857 300.678C239.568 295.319 239.506 289.388 241.695 283.979L349.215 16.1208C351.35 10.777 355.605 6.441 360.886 4.21699L626.325 -109.157C629.062 -110.323 631.954 -110.91 634.857 -110.91C637.61 -110.91 640.378 -110.381 643.026 -109.323L910.87 -1.79479C916.291 0.375163 920.518 4.51814 922.777 9.87739L1036.14 275.292C1038.43 280.647 1038.49 286.581 1036.31 291.991ZM923.784 9.4488C921.41 3.81927 916.97 -0.532211 911.276 -2.81414L643.432 -110.339C637.718 -112.617 631.491 -112.548 625.893 -110.157L360.458 3.20918C354.91 5.5413 350.443 10.1013 348.2 15.7116L240.676 283.57C238.382 289.249 238.444 295.477 240.853 301.107L354.215 566.556C356.559 572.108 361.114 576.572 366.72 578.815L634.568 686.344C637.259 687.425 640.204 688 643.088 688C646.242 688 649.288 687.371 652.138 686.131L917.542 572.765C923.093 570.421 927.556 565.865 929.799 560.258L1037.33 292.396C1039.62 286.72 1039.56 280.489 1037.15 274.859L923.784 9.4488Z" fill="#FF4221"/>
<path opacity="0.2" fill-rule="evenodd" clip-rule="evenodd" d="M1051.25 291.659L939.552 569.911C937.299 575.547 932.988 579.943 927.414 582.293L651.707 700.06C648.888 701.286 645.871 701.906 642.751 701.906C639.885 701.906 636.965 701.339 634.315 700.268L356.069 588.565C350.522 586.346 346.011 581.927 343.692 576.433L225.926 300.685C223.545 295.111 223.48 288.943 225.753 283.318L337.451 5.06561C339.667 -0.486024 344.093 -4.99742 349.582 -7.3167L625.327 -125.088C628.17 -126.301 631.171 -126.91 634.187 -126.91C637.057 -126.91 639.939 -126.359 642.689 -125.257L920.931 -13.558C926.567 -11.3042 930.962 -6.99313 933.312 -1.42223L1051.07 274.291C1053.45 279.866 1053.52 286.034 1051.25 291.659ZM934.317 -1.84985C931.89 -7.60567 927.16 -12.2404 921.335 -14.5712L643.098 -126.27C637.177 -128.636 630.713 -128.574 624.896 -126.089L349.158 -8.31841C343.399 -5.89126 338.765 -1.16025 336.434 4.66107L224.736 282.909C222.359 288.808 222.424 295.269 224.924 301.113L342.687 576.857C345.114 582.617 349.844 587.256 355.665 589.583L633.906 701.282C636.688 702.403 639.746 703 642.751 703C646.021 703 649.18 702.349 652.143 701.062L927.842 583.295C933.682 580.837 938.2 576.225 940.569 570.315L1052.26 292.063C1054.64 286.169 1054.58 279.704 1052.08 273.863L934.317 -1.84985Z" fill="#FF4221"/>
<path opacity="0.2" fill-rule="evenodd" clip-rule="evenodd" d="M1067.18 293.342L951.177 583.324C948.833 589.207 944.357 593.788 938.564 596.241L652.226 718.976C649.286 720.254 646.149 720.903 642.912 720.903C639.941 720.903 636.908 720.312 634.141 719.192L345.17 602.78C339.396 600.467 334.705 595.855 332.299 590.126L209.995 302.748C207.52 296.935 207.454 290.5 209.814 284.632L325.818 -5.35352C328.127 -11.1474 332.726 -15.8521 338.43 -18.2662L624.803 -141.001C627.763 -142.272 630.892 -142.905 634.025 -142.905C637.004 -142.905 639.995 -142.333 642.858 -141.186L931.829 -24.7709C937.598 -22.4533 942.29 -17.8413 944.696 -12.1169L1067 275.231C1069.48 281.036 1069.54 287.467 1067.18 293.342ZM945.7 -12.5418C943.179 -18.5327 938.276 -23.361 932.233 -25.7906L643.262 -142.202C637.112 -144.666 630.411 -144.593 624.376 -142.009L338.007 -19.2744C332.034 -16.7482 327.223 -11.8234 324.802 -5.76294L208.802 284.227C206.334 290.364 206.404 297.093 208.994 303.177L331.299 590.551C333.816 596.55 338.723 601.374 344.766 603.8L633.736 720.212C636.631 721.378 639.802 722 642.912 722C646.299 722 649.582 721.32 652.657 719.98L938.988 597.249C944.961 594.719 949.772 589.798 952.193 583.734L1068.2 293.748C1070.66 287.606 1070.6 280.874 1068 274.798L945.7 -12.5418Z" fill="#FF4221"/>
<path opacity="0.2" fill-rule="evenodd" clip-rule="evenodd" d="M1086.11 293.017L965.531 594.062C963.134 600.081 958.351 604.972 952.411 607.479L654.776 734.902C651.724 736.231 648.459 736.903 645.087 736.903C641.995 736.903 638.843 736.289 635.96 735.122L335.592 614.271C329.591 611.868 324.711 607.074 322.206 601.12L195.073 302.779C192.498 296.737 192.432 290.05 194.888 283.957L315.469 -17.0922C317.87 -23.1112 322.653 -28.0021 328.589 -30.5093L626.258 -157.928C629.334 -159.245 632.587 -159.906 635.852 -159.906C638.951 -159.906 642.061 -159.307 645.036 -158.117L945.404 -37.2623C951.409 -34.8594 956.285 -30.0651 958.794 -24.1118L1085.92 274.195C1088.5 280.229 1088.57 286.916 1086.11 293.017ZM959.8 -24.5367C957.183 -30.7605 952.088 -35.7673 945.813 -38.2823L645.445 -159.133C639.062 -161.691 632.098 -161.617 625.831 -158.932L328.165 -31.5177C321.959 -28.8984 316.964 -23.7873 314.451 -17.4979L193.874 283.552C191.311 289.911 191.376 296.895 194.074 303.212L321.2 601.545C323.817 607.769 328.916 612.776 335.187 615.291L635.555 736.142C638.561 737.359 641.857 738 645.087 738C648.609 738 652.017 737.293 655.208 735.906L952.835 608.488C959.041 605.868 964.036 600.757 966.545 594.468L1087.13 293.422C1089.69 287.052 1089.62 280.071 1086.93 273.766L959.8 -24.5367Z" fill="#FF4221"/>
<path opacity="0.2" fill-rule="evenodd" clip-rule="evenodd" d="M1101.04 293.183L976.019 604.959C973.532 611.2 968.571 616.268 962.406 618.87L653.808 750.831C650.643 752.209 647.258 752.904 643.753 752.904C640.55 752.904 637.277 752.267 634.285 751.063L322.853 625.902C316.619 623.413 311.561 618.445 308.963 612.273L177.149 303.296C174.474 297.039 174.408 290.107 176.956 283.785L301.973 -27.9911C304.464 -34.2285 309.425 -39.2964 315.59 -41.894L624.223 -173.855C627.415 -175.222 630.788 -175.905 634.173 -175.905C637.392 -175.905 640.619 -175.291 643.711 -174.052L955.143 -48.8918C961.373 -46.3984 966.435 -41.4308 969.033 -35.2629L1100.85 273.676C1103.52 279.94 1103.59 286.869 1101.04 293.183ZM970.04 -35.6875C967.329 -42.1217 962.048 -47.3054 955.552 -49.9107L644.12 -175.067C637.504 -177.715 630.283 -177.638 623.795 -174.863L315.162 -42.9014C308.735 -40.1919 303.562 -34.904 300.959 -28.3964L175.939 283.38C173.286 289.972 173.356 297.197 176.147 303.724L307.957 612.698C310.663 619.132 315.945 624.316 322.444 626.921L633.876 752.082C636.999 753.336 640.415 754 643.753 754C647.408 754 650.936 753.271 654.24 751.835L962.83 619.877C969.261 617.164 974.438 611.876 977.037 605.368L1102.06 293.589C1104.71 287.004 1104.64 279.778 1101.85 273.248L970.04 -35.6875Z" fill="#FF4221"/>
<path opacity="0.2" fill-rule="evenodd" clip-rule="evenodd" d="M1116.97 293.363L987.515 616.541C984.931 623.014 979.787 628.266 973.406 630.963L653.846 767.75C650.556 769.18 647.051 769.902 643.423 769.902C640.103 769.902 636.709 769.246 633.609 767.99L311.119 638.255C304.66 635.67 299.412 630.519 296.72 624.119L160.223 303.847C157.455 297.351 157.381 290.163 160.023 283.609L289.486 -39.5655C292.066 -46.0347 297.206 -51.2943 303.592 -53.9955L623.194 -190.779C626.502 -192.193 629.996 -192.904 633.505 -192.904C636.837 -192.904 640.188 -192.263 643.388 -190.98L965.882 -61.2453C972.341 -58.66 977.585 -53.5047 980.277 -47.1051L1116.77 273.128C1119.54 279.621 1119.62 286.809 1116.97 293.363ZM981.283 -47.5303C978.48 -54.2003 973.016 -59.5642 966.291 -62.2616L643.793 -191.996C636.956 -194.74 629.487 -194.662 622.766 -191.787L303.167 -55.0041C296.516 -52.1869 291.16 -46.711 288.472 -39.9752L159.005 283.199C156.259 290.028 156.336 297.513 159.221 304.276L295.714 624.544C298.517 631.21 303.985 636.578 310.71 639.276L633.204 769.01C636.432 770.312 639.968 771 643.423 771C647.202 771 650.853 770.243 654.278 768.755L973.83 631.972C980.481 629.166 985.834 623.69 988.529 616.947L1117.99 293.768C1120.74 286.944 1120.66 279.458 1117.78 272.695L981.283 -47.5303Z" fill="#FF4221"/>
<path opacity="0.2" fill-rule="evenodd" clip-rule="evenodd" d="M1133.91 293.533L1000.01 627.442C997.332 634.133 992.01 639.566 985.403 642.353L654.88 783.679C651.479 785.154 647.849 785.907 644.097 785.907C640.649 785.907 637.135 785.224 633.938 783.93L300.38 649.886C293.696 647.215 288.269 641.886 285.477 635.268L144.3 304.363C141.434 297.645 141.357 290.22 144.091 283.44L277.994 -50.4695C280.667 -57.157 285.993 -62.5935 292.6 -65.3813L623.161 -206.707C626.586 -208.175 630.204 -208.904 633.837 -208.904C637.285 -208.904 640.749 -208.244 644.062 -206.916L977.624 -72.8758C984.304 -70.2 989.73 -64.8716 992.523 -58.2536L1133.7 272.609C1136.57 279.323 1136.64 286.752 1133.91 293.533ZM993.53 -58.6822C990.629 -65.5666 984.979 -71.1074 978.029 -73.8913L644.471 -207.935C637.397 -210.765 629.683 -210.68 622.733 -207.715L292.176 -66.3891C285.303 -63.4893 279.761 -57.8366 276.976 -50.875L143.077 283.03C140.234 290.077 140.312 297.807 143.297 304.792L284.474 635.693C287.374 642.577 293.025 648.122 299.971 650.906L633.533 784.946C636.857 786.289 640.51 787 644.097 787C648 787 651.772 786.224 655.312 784.683L985.827 643.361C992.7 640.465 998.235 634.809 1001.02 627.847L1134.93 293.938C1137.77 286.891 1137.69 279.161 1134.7 272.18L993.53 -58.6822Z" fill="#FF4221"/>
<path opacity="0.2" fill-rule="evenodd" clip-rule="evenodd" d="M1149.84 293.194L1011.63 637.496C1008.87 644.399 1003.38 650.007 996.55 652.882L655.393 798.612C651.878 800.134 648.129 800.909 644.259 800.909C640.71 800.909 637.08 800.204 633.769 798.866L289.483 660.652C282.577 657.893 276.969 652.397 274.094 645.571L128.372 304.364C125.412 297.442 125.331 289.771 128.16 282.776L266.367 -61.522C269.131 -68.425 274.626 -74.0329 281.452 -76.912L622.647 -222.634C626.181 -224.149 629.919 -224.904 633.665 -224.904C637.23 -224.904 640.806 -224.222 644.232 -222.854L988.522 -84.636C995.425 -81.8763 1001.03 -76.384 1003.91 -69.5543L1149.63 271.606C1152.59 278.532 1152.66 286.202 1149.84 293.194ZM1004.91 -69.9821C1001.92 -77.0701 996.095 -82.786 988.927 -85.6536L644.637 -223.868C637.345 -226.785 629.387 -226.708 622.219 -223.64L281.028 -77.918C273.936 -74.931 268.221 -69.1033 265.35 -61.9305L127.142 282.367C124.21 289.633 124.29 297.6 127.37 304.795L273.089 645.995C276.072 653.086 281.902 658.798 289.075 661.67L633.361 799.884C636.802 801.268 640.567 802 644.259 802C648.279 802 652.175 801.198 655.825 799.614L996.974 653.888C1004.07 650.901 1009.78 645.073 1012.65 637.905L1150.86 293.599C1153.79 286.341 1153.71 278.374 1150.63 271.179L1004.91 -69.9821Z" fill="#FF4221"/>
<path opacity="0.2" fill-rule="evenodd" clip-rule="evenodd" d="M857.046 290.599L798.107 437.418C796.945 440.326 794.72 442.597 791.843 443.81L646.365 505.953C643.573 507.166 640.259 507.22 637.386 506.057L490.568 447.116C487.698 445.973 485.373 443.69 484.18 440.855L422.036 295.35C420.812 292.476 420.777 289.293 421.952 286.389L480.89 139.566C482.033 136.7 484.315 134.375 487.154 133.174L632.647 71.0308C634.115 70.4051 635.671 70.0922 637.228 70.0922C638.707 70.0922 640.194 70.3742 641.615 70.9458L788.425 129.887C791.337 131.049 793.604 133.274 794.821 136.151L856.961 281.634C858.189 284.508 858.22 287.69 857.046 290.599ZM795.825 135.723C794.52 132.625 791.971 130.122 788.835 128.867L642.02 69.9262C638.834 68.6593 635.355 68.6901 632.219 70.0304L486.725 132.165C483.628 133.475 481.125 136.024 479.87 139.16L420.932 285.983C419.654 289.154 419.692 292.634 421.036 295.782L483.172 441.284C484.477 444.378 487.023 446.877 490.162 448.136L636.981 507.077C638.479 507.679 640.124 508 641.742 508C643.503 508 645.203 507.648 646.802 506.957L792.272 444.818C795.42 443.489 797.852 441.006 799.127 437.823L858.065 291.004C859.347 287.829 859.309 284.349 857.961 281.201L795.825 135.723Z" fill="#FF4221"/>
<path opacity="0.2" fill-rule="evenodd" clip-rule="evenodd" d="M840.117 289.925L785.622 425.68C784.548 428.356 782.502 430.448 779.85 431.572L645.334 489.027C642.774 490.139 639.713 490.193 637.061 489.127L501.309 434.63C498.63 433.556 496.541 431.51 495.422 428.858L437.966 294.322C436.834 291.666 436.804 288.736 437.888 286.064L492.384 150.304C493.434 147.667 495.534 145.525 498.151 144.417L632.683 86.9576C634.03 86.3784 635.459 86.0927 636.895 86.0927C638.261 86.0927 639.628 86.3514 640.941 86.8765L776.688 141.374C779.368 142.447 781.46 144.494 782.579 147.146L840.036 281.666C841.167 284.315 841.198 287.245 840.117 289.925ZM783.583 146.718C782.367 143.837 780.005 141.521 777.098 140.359L641.35 85.8572C638.385 84.6835 635.154 84.7144 632.251 85.9537L497.727 143.413C494.843 144.629 492.526 146.988 491.364 149.895L436.869 285.658C435.68 288.597 435.711 291.828 436.962 294.751L494.414 429.286C495.646 432.209 497.951 434.464 500.904 435.645L636.655 490.143C638.049 490.703 639.582 491 641.072 491C642.713 491 644.292 490.676 645.766 490.031L780.275 432.576C783.197 431.344 785.46 429.039 786.637 426.089L841.136 290.33C842.321 287.384 842.286 284.153 841.036 281.238L783.583 146.718Z" fill="#FF4221"/>
<path opacity="0.2" fill-rule="evenodd" clip-rule="evenodd" d="M824.186 290.744L774.265 415.104C773.291 417.544 771.429 419.45 769.008 420.473L645.79 473.11C643.415 474.126 640.656 474.169 638.243 473.195L513.886 423.275C511.446 422.298 509.541 420.427 508.521 418.01L455.886 294.77C454.851 292.353 454.824 289.682 455.813 287.242L505.735 162.882C506.712 160.442 508.579 158.533 510.995 157.513L634.233 104.88C635.464 104.352 636.769 104.091 638.077 104.091C639.32 104.091 640.564 104.325 641.76 104.803L766.114 154.726C768.523 155.688 770.478 157.609 771.482 159.987L824.113 283.216C825.148 285.633 825.175 288.304 824.186 290.744ZM772.483 159.564C771.371 156.916 769.196 154.788 766.522 153.71L642.164 103.79C639.444 102.713 636.48 102.732 633.802 103.879L510.572 156.508C507.886 157.643 505.808 159.76 504.719 162.478L454.801 286.834C453.704 289.543 453.735 292.515 454.886 295.197L507.516 418.437C508.636 421.085 510.807 423.218 513.482 424.288L637.835 474.211C639.117 474.727 640.521 475 641.899 475C643.392 475 644.843 474.7 646.217 474.111L769.431 421.478C772.083 420.358 774.215 418.179 775.281 415.508L825.202 291.148C826.295 288.439 826.264 285.471 825.114 282.789L772.483 159.564Z" fill="#FF4221"/>
<path opacity="0.2" fill-rule="evenodd" clip-rule="evenodd" d="M808.251 290.577L762.638 404.206C761.751 406.424 760.054 408.156 757.86 409.089L645.264 457.179C643.135 458.105 640.605 458.148 638.411 457.26L524.786 411.647C522.599 410.771 520.821 409.028 519.907 406.864L471.818 294.256C470.877 292.066 470.854 289.632 471.749 287.414L517.361 173.784C518.237 171.594 519.98 169.816 522.14 168.905L634.747 120.811C635.865 120.333 637.049 120.094 638.241 120.094C639.371 120.094 640.505 120.31 641.589 120.746L755.214 166.36C757.432 167.243 759.163 168.944 760.097 171.142L808.185 283.734C809.126 285.933 809.146 288.363 808.251 290.577ZM761.099 170.718C760.058 168.246 758.114 166.34 755.623 165.341L641.998 119.728C639.487 118.732 636.768 118.756 634.315 119.812L521.716 167.899C519.286 168.925 517.331 170.923 516.347 173.376L470.73 287.005C469.732 289.497 469.755 292.224 470.815 294.685L518.904 407.292C519.926 409.722 521.924 411.674 524.381 412.661L638.002 458.279C639.182 458.753 640.47 459 641.735 459C643.116 459 644.447 458.726 645.7 458.182L758.288 410.092C760.752 409.051 762.657 407.103 763.656 404.611L809.269 290.982C810.268 288.502 810.245 285.771 809.188 283.302L761.099 170.718Z" fill="#FF4221"/>
<path opacity="0.2" fill-rule="evenodd" clip-rule="evenodd" d="M790.325 289.403L749.286 391.63C748.494 393.617 746.977 395.161 745.014 395.991L643.715 439.263C641.822 440.089 639.559 440.128 637.588 439.332L535.364 398.296C533.378 397.505 531.834 395.983 531 394.02L487.733 292.707C486.899 290.747 486.876 288.573 487.675 286.594L528.711 184.363C529.502 182.38 531.023 180.832 532.986 179.998L634.296 136.734C635.302 136.303 636.359 136.092 637.419 136.092C638.429 136.092 639.444 136.284 640.412 136.672L742.64 177.712C744.595 178.496 746.185 180.052 747 181.985L790.264 283.283C791.101 285.246 791.124 287.416 790.325 289.403ZM747.999 181.562C747.073 179.361 745.267 177.589 743.043 176.698L640.815 135.658C638.564 134.759 636.098 134.778 633.866 135.735L532.556 178.999C530.328 179.944 528.603 181.704 527.7 183.959L486.661 286.187C485.754 288.438 485.781 290.909 486.738 293.137L529.997 394.45C530.942 396.679 532.702 398.404 534.957 399.307L637.185 440.347C638.249 440.773 639.417 441 640.562 441C641.814 441 643.02 440.754 644.146 440.262L745.436 396.994C747.668 396.053 749.397 394.293 750.3 392.038L791.339 289.806C792.246 287.559 792.219 285.084 791.262 282.856L747.999 181.562Z" fill="#FF4221"/>
<path opacity="0.2" fill-rule="evenodd" clip-rule="evenodd" d="M774.388 289.231L737.658 380.732C736.953 382.492 735.609 383.863 733.864 384.603L643.198 423.328C641.515 424.06 639.512 424.102 637.76 423.394L546.261 386.663C544.525 385.966 543.111 384.587 542.391 382.866L503.662 292.193C502.923 290.448 502.903 288.519 503.616 286.759L540.346 195.261C541.036 193.524 542.418 192.115 544.136 191.391L634.81 152.661C635.7 152.28 636.639 152.091 637.587 152.091C638.48 152.091 639.377 152.264 640.24 152.607L731.739 189.338C733.475 190.035 734.885 191.418 735.609 193.135L774.334 283.801C775.081 285.545 775.1 287.475 774.388 289.231ZM736.61 192.708C735.778 190.728 734.149 189.13 732.143 188.325L640.648 151.594C638.607 150.786 636.381 150.797 634.383 151.66L543.712 190.385C541.725 191.225 540.131 192.854 539.33 194.853L502.599 286.354C501.779 288.384 501.802 290.61 502.661 292.62L541.386 383.293C542.222 385.273 543.851 386.875 545.853 387.68L637.352 424.411C638.314 424.796 639.366 425 640.398 425C641.526 425 642.612 424.773 643.629 424.33L734.288 385.604C736.298 384.761 737.858 383.174 738.674 381.137L775.405 289.635C776.221 287.61 776.198 285.387 775.335 283.373L736.61 192.708Z" fill="#FF4221"/>
<path opacity="0.2" fill-rule="evenodd" clip-rule="evenodd" d="M758.443 288.566L725.883 369.671C725.282 371.192 724.072 372.429 722.559 373.066L642.192 407.398C640.726 408.034 638.961 408.073 637.425 407.452L556.325 374.893C554.777 374.276 553.575 373.097 552.931 371.568L518.602 291.188C517.951 289.66 517.931 287.972 518.556 286.424L551.115 205.323C551.732 203.779 552.915 202.568 554.44 201.924L634.814 167.596C635.594 167.263 636.42 167.096 637.246 167.096C638.034 167.096 638.821 167.251 639.574 167.553L720.678 200.109C722.198 200.718 723.44 201.928 724.076 203.437L758.396 283.802C759.052 285.334 759.067 287.03 758.443 288.566ZM725.084 203.007C724.336 201.234 722.877 199.806 721.085 199.089L639.985 166.529C638.166 165.808 636.176 165.819 634.384 166.591L554.013 200.912C552.213 201.672 550.824 203.092 550.091 204.915L517.536 286.017C516.803 287.833 516.822 289.823 517.594 291.619L551.918 371.995C552.675 373.795 554.094 375.188 555.914 375.917L637.014 408.472C637.875 408.818 638.817 409 639.737 409C640.749 409 641.723 408.798 642.63 408.406L722.986 374.078C724.766 373.329 726.197 371.875 726.907 370.082L759.467 288.973C760.196 287.165 760.177 285.175 759.412 283.371L725.084 203.007Z" fill="#FF4221"/>
<path opacity="0.2" fill-rule="evenodd" clip-rule="evenodd" d="M742.524 289.886L714.676 359.259C714.153 360.561 713.158 361.576 711.871 362.121L643.128 391.482C641.861 392.032 640.385 392.051 639.106 391.528L569.737 363.681C568.454 363.166 567.409 362.148 566.871 360.876L537.513 292.126C536.964 290.835 536.948 289.41 537.475 288.108L565.323 218.735C565.842 217.436 566.84 216.422 568.127 215.873L636.874 186.515C637.535 186.231 638.234 186.089 638.929 186.089C639.59 186.089 640.259 186.22 640.892 186.473L710.265 214.321C711.548 214.835 712.59 215.854 713.127 217.129L742.486 285.868C743.039 287.155 743.054 288.58 742.524 289.886ZM714.126 216.703C713.477 215.17 712.217 213.929 710.669 213.306L641.296 185.459C639.721 184.833 637.992 184.844 636.448 185.513L567.705 214.874C566.145 215.531 564.939 216.76 564.309 218.332L536.46 287.704C535.83 289.275 535.846 290.997 536.514 292.553L565.872 361.299C566.522 362.836 567.782 364.073 569.334 364.695L638.703 392.543C639.444 392.842 640.262 393 641.061 393C641.922 393 642.763 392.827 643.559 392.481L712.294 363.124C713.854 362.467 715.06 361.238 715.69 359.662L743.538 290.29C744.172 288.715 744.153 286.993 743.484 285.441L714.126 216.703Z" fill="#FF4221"/>
<path opacity="0.2" fill-rule="evenodd" clip-rule="evenodd" d="M727.58 290.222L703.907 349.197C703.472 350.279 702.643 351.129 701.568 351.582L643.13 376.545C642.09 376.995 640.857 377.023 639.771 376.584L580.797 352.909C579.73 352.482 578.858 351.629 578.412 350.57L553.455 292.123C552.993 291.052 552.982 289.861 553.42 288.775L577.093 229.8C577.524 228.73 578.373 227.861 579.436 227.415L637.878 202.452C638.429 202.223 639.007 202.103 639.589 202.103C640.139 202.103 640.698 202.211 641.225 202.421L700.199 226.096C701.285 226.527 702.131 227.361 702.588 228.435L727.549 286.875C728.007 287.949 728.018 289.136 727.58 290.222ZM703.597 228.008C703.03 226.658 701.968 225.619 700.61 225.072L641.636 201.401C640.275 200.854 638.782 200.865 637.448 201.443L579.005 226.403C577.679 226.961 576.608 228.051 576.073 229.389L552.396 288.364C551.853 289.726 551.868 291.211 552.442 292.557L577.4 350.997C577.962 352.327 579.048 353.394 580.39 353.933L639.364 377.604C640.007 377.864 640.713 378 641.4 378C642.156 378 642.881 377.849 643.564 377.554L701.999 352.595C703.344 352.028 704.384 350.962 704.927 349.608L728.604 290.629C729.147 289.276 729.132 287.786 728.558 286.44L703.597 228.008Z" fill="#FF4221"/>
<path opacity="0.2" fill-rule="evenodd" clip-rule="evenodd" d="M709.647 288.543L690.413 336.455C690.072 337.312 689.416 337.979 688.567 338.34L641.095 358.619C640.257 358.98 639.288 358.999 638.446 358.646L590.536 339.414C589.691 339.077 589.008 338.406 588.655 337.572L568.374 290.087C568.014 289.245 568.006 288.303 568.351 287.446L587.581 239.534C587.919 238.693 588.589 238.006 589.427 237.649L636.907 217.374C637.341 217.192 637.799 217.095 638.256 217.095C638.695 217.095 639.129 217.18 639.552 217.351L687.458 236.583C688.303 236.916 688.99 237.587 689.347 238.425L709.62 285.902C709.984 286.748 709.992 287.686 709.647 288.543ZM690.355 237.998C689.889 236.893 688.982 236.005 687.869 235.559L639.959 216.327C638.826 215.881 637.593 215.889 636.477 216.366L589 236.637C587.895 237.103 587.007 238.014 586.561 239.127L567.331 287.035C566.878 288.163 566.889 289.404 567.37 290.521L587.643 337.999C588.105 339.1 589.012 339.992 590.129 340.438L638.032 359.666C638.567 359.887 639.152 360 639.73 360C640.35 360 640.955 359.876 641.529 359.628L688.998 339.352C690.118 338.879 690.987 337.995 691.437 336.866L710.671 288.951C711.124 287.822 711.109 286.585 710.628 285.472L690.355 237.998Z" fill="#FF4221"/>
<path opacity="0.2" fill-rule="evenodd" clip-rule="evenodd" d="M692.737 288.866L678.216 325.052C677.973 325.657 677.489 326.148 676.888 326.403L641.031 341.721C640.441 341.98 639.741 341.991 639.132 341.74L602.948 327.214C602.331 326.971 601.851 326.498 601.592 325.889L586.276 290.031C586.021 289.421 586.013 288.751 586.261 288.131L600.789 251.948C601.033 251.335 601.501 250.856 602.11 250.593L637.97 235.279C638.275 235.15 638.606 235.085 638.937 235.085C639.253 235.085 639.573 235.146 639.87 235.264L676.054 249.786C676.659 250.03 677.15 250.513 677.409 251.115L692.722 286.969C692.981 287.575 692.985 288.249 692.737 288.866ZM678.399 250.696C678.038 249.832 677.326 249.131 676.458 248.784L640.274 234.259C639.394 233.905 638.404 233.913 637.548 234.289L601.688 249.599C600.812 249.972 600.138 250.665 599.784 251.545L585.26 287.727C584.905 288.618 584.913 289.581 585.286 290.453L600.599 326.308C600.968 327.184 601.661 327.862 602.548 328.219L638.724 342.737C639.151 342.912 639.596 343 640.053 343C640.544 343 641.016 342.901 641.458 342.711L677.307 327.397C678.171 327.031 678.867 326.323 679.218 325.451L693.742 289.265C694.096 288.382 694.085 287.415 693.712 286.547L678.399 250.696Z" fill="#FF4221"/>
<path opacity="0.2" fill-rule="evenodd" clip-rule="evenodd" d="M676.781 288.199L666.43 313.984C666.275 314.375 665.961 314.693 665.574 314.86L640.026 325.771C639.658 325.926 639.197 325.942 638.798 325.783L613.014 315.433C612.619 315.274 612.309 314.972 612.138 314.581L601.229 289.021C601.058 288.629 601.054 288.195 601.217 287.796L611.569 262.011C611.727 261.616 612.03 261.306 612.425 261.135L637.972 250.224C638.17 250.138 638.387 250.096 638.6 250.096C638.805 250.096 639.011 250.134 639.205 250.212L664.984 260.561C665.38 260.716 665.694 261.03 665.86 261.422L676.774 286.97C676.94 287.366 676.944 287.8 676.781 288.199ZM666.868 260.992C666.593 260.337 666.054 259.806 665.395 259.538L639.612 249.192C638.953 248.929 638.201 248.937 637.542 249.212L611.991 260.123C611.328 260.406 610.817 260.934 610.545 261.604L600.198 287.385C599.927 288.055 599.934 288.788 600.221 289.455L611.131 315.011C611.414 315.674 611.937 316.189 612.603 316.457L638.391 326.806C638.712 326.934 639.05 327 639.395 327C639.771 327 640.131 326.926 640.46 326.779L666.008 315.871C666.659 315.588 667.182 315.053 667.453 314.394L677.805 288.606C678.072 287.943 678.064 287.203 677.785 286.536L666.868 260.992Z" fill="#FF4221"/>
<path opacity="0.2" fill-rule="evenodd" clip-rule="evenodd" d="M654.785 303.074C654.714 303.245 654.584 303.379 654.413 303.455L639.504 309.82C639.342 309.895 639.152 309.899 638.974 309.824L623.927 303.787C623.756 303.72 623.622 303.585 623.547 303.415L617.179 288.498C617.107 288.328 617.103 288.142 617.175 287.972L623.214 272.921C623.281 272.75 623.416 272.616 623.586 272.54L638.499 266.171C638.582 266.135 638.673 266.115 638.764 266.115C638.855 266.115 638.946 266.135 639.033 266.171L654.073 272.208C654.243 272.275 654.382 272.41 654.457 272.58L660.817 287.489C660.892 287.659 660.896 287.853 660.825 288.023L654.785 303.074ZM655.486 272.141C655.296 271.697 654.932 271.341 654.492 271.163L639.449 265.126C639.002 264.955 638.499 264.955 638.056 265.142L623.151 271.507C622.712 271.693 622.351 272.058 622.173 272.501L616.13 287.552C615.952 288.003 615.956 288.494 616.15 288.942L622.518 303.85C622.704 304.294 623.064 304.65 623.511 304.828L638.547 310.865C638.76 310.952 638.998 311 639.231 311C639.477 311 639.726 310.948 639.948 310.849L654.857 304.484C655.3 304.298 655.644 303.945 655.83 303.49L661.87 288.443C662.048 287.992 662.044 287.497 661.854 287.049L655.486 272.141Z" fill="#FF4221"/>
<path opacity="0.2" fill-rule="evenodd" clip-rule="evenodd" d="M642.704 291.636L639.55 292.984L636.365 291.706L635.017 288.551L636.297 285.365L639.448 284.017L642.633 285.294L643.981 288.453L642.704 291.636ZM643.522 284.828C643.445 284.634 643.289 284.479 643.092 284.398L639.741 283.053C639.547 282.983 639.335 282.979 639.141 283.06L635.811 284.486C635.624 284.567 635.476 284.719 635.401 284.91L634.057 288.262C633.98 288.453 633.98 288.657 634.064 288.858L635.486 292.19C635.571 292.377 635.722 292.525 635.909 292.599L639.247 293.936C639.338 293.979 639.444 294 639.55 294L639.765 293.979L643.191 292.514C643.374 292.433 643.522 292.281 643.6 292.091L644.948 288.738C645.018 288.551 645.018 288.343 644.944 288.153L643.522 284.828Z" fill="#FF4221"/>
<path opacity="0.2" fill-rule="evenodd" clip-rule="evenodd" d="M1166.77 293.878L1023.98 649.916C1021.13 657.058 1015.45 662.859 1008.39 665.837L655.946 816.528C652.323 818.107 648.449 818.907 644.433 818.907C640.756 818.907 637.006 818.177 633.591 816.798L277.904 673.871C270.766 671.016 264.971 665.327 261.996 658.267L111.448 305.427C108.388 298.258 108.307 290.325 111.232 283.091L254.017 -72.9433C256.864 -80.081 262.548 -85.8861 269.608 -88.8679L622.097 -239.559C625.751 -241.123 629.613 -241.907 633.491 -241.907C637.175 -241.907 640.872 -241.2 644.41 -239.783L1000.1 -96.8553C1007.23 -94.001 1013.03 -88.3117 1016.01 -81.2475L1166.55 271.542C1169.61 278.711 1169.69 286.644 1166.77 293.878ZM1017.01 -81.6723C1013.93 -89.007 1007.91 -94.9086 1000.5 -97.875L644.819 -240.798C637.291 -243.811 629.061 -243.73 621.669 -240.567L269.18 -89.8721C261.857 -86.7822 255.958 -80.7569 252.998 -73.3489L110.213 282.685C107.185 290.19 107.266 298.421 110.449 305.859L260.989 658.692C264.076 666.022 270.095 671.924 277.499 674.887L633.182 817.814C636.724 819.243 640.617 820 644.433 820C648.6 820 652.62 819.17 656.378 817.532L1008.82 666.841C1016.14 663.759 1022.04 657.738 1025 650.322L1167.79 294.284C1170.82 286.779 1170.73 278.549 1167.55 271.11L1017.01 -81.6723Z" fill="#FF4221"/>
<path opacity="0.2" fill-rule="evenodd" clip-rule="evenodd" d="M1182.71 293.542L1035.61 659.97C1032.67 667.327 1026.81 673.3 1019.54 676.365L656.462 831.46C652.722 833.084 648.732 833.909 644.595 833.909C640.813 833.909 636.949 833.153 633.418 831.734L267.001 684.636C259.649 681.694 253.673 675.837 250.604 668.565L95.5217 305.43C92.364 298.05 92.2869 289.879 95.2903 282.426L242.384 -84.0019C245.326 -91.3589 251.182 -97.3316 258.454 -100.397L621.581 -255.488C625.348 -257.1 629.331 -257.91 633.325 -257.91C637.123 -257.91 640.932 -257.181 644.579 -255.719L1011 -108.622C1018.35 -105.68 1024.32 -99.8264 1027.39 -92.5504L1182.48 270.542C1185.64 277.918 1185.72 286.089 1182.71 293.542ZM1028.4 -92.9745C1025.22 -100.513 1019.03 -106.586 1011.4 -109.64L644.984 -256.734C637.227 -259.838 628.768 -259.749 621.154 -256.495L258.03 -101.403C250.492 -98.2301 244.42 -92.0337 241.37 -84.4106L94.2725 282.021C91.1611 289.744 91.2459 298.208 94.5192 305.858L249.602 668.989C252.779 676.527 258.97 682.6 266.597 685.65L633.013 832.752C636.668 834.225 640.674 835 644.595 835C648.882 835 653.019 834.144 656.894 832.463L1019.97 677.372C1027.5 674.198 1033.58 668.002 1036.63 660.379L1183.72 293.947C1186.84 286.228 1186.76 277.76 1183.48 270.114L1028.4 -92.9745Z" fill="#FF4221"/>
<path opacity="0.2" fill-rule="evenodd" clip-rule="evenodd" d="M1198.64 295.213L1047.38 672.708C1044.35 680.294 1038.33 686.449 1030.84 689.608L657.463 849.383C653.61 851.056 649.503 851.909 645.253 851.909C641.361 851.909 637.381 851.129 633.755 849.668L256.945 698.127C249.377 695.096 243.233 689.06 240.073 681.563L80.5902 307.461C77.3413 299.852 77.2566 291.433 80.3515 283.751L231.616 -93.7401C234.645 -101.318 240.674 -107.481 248.153 -110.64L621.579 -270.415C625.456 -272.073 629.551 -272.906 633.666 -272.906C637.573 -272.906 641.492 -272.154 645.245 -270.654L1022.06 -119.113C1029.62 -116.078 1035.77 -110.042 1038.92 -102.549L1198.41 271.51C1201.66 279.112 1201.74 287.534 1198.64 295.213ZM1039.93 -102.973C1036.66 -110.736 1030.3 -116.988 1022.46 -120.127L645.653 -271.668C637.677 -274.861 628.978 -274.773 621.152 -271.417L247.729 -111.646C239.981 -108.372 233.741 -101.997 230.604 -94.1451L79.3392 283.346C76.1365 291.295 76.225 300.014 79.5894 307.89L239.072 681.987C242.336 689.754 248.707 696.006 256.541 699.141L633.351 850.682C637.104 852.198 641.219 853 645.253 853C649.653 853 653.906 852.121 657.894 850.385L1031.27 690.61C1039.02 687.344 1045.26 680.965 1048.4 673.113L1199.66 295.618C1202.86 287.669 1202.77 278.954 1199.41 271.078L1039.93 -102.973Z" fill="#FF4221"/>
<path opacity="0.2" fill-rule="evenodd" clip-rule="evenodd" d="M1215.57 293.899L1059.6 683.125C1056.47 690.95 1050.26 697.302 1042.54 700.559L657.529 865.306C653.557 867.029 649.318 867.906 644.933 867.906C640.918 867.906 636.814 867.107 633.073 865.596L244.527 709.346C236.721 706.216 230.38 699.991 227.125 692.26L62.6715 306.531C59.3237 298.675 59.235 289.989 62.4324 282.068L218.405 -107.158C221.529 -114.975 227.746 -121.331 235.464 -124.592L620.519 -289.331C624.515 -291.047 628.746 -291.901 632.984 -291.901C637.015 -291.901 641.061 -291.128 644.933 -289.578L1033.47 -133.325C1041.28 -130.202 1047.62 -123.97 1050.88 -116.238L1215.33 269.445C1218.68 277.296 1218.76 285.978 1215.57 293.899ZM1051.88 -116.663C1048.52 -124.665 1041.95 -131.111 1033.88 -134.345L645.338 -290.595C637.119 -293.887 628.148 -293.798 620.087 -290.339L235.039 -125.597C227.052 -122.223 220.618 -115.651 217.386 -107.564L61.4141 281.662C58.1088 289.85 58.2014 298.834 61.6687 306.959L226.118 692.685C229.485 700.683 236.046 707.124 244.122 710.362L632.664 866.616C636.536 868.173 640.783 869 644.933 869C649.469 869 653.85 868.096 657.965 866.311L1042.96 701.568C1050.95 698.199 1057.38 691.63 1060.61 683.535L1216.59 294.305C1219.89 286.117 1219.8 277.134 1216.33 269.016L1051.88 -116.663Z" fill="#FF4221"/>
<path opacity="0.2" fill-rule="evenodd" clip-rule="evenodd" d="M1231.51 293.562L1071.09 693.182C1067.88 701.215 1061.48 707.742 1053.53 711.095L657.566 880.231C653.473 882.005 649.11 882.908 644.601 882.908C640.469 882.908 636.249 882.086 632.396 880.532L232.789 720.107C224.638 716.851 218.281 710.62 214.879 702.557L45.745 306.525C42.3002 298.465 42.2076 289.542 45.4981 281.406L205.914 -118.215C209.127 -126.251 215.523 -132.779 223.47 -136.124L619.484 -305.267C623.6 -307.026 627.948 -307.906 632.315 -307.906C636.461 -307.906 640.624 -307.111 644.605 -305.518L1044.21 -145.093C1052.24 -141.884 1058.77 -135.483 1062.12 -127.54L1231.26 268.439C1234.7 276.498 1234.79 285.422 1231.51 293.562ZM1063.13 -127.968C1059.66 -136.178 1052.92 -142.79 1044.62 -146.108L645.014 -306.533C636.57 -309.908 627.35 -309.82 619.052 -306.27L223.041 -137.131C214.829 -133.674 208.217 -126.926 204.895 -118.624L44.4797 280.997C41.0851 289.407 41.1777 298.624 44.7459 306.957L213.872 702.982C217.386 711.315 223.959 717.758 232.38 721.126L631.991 881.55C635.972 883.151 640.331 884 644.601 884C649.261 884 653.77 883.07 657.998 881.234L1053.96 712.098C1062.17 708.637 1068.78 701.894 1072.1 693.588L1232.52 293.967C1235.92 285.561 1235.82 276.34 1232.26 268.011L1063.13 -127.968Z" fill="#FF4221"/>
<path opacity="0.2" fill-rule="evenodd" clip-rule="evenodd" d="M1247.44 295.249L1082.71 706.604C1079.41 714.879 1072.84 721.6 1064.68 725.047L658.083 899.155C653.888 900.983 649.409 901.906 644.768 901.906C640.519 901.906 636.182 901.06 632.227 899.464L221.894 734.327C213.636 731.018 206.932 724.433 203.494 716.255L29.8182 308.594C26.2794 300.293 26.183 291.106 29.56 282.723L194.288 -128.636C197.584 -136.906 204.157 -143.627 212.318 -147.075L618.97 -321.182C623.195 -322.995 627.667 -323.903 632.15 -323.903C636.41 -323.903 640.681 -323.084 644.775 -321.441L1055.11 -156.308C1063.36 -153 1070.06 -146.414 1073.51 -138.232L1247.18 269.378C1250.72 277.68 1250.82 286.866 1247.44 295.249ZM1074.51 -138.661C1070.96 -147.106 1064.04 -153.908 1055.52 -157.324L645.18 -322.458C636.506 -325.94 627.046 -325.839 618.538 -322.191L211.894 -148.08C203.463 -144.524 196.678 -137.583 193.27 -129.041L28.5422 282.313C25.0612 290.967 25.1576 300.455 28.816 309.023L202.491 716.68C206.038 725.128 212.961 731.926 221.485 735.347L631.822 900.484C635.897 902.127 640.377 903 644.768 903C649.559 903 654.185 902.045 658.514 900.159L1065.1 726.056C1073.53 722.496 1080.32 715.555 1083.73 707.01L1248.46 295.655C1251.94 287.005 1251.84 277.517 1248.18 268.945L1074.51 -138.661Z" fill="#FF4221"/>
<path opacity="0.2" fill-rule="evenodd" clip-rule="evenodd" d="M1266.37 295.908L1097.07 717.657C1093.67 726.147 1086.91 733.04 1078.52 736.575L660.631 915.083C656.309 916.959 651.706 917.908 646.94 917.908C642.576 917.908 638.119 917.04 634.048 915.399L212.312 746.091C203.826 742.699 196.931 735.938 193.396 727.552L14.8948 309.593C11.2521 301.079 11.1595 291.655 14.6285 283.057L183.931 -138.692C187.322 -147.179 194.079 -154.075 202.472 -157.61L620.419 -336.114C624.768 -337.974 629.36 -338.904 633.971 -338.904C638.351 -338.904 642.75 -338.063 646.956 -336.384L1068.69 -167.076C1077.17 -163.68 1084.07 -156.923 1087.6 -148.533L1266.11 269.373C1269.74 277.89 1269.84 287.314 1266.37 295.908ZM1088.61 -148.961C1084.96 -157.617 1077.85 -164.591 1069.09 -168.091L647.361 -337.399C638.451 -340.957 628.731 -340.865 619.987 -337.121L202.047 -158.613C193.392 -154.97 186.416 -147.858 182.916 -139.101L13.6137 282.648C10.0366 291.516 10.1331 301.241 13.8915 310.021L192.389 727.977C196.035 736.633 203.147 743.606 211.903 747.11L633.639 916.418C637.834 918.109 642.437 919 646.94 919C651.856 919 656.607 918.02 661.067 916.086L1078.95 737.582C1087.61 733.939 1094.58 726.823 1098.09 718.066L1267.39 296.313C1270.96 287.453 1270.87 277.731 1267.11 268.944L1088.61 -148.961Z" fill="#FF4221"/>
<path opacity="0.2" fill-rule="evenodd" clip-rule="evenodd" d="M1282.3 296.078L1108.7 728.558C1105.22 737.266 1098.28 744.34 1089.68 747.965L661.153 931.012C656.722 932.933 651.998 933.909 647.105 933.909C642.62 933.909 638.046 933.018 633.878 931.34L201.413 757.722C192.709 754.244 185.637 747.313 182.008 738.705L-1.03149 310.112C-4.76825 301.373 -4.86467 291.708 -1.30145 282.888L172.301 -149.592C175.788 -158.297 182.717 -165.37 191.325 -168.995L619.902 -352.046C624.364 -353.952 629.076 -354.908 633.804 -354.908C638.301 -354.908 642.809 -354.044 647.124 -352.32L1079.59 -178.703C1088.29 -175.224 1095.36 -168.293 1098.99 -159.681L1282.04 268.853C1285.77 277.589 1285.87 287.258 1282.3 296.078ZM1100 -160.109C1096.26 -168.984 1088.96 -176.13 1079.99 -179.721L647.533 -353.335C638.405 -356.983 628.436 -356.883 619.474 -353.053L190.897 -170.002C182.027 -166.265 174.878 -158.972 171.287 -150.001L-2.31949 282.483C-5.98683 291.569 -5.89045 301.535 -2.03415 310.54L181.001 739.129C184.746 748.003 192.034 755.15 201.008 758.741L633.469 932.354C637.765 934.086 642.481 935 647.105 935C652.149 935 657.019 933.993 661.585 932.015L1090.1 748.972C1098.97 745.234 1106.12 737.941 1109.71 728.963L1283.32 296.483C1286.99 287.393 1286.89 277.427 1283.04 268.425L1100 -160.109Z" fill="#FF4221"/>
<path opacity="0.2" fill-rule="evenodd" clip-rule="evenodd" d="M1297.24 294.257L1119.46 738.132C1115.9 747.076 1108.79 754.337 1099.98 758.058L661.15 945.931C656.61 947.904 651.773 948.908 646.762 948.908C642.176 948.908 637.493 947.997 633.211 946.267L190.357 768.076C181.438 764.501 174.194 757.387 170.478 748.551L-16.9656 308.656C-20.7897 299.681 -20.886 289.756 -17.239 280.708L160.538 -163.171C164.104 -172.107 171.205 -179.369 180.024 -183.094L618.9 -370.967C623.471 -372.924 628.3 -373.904 633.145 -373.904C637.747 -373.904 642.368 -373.02 646.789 -371.248L1089.65 -193.057C1098.56 -189.482 1105.81 -182.368 1109.52 -173.528L1296.97 266.305C1300.79 275.272 1300.89 285.201 1297.24 294.257ZM1110.53 -173.957C1106.7 -183.059 1099.24 -190.393 1090.05 -194.072L647.194 -372.264C637.843 -376.008 627.65 -375.908 618.472 -371.974L179.597 -184.101C170.512 -180.264 163.195 -172.783 159.521 -163.58L-18.2557 280.302C-22.0105 289.617 -21.9104 299.839 -17.9669 309.088L169.472 748.975C173.296 758.078 180.764 765.412 189.952 769.095L632.806 947.286C637.212 949.062 642.037 950 646.762 950C651.923 950 656.91 948.969 661.581 946.935L1100.4 759.066C1109.48 755.233 1116.8 747.752 1120.48 738.541L1298.26 294.662C1302.01 285.336 1301.91 275.114 1297.96 265.873L1110.53 -173.957Z" fill="#FF4221"/>
<path opacity="0.2" fill-rule="evenodd" clip-rule="evenodd" d="M1313.17 294.423L1130.68 749.03C1127.01 758.188 1119.72 765.63 1110.67 769.446L660.214 961.86C655.551 963.882 650.578 964.908 645.44 964.908C640.734 964.908 635.924 963.975 631.526 962.204L176.935 779.704C167.646 775.989 160.394 768.882 156.521 759.697L-35.886 309.176C-39.809 299.986 -39.917 289.817 -36.1714 280.535L146.322 -174.068C149.982 -183.227 157.277 -190.665 166.327 -194.48L616.837 -386.895C621.528 -388.901 626.481 -389.904 631.457 -389.904C636.186 -389.904 640.927 -388.997 645.471 -387.18L1100.06 -204.684C1109.22 -201.023 1116.66 -193.732 1120.48 -184.677L1312.89 265.79C1316.81 274.976 1316.91 285.145 1313.17 294.423ZM1121.48 -185.102C1117.56 -194.422 1109.9 -201.93 1100.47 -205.699L645.88 -388.195C636.282 -392.033 625.817 -391.929 616.409 -387.902L165.902 -195.487C156.583 -191.56 149.076 -183.902 145.303 -174.473L-37.1859 280.13C-41.0395 289.678 -40.9315 300.144 -36.885 309.608L155.518 760.121C159.503 769.581 166.963 776.895 176.53 780.722L631.121 963.219C635.642 965.039 640.595 966 645.44 966C650.729 966 655.851 964.947 660.65 962.864L1111.09 770.453C1120.41 766.525 1127.93 758.867 1131.69 749.435L1314.19 294.828C1318.04 285.28 1317.93 274.814 1313.89 265.362L1121.48 -185.102Z" fill="#FF4221"/>
<path opacity="0.2" fill-rule="evenodd" clip-rule="evenodd" d="M1329.11 295.097L1142.45 760.766C1138.64 770.289 1131.37 777.72 1121.97 781.687L661.219 978.787C656.453 980.855 651.368 981.908 646.102 981.908C641.282 981.908 636.359 980.951 631.863 979.138L166.875 792.197C157.505 788.443 149.893 780.973 145.99 771.693L-50.8127 310.207C-54.8347 300.792 -54.9426 290.367 -51.1094 280.864L135.558 -184.809C139.303 -194.189 146.765 -201.813 156.026 -205.726L616.835 -402.822C621.631 -404.878 626.709 -405.908 631.798 -405.908C636.636 -405.908 641.49 -404.975 646.136 -403.115L1111.12 -216.178C1120.49 -212.428 1128.1 -204.954 1132.01 -195.675L1328.82 265.758C1332.83 275.176 1332.94 285.594 1329.11 295.097ZM1133.01 -196.103C1129 -205.645 1121.16 -213.335 1111.53 -217.193L646.541 -404.134C636.729 -408.058 626.03 -407.95 616.407 -403.829L155.602 -206.733C146.071 -202.709 138.397 -194.864 134.541 -185.214L-52.1226 280.455C-56.0636 290.232 -55.9519 300.951 -51.8144 310.635L144.985 772.122C149.003 781.664 156.831 789.354 166.47 793.216L631.455 980.156C636.078 982.016 641.144 983 646.102 983C651.518 983 656.754 981.92 661.65 979.79L1122.4 782.694C1132.07 778.612 1139.54 770.972 1143.46 761.175L1330.12 295.503C1334.06 285.733 1333.96 275.014 1329.82 265.326L1133.01 -196.103Z" fill="#FF4221"/>
<path opacity="0.2" fill-rule="evenodd" clip-rule="evenodd" d="M1346.04 295.781L1154.93 773.188C1151.1 782.807 1143.46 790.628 1133.97 794.639L662.253 996.703C657.371 998.828 652.162 999.906 646.771 999.906C641.832 999.906 636.796 998.925 632.188 997.066L156.145 805.413C146.547 801.564 138.752 793.901 134.752 784.387L-66.7379 311.273C-70.8569 301.612 -70.9648 290.923 -67.0346 281.178L124.064 -196.23C127.963 -205.995 135.411 -213.611 145.036 -217.681L616.806 -419.744C621.723 -421.85 626.916 -422.909 632.13 -422.909C637.085 -422.909 642.055 -421.951 646.81 -420.046L1122.86 -228.397C1132.46 -224.544 1140.25 -216.881 1144.25 -207.367L1345.74 265.689C1349.85 275.346 1349.97 286.035 1346.04 295.781ZM1145.25 -207.796C1141.15 -217.576 1133.13 -225.452 1123.27 -229.413L647.218 -421.062C637.177 -425.085 626.227 -424.973 616.378 -420.749L144.608 -218.689C134.714 -214.504 127.058 -206.675 123.05 -196.635L-68.0518 280.768C-72.086 290.784 -71.9781 301.771 -67.7397 311.702L133.747 784.816C137.858 794.597 145.876 802.472 155.736 806.433L631.783 998.082C636.511 999.991 641.697 1001 646.771 1001C652.312 1001 657.668 999.891 662.685 997.708L1134.39 795.648C1144.15 791.521 1152.01 783.483 1155.95 773.594L1347.05 296.187C1351.09 286.174 1350.98 275.188 1346.74 265.26L1145.25 -207.796Z" fill="#FF4221"/>
<path opacity="0.2" fill-rule="evenodd" clip-rule="evenodd" d="M1364.97 295.448L1169.15 783.249C1165.22 793.079 1157.39 801.072 1147.66 805.171L664.318 1011.64C659.317 1013.81 653.976 1014.91 648.45 1014.91C643.387 1014.91 638.216 1013.9 633.504 1012.01L145.723 816.186C135.886 812.249 127.898 804.414 123.796 794.689L-82.658 311.276C-86.8798 301.404 -86.9878 290.481 -82.9629 280.516L112.848 -207.285C116.78 -217.118 124.614 -225.107 134.339 -229.206L617.74 -435.67C622.78 -437.828 628.105 -438.904 633.446 -438.904C638.525 -438.904 643.619 -437.928 648.496 -435.979L1136.28 -240.155C1146.11 -236.223 1154.1 -228.392 1158.2 -218.666L1364.66 264.689C1368.88 274.557 1368.99 285.483 1364.97 295.448ZM1159.21 -219.094C1155 -229.086 1146.79 -237.133 1136.69 -241.174L648.902 -436.994C638.617 -441.108 627.399 -440.996 617.312 -436.677L133.914 -230.217C123.92 -226.003 115.87 -217.794 111.829 -207.69L-83.9817 280.107C-88.1108 290.343 -88.0028 301.566 -83.6614 311.704L122.789 795.117C126.999 805.109 135.211 813.156 145.314 817.201L633.099 1013.02C637.938 1014.97 643.248 1016 648.45 1016C654.127 1016 659.614 1014.87 664.754 1012.64L1148.09 806.178C1158.08 801.968 1166.13 793.759 1170.17 783.655L1365.99 295.854C1370.11 285.619 1370 274.399 1365.67 264.26L1159.21 -219.094Z" fill="#FF4221"/>
<path opacity="0.2" fill-rule="evenodd" clip-rule="evenodd" d="M1378.9 295.612L1178.91 794.143C1174.89 804.199 1166.9 812.365 1156.96 816.557L663.323 1027.56C658.205 1029.78 652.751 1030.91 647.108 1030.91C641.943 1030.91 636.663 1029.88 631.841 1027.94L133.663 827.813C123.619 823.794 115.455 815.786 111.262 805.838L-99.5924 311.789C-103.902 301.699 -104.013 290.532 -99.9046 280.345L100.084 -218.182C104.104 -228.238 112.102 -236.408 122.038 -240.597L615.738 -451.6C620.887 -453.806 626.325 -454.906 631.787 -454.906C636.975 -454.906 642.178 -453.911 647.162 -451.916L1145.34 -251.787C1155.39 -247.768 1163.55 -239.76 1167.74 -229.816L1378.59 264.171C1382.9 274.262 1383.01 285.425 1378.9 295.612ZM1168.74 -230.244C1164.44 -240.451 1156.06 -248.674 1145.74 -252.802L647.57 -452.935C637.075 -457.131 625.62 -457.016 615.31 -452.607L121.614 -241.604C111.412 -237.303 103.199 -228.913 99.0667 -218.591L-100.918 279.94C-105.135 290.393 -105.023 301.861 -100.591 312.221L110.26 806.266C114.565 816.476 122.948 824.7 133.254 828.828L631.432 1028.96C636.385 1030.95 641.804 1032 647.108 1032C652.901 1032 658.501 1030.84 663.755 1028.57L1157.38 817.56C1167.59 813.259 1175.8 804.87 1179.93 794.552L1379.92 296.017C1384.13 285.567 1384.02 274.103 1379.59 263.739L1168.74 -230.244Z" fill="#FF4221"/>
<g opacity="0.2">
<mask id="mask0" mask-type="alpha" maskUnits="userSpaceOnUse" x="-268" y="-622" width="1816" height="1818">
<g opacity="0.2">
<path opacity="0.2" d="M-268 -621.201H1547.39V1195.15H-268V-621.201Z" fill="white"/>
</g>
</mask>
<g mask="url(#mask0)">
<path opacity="0.2" fill-rule="evenodd" clip-rule="evenodd" d="M1542.62 296.311L1298.44 904.929C1293.52 917.232 1283.72 927.232 1271.56 932.359L668.829 1189.96C662.564 1192.68 655.889 1194.06 648.984 1194.06C642.653 1194.06 636.191 1192.8 630.296 1190.42L22.0206 946.102C9.72118 941.175 -0.268756 931.376 -5.39288 919.211L-262.848 316.064C-268.127 303.71 -268.262 290.045 -263.23 277.583L-19.0457 -331.035C-14.1336 -343.338 -4.34029 -353.334 7.82806 -358.462L610.632 -616.065C616.932 -618.762 623.595 -620.108 630.273 -620.108C636.627 -620.108 642.996 -618.889 649.092 -616.451L1257.37 -372.131C1269.66 -367.208 1279.66 -357.408 1284.78 -345.24L1542.24 257.83C1547.51 270.184 1547.65 283.849 1542.62 296.311ZM1543.24 257.402L1285.79 -345.668C1280.55 -358.103 1270.34 -368.114 1257.77 -373.145L649.497 -617.465C636.708 -622.581 622.762 -622.442 610.204 -617.072L7.40009 -359.472C-5.0266 -354.229 -15.0397 -344.013 -20.0635 -331.44L-264.248 277.174C-269.384 289.91 -269.245 303.872 -263.847 316.492L-6.3992 919.636C-1.16326 932.07 9.04644 942.086 21.6158 947.117L629.887 1191.44C635.913 1193.87 642.518 1195.15 648.984 1195.15C656.04 1195.15 662.86 1193.74 669.261 1190.97L1271.99 933.366C1284.41 928.127 1294.43 917.907 1299.46 905.334L1543.64 296.716C1548.78 283.988 1548.64 270.022 1543.24 257.402Z" fill="#FF4221"/>
</g>
</g>
</g>
<defs>
<clipPath id="clip0">
<rect width="1280" height="575" fill="white"/>
</clipPath>
</defs>
</svg>
