<?xml version="1.0" encoding="UTF-8"?>
<svg width="24px" height="24px" viewBox="0 0 24 24" version="1.1" xmlns="http://www.w3.org/2000/svg" xmlns:xlink="http://www.w3.org/1999/xlink">
    <!-- Generator: Sketch 52.6 (67491) - http://www.bohemiancoding.com/sketch -->
    <title>Group 6 Copy 3</title>
    <desc>Created with Sketch.</desc>
    <defs>
        <polygon id="path-1" points="0 0.205714286 23.7905455 0.205714286 23.7905455 23.5713 0 23.5713"></polygon>
    </defs>
    <g id="main" stroke="none" stroke-width="1" fill="none" fill-rule="evenodd">
        <g id="Wallet" transform="translate(-1107.000000, -778.000000)">
            <g id="Group-6-Copy-3" transform="translate(1107.000000, 778.000000)">
                <g id="Group-3" transform="translate(0.000000, 0.222857)">
                    <mask id="mask-2" fill="white">
                        <use xlink:href="#path-1"></use>
                    </mask>
                    <g id="Clip-2"></g>
                    <path d="M11.8952727,21.6641571 C6.39796364,21.6641571 1.94181818,17.2875857 1.94181818,11.8884429 C1.94181818,6.48972857 6.39796364,2.11272857 11.8952727,2.11272857 C17.3925818,2.11272857 21.8487273,6.48972857 21.8487273,11.8884429 C21.8439273,17.2854429 17.3904,21.6594429 11.8952727,21.6641571 M11.8952727,0.205585714 C5.32581818,0.205585714 0,5.4363 0,11.8884429 C0,18.3405857 5.32581818,23.5713 11.8952727,23.5713 C18.4651636,23.5713 23.7905455,18.3405857 23.7905455,11.8884429 C23.7831273,5.4393 18.4621091,0.212871429 11.8952727,0.205585714" id="Fill-1" fill="#000000" mask="url(#mask-2)"></path>
                </g>
                <path d="M13.1187055,12.0679714 L16.69296,8.55711429 C17.0027782,8.22197143 16.9774691,7.7034 16.6362327,7.39911429 C16.3181236,7.1154 15.8324509,7.1154 15.5143418,7.39911429 L11.9396509,10.9099714 L8.36496,7.39911429 C8.02372364,7.09482857 7.49572364,7.12011429 7.18590545,7.45525714 C6.89746909,7.76768571 6.89746909,8.24468571 7.18590545,8.55711429 L10.7605964,12.0679714 L7.18590545,15.5788286 C6.86168727,15.9002571 6.86386909,16.4192571 7.19114182,16.7381143 C7.34605091,16.8894 7.55506909,16.9742571 7.77368727,16.9755429 C7.99492364,16.9751143 8.20743273,16.8894 8.36496,16.7368286 L11.9396509,13.2259714 L15.5143418,16.7368286 C15.6723055,16.8894 15.8843782,16.9751143 16.1056145,16.9755429 C16.5664145,16.9729714 16.9381964,16.6035429 16.9351418,16.1509714 C16.9338327,15.9362571 16.8469964,15.7309714 16.69296,15.5788286 L13.1187055,12.0679714 Z" id="Fill-4" fill="#000000"></path>
            </g>
        </g>
    </g>
</svg>