<svg width="42" height="42" viewBox="0 0 42 42" fill="none" xmlns="http://www.w3.org/2000/svg">
<path fill-rule="evenodd" clip-rule="evenodd" d="M40.91 20.3528L35.2335 7.06338C35.1186 6.78985 34.898 6.57515 34.6227 6.46487L21.2117 1.08072C20.9364 0.970797 20.6283 0.972624 20.3547 1.08938L7.0641 6.76578C6.79022 6.8811 6.57549 7.10129 6.46522 7.37698L1.08168 20.7881C0.969602 21.0656 0.973223 21.3716 1.09034 21.6455L6.76643 34.9366C6.88175 35.2101 7.10231 35.4249 7.37727 35.5352L20.7883 40.919C20.9209 40.9727 21.0639 41 21.2048 41C21.3544 41 21.5043 40.971 21.647 40.909L34.9359 35.2324C35.2097 35.1171 35.4245 34.8966 35.5348 34.6216L40.9183 21.2102C41.0304 20.9327 41.0267 20.6267 40.91 20.3528Z" stroke="#FF4221"/>
<mask id="mask0" mask-type="alpha" maskUnits="userSpaceOnUse" x="12" y="19" width="13" height="12">
<path d="M12 19.254H24.3196V30.5171H12V19.254Z" fill="white"/>
</mask>
<g mask="url(#mask0)">
<path fill-rule="evenodd" clip-rule="evenodd" d="M16.0774 30.5169C13.8269 30.5182 12.0009 28.6949 11.9996 26.4444C11.9989 25.362 12.4294 24.3242 13.1946 23.559L15.6122 21.1414C15.8677 20.8846 16.2825 20.8833 16.5393 21.1388C16.7961 21.393 16.7981 21.8084 16.5426 22.0659L14.125 24.4828C13.0394 25.5684 13.0394 27.3282 14.125 28.4138C15.2106 29.4995 16.9704 29.4995 18.056 28.4138L22.2039 24.2666C23.2889 23.1875 23.2941 21.433 22.2151 20.3473L22.2039 20.3356C21.9681 20.061 22.0002 19.647 22.2747 19.4118C22.5204 19.2015 22.882 19.2015 23.1271 19.4118C24.7172 21.0045 24.7172 23.5839 23.1271 25.1779L18.9798 29.3245C18.2119 30.0957 17.1663 30.5261 16.0774 30.5169Z" fill="#FF4221"/>
</g>
<mask id="mask1" mask-type="alpha" maskUnits="userSpaceOnUse" x="18" y="12" width="13" height="12">
<path d="M18.2176 12H30.5191V23.3162H18.2176V12Z" fill="white"/>
</mask>
<g mask="url(#mask1)">
<path fill-rule="evenodd" clip-rule="evenodd" d="M19.8776 23.2972C19.7033 23.2979 19.5363 23.2291 19.4124 23.1072C17.8204 21.5158 17.819 18.9364 19.4098 17.3437C19.4111 17.343 19.4118 17.3423 19.4124 17.3417L23.5597 13.1945C25.1517 11.6017 27.7331 11.6017 29.3245 13.1945C30.9173 14.7865 30.9173 17.3679 29.3245 18.96L26.9076 21.3769C26.6324 21.6128 26.219 21.5807 25.9838 21.3061C25.7741 21.0605 25.7741 20.6988 25.9838 20.4531L28.4014 18.0362C29.487 16.9506 29.487 15.1901 28.4014 14.1051C27.3158 13.0195 25.556 13.0195 24.4704 14.1051L20.3428 18.2648C19.2571 19.3393 19.248 21.0899 20.3218 22.1749L20.3428 22.1959C20.5996 22.4514 20.6009 22.8661 20.3467 23.1223C20.2222 23.2481 20.0538 23.3175 19.8776 23.3162V23.2972Z" fill="#FF4221"/>
</g>
</svg>
