<svg width="42" height="42" viewBox="0 0 42 42" fill="none" xmlns="http://www.w3.org/2000/svg">
<path fill-rule="evenodd" clip-rule="evenodd" d="M40.91 20.3528L35.2335 7.06338C35.1186 6.78985 34.898 6.57515 34.6227 6.46487L21.2117 1.08072C20.9364 0.970797 20.6283 0.972624 20.3547 1.08938L7.0641 6.76578C6.79022 6.8811 6.57549 7.10129 6.46522 7.37698L1.08168 20.7881C0.969602 21.0656 0.973223 21.3716 1.09034 21.6455L6.76643 34.9366C6.88175 35.2101 7.10231 35.4249 7.37727 35.5352L20.7883 40.919C20.9209 40.9727 21.0639 41 21.2048 41C21.3544 41 21.5043 40.971 21.647 40.909L34.9359 35.2324C35.2097 35.1171 35.4245 34.8966 35.5348 34.6216L40.9183 21.2102C41.0304 20.9327 41.0267 20.6267 40.91 20.3528Z" stroke="#FF4221"/>
<mask id="mask0" mask-type="alpha" maskUnits="userSpaceOnUse" x="17" y="14" width="8" height="15">
<path d="M17 14.0001H25V28.4H17V14.0001Z" fill="white"/>
</mask>
<g mask="url(#mask0)">
<path fill-rule="evenodd" clip-rule="evenodd" d="M25 16.5034H22.7147C22.4446 16.5034 22.1429 16.8588 22.1429 17.3342V18.9846H25V21.3366H22.1429V28.4001H19.4456V21.3366H17V18.9846H19.4456V17.6001C19.4456 15.6148 20.8234 14.0001 22.7147 14.0001H25V16.5034Z" fill="#FF4221"/>
</g>
</svg>
