<?xml version="1.0" encoding="UTF-8"?>
<svg width="307px" height="902px" viewBox="0 0 307 902" version="1.1" xmlns="http://www.w3.org/2000/svg" xmlns:xlink="http://www.w3.org/1999/xlink">
    <!-- Generator: Sketch 52.6 (67491) - http://www.bohemiancoding.com/sketch -->
    <title>lines</title>
    <desc>Created with Sketch.</desc>
    <defs>
        <polygon id="path-1" points="0.000266889449 0.165437532 1096.94724 0.165437532 1096.94724 1096.99959 0.000266889449 1096.99959"></polygon>
    </defs>
    <g id="main" stroke="none" stroke-width="1" fill="none" fill-rule="evenodd" opacity="0.8">
        <g id="Tech" transform="translate(0.000000, -391.000000)">
            <g id="lines" transform="translate(-790.000000, 294.000000)">
                <path d="M796.850778,550.417155 L729.445004,718.334778 C728.13017,721.626314 725.512829,724.293239 722.258616,725.665739 L555.874622,796.739894 C552.653279,798.132941 548.864914,798.19869 545.569612,796.863173 L377.657123,729.454498 C374.316624,728.12309 371.71161,725.571225 370.318707,722.267362 L299.251943,555.853736 C297.842605,552.558091 297.805626,548.904939 299.149222,545.568201 L366.554996,377.650578 C367.873938,374.359042 370.491279,371.688009 373.741384,370.319617 L540.145923,299.249571 C541.834662,298.530447 543.613797,298.16883 545.401149,298.16883 C547.102215,298.16883 548.803281,298.493463 550.434497,299.146839 L718.351094,366.555514 C721.638179,367.866376 724.308935,370.488098 725.681293,373.74265 L796.752166,540.13162 C798.161503,543.427265 798.198483,547.080417 796.850778,550.417155 Z M726.749595,373.290629 C725.262189,369.748427 722.357228,366.900694 718.782524,365.470664 L550.870036,298.061989 C547.22959,296.607302 543.260435,296.648395 539.68984,298.177048 L373.28941,369.247095 C369.755794,370.730546 366.904249,373.635809 365.474367,377.219103 L298.064484,545.136727 C296.60584,548.757005 296.646929,552.726572 298.18364,556.313976 L369.250405,722.723493 C370.762464,726.310896 373.593465,729.084662 377.221585,730.539348 L545.134073,797.943914 C546.843357,798.634274 548.721104,799 550.56598,799 C552.566993,799 554.510482,798.59729 556.334813,797.808308 L722.71059,726.738262 C726.248315,725.250701 729.09986,722.345438 730.525633,718.770362 L797.935516,550.84863 C799.39416,547.224242 799.353071,543.254675 797.81636,539.67549 L726.749595,373.290629 Z" id="Fill-1" fill="#FF4221"></path>
                <path d="M814.779081,551.10161 L742.660984,730.756353 C741.247387,734.286651 738.436631,737.151164 734.947841,738.622464 L556.937366,814.665647 C553.514325,816.149276 549.429687,816.223252 545.879258,814.79305 L366.233284,742.674703 C362.699292,741.26094 359.835114,738.449854 358.368097,734.960654 L282.329734,556.921053 C280.817514,553.382536 280.776421,549.46592 282.218783,545.882195 L354.33688,366.231562 C355.771023,362.651947 358.507813,359.85319 362.045914,358.361341 L540.081045,282.326378 C541.889134,281.54963 543.799955,281.163311 545.714886,281.163311 C547.539412,281.163311 549.368048,281.512642 551.118607,282.211304 L730.768689,354.333761 C734.290354,355.743414 737.154531,358.550391 738.633877,362.0437 L814.672239,540.062752 C816.184459,543.609489 816.221443,547.526105 814.779081,551.10161 Z M739.702293,361.591625 C738.111996,357.814741 735.013589,354.773507 731.200165,353.24878 L551.550082,281.130433 C547.675019,279.585157 543.442447,279.622145 539.624913,281.253726 L361.593892,357.28869 C357.764031,358.899722 354.80123,361.924517 353.256136,365.795926 L281.138039,545.450669 C279.580617,549.317968 279.62171,553.555147 281.261318,557.377238 L357.295571,735.416839 C358.881758,739.189613 361.980166,742.230847 365.797699,743.759684 L545.447782,815.878031 C547.272308,816.609571 549.281752,817 551.241885,817 C553.391046,817 555.466239,816.576693 557.397607,815.734189 L735.403972,739.695116 C739.176303,738.108742 742.21718,735.009971 743.745838,731.18788 L815.863934,551.533137 C817.421356,547.674057 817.376154,543.436878 815.736546,539.606567 L739.702293,361.591625 Z" id="Fill-3" fill="#FF4221"></path>
                <path d="M831.707398,550.781723 L754.881086,742.170973 C753.368725,745.939983 750.36866,749.006157 746.645292,750.576235 L557.000114,831.58323 C553.330172,833.17797 548.973913,833.251952 545.19712,831.722976 L353.813547,754.891895 C350.044973,753.383469 346.987373,750.383058 345.413367,746.65515 L264.407513,556.983943 C262.79241,553.202603 262.751313,549.014357 264.296552,545.200136 L341.122863,353.806775 C342.631115,350.041875 345.63118,346.983922 349.358657,345.409733 L539.016165,264.402738 C540.947713,263.576597 542.986113,263.161472 545.036842,263.161472 C546.98483,263.161472 548.932817,263.535496 550.80272,264.283544 L742.186292,341.118734 C745.954867,342.62305 749.016576,345.619351 750.590583,349.35137 L831.592327,538.997916 C833.20743,542.783366 833.248527,546.967501 831.707398,550.781723 Z M751.659099,348.895143 C749.970022,344.883634 746.67817,341.657164 742.617808,340.033654 L551.238346,263.202574 C547.10812,261.554402 542.603913,261.603724 538.559991,263.329988 L348.906593,344.336984 C344.895547,346.026256 341.665341,349.322599 340.037908,353.375209 L263.211597,544.764459 C261.555397,548.870502 261.596494,553.371119 263.338997,557.44017 L344.340741,747.111376 C346.029818,751.118775 349.32578,754.349355 353.377922,755.976975 L544.765604,832.803946 C546.705371,833.588985 548.838294,834 550.92601,834 C553.198662,834 555.401449,833.547883 557.464507,832.65187 L747.097357,751.648985 C751.108402,749.959712 754.338609,746.66337 755.961931,742.606649 L832.792353,551.213289 C834.448553,547.111357 834.399236,542.61074 832.656733,538.537578 L751.659099,348.895143 Z" id="Fill-5" fill="#FF4221"></path>
                <path d="M849.635334,551.470252 L768.096696,754.593883 C766.493789,758.609825 763.300306,761.865327 759.338249,763.534184 L558.070689,849.504937 C554.166172,851.194345 549.517742,851.272444 545.510475,849.652914 L342.397517,768.113262 C338.38614,766.506063 335.131006,763.316328 333.458229,759.353822 L247.488992,558.055246 C245.766894,554.026972 245.721684,549.575319 247.369801,545.518272 L328.908439,342.394641 C330.507236,338.38692 333.70072,335.131418 337.666887,333.454341 L538.954997,247.483587 C541.010006,246.608054 543.180095,246.168233 545.358404,246.168233 C547.429853,246.168233 549.505412,246.562839 551.49055,247.360273 L754.607618,328.904036 C758.614885,330.503014 761.870019,333.696859 763.542797,337.663475 L849.516144,538.933278 C851.234131,542.957441 851.275231,547.409095 849.635334,551.470252 Z M764.611401,337.211322 C762.823543,332.956972 759.334139,329.53705 755.03917,327.818868 L551.922102,246.275105 C547.557264,244.532261 542.785533,244.573365 538.498785,246.414862 L337.210675,332.385615 C332.960917,334.173675 329.541382,337.667586 327.823395,341.963041 L246.284756,545.082561 C244.525669,549.431452 244.574989,554.199613 246.420387,558.511509 L332.385514,759.810086 C334.177482,764.056215 337.670997,767.476137 341.965965,769.198429 L545.074813,850.738082 C547.129822,851.564289 549.386222,852 551.601521,852 C554.018211,852 556.352701,851.519073 558.531011,850.573662 L759.794461,764.60702 C764.040109,762.818959 767.459643,759.325049 769.181741,755.025484 L850.720379,551.901853 C852.471247,547.552961 852.426036,542.784801 850.580638,538.477015 L764.611401,337.211322 Z" id="Fill-7" fill="#FF4221"></path>
                <path d="M866.561608,551.153696 L780.31436,766.012371 C778.61679,770.262928 775.23398,773.715992 771.033214,775.483632 L558.134082,866.422534 C553.98264,868.214839 549.083115,868.297055 544.824804,866.578745 L329.973261,780.330254 C325.727281,778.632497 322.274596,775.249317 320.50304,771.043979 L229.565894,558.117375 C227.745014,553.850375 227.69569,549.135298 229.434363,544.831301 L315.685722,329.972626 C317.383292,325.726179 320.766101,322.273116 324.966868,320.505476 L537.886551,229.562463 C540.065031,228.629313 542.366821,228.164794 544.672721,228.164794 C546.867642,228.164794 549.066674,228.588205 551.175278,229.426806 L766.02682,315.679408 C770.272801,317.381275 773.725486,320.764455 775.497042,324.965683 L866.434187,537.867622 C868.255068,542.134622 868.304392,546.849699 866.561608,551.153696 Z M776.56573,324.513496 C774.679085,320.028624 770.996221,316.415239 766.458406,314.602381 L551.606864,228.345669 C546.995063,226.504035 541.959897,226.553364 537.430304,228.489546 L324.514731,319.428449 C320.030351,321.319412 316.413252,325.006791 314.600593,329.536882 L228.349234,544.395557 C226.499581,548.991421 226.553016,554.023028 228.501316,558.577783 L319.434351,771.500276 C321.325108,775.981038 325.007971,779.598533 329.541676,781.415502 L544.389108,867.663993 C546.563477,868.539591 548.947474,869 551.282147,869 C553.826447,869 556.28854,868.494373 558.59444,867.49134 L771.485351,776.556548 C775.973841,774.665585 779.582719,770.982317 781.395379,766.444004 L867.646738,551.585329 C869.500501,546.993576 869.447066,541.961969 867.502876,537.407214 L776.56573,324.513496 Z" id="Fill-9" fill="#FF4221"></path>
                <path d="M884.493592,551.833265 L793.529893,778.426829 C791.741777,782.91611 788.165546,786.566734 783.726087,788.437267 L559.200432,884.344253 C554.81441,886.243564 549.635041,886.325786 545.138033,884.508696 L318.552963,793.547318 C313.998406,791.726118 310.45095,788.244047 308.551848,783.738322 L212.647195,559.179734 C210.723429,554.669898 210.674102,549.691401 212.507434,545.144565 L303.467022,318.551001 C305.26747,314.06172 308.83959,310.415208 313.274939,308.548785 L537.825257,212.641799 C540.127199,211.655144 542.552459,211.165927 544.990051,211.165927 C547.312546,211.165927 549.635041,211.609922 551.858882,212.497912 L778.443952,303.459289 C782.998509,305.284601 786.550076,308.766671 788.453289,313.272396 L884.353831,537.798096 C886.277597,542.29971 886.326924,547.286429 884.493592,551.833265 Z M789.522047,312.816068 C787.528401,308.092457 783.652096,304.289724 778.879677,302.382191 L552.294606,211.420813 C547.439975,209.476281 542.133177,209.529724 537.36898,211.568812 L312.822772,307.475798 C308.09968,309.461441 304.301476,313.342284 302.385932,318.11934 L211.426343,544.712904 C209.473803,549.539292 209.527241,554.842563 211.578436,559.636062 L307.478978,784.190539 C309.493177,788.984039 313.274939,792.688106 318.121349,794.632639 L544.706419,885.594016 C546.996029,886.514895 549.503502,887 551.961647,887 C554.633544,887 557.227339,886.465562 559.664931,885.41313 L784.182364,789.506144 C788.901345,787.516389 792.70366,783.639657 794.615094,778.862602 L885.578793,552.264926 C887.523112,547.430316 887.473784,542.131156 885.42259,537.341768 L789.522047,312.816068 Z" id="Fill-11" fill="#FF4221"></path>
                <path d="M901.419881,551.520353 L805.75167,789.849285 C803.856558,794.581411 800.090999,798.425492 795.416938,800.390702 L559.2679,901.261863 C554.676056,903.259963 549.212707,903.358635 544.452318,901.43865 L306.132739,805.768304 C301.335352,803.848319 297.594458,800.176913 295.592464,795.436565 L194.723999,559.249629 C192.697339,554.505169 192.643898,549.250906 194.580119,544.461222 L290.24833,306.13229 C292.168107,301.334383 295.839116,297.593085 300.578951,295.594985 L536.756765,194.719712 C539.178069,193.68366 541.739142,193.165635 544.308437,193.165635 C546.750295,193.165635 549.196264,193.634325 551.543572,194.571705 L789.86315,290.246161 C794.594764,292.137367 798.430207,295.903334 800.403426,300.577901 L901.276001,536.731946 C903.302661,541.480517 903.356102,546.730669 901.419881,551.520353 Z M801.476363,300.125656 C799.38804,295.163297 795.310055,291.171208 790.298902,289.164885 L551.975213,193.490429 C546.86951,191.447104 541.30339,191.508774 536.300458,193.65077 L300.122644,294.521931 C295.164933,296.61048 291.173276,300.684795 289.16306,305.700602 L193.494848,544.029534 C191.447634,549.102899 191.505186,554.673733 193.655172,559.705985 L294.519526,795.88881 C296.644847,800.921062 300.615949,804.810367 305.701098,806.849581 L544.020676,902.524037 C546.425536,903.490197 549.060605,904 551.638122,904 C554.462291,904 557.183688,903.440861 559.728318,902.330805 L795.869134,801.463755 C800.826845,799.375206 804.822613,795.300891 806.832829,790.280973 L902.505152,551.952041 C904.552366,546.878676 904.494814,541.311953 902.344828,536.27559 L801.476363,300.125656 Z" id="Fill-13" fill="#FF4221"></path>
                <path d="M919.346752,552.204506 L818.966549,802.263902 C816.95212,807.304643 813.095929,811.239381 808.10919,813.344487 L560.33449,919.183599 C557.806177,920.277267 555.105198,920.836436 552.317887,920.836436 C549.764907,920.836436 547.154373,920.326606 544.769947,919.368618 L294.717709,818.985511 C289.747415,816.995529 285.710336,813.036122 283.642464,808.12695 L177.806859,560.312451 C175.67321,555.32516 175.619766,549.807481 177.65475,544.774963 L278.034953,294.715567 C280.016493,289.748834 283.97135,285.711307 288.8882,283.639094 L536.695789,177.799981 C539.240546,176.710425 541.929192,176.167702 544.63017,176.167702 C547.195483,176.167702 549.769018,176.661086 552.231554,177.643743 L802.283792,278.02685 C807.249975,280.016832 811.287054,283.972128 813.359038,288.885411 L919.194642,536.667018 C921.324181,541.654309 921.381736,547.167876 919.346752,552.204506 Z M814.427918,288.429031 C812.240824,283.236163 807.973525,279.04651 802.719566,276.945516 L552.667329,176.562409 C547.318816,174.424412 541.481084,174.481973 536.239459,176.726871 L288.43187,282.565983 C283.235467,284.757431 279.050389,289.029315 276.949628,294.279744 L176.569425,544.343252 C174.423442,549.659466 174.476886,555.497844 176.737979,560.768831 L282.569472,808.579218 C284.760677,813.776198 289.027977,817.965851 294.281935,820.066845 L544.334173,920.449952 C546.858375,921.465501 549.612797,922 552.317887,922 C555.26553,922 558.12273,921.412051 560.794931,920.252598 L808.56552,814.413485 C813.835923,812.189145 817.914113,808.032384 820.051873,802.699725 L920.432077,552.636217 C922.57806,547.320003 922.520505,541.481624 920.263522,536.206526 L814.427918,288.429031 Z" id="Fill-15" fill="#FF4221"></path>
                <path d="M936.275114,551.886938 L831.182377,813.690299 C829.106177,818.891663 824.957887,823.126766 819.806444,825.29777 L560.400632,936.105328 C557.752963,937.256618 554.924397,937.836375 551.99716,937.836375 C549.320712,937.836375 546.582594,937.305959 544.082931,936.29858 L282.300796,831.206355 C277.091794,829.121698 272.861279,824.972942 270.686408,819.825031 L159.883092,560.377702 C157.650663,555.151667 157.593105,549.366435 159.722752,544.091059 L264.815489,282.295921 C266.928691,277.00821 270.970087,272.888236 276.195533,270.684338 L535.630124,159.876781 C538.294238,158.737826 541.118693,158.166292 543.943148,158.166292 C546.636041,158.166292 549.337157,158.684373 551.919046,159.716422 L813.705293,264.812759 C818.910183,266.893304 823.140698,271.037949 825.315569,276.189972 L936.114774,535.604407 C938.347203,540.830441 938.408873,546.611562 936.275114,551.886938 Z M826.384504,275.733567 C824.094517,270.301945 819.629658,265.927043 814.136978,263.727257 L552.350731,158.63092 C546.763491,156.39824 540.66234,156.459916 535.16966,158.803614 L275.743292,269.611171 C270.308169,271.901416 265.929648,276.366777 263.730109,281.860075 L158.641483,543.655214 C156.39672,549.222523 156.454278,555.324361 158.814157,560.838218 L269.617473,820.277323 C271.90746,825.713057 276.372319,830.087959 281.864999,832.287746 L543.651246,937.384082 C546.286582,938.444914 549.172706,939 551.99716,939 C555.084737,939 558.069532,938.387349 560.861097,937.174383 L820.258685,826.370937 C825.697919,824.076581 830.072329,819.615332 832.267757,814.122033 L937.360494,552.318671 C939.605257,546.759585 939.543588,540.661859 937.183709,535.148002 L826.384504,275.733567 Z" id="Fill-17" fill="#FF4221"></path>
                <path d="M954.206558,552.571639 L844.401095,826.105099 C842.226118,831.553399 837.8885,835.97783 832.498342,838.251725 L561.469168,954.027078 C558.689804,955.22776 555.733645,955.836325 552.678811,955.836325 C549.874777,955.836325 547.013183,955.281215 544.398277,954.228563 L270.877543,844.423724 C265.429824,842.240292 261.001753,837.906323 258.732213,832.51559 L142.960983,561.441061 C140.625659,555.976313 140.563987,549.927672 142.792412,544.405357 L252.597875,270.876009 C254.776963,265.427709 259.11047,261.003278 264.500628,258.733495 L535.566805,142.958142 C538.354393,141.765684 541.302328,141.165343 544.262598,141.165343 C547.078967,141.165343 549.899446,141.708117 552.600693,142.785441 L826.125538,252.594392 C831.573258,254.773712 835.997217,259.107681 838.266757,264.498414 L954.037987,535.535935 C956.373311,541.004795 956.434983,547.053436 954.206558,552.571639 Z M839.339855,264.04199 C836.94697,258.371646 832.292768,253.803298 826.557244,251.512956 L553.03651,141.704005 C547.202311,139.372543 540.829507,139.434222 535.106319,141.884929 L264.048365,257.660283 C258.378625,260.049311 253.806652,264.708122 251.512443,270.440145 L141.711091,543.969493 C139.367544,549.779643 139.433328,556.149014 141.896108,561.901597 L257.659115,832.967901 C260.052,838.638246 264.710314,843.210706 270.441726,845.50516 L543.966571,955.309999 C546.717156,956.416107 549.726764,957 552.678811,957 C555.893993,957 559.006388,956.35854 561.929655,955.096179 L832.954717,839.320825 C838.628568,836.927685 843.192318,832.268874 845.486527,826.540963 L955.29199,553.003392 C957.631426,547.201466 957.565642,540.836206 955.106973,535.079511 L839.339855,264.04199 Z" id="Fill-19" fill="#FF4221"></path>
                <path d="M971.133439,552.255599 L856.619955,837.523772 C854.346214,843.210795 849.815179,847.828675 844.194557,850.201352 L561.531153,970.940603 C558.640665,972.194792 555.552818,972.832166 552.353957,972.832166 C549.426464,972.832166 546.437297,972.252361 543.715386,971.154432 L258.457533,856.636776 C252.68478,854.329893 248.182527,849.917618 245.781325,844.210034 L125.042807,561.507806 C122.604601,555.79611 122.538814,549.479937 124.870118,543.718895 L239.37949,258.454835 C241.690236,252.681457 246.102033,248.178716 251.809,245.777254 L534.501185,125.033891 C537.416343,123.787927 540.495967,123.167001 543.583814,123.167001 C546.51953,123.167001 549.463469,123.730357 552.288171,124.857071 L837.541912,239.374727 C843.22832,241.648714 847.849812,246.176127 850.222232,251.805581 L970.956638,534.4708 C973.394845,540.174272 973.456519,546.490445 971.133439,552.255599 Z M851.295372,251.349139 C848.803714,245.440063 843.947859,240.67826 837.973635,238.293246 L552.719894,123.77559 C546.638768,121.345344 540.010792,121.411137 534.040681,123.964747 L251.352607,244.703998 C245.361937,247.228823 240.723999,251.957729 238.298127,258.018953 L123.784643,543.283014 C121.342325,549.336013 121.408111,555.968818 123.973779,561.964248 L244.708185,844.662364 C247.195732,850.57144 252.043364,855.329131 258.021698,857.722369 L543.279552,972.240025 C546.137147,973.387298 549.274333,974 552.353957,974 C555.713173,974 558.957262,973.329729 561.991658,972.009747 L844.646839,851.274608 C850.555276,848.78268 855.312451,843.930411 857.70543,837.959653 L972.218914,552.687368 C974.65712,546.638481 974.591334,540.005676 972.025666,534.010246 L851.295372,251.349139 Z" id="Fill-21" fill="#FF4221"></path>
                <path d="M989.061329,552.939012 L869.839006,849.94227 C867.466484,855.868024 862.746111,860.683471 856.886762,863.154934 L562.595331,988.862352 C559.585476,990.170048 556.365918,990.832121 553.035341,990.832121 C549.98848,990.832121 546.87583,990.22762 544.030448,989.084414 L247.037548,869.853792 C241.021951,867.448124 236.33036,862.846515 233.822148,856.904311 L108.119592,562.569905 C105.578485,556.619477 105.512696,550.035763 107.938671,544.031875 L227.160994,247.03273 C229.529404,241.106976 234.249777,236.291529 240.109126,233.820066 L534.437564,108.112648 C537.472089,106.813176 540.679312,106.16344 543.89887,106.16344 C546.958066,106.16344 550.03371,106.751492 552.969552,107.927596 L849.962452,227.154106 C855.887589,229.526875 860.702535,234.243628 863.177852,240.107699 L988.880408,534.400982 C991.421515,540.35141 991.487304,546.935125 989.061329,552.939012 Z M864.251038,239.651239 C861.660589,233.507535 856.607158,228.556384 850.394193,226.072584 L553.405405,106.846074 C547.089645,104.321152 540.185893,104.386948 533.977039,107.03935 L239.656825,232.746768 C233.509649,235.337487 228.563125,240.387332 226.075472,246.596832 L106.85315,543.600089 C104.316155,549.891834 104.386056,556.792192 107.050517,563.026365 L232.748962,857.356659 C235.339411,863.500363 240.38873,868.451514 246.605807,870.939426 L543.594595,990.165936 C546.575667,991.362601 549.840454,992 553.035341,992 C556.526279,992 559.897975,991.305029 563.059967,989.931537 L857.343175,864.224119 C863.486239,861.633401 868.432763,856.587668 870.924528,850.374056 L990.14685,553.370799 C992.683845,547.079054 992.613944,540.178696 989.949483,533.944522 L864.251038,239.651239 Z" id="Fill-23" fill="#FF4221"></path>
                <path d="M1005.98821,552.619917 L882.053488,861.357176 C879.590419,867.52164 874.676617,872.530524 868.578569,875.104877 L562.664584,1005.78 C559.52304,1007.1412 556.171786,1007.83208 552.713621,1007.83208 C549.539181,1007.83208 546.29895,1007.20289 543.342445,1006.0103 L234.615874,882.071256 C228.357459,879.566814 223.476552,874.784111 220.865453,868.594972 L90.1994398,562.637686 C87.5554443,556.448547 87.4855408,549.597315 90.0061773,543.34649 L213.94501,234.613344 C216.440975,228.358408 221.227306,223.477008 227.415818,220.865643 L533.366811,90.1946294 C536.528914,88.8416549 539.871944,88.1672239 543.219086,88.1672239 C546.40175,88.1672239 549.596749,88.7758568 552.656053,89.9972349 L861.382624,213.936276 C867.546465,216.403706 872.558954,221.313893 875.128934,227.412559 L1005.79906,533.336947 C1008.44717,539.526085 1008.51296,546.373205 1005.98821,552.619917 Z M876.202158,226.960197 C873.508818,220.577777 868.270171,215.437296 861.814381,212.854719 L553.08781,88.9156778 C546.520997,86.2919766 539.353836,86.3659995 532.910382,89.1212971 L226.963501,219.792311 C220.577615,222.485923 215.437655,227.729213 212.859451,234.177432 L88.9247297,542.91469 C86.2889581,549.449269 86.3629735,556.617155 89.1303281,563.09416 L219.796341,869.047334 C222.485568,875.429755 227.724216,880.570235 234.184118,883.156925 L542.910689,1007.09597 C546.002889,1008.33791 549.391151,1009 552.713621,1009 C556.332153,1009 559.839662,1008.27622 563.125124,1006.84922 L869.030885,876.178209 C875.416772,873.484597 880.556732,868.241307 883.139048,861.793088 L1007.07377,553.051718 C1009.70954,546.525364 1009.63964,539.353365 1006.86817,532.87636 L876.202158,226.960197 Z" id="Fill-25" fill="#FF4221"></path>
                <path d="M1023.91858,553.305955 L895.271951,873.779308 C892.710121,880.182524 887.611133,885.388992 881.274408,888.058027 L563.730852,1023.70175 C560.474079,1025.11646 556.991142,1025.83204 553.393066,1025.83204 C550.095172,1025.83204 546.731485,1025.17815 543.659757,1023.94027 L223.196619,895.291975 C216.7941,892.725753 211.588199,887.626211 208.919454,881.292908 L73.2781637,563.69833 C70.5312898,557.270439 70.4613843,550.151642 73.0848956,543.662062 L201.727415,223.192823 C204.289245,216.785494 209.392344,211.583138 215.724958,208.914104 L533.305523,73.2703829 C536.586968,71.8680087 540.057569,71.1647654 543.540506,71.1647654 C546.842512,71.1647654 550.165078,71.7980956 553.339609,73.0688688 L873.798634,201.721281 C880.209377,204.28339 885.411167,209.387045 888.084023,215.720348 L1023.71709,533.269688 C1026.46396,539.693467 1026.53798,546.812264 1023.91858,553.305955 Z M889.157278,215.263857 C886.369283,208.646789 880.928993,203.312832 874.234515,200.639684 L553.77549,71.9872722 C546.95765,69.2647745 539.52711,69.3429126 532.849081,72.201124 L215.272628,207.840732 C208.652169,210.62903 203.322904,216.065801 200.641824,222.761007 L71.9993047,543.230246 C69.2647671,550.00359 69.3346726,557.439052 72.2131332,564.158934 L207.8462,881.745287 C210.634194,888.366467 216.070373,893.696311 222.76485,896.377684 L543.227988,1025.02598 C546.435415,1026.31732 549.951249,1027 553.393066,1027 C557.151513,1027 560.786598,1026.24741 564.191405,1024.77101 L881.726737,889.131398 C888.347197,886.3431 893.676461,880.90633 896.357542,874.211124 L1025.00417,553.737772 C1027.73871,546.960315 1027.66058,539.524853 1024.78623,532.813197 L889.157278,215.263857 Z" id="Fill-27" fill="#FF4221"></path>
                <path d="M1040.84499,552.990896 L907.489934,885.194191 C904.833442,891.844343 899.536908,897.240138 892.965586,900.012063 L563.795022,1040.6194 C560.410668,1042.08762 556.804255,1042.83201 553.074475,1042.83201 C549.653111,1042.83201 546.161839,1042.15342 542.974872,1040.87027 L210.777717,907.509422 C204.132375,904.852651 198.733036,899.559672 195.961402,892.98766 L55.3606205,563.766035 C52.5067425,557.095319 52.4368348,549.713115 55.1550097,542.976597 L188.505954,210.777414 C191.162446,204.131374 196.454868,198.731467 203.030302,195.959541 L532.237876,55.3522019 C535.642791,53.8963243 539.24098,53.1642729 542.855618,53.1642729 C546.285206,53.1642729 549.727131,53.8222967 553.025128,55.1424568 L885.218171,188.50331 C891.962206,191.197095 897.22173,196.354356 900.038598,203.025072 L1040.63938,532.201457 C1043.49326,538.872173 1043.56317,546.254377 1040.84499,552.990896 Z M901.111886,202.568568 C898.175764,195.614079 892.685956,190.230622 885.654066,187.421683 L553.461023,54.0608303 C546.40446,51.2395534 538.706392,51.3176937 531.78142,54.2788007 L202.573846,194.88614 C195.714669,197.777332 190.196075,203.411661 187.424441,210.341473 L54.0693846,542.544768 C51.2360677,549.565059 51.3141998,557.26805 54.2914443,564.222539 L194.888114,893.440051 C197.774889,900.295836 203.408625,905.819123 210.345934,908.595161 L542.538977,1041.95601 C545.86576,1043.29262 549.509183,1044 553.074475,1044 C556.964631,1044 560.727309,1043.22271 564.25559,1041.68869 L893.41793,901.085465 C900.272994,898.198385 905.795701,892.559944 908.575559,885.630132 L1041.93062,553.422724 C1044.76393,546.402433 1044.6858,538.699442 1041.70856,531.744953 L901.111886,202.568568 Z" id="Fill-29" fill="#FF4221"></path>
                <path d="M1058.77338,553.168802 L920.710253,896.776717 C917.913871,903.757511 912.567847,909.201626 905.663251,912.114742 L564.862431,1057.54864 C561.358729,1059.06477 557.620625,1059.83311 553.750926,1059.83311 C550.214325,1059.83311 546.595478,1059.13462 543.285055,1057.80338 L199.36298,919.867984 C192.372025,917.074023 186.923193,911.736735 184.007553,904.834008 L38.4435382,564.315885 C35.4867755,557.409049 35.4086413,549.770852 38.2296972,542.802385 L176.292829,199.198579 C179.043975,192.316395 184.529819,186.724364 191.339831,183.860554 L532.177662,38.4266595 C535.706038,36.9187422 539.435918,36.1668379 543.174022,36.1668379 C546.727072,36.1668379 550.300684,36.8488932 553.713915,38.2130036 L897.640102,176.1484 C904.528249,178.901273 910.121013,184.378259 912.991417,191.182376 L1058.55954,531.655302 C1061.51631,538.55392 1061.59444,546.196226 1058.77338,553.168802 Z M914.064734,190.726303 C911.075073,183.642789 905.247906,177.935713 898.076009,175.067794 L554.145709,37.132398 C546.854554,34.2110652 538.888978,34.2973492 531.721194,37.3542714 L190.887475,182.788166 C183.7896,185.775239 178.077579,191.597361 175.211287,198.76305 L37.144043,542.366855 C34.207842,549.627046 34.2900886,557.581617 37.3743333,564.771958 L182.934236,905.285972 C185.973245,912.476313 191.652368,918.039583 198.927073,920.952698 L542.853261,1058.88809 C546.29939,1060.26864 550.066281,1061 553.750926,1061 C557.781005,1061 561.675378,1060.19468 565.327124,1058.61692 L906.115607,913.18713 C913.312178,910.15486 918.876156,904.480654 921.791795,897.208137 L1059.85904,553.600223 C1062.79113,546.344141 1062.70888,538.381352 1059.62875,531.19512 L914.064734,190.726303 Z" id="Fill-31" fill="#FF4221"></path>
                <path d="M1075.70287,553.851976 L932.926633,909.195126 C930.080814,916.311933 924.405625,922.093311 917.356876,925.068235 L564.93177,1075.46625 C561.304584,1077.03589 557.434763,1077.83715 553.433344,1077.83715 C549.765034,1077.83715 546.022699,1077.10986 542.601136,1075.73334 L186.939527,933.084915 C179.808529,930.237371 174.022304,924.566936 171.053111,917.5282 L20.5166748,565.38186 C17.4611203,558.236291 17.3788712,550.334663 20.2946022,543.115131 L163.074948,187.776089 C165.920767,180.655174 171.595956,174.873795 178.644704,171.90298 L531.110935,21.5049649 C534.762796,19.9435408 538.620279,19.1628287 542.494212,19.1628287 C546.170748,19.1628287 549.863733,19.8695786 553.396332,21.2830783 L909.062053,163.92739 C916.188939,166.774935 921.979276,172.44537 924.948469,179.488214 L1075.48491,531.589355 C1078.53635,538.734925 1078.6186,546.640662 1075.70287,553.851976 Z M926.02182,179.032114 C922.933366,171.709857 916.908619,165.809317 909.493861,162.846721 L553.832252,20.2024085 C546.290009,17.1863945 538.065098,17.2726837 530.654453,20.4325131 L178.192334,170.834638 C170.859826,173.920505 164.95434,179.936097 161.989259,187.340534 L19.2130263,542.679575 C16.1821466,550.182629 16.2685081,558.408869 19.4474363,565.837961 L169.983873,917.980191 C173.068215,925.29834 179.092962,931.198879 186.503607,934.169694 L542.169328,1076.81401 C545.72249,1078.24394 549.616985,1079 553.433344,1079 C557.595149,1079 561.617131,1078.17409 565.392365,1076.53459 L917.809246,926.140687 C925.145867,923.050711 931.047241,917.03101 934.012321,909.626572 L1076.78855,554.283422 C1079.81532,546.788586 1079.73307,538.562347 1076.55414,531.133255 L926.02182,179.032114 Z" id="Fill-33" fill="#FF4221"></path>
                <g id="Group-37">
                    <mask id="mask-2" fill="white">
                        <use xlink:href="#path-1"></use>
                    </mask>
                    <g id="Clip-36"></g>
                    <path d="M1093.58004,554.127004 L946.098485,921.479971 C943.154036,928.845207 937.289811,934.82869 930.006822,937.900622 L565.968418,1093.38482 C562.222058,1095.00921 558.220733,1095.83579 554.083699,1095.83579 C550.287991,1095.83579 546.414148,1095.08323 542.889856,1093.66035 L175.512216,946.191139 C168.040058,943.201454 162.208733,937.489387 159.091564,930.099476 L3.59502472,566.04051 C0.440844944,558.6506 0.354485393,550.467004 3.36884494,543.011297 L150.846283,175.65833 C153.835969,168.182061 159.552148,162.350735 166.942058,159.241791 L531.021587,3.7534764 C534.79262,2.14143146 538.785721,1.33540899 542.782935,1.33540899 C546.586867,1.33540899 550.403137,2.06329663 554.054912,3.52318427 L921.436665,150.99651 C928.801901,153.94096 934.785384,159.805184 937.857317,167.088173 L1093.34974,531.093679 C1096.51215,538.487701 1096.59028,546.667184 1093.58004,554.127004 M1094.41896,530.637207 L938.930643,166.631701 C935.735339,159.069072 929.517452,152.974555 921.868463,149.91496 L554.48671,2.44574607 C546.706126,-0.675534831 538.201766,-0.589175281 530.565115,2.68426292 L166.489699,158.164353 C158.807811,161.40078 152.869564,167.458285 149.76062,175.22242 L2.28318202,542.575387 C-0.842211236,550.323072 -0.755851685,558.819207 2.52581124,566.501094 L158.018238,930.551836 C161.254665,938.225499 167.316283,944.167858 175.076306,947.276802 L542.453946,1094.74602 C546.118058,1096.21824 550.139946,1096.99959 554.083699,1096.99959 C558.381115,1096.99959 562.53871,1096.14422 566.429002,1094.45404 L930.459182,938.973948 C938.030036,935.782757 944.12044,929.56487 947.180036,921.915881 L1094.6657,554.558802 C1097.79109,546.815229 1097.70473,538.314982 1094.41896,530.637207" id="Fill-35" fill="#FF4221" mask="url(#mask-2)"></path>
                </g>
            </g>
        </g>
    </g>
</svg>