<svg width="42" height="42" viewBox="0 0 42 42" fill="none" xmlns="http://www.w3.org/2000/svg">
<path fill-rule="evenodd" clip-rule="evenodd" d="M40.91 20.3528L35.2335 7.06338C35.1186 6.78985 34.898 6.57515 34.6227 6.46487L21.2117 1.08072C20.9364 0.970797 20.6283 0.972624 20.3547 1.08938L7.0641 6.76578C6.79022 6.8811 6.57549 7.10129 6.46522 7.37698L1.08168 20.7881C0.969602 21.0656 0.973223 21.3716 1.09034 21.6455L6.76643 34.9366C6.88175 35.2101 7.10231 35.4249 7.37727 35.5352L20.7883 40.919C20.9209 40.9727 21.0639 41 21.2048 41C21.3544 41 21.5043 40.971 21.647 40.909L34.9359 35.2324C35.2097 35.1171 35.4245 34.8966 35.5348 34.6216L40.9183 21.2102C41.0304 20.9327 41.0267 20.6267 40.91 20.3528Z" stroke="#FF4221"/>
<path fill-rule="evenodd" clip-rule="evenodd" d="M29 16.4204C28.4478 16.6615 27.855 16.8241 27.2323 16.8975C27.868 16.5225 28.3558 15.9287 28.5857 15.2214C27.9909 15.5684 27.3322 15.8208 26.6315 15.9565C26.0699 15.3677 25.2701 15 24.3851 15C22.6855 15 21.3076 16.3562 21.3076 18.0291C21.3076 18.2666 21.3347 18.4978 21.3873 18.7195C18.8298 18.5933 16.5616 17.3871 15.0441 15.5542C14.7792 16.0018 14.6274 16.5222 14.6274 17.0774C14.6274 18.1283 15.1706 19.0554 15.9963 19.5989C15.4921 19.5831 15.0174 19.4469 14.6024 19.22C14.6021 19.2325 14.6021 19.2452 14.6021 19.2581C14.6021 20.7258 15.6632 21.9504 17.0707 22.2285C16.8128 22.2979 16.5409 22.335 16.2599 22.335C16.0619 22.335 15.8693 22.3158 15.6812 22.2805C16.0728 23.4839 17.2097 24.36 18.5559 24.3843C17.5025 25.197 16.176 25.6812 14.734 25.6812C14.4857 25.6812 14.2408 25.6667 14 25.6384C15.3617 26.4982 16.979 27 18.7175 27C24.3777 27 27.4734 22.3837 27.4734 18.3804C27.4734 18.2494 27.4705 18.1184 27.4645 17.9883C28.0658 17.5614 28.5873 17.0281 29 16.4204Z" fill="#FF4221"/>
</svg>
