<svg width="200" height="71" viewBox="0 0 200 71" fill="none" xmlns="http://www.w3.org/2000/svg">
<g clip-path="url(#clip0)">
<path d="M140.878 46.0728C139.707 46.0728 138.698 46.4904 137.856 47.3301C137.021 48.172 136.599 49.1678 136.599 50.3196C136.599 52.0781 137.482 53.4409 139.258 54.4213C141.193 54.9445 142.753 54.6016 143.927 53.3992C144.335 53.0041 144.657 52.5298 144.874 52.0054C145.091 51.481 145.198 50.9178 145.189 50.3504C145.189 49.1634 144.771 48.1522 143.936 47.3389C143.543 46.934 143.071 46.6139 142.549 46.3984C142.027 46.1829 141.467 46.0766 140.903 46.086L140.878 46.0728ZM72.0108 13.4965H68.8169C67.4387 13.4965 66.3199 14.6109 66.3199 15.9913V17.7718C62.9347 14.2394 59.066 12.4743 54.7797 12.4743C49.8119 12.4743 45.6794 14.3164 42.3602 18.0004C39.063 21.6867 37.4144 26.2918 37.4144 31.8179C37.4144 37.4451 39.063 42.1425 42.3822 45.8991C45.7234 49.5876 49.9438 51.4296 55.0434 51.4296C59.0836 51.4296 62.8578 49.7898 66.3638 46.5058V50.0316C66.3638 51.7396 67.7574 53.131 69.4632 53.131H74.9234V16.3562C74.9234 14.778 73.6418 13.4943 72.0614 13.4943L72.0108 13.4965ZM63.9371 40.5599C61.9939 42.7316 59.4463 43.8131 56.2876 43.8131C53.3355 43.8131 50.8868 42.6921 48.9458 40.45C47.051 38.2299 46.1058 35.3503 46.1058 31.8157C46.1058 28.4965 47.073 25.7269 49.0206 23.4848C50.9989 21.2647 53.4388 20.1436 56.3843 20.1436C59.4837 20.1436 62.0115 21.2427 63.9679 23.4408C65.9198 25.6829 66.8914 28.5405 66.8914 31.9916C66.8914 35.4426 65.9242 38.3002 63.9789 40.5423L63.9371 40.5599ZM37.399 19.7216V16.0727C37.3996 15.7346 37.3335 15.3997 37.2045 15.0871C37.0755 14.7746 36.8862 14.4906 36.6473 14.2513C36.4084 14.012 36.1247 13.8222 35.8124 13.6927C35.5001 13.5631 35.1653 13.4965 34.8272 13.4965H31.4553C30.7732 13.4965 30.119 13.7674 29.6367 14.2497C29.1544 14.732 28.8835 15.3862 28.8835 16.0683V17.6619C25.8061 14.2021 21.9418 12.4743 17.2993 12.4743C12.0018 12.4743 7.73303 14.468 4.50617 18.4533C1.49913 22.2121 0 26.7842 0 32.1608C0 37.6869 1.61563 42.2942 4.84688 45.9783C8.05176 49.6162 12.1667 51.4296 17.1872 51.4296C21.5835 51.4296 25.4961 49.7019 28.8813 46.2465V51.3945C28.8813 59.044 25.7599 62.8687 19.5172 62.8687C16.1321 62.8687 13.5603 61.7169 11.7798 59.4177C11.2843 58.7618 10.9051 58.0257 10.6587 57.2415C10.4526 56.6487 10.0663 56.1351 9.554 55.7725C9.04166 55.4099 8.42883 55.2165 7.80117 55.2192H4.61608C2.98287 55.2192 1.77389 56.7579 2.18714 58.334C3.0664 61.6971 4.76995 64.4272 7.30879 66.533C10.4851 69.1818 14.5341 70.505 19.4535 70.505C25.2829 70.505 29.8638 68.5861 33.1918 64.7525C34.9613 62.7566 36.1461 60.3738 36.7528 57.5954C36.955 56.5843 37.1133 55.4193 37.2254 54.0916C37.3397 52.7683 37.3946 51.234 37.3946 49.4931V44.1516C35.0075 40.7225 33.8117 36.612 33.8117 31.8421C33.8117 27.1601 35.0075 23.1155 37.3946 19.7524L37.399 19.7216ZM26.6128 40.2609C24.7224 42.6349 22.1462 43.8219 18.8886 43.8219C15.6353 43.8219 13.0855 42.6569 11.2391 40.3049C9.55089 38.1727 8.70461 35.425 8.70461 32.0619C8.70461 28.6548 9.55089 25.8851 11.2413 23.731C13.1097 21.335 15.6595 20.148 18.8908 20.148C21.9176 20.148 24.4015 21.2471 26.3468 23.4452C28.2636 25.5994 29.2264 28.457 29.2264 32.0399C29.2264 35.4031 28.3515 38.1507 26.6106 40.3049L26.6128 40.2609ZM108.203 13.5294V13.4943H90.5411V2.68385C90.5411 1.29243 89.4157 0.164791 88.0242 0.164791H84.5732C83.1664 0.164791 82.0233 1.30782 82.0233 2.71463V13.4943H78.3898V21.4427H82.0233V53.1266H86.8856C88.9035 53.1266 90.5411 51.4912 90.5411 49.4689V21.4427H99.2787C99.9615 20.1317 100.806 18.9117 101.793 17.8114C103.596 15.8331 105.728 14.4043 108.19 13.525L108.203 13.5294ZM151.671 0.164791C150.154 0.164791 148.858 0.70773 147.774 1.79141C146.688 2.87729 146.143 4.16539 146.143 5.65353C146.143 7.2186 146.688 8.54188 147.774 9.62775C148.855 10.7136 150.17 11.2544 151.709 11.2544C153.247 11.2544 154.549 10.7114 155.608 9.62775C156.707 8.54188 157.235 7.23179 157.235 5.6931C157.235 4.1544 156.705 2.84651 155.606 1.79141C155.096 1.26584 154.484 0.850352 153.807 0.570586C153.13 0.29082 152.403 0.152714 151.671 0.164791V0.164791ZM153.392 17.6685H150.308C148.717 17.6685 147.429 18.9544 147.429 20.5437V47.6027C148.077 48.372 148.396 49.2733 148.396 50.3064C148.396 51.3395 148.075 52.2627 147.429 53.0321V54.5488H152.907C154.586 54.5488 155.947 53.2079 155.947 51.5154V20.2337C155.947 18.8203 154.804 17.6773 153.392 17.6773V17.6685ZM193.42 22.8935C189.585 19.1347 184.914 17.2553 179.418 17.2553C173.94 17.2553 169.296 19.1237 165.482 22.8605C161.675 26.5929 159.767 31.1255 159.767 36.445C159.767 42.103 161.635 46.7982 165.372 50.535C169.109 54.3158 173.738 56.2106 179.264 56.2106C184.839 56.2106 189.545 54.3554 193.383 50.6493C197.195 46.9125 199.102 42.2788 199.102 36.7571C199.102 31.275 197.212 26.6567 193.423 22.8957L193.42 22.8935ZM187.404 45.387C185.408 47.5302 182.751 48.5963 179.418 48.5963C176.108 48.5963 173.446 47.5192 171.428 45.343C169.458 43.202 168.474 40.2873 168.474 36.6032C168.474 33.1698 169.485 30.3693 171.507 28.1998C173.529 26.0302 176.158 24.9465 179.42 24.9465C182.718 24.9465 185.386 26.0302 187.404 28.1998C189.396 30.3452 190.393 33.2115 190.393 36.7901C190.393 40.373 189.396 43.235 187.404 45.3848V45.387Z" fill="black"/>
<path d="M111.371 43.9012C109.628 42.1119 108.645 39.7028 108.416 36.6694H132.833C133.369 36.6695 133.883 36.4595 134.265 36.0847C134.647 35.7098 134.867 35.1999 134.877 34.6647C134.877 28.5824 133.317 23.8279 130.184 20.3922C127.028 16.9345 122.739 15.2046 117.314 15.2046C111.94 15.2046 107.625 16.9851 104.367 20.5461C101.136 24.151 99.5227 28.8726 99.5227 34.702C99.5227 40.5798 101.189 45.3036 104.519 48.858C106.827 51.3265 109.685 52.9289 113.07 53.6719C114.501 54.0226 115.971 54.1881 117.444 54.1643C123.511 54.2896 128.786 54.4127 134.831 54.538V53.6499C134.084 52.8432 133.71 51.8695 133.71 50.7352C133.71 49.6361 134.091 48.6822 134.853 47.8666V46.7896C130.068 46.6797 118.477 46.5697 118.022 46.5697C115.297 46.5697 113.063 45.6905 111.324 43.932L111.371 43.9012ZM110.195 26.8657C110.744 26.0348 111.382 25.3226 112.107 24.7291C113.644 23.5124 115.554 22.864 117.514 22.8937C122.065 22.8937 124.922 25.1643 126.109 29.7079H108.986C109.271 28.6462 109.667 27.701 110.195 26.8679V26.8657Z" fill="black"/>
</g>
<defs>
<clipPath id="clip0">
<rect width="200" height="70.6694" fill="white"/>
</clipPath>
</defs>
</svg>
