<svg width="300" height="60" viewBox="0 0 300 60" fill="none" xmlns="http://www.w3.org/2000/svg">
  <path fill-rule="evenodd" clip-rule="evenodd" d="M0 17.2161V42.7839L42.032 60L84.0639 42.7839V17.2161L42.032 0L0 17.2161ZM75.7091 38.9377L42.032 52.7473L8.35482 38.9377V28.7912L46.7251 44.5055L55.7504 40.3663L41.8773 34.6886L49.5616 28.1319L75.7091 38.8278V38.9377ZM75.7091 31.0256L35.8948 14.7985L26.7148 18.7912L41.31 24.7619L33.6256 31.3187L8.40639 20.989V20.9158L42.0835 7.10623L75.7607 20.9158V31.0623L75.7091 31.0256ZM134.193 27.3993H119.443V17.033H111.552V43.4799H119.443V32.0513H134.193V43.4799H142.084V17.033H134.193V27.3993ZM271.893 17.033V21.685H282.001V43.4799H289.892V21.685H300V17.033H271.893ZM167.612 16.63C161.888 16.63 157.504 17.8022 154.409 20.1099C151.367 22.4176 149.819 25.7875 149.819 30.1832C149.819 34.5788 151.367 37.9487 154.409 40.3297C157.452 42.674 161.836 43.8462 167.561 43.8462C173.285 43.8462 177.669 42.674 180.712 40.3297C183.755 37.9853 185.302 34.6154 185.302 30.2198C185.302 25.8242 183.806 22.4542 180.763 20.1099C177.72 17.7656 173.337 16.5934 167.612 16.5934V16.63ZM167.561 39.1575C164.415 39.1575 162.042 38.4249 160.495 36.9231C158.896 35.4212 158.123 33.1868 158.123 30.2564C158.123 27.2894 158.896 25.0549 160.495 23.5531C162.094 22.0513 164.466 21.2821 167.612 21.2821C173.904 21.2821 176.998 24.2491 176.998 30.2198C176.998 36.1538 173.852 39.1575 167.561 39.1575ZM189.376 21.7216H199.484V43.5165H207.375V21.7216H217.483V17.0696H189.376V21.7216ZM258.277 43.5165H266.168V17.0696H258.277V43.5165ZM244.146 29.6703V29.4872C245.9 29.2674 247.292 28.6813 248.324 27.6557C249.355 26.63 249.871 25.348 249.871 23.7729C249.871 21.4286 248.685 19.7436 246.313 18.6813C243.94 17.619 240.072 17.0696 234.812 17.0696H223.208V43.5165H237.133C241.362 43.5165 244.662 42.8571 247.138 41.5018C249.613 40.1465 250.799 38.2784 250.799 35.8608C250.799 34.1758 250.284 32.7839 249.252 31.7582C248.221 30.7326 246.519 30.0366 244.146 29.6703ZM231.098 21.685H235.276C237.545 21.685 239.195 21.9048 240.227 22.3443C241.258 22.7839 241.774 23.5165 241.774 24.5421C241.774 25.641 241.31 26.4103 240.33 26.8864C239.35 27.3626 237.803 27.5824 235.688 27.5824H231.098V21.685ZM241.052 38.022C240.021 38.6081 238.422 38.9011 236.256 38.9011H231.098V32.0147H235.998C240.433 32.0147 242.599 33.1136 242.599 35.3114C242.599 36.5201 242.084 37.4359 241.052 38.022Z" fill="#2CAC91"/>
</svg>
