<svg xmlns="http://www.w3.org/2000/svg" viewBox="0 0 1143.47 201.68"><path style="fill:#4231c8;" d="M4,193.67V13.09A5.49,5.49,0,0,1,5.55,8.82,5.49,5.49,0,0,1,9.43,7.4H92.48a53.92,53.92,0,0,1,24.19,5.43,62.12,62.12,0,0,1,18.89,14.23,65.84,65.84,0,0,1,12.28,20.05A63,63,0,0,1,148,93a65,65,0,0,1-12,19.92,59,59,0,0,1-18.63,14.1,54,54,0,0,1-24,5.3H53.67v61.32c0,3.8-2,5.69-6,5.69H9.43C5.81,199.36,4,197.47,4,193.67ZM81.61,48.28H53.67v43.2H81.61q9.57,0,14.75-6.6A23.44,23.44,0,0,0,101.53,70a22.33,22.33,0,0,0-1.42-7.76,25.31,25.31,0,0,0-3.88-7,18.94,18.94,0,0,0-6.21-5A18.06,18.06,0,0,0,81.61,48.28Z"></path><path style="fill:#4231c8;" d="M218.73,193.67V13.09A6.57,6.57,0,0,1,220,9.21a4.72,4.72,0,0,1,4.14-1.81h85.9A55.51,55.51,0,0,1,335,13a63.77,63.77,0,0,1,19.4,14.62A65.42,65.42,0,0,1,367,48.14a66.11,66.11,0,0,1,4.4,23.68,56.41,56.41,0,0,1-8.67,29.75,71.24,71.24,0,0,1-22.9,23.28l37,68.82a4,4,0,0,1,.51,3.88c-.51,1.21-1.72,1.81-3.62,1.81H327.13a6.63,6.63,0,0,1-4.14-1,12.71,12.71,0,0,1-2.85-4.4l-30.78-58.47h-20.7v58.21c0,3.8-1.89,5.69-5.69,5.69H224.16C220.55,199.36,218.73,197.47,218.73,193.67ZM297.38,47.24H268.66V94.07h28.72a21.72,21.72,0,0,0,9.31-1.94A24.22,24.22,0,0,0,313.94,87a22.76,22.76,0,0,0,4.78-7.51,23.5,23.5,0,0,0,1.69-8.67,22.93,22.93,0,0,0-1.69-8.41,24.37,24.37,0,0,0-4.78-7.63,25,25,0,0,0-7.25-5.43A20.52,20.52,0,0,0,297.38,47.24Z"></path><path style="fill:#4231c8;" d="M430.36,103.64A96.46,96.46,0,0,1,438.12,65,101.4,101.4,0,0,1,459.2,33.53a98.27,98.27,0,0,1,31.44-21.22,99.31,99.31,0,0,1,77,0A99.54,99.54,0,0,1,620.25,65,96.46,96.46,0,0,1,628,103.64a95.8,95.8,0,0,1-7.76,38.42A98.5,98.5,0,0,1,599,173.37a101.4,101.4,0,0,1-31.43,21.08,99.31,99.31,0,0,1-77,0,98.13,98.13,0,0,1-52.52-52.39A95.8,95.8,0,0,1,430.36,103.64Zm49.93-.26a55.11,55.11,0,0,0,3.62,20.18A49.44,49.44,0,0,0,494,139.73a47.4,47.4,0,0,0,15.52,10.86,48.76,48.76,0,0,0,54.85-10.86,49.28,49.28,0,0,0,10.09-16.17,55.11,55.11,0,0,0,3.62-20.18,54.37,54.37,0,0,0-3.62-19.92,50.83,50.83,0,0,0-10.09-16.3,46.53,46.53,0,0,0-15.52-11,50.22,50.22,0,0,0-39.33,0,46.43,46.43,0,0,0-15.52,11,51,51,0,0,0-10.09,16.3A54.37,54.37,0,0,0,480.29,103.38Z"></path><path style="fill:#4231c8;" d="M702.78,7.4h76.06a51.92,51.92,0,0,1,19.8,3.75,50.41,50.41,0,0,1,16,10.35A49.58,49.58,0,0,1,825.54,37a47,47,0,0,1,4,19.54,45.5,45.5,0,0,1-6.21,23.66,53.64,53.64,0,0,1-16,17.21,48,48,0,0,1,12.94,7.89,53.76,53.76,0,0,1,16.81,25.61,53.15,53.15,0,0,1,2.34,15.66,52.48,52.48,0,0,1-3.89,19.92,53.33,53.33,0,0,1-10.74,16.82,51.76,51.76,0,0,1-16.16,11.51,50.17,50.17,0,0,1-19.93,4.52H702.53c-2.59,0-3.89-1.2-3.89-3.62V12.31Q698.64,7.4,702.78,7.4ZM814.55,56.56a34.82,34.82,0,0,0-2.72-13.85,31.42,31.42,0,0,0-7.63-10.86,37,37,0,0,0-11.38-7.12,38.13,38.13,0,0,0-14.23-2.59h-65.2V92.52h65.2a36.65,36.65,0,0,0,14.09-2.72,35,35,0,0,0,19.15-19A36.37,36.37,0,0,0,814.55,56.56Zm9.83,90a37.66,37.66,0,0,0-3-14.62,43.62,43.62,0,0,0-7.89-12.55,39.9,39.9,0,0,0-11.51-8.8,30.77,30.77,0,0,0-14.1-3.36H713.39v77.36h75.28a31.86,31.86,0,0,0,14-3.11,36.57,36.57,0,0,0,11.26-8.28,40.53,40.53,0,0,0,7.64-12A37.9,37.9,0,0,0,824.38,146.59Z"></path><path style="fill:#4231c8;" d="M912.6,194.71V12.05c0-3.1,1.63-4.65,4.91-4.65h5.18q4.9,0,4.91,4.65V194.71q0,4.65-4.91,4.65h-5.18C914.23,199.36,912.6,197.81,912.6,194.71Z"></path><path style="fill:#4231c8;" d="M997.2,7.4h135.31a5.89,5.89,0,0,1,3.62,1.16,4.1,4.1,0,0,1,1.55,3.49v5.7c0,3.1-1.73,4.65-5.17,4.65h-60V194.71c0,3.1-1.56,4.65-4.66,4.65h-5.44q-4.65,0-4.65-4.65V22.4H997.2q-4.66,0-4.66-5.17V12.05Q992.54,7.4,997.2,7.4Z"></path></svg>
