<?xml version="1.0" encoding="UTF-8"?>
<svg width="159" height="30" viewBox="-2 0 65 60" version="1.1" xmlns="http://www.w3.org/2000/svg" xmlns:xlink="http://www.w3.org/1999/xlink">
    <!-- Generator: Sketch 52.6 (67491) - http://www.bohemiancoding.com/sketch -->
    <title>Group 16</title>
    <desc>Created with Sketch.</desc>
    <g id="main" stroke="none" stroke-width="1" fill="none" fill-rule="evenodd">
        <g id="Tech" transform="translate(-70.000000, -35.000000)" fill="#000000">
            <g id="Group-16" transform="translate(70.000000, 34.000000)">
                <g id="Group-15" transform="translate(0.000000, 0.830280)">
                    <path d="M11.16384,48.039 L29.49744,55.3986 L47.66544,47.6394 L55.02744,29.3058 L47.26824,11.1378 L28.93464,3.777 L10.76184,11.5386 L3.40224,29.871 L11.16384,48.039 Z M29.51544,58.7994 C29.30904,58.7994 29.10024,58.7598 28.90704,58.6818 L9.31584,50.817 C8.91384,50.6562 8.59104,50.3418 8.42424,49.9422 L0.13224,30.5274 C-0.03936,30.1278 -0.04416,29.6802 0.11904,29.2758 L7.98384,9.6846 C8.14464,9.2826 8.45904,8.961 8.85864,8.7918 L28.27344,0.501 C28.67304,0.3294 29.12304,0.327 29.52624,0.4878 L49.11624,8.3526 C49.51824,8.5134 49.83984,8.8278 50.00904,9.2274 L58.29984,28.6386 C58.47144,29.0394 58.47624,29.487 58.31304,29.8914 L50.44824,49.4826 C50.28864,49.8846 49.97424,50.2062 49.57344,50.3742 L30.16104,58.6662 C29.95224,58.7574 29.73504,58.7994 29.51544,58.7994 Z" id="Fill-9"></path>
                    <polygon id="Fill-10" points="33.43176 29.27736 25.58016 37.92456 37.95456 37.92456 37.95456 41.65056 20.47896 41.65056 20.47896 37.92456 28.25736 29.31336 20.51376 21.24456 20.51376 17.51856 37.95456 17.51856 37.95456 21.24456 25.76016 21.24456"></polygon>
                </g>
            </g>
        </g>
    </g>
</svg>
